  0
SECTION
  2
HEADER
  9
$ACADVER
  1
AC1027
  9
$ACADMAINTVER
 70
   125
  9
$DWGCODEPAGE
  3
ANSI_1252
  9
$LASTSAVEDBY
  1
Megaturbo
  9
$REQUIREDVERSIONS
160
                 0
  9
$INSBASE
 10
0.0
 20
0.0
 30
0.0
  9
$EXTMIN
 10
-0.3721346218153485
 20
0.5860133398346079
 30
-0.0000000349181948
  9
$EXTMAX
 10
274.0980751843963
 20
74.81057955931465
 30
0.0000000814935746
  9
$LIMMIN
 10
0.0
 20
0.0
  9
$LIMMAX
 10
12.0
 20
9.0
  9
$ORTHOMODE
 70
     0
  9
$REGENMODE
 70
     1
  9
$FILLMODE
 70
     1
  9
$QTEXTMODE
 70
     0
  9
$MIRRTEXT
 70
     0
  9
$LTSCALE
 40
1.0
  9
$ATTMODE
 70
     1
  9
$TEXTSIZE
 40
0.2
  9
$TRACEWID
 40
0.05
  9
$TEXTSTYLE
  7
Standard
  9
$CLAYER
  8
0
  9
$CELTYPE
  6
ByLayer
  9
$CECOLOR
 62
   256
  9
$CELTSCALE
 40
1.0
  9
$DISPSILH
 70
     0
  9
$DIMSCALE
 40
1.0
  9
$DIMASZ
 40
0.18
  9
$DIMEXO
 40
0.0625
  9
$DIMDLI
 40
0.38
  9
$DIMRND
 40
0.0
  9
$DIMDLE
 40
0.0
  9
$DIMEXE
 40
0.18
  9
$DIMTP
 40
0.0
  9
$DIMTM
 40
0.0
  9
$DIMTXT
 40
0.18
  9
$DIMCEN
 40
0.09
  9
$DIMTSZ
 40
0.0
  9
$DIMTOL
 70
     0
  9
$DIMLIM
 70
     0
  9
$DIMTIH
 70
     1
  9
$DIMTOH
 70
     1
  9
$DIMSE1
 70
     0
  9
$DIMSE2
 70
     0
  9
$DIMTAD
 70
     0
  9
$DIMZIN
 70
     0
  9
$DIMBLK
  1

  9
$DIMASO
 70
     1
  9
$DIMSHO
 70
     1
  9
$DIMPOST
  1

  9
$DIMAPOST
  1

  9
$DIMALT
 70
     0
  9
$DIMALTD
 70
     2
  9
$DIMALTF
 40
25.4
  9
$DIMLFAC
 40
1.0
  9
$DIMTOFL
 70
     0
  9
$DIMTVP
 40
0.0
  9
$DIMTIX
 70
     0
  9
$DIMSOXD
 70
     0
  9
$DIMSAH
 70
     0
  9
$DIMBLK1
  1

  9
$DIMBLK2
  1

  9
$DIMSTYLE
  2
Standard
  9
$DIMCLRD
 70
     0
  9
$DIMCLRE
 70
     0
  9
$DIMCLRT
 70
     0
  9
$DIMTFAC
 40
1.0
  9
$DIMGAP
 40
0.09
  9
$DIMJUST
 70
     0
  9
$DIMSD1
 70
     0
  9
$DIMSD2
 70
     0
  9
$DIMTOLJ
 70
     1
  9
$DIMTZIN
 70
     0
  9
$DIMALTZ
 70
     0
  9
$DIMALTTZ
 70
     0
  9
$DIMUPT
 70
     0
  9
$DIMDEC
 70
     4
  9
$DIMTDEC
 70
     4
  9
$DIMALTU
 70
     2
  9
$DIMALTTD
 70
     2
  9
$DIMTXSTY
  7
Standard
  9
$DIMAUNIT
 70
     0
  9
$DIMADEC
 70
     0
  9
$DIMALTRND
 40
0.0
  9
$DIMAZIN
 70
     0
  9
$DIMDSEP
 70
    46
  9
$DIMATFIT
 70
     3
  9
$DIMFRAC
 70
     0
  9
$DIMLDRBLK
  1

  9
$DIMLUNIT
 70
     2
  9
$DIMLWD
 70
    -2
  9
$DIMLWE
 70
    -2
  9
$DIMTMOVE
 70
     0
  9
$DIMFXL
 40
1.0
  9
$DIMFXLON
 70
     0
  9
$DIMJOGANG
 40
0.7853981633974483
  9
$DIMTFILL
 70
     0
  9
$DIMTFILLCLR
 70
     0
  9
$DIMARCSYM
 70
     0
  9
$DIMLTYPE
  6

  9
$DIMLTEX1
  6

  9
$DIMLTEX2
  6

  9
$DIMTXTDIRECTION
 70
     0
  9
$LUNITS
 70
     2
  9
$LUPREC
 70
     4
  9
$SKETCHINC
 40
0.1
  9
$FILLETRAD
 40
0.0
  9
$AUNITS
 70
     0
  9
$AUPREC
 70
     0
  9
$MENU
  1
.
  9
$ELEVATION
 40
0.0
  9
$PELEVATION
 40
0.0
  9
$THICKNESS
 40
0.0
  9
$LIMCHECK
 70
     0
  9
$CHAMFERA
 40
0.0
  9
$CHAMFERB
 40
0.0
  9
$CHAMFERC
 40
0.0
  9
$CHAMFERD
 40
0.0
  9
$SKPOLY
 70
     0
  9
$TDCREATE
 40
2458921.021307870
  9
$TDUCREATE
 40
2458920.937974537
  9
$TDUPDATE
 40
2459075.989155093
  9
$TDUUPDATE
 40
2459075.864155093
  9
$TDINDWG
 40
0.0011805556
  9
$TDUSRTIMER
 40
0.0011805556
  9
$USRTIMER
 70
     1
  9
$ANGBASE
 50
0.0
  9
$ANGDIR
 70
     0
  9
$PDMODE
 70
     0
  9
$PDSIZE
 40
0.0
  9
$PLINEWID
 40
0.0
  9
$SPLFRAME
 70
     0
  9
$SPLINETYPE
 70
     6
  9
$SPLINESEGS
 70
     8
  9
$HANDSEED
  5
196
  9
$SURFTAB1
 70
     6
  9
$SURFTAB2
 70
     6
  9
$SURFTYPE
 70
     6
  9
$SURFU
 70
     6
  9
$SURFV
 70
     6
  9
$UCSBASE
  2

  9
$UCSNAME
  2

  9
$UCSORG
 10
0.0
 20
0.0
 30
0.0
  9
$UCSXDIR
 10
1.0
 20
0.0
 30
0.0
  9
$UCSYDIR
 10
0.0
 20
1.0
 30
0.0
  9
$UCSORTHOREF
  2

  9
$UCSORTHOVIEW
 70
     0
  9
$UCSORGTOP
 10
0.0
 20
0.0
 30
0.0
  9
$UCSORGBOTTOM
 10
0.0
 20
0.0
 30
0.0
  9
$UCSORGLEFT
 10
0.0
 20
0.0
 30
0.0
  9
$UCSORGRIGHT
 10
0.0
 20
0.0
 30
0.0
  9
$UCSORGFRONT
 10
0.0
 20
0.0
 30
0.0
  9
$UCSORGBACK
 10
0.0
 20
0.0
 30
0.0
  9
$PUCSBASE
  2

  9
$PUCSNAME
  2

  9
$PUCSORG
 10
0.0
 20
0.0
 30
0.0
  9
$PUCSXDIR
 10
1.0
 20
0.0
 30
0.0
  9
$PUCSYDIR
 10
0.0
 20
1.0
 30
0.0
  9
$PUCSORTHOREF
  2

  9
$PUCSORTHOVIEW
 70
     0
  9
$PUCSORGTOP
 10
0.0
 20
0.0
 30
0.0
  9
$PUCSORGBOTTOM
 10
0.0
 20
0.0
 30
0.0
  9
$PUCSORGLEFT
 10
0.0
 20
0.0
 30
0.0
  9
$PUCSORGRIGHT
 10
0.0
 20
0.0
 30
0.0
  9
$PUCSORGFRONT
 10
0.0
 20
0.0
 30
0.0
  9
$PUCSORGBACK
 10
0.0
 20
0.0
 30
0.0
  9
$USERI1
 70
     0
  9
$USERI2
 70
     0
  9
$USERI3
 70
     0
  9
$USERI4
 70
     0
  9
$USERI5
 70
     0
  9
$USERR1
 40
0.0
  9
$USERR2
 40
0.0
  9
$USERR3
 40
0.0
  9
$USERR4
 40
0.0
  9
$USERR5
 40
0.0
  9
$WORLDVIEW
 70
     1
  9
$SHADEDGE
 70
     3
  9
$SHADEDIF
 70
    70
  9
$TILEMODE
 70
     1
  9
$MAXACTVP
 70
    64
  9
$PINSBASE
 10
0.0
 20
0.0
 30
0.0
  9
$PLIMCHECK
 70
     0
  9
$PEXTMIN
 10
1.000000000000000E+20
 20
1.000000000000000E+20
 30
1.000000000000000E+20
  9
$PEXTMAX
 10
-1.000000000000000E+20
 20
-1.000000000000000E+20
 30
-1.000000000000000E+20
  9
$PLIMMIN
 10
0.0
 20
0.0
  9
$PLIMMAX
 10
12.0
 20
9.0
  9
$UNITMODE
 70
     0
  9
$VISRETAIN
 70
     1
  9
$PLINEGEN
 70
     0
  9
$PSLTSCALE
 70
     1
  9
$TREEDEPTH
 70
  3020
  9
$CMLSTYLE
  2
Standard
  9
$CMLJUST
 70
     0
  9
$CMLSCALE
 40
1.0
  9
$PROXYGRAPHICS
 70
     1
  9
$MEASUREMENT
 70
     1
  9
$CELWEIGHT
370
    -1
  9
$ENDCAPS
280
     0
  9
$JOINSTYLE
280
     0
  9
$LWDISPLAY
290
     0
  9
$INSUNITS
 70
     4
  9
$HYPERLINKBASE
  1

  9
$STYLESHEET
  1

  9
$XEDIT
290
     1
  9
$CEPSNTYPE
380
     0
  9
$PSTYLEMODE
290
     1
  9
$FINGERPRINTGUID
  2
{826FC3A5-6C18-804F-85F2-B39D7790DC03}
  9
$VERSIONGUID
  2
{B754C98A-63B6-DB40-B535-13345245821A}
  9
$EXTNAMES
290
     1
  9
$PSVPSCALE
 40
0.0
  9
$OLESTARTUP
290
     0
  9
$SORTENTS
280
   127
  9
$INDEXCTL
280
     0
  9
$HIDETEXT
280
     1
  9
$XCLIPFRAME
280
     2
  9
$HALOGAP
280
     0
  9
$OBSCOLOR
 70
   257
  9
$OBSLTYPE
280
     0
  9
$INTERSECTIONDISPLAY
280
     0
  9
$INTERSECTIONCOLOR
 70
   257
  9
$DIMASSOC
280
     2
  9
$PROJECTNAME
  1

  9
$CAMERADISPLAY
290
     0
  9
$LENSLENGTH
 40
50.0
  9
$CAMERAHEIGHT
 40
0.0
  9
$STEPSPERSEC
 40
2.0
  9
$STEPSIZE
 40
6.0
  9
$3DDWFPREC
 40
2.0
  9
$PSOLWIDTH
 40
0.25
  9
$PSOLHEIGHT
 40
4.0
  9
$LOFTANG1
 40
1.570796326794896
  9
$LOFTANG2
 40
1.570796326794896
  9
$LOFTMAG1
 40
0.0
  9
$LOFTMAG2
 40
0.0
  9
$LOFTPARAM
 70
     7
  9
$LOFTNORMALS
280
     1
  9
$LATITUDE
 40
37.795
  9
$LONGITUDE
 40
-122.394
  9
$NORTHDIRECTION
 40
0.0
  9
$TIMEZONE
 70
 -8000
  9
$LIGHTGLYPHDISPLAY
280
     1
  9
$TILEMODELIGHTSYNCH
280
     1
  9
$CMATERIAL
347
11
  9
$SOLIDHIST
280
     0
  9
$SHOWHIST
280
     1
  9
$DWFFRAME
280
     2
  9
$DGNFRAME
280
     0
  9
$REALWORLDSCALE
290
     1
  9
$INTERFERECOLOR
 62
     1
  9
$INTERFEREOBJVS
345
33
  9
$INTERFEREVPVS
346
30
  9
$CSHADOW
280
     0
  9
$SHADOWPLANELOCATION
 40
0.0
  0
ENDSEC
  0
SECTION
  2
CLASSES
  0
CLASS
  1
ACDBDICTIONARYWDFLT
  2
AcDbDictionaryWithDefault
  3
ObjectDBX Classes
 90
        0
 91
        1
280
     0
281
     0
  0
CLASS
  1
MATERIAL
  2
AcDbMaterial
  3
ObjectDBX Classes
 90
     1153
 91
        3
280
     0
281
     0
  0
CLASS
  1
VISUALSTYLE
  2
AcDbVisualStyle
  3
ObjectDBX Classes
 90
     4095
 91
       24
280
     0
281
     0
  0
CLASS
  1
SCALE
  2
AcDbScale
  3
ObjectDBX Classes
 90
     1153
 91
       17
280
     0
281
     0
  0
CLASS
  1
TABLESTYLE
  2
AcDbTableStyle
  3
ObjectDBX Classes
 90
     4095
 91
        1
280
     0
281
     0
  0
CLASS
  1
MLEADERSTYLE
  2
AcDbMLeaderStyle
  3
ACDB_MLEADERSTYLE_CLASS
 90
     4095
 91
        1
280
     0
281
     0
  0
CLASS
  1
ACDBSECTIONVIEWSTYLE
  2
AcDbSectionViewStyle
  3
ObjectDBX Classes
 90
     1025
 91
        2
280
     0
281
     0
  0
CLASS
  1
ACDBDETAILVIEWSTYLE
  2
AcDbDetailViewStyle
  3
ObjectDBX Classes
 90
     1025
 91
        2
280
     0
281
     0
  0
CLASS
  1
RASTERVARIABLES
  2
AcDbRasterVariables
  3
ISM
 90
        0
 91
        1
280
     0
281
     0
  0
CLASS
  1
DICTIONARYVAR
  2
AcDbDictionaryVar
  3
ObjectDBX Classes
 90
        0
 91
        5
280
     0
281
     0
  0
CLASS
  1
SORTENTSTABLE
  2
AcDbSortentsTable
  3
ObjectDBX Classes
 90
        0
 91
        1
280
     0
281
     0
  0
CLASS
  1
CELLSTYLEMAP
  2
AcDbCellStyleMap
  3
ObjectDBX Classes
 90
     1152
 91
        1
280
     0
281
     0
  0
ENDSEC
  0
SECTION
  2
TABLES
  0
TABLE
  2
VPORT
  5
8
330
0
100
AcDbSymbolTable
 70
     1
1001
ACAD
1000
DbSaveVer
1071
       57
  0
VPORT
  5
57
330
8
100
AcDbSymbolTableRecord
100
AcDbViewportTableRecord
  2
*Active
 70
     0
 10
0.0
 20
0.0
 11
1.0
 21
1.0
 12
50.72211253153819
 22
31.40438226760307
 13
0.0
 23
0.0
 14
1.0
 24
1.0
 15
0.0
 25
0.0
 16
0.0
 26
0.0
 36
1.0
 17
0.0
 27
0.0
 37
0.0
 40
131.1124003125587
 41
2.149211711711711
 42
50.0
 43
0.0
 44
0.0
 50
0.0
 51
0.0
 71
     0
 72
  1000
 73
     1
 74
     0
 75
     1
 76
     0
 77
     0
 78
     0
281
     0
 65
     1
110
0.0
120
0.0
130
0.0
111
1.0
121
0.0
131
0.0
112
0.0
122
1.0
132
0.0
 79
     0
146
0.0
348
2F
 60
     3
 61
     5
292
     1
282
     1
141
0.0
142
0.0
 63
   250
421
  3355443
1001
ACAD_NAV_VCDISPLAY
1070
     3
  0
ENDTAB
  0
TABLE
  2
LTYPE
  5
5
330
0
100
AcDbSymbolTable
 70
     2
  0
LTYPE
  5
5B
330
5
100
AcDbSymbolTableRecord
100
AcDbLinetypeTableRecord
  2
ByBlock
 70
     0
  3

 72
    65
 73
     0
 40
0.0
  0
LTYPE
  5
5C
330
5
100
AcDbSymbolTableRecord
100
AcDbLinetypeTableRecord
  2
ByLayer
 70
     0
  3

 72
    65
 73
     0
 40
0.0
  0
LTYPE
  5
5D
330
5
100
AcDbSymbolTableRecord
100
AcDbLinetypeTableRecord
  2
Continuous
 70
     0
  3
Solid line
 72
    65
 73
     0
 40
0.0
  0
ENDTAB
  0
TABLE
  2
LAYER
  5
2
330
0
100
AcDbSymbolTable
 70
     2
  0
LAYER
  5
54
330
2
100
AcDbSymbolTableRecord
100
AcDbLayerTableRecord
  2
0
 70
     0
 62
     7
  6
Continuous
370
    -3
390
F
347
21
348
0
  0
LAYER
  5
81
330
2
100
AcDbSymbolTableRecord
100
AcDbLayerTableRecord
  2
A-DETL
 70
     0
 62
    90
  6
Continuous
370
    18
390
F
347
21
348
0
  0
ENDTAB
  0
TABLE
  2
STYLE
  5
3
330
0
100
AcDbSymbolTable
 70
     2
  0
STYLE
  5
55
330
3
100
AcDbSymbolTableRecord
100
AcDbTextStyleTableRecord
  2
Standard
 70
     0
 40
0.0
 41
1.0
 50
0.0
 71
     0
 42
0.2
  3
txt
  4

  0
STYLE
  5
5A
330
3
100
AcDbSymbolTableRecord
100
AcDbTextStyleTableRecord
  2
Annotative
 70
     0
 40
0.0
 41
1.0
 50
0.0
 71
     0
 42
0.2
  3
txt
  4

1001
AcadAnnotative
1000
AnnotativeData
1002
{
1070
     1
1070
     1
1002
}
  0
ENDTAB
  0
TABLE
  2
VIEW
  5
6
330
0
100
AcDbSymbolTable
 70
     0
  0
ENDTAB
  0
TABLE
  2
UCS
  5
7
330
0
100
AcDbSymbolTable
 70
     1
  0
UCS
  5
168
330
7
100
AcDbSymbolTableRecord
100
AcDbUCSTableRecord
  2
REVIT60-Internal
 70
     0
 10
0.0
 20
0.0
 30
0.0
 11
1.0
 21
0.0
 31
0.0
 12
0.0
 22
1.0
 32
0.0
 79
     0
146
0.0
  0
ENDTAB
  0
TABLE
  2
APPID
  5
9
330
0
100
AcDbSymbolTable
 70
     5
  0
APPID
  5
56
330
9
100
AcDbSymbolTableRecord
100
AcDbRegAppTableRecord
  2
ACAD
 70
     0
  0
APPID
  5
5E
330
9
100
AcDbSymbolTableRecord
100
AcDbRegAppTableRecord
  2
AcadAnnotative
 70
     0
  0
APPID
  5
78
330
9
100
AcDbSymbolTableRecord
100
AcDbRegAppTableRecord
  2
REVIT
 70
     0
  0
APPID
  5
17A
330
9
100
AcDbSymbolTableRecord
100
AcDbRegAppTableRecord
  2
ACAD_EXEMPT_FROM_CAD_STANDARDS
 70
     0
  0
APPID
  5
182
330
9
100
AcDbSymbolTableRecord
100
AcDbRegAppTableRecord
  2
ACAD_NAV_VCDISPLAY
 70
     0
  0
ENDTAB
  0
TABLE
  2
DIMSTYLE
  5
A
330
0
100
AcDbSymbolTable
 70
     3
100
AcDbDimStyleTable
 71
     1
340
58
  0
DIMSTYLE
105
58
330
A
100
AcDbSymbolTableRecord
100
AcDbDimStyleTableRecord
  2
Standard
 70
     0
340
55
  0
DIMSTYLE
105
59
330
A
100
AcDbSymbolTableRecord
100
AcDbDimStyleTableRecord
  2
Annotative
 70
     0
340
55
1001
AcadAnnotative
1000
AnnotativeData
1002
{
1070
     1
1070
     1
1002
}
  0
ENDTAB
  0
TABLE
  2
BLOCK_RECORD
  5
1
330
0
100
AcDbSymbolTable
 70
     2
  0
BLOCK_RECORD
  5
70
102
{ACAD_XDICTIONARY
360
16C
102
}
330
1
100
AcDbSymbolTableRecord
100
AcDbBlockTableRecord
  2
*Model_Space
340
73
 70
     0
280
     1
281
     0
  0
BLOCK_RECORD
  5
6C
330
1
100
AcDbSymbolTableRecord
100
AcDbBlockTableRecord
  2
*Paper_Space
340
6F
 70
     0
280
     1
281
     0
  0
BLOCK_RECORD
  5
74
330
1
100
AcDbSymbolTableRecord
100
AcDbBlockTableRecord
  2
*Paper_Space0
340
77
 70
     0
280
     1
281
     0
  0
ENDTAB
  0
ENDSEC
  0
SECTION
  2
BLOCKS
  0
BLOCK
  5
71
330
70
100
AcDbEntity
  8
0
100
AcDbBlockBegin
  2
*Model_Space
 70
     0
 10
0.0
 20
0.0
 30
0.0
  3
*Model_Space
  1

  0
ENDBLK
  5
72
330
70
100
AcDbEntity
  8
0
100
AcDbBlockEnd
  0
BLOCK
  5
6D
330
6C
100
AcDbEntity
 67
     1
  8
0
100
AcDbBlockBegin
  2
*Paper_Space
 70
     0
 10
0.0
 20
0.0
 30
0.0
  3
*Paper_Space
  1

  0
ENDBLK
  5
6E
330
6C
100
AcDbEntity
 67
     1
  8
0
100
AcDbBlockEnd
  0
BLOCK
  5
75
330
74
100
AcDbEntity
 67
     1
  8
0
100
AcDbBlockBegin
  2
*Paper_Space0
 70
     0
 10
0.0
 20
0.0
 30
0.0
  3
*Paper_Space0
  1

  0
ENDBLK
  5
76
330
74
100
AcDbEntity
 67
     1
  8
0
100
AcDbBlockEnd
  0
ENDSEC
  0
SECTION
  2
ENTITIES
  0
ARC
  5
82
330
70
100
AcDbEntity
  8
A-DETL
100
AcDbCircle
 10
266.4491930092408
 20
7.913306990756608
 30
0.0
 40
6.913306990758428
100
AcDbArc
 50
270.0
 51
0.0
1001
REVIT
1002
{
1070
     1
1000
1950844
1002
}
1002
{
1070
     2
1000
-2000051
1002
}
1002
{
1070
     3
1000
133798
1002
}
  0
LINE
  5
83
330
70
100
AcDbEntity
  8
A-DETL
100
AcDbLine
 10
273.3624999999993
 20
7.913306990756608
 30
0.0
 11
273.3624999999993
 21
67.29999999999927
 31
0.0
1001
REVIT
1002
{
1070
     1
1000
1950845
1002
}
1002
{
1070
     2
1000
-2000051
1002
}
1002
{
1070
     3
1000
133798
1002
}
  0
ARC
  5
84
330
70
100
AcDbEntity
  8
A-DETL
100
AcDbCircle
 10
266.3624999999993
 20
67.29999999999927
 30
0.0
 40
7.0
100
AcDbArc
 50
0.0
 51
90.0
1001
REVIT
1002
{
1070
     1
1000
1950846
1002
}
1002
{
1070
     2
1000
-2000051
1002
}
1002
{
1070
     3
1000
133798
1002
}
  0
LINE
  5
85
330
70
100
AcDbEntity
  8
A-DETL
100
AcDbLine
 10
266.3624999999993
 20
74.29999999999927
 30
0.0
 11
7.0
 21
74.29999999999927
 31
0.0
1001
REVIT
1002
{
1070
     1
1000
1950847
1002
}
1002
{
1070
     2
1000
-2000051
1002
}
1002
{
1070
     3
1000
133798
1002
}
  0
ARC
  5
86
330
70
100
AcDbEntity
  8
A-DETL
100
AcDbCircle
 10
7.0
 20
67.29999999999927
 30
0.0
 40
7.0
100
AcDbArc
 50
90.0
 51
180.0
1001
REVIT
1002
{
1070
     1
1000
1950848
1002
}
1002
{
1070
     2
1000
-2000051
1002
}
1002
{
1070
     3
1000
133798
1002
}
  0
LINE
  5
87
330
70
100
AcDbEntity
  8
A-DETL
100
AcDbLine
 10
0.0
 20
67.29999999999927
 30
0.0
 11
0.0
 21
7.999999999999999
 31
0.0
1001
REVIT
1002
{
1070
     1
1000
1950849
1002
}
1002
{
1070
     2
1000
-2000051
1002
}
1002
{
1070
     3
1000
133798
1002
}
  0
ARC
  5
88
330
70
100
AcDbEntity
  8
A-DETL
100
AcDbCircle
 10
7.0
 20
7.999999999999999
 30
0.0
 40
7.0
100
AcDbArc
 50
180.0
 51
270.0
1001
REVIT
1002
{
1070
     1
1000
1950850
1002
}
1002
{
1070
     2
1000
-2000051
1002
}
1002
{
1070
     3
1000
133798
1002
}
  0
LINE
  5
89
330
70
100
AcDbEntity
  8
A-DETL
100
AcDbLine
 10
7.0
 20
0.9999999999981801
 30
0.0
 11
266.4491930092408
 21
0.9999999999981801
 31
0.0
1001
REVIT
1002
{
1070
     1
1000
1950851
1002
}
1002
{
1070
     2
1000
-2000051
1002
}
1002
{
1070
     3
1000
133798
1002
}
  0
LINE
  5
8A
330
70
100
AcDbEntity
  8
A-DETL
100
AcDbLine
 10
258.9740067192524
 20
12.69950970183709
 30
0.0
 11
255.7090962475795
 21
12.69950970184436
 31
0.0
1001
REVIT
1002
{
1070
     1
1000
1950852
1002
}
1002
{
1070
     2
1000
-2000051
1002
}
1002
{
1070
     3
1000
133798
1002
}
  0
LINE
  5
8B
330
70
100
AcDbEntity
  8
A-DETL
100
AcDbLine
 10
255.7090962475795
 20
12.69950970184436
 30
0.0
 11
255.709096247574
 21
11.86651925745354
 31
0.0
1001
REVIT
1002
{
1070
     1
1000
1950853
1002
}
1002
{
1070
     2
1000
-2000051
1002
}
1002
{
1070
     3
1000
133798
1002
}
  0
LINE
  5
8C
330
70
100
AcDbEntity
  8
A-DETL
100
AcDbLine
 10
255.709096247574
 20
11.86651925745354
 30
0.0
 11
252.8807197665464
 21
11.866519257459
 31
0.0
1001
REVIT
1002
{
1070
     1
1000
1950854
1002
}
1002
{
1070
     2
1000
-2000051
1002
}
1002
{
1070
     3
1000
133798
1002
}
  0
LINE
  5
8D
330
70
100
AcDbEntity
  8
A-DETL
100
AcDbLine
 10
252.8807197665464
 20
11.866519257459
 30
0.0
 11
252.8807197665501
 21
12.69950970185164
 31
0.0
1001
REVIT
1002
{
1070
     1
1000
1950855
1002
}
1002
{
1070
     2
1000
-2000051
1002
}
1002
{
1070
     3
1000
133798
1002
}
  0
LINE
  5
8E
330
70
100
AcDbEntity
  8
A-DETL
100
AcDbLine
 10
252.8807197665501
 20
12.69950970185164
 30
0.0
 11
246.5449139301709
 21
12.69950970186437
 31
0.0
1001
REVIT
1002
{
1070
     1
1000
1950856
1002
}
1002
{
1070
     2
1000
-2000051
1002
}
1002
{
1070
     3
1000
133798
1002
}
  0
LINE
  5
8F
330
70
100
AcDbEntity
  8
A-DETL
100
AcDbLine
 10
246.5449139301709
 20
12.69950970186437
 30
0.0
 11
246.5449139301745
 21
14.4405280474275
 31
0.0
1001
REVIT
1002
{
1070
     1
1000
1950857
1002
}
1002
{
1070
     2
1000
-2000051
1002
}
1002
{
1070
     3
1000
133798
1002
}
  0
LINE
  5
90
330
70
100
AcDbEntity
  8
A-DETL
100
AcDbLine
 10
246.5449139301745
 20
14.4405280474275
 30
0.0
 11
245.5546284884385
 21
14.44052804743114
 31
0.0
1001
REVIT
1002
{
1070
     1
1000
1950858
1002
}
1002
{
1070
     2
1000
-2000051
1002
}
1002
{
1070
     3
1000
133798
1002
}
  0
LINE
  5
91
330
70
100
AcDbEntity
  8
A-DETL
100
AcDbLine
 10
245.5546284884385
 20
14.44052804743114
 30
0.0
 11
245.5546284884476
 21
17.76958358676347
 31
0.0
1001
REVIT
1002
{
1070
     1
1000
1950859
1002
}
1002
{
1070
     2
1000
-2000051
1002
}
1002
{
1070
     3
1000
133798
1002
}
  0
LINE
  5
92
330
70
100
AcDbEntity
  8
A-DETL
100
AcDbLine
 10
245.5546284884476
 20
17.76958358676347
 30
0.0
 11
246.54491393018
 21
17.76958358676165
 31
0.0
1001
REVIT
1002
{
1070
     1
1000
1950860
1002
}
1002
{
1070
     2
1000
-2000051
1002
}
1002
{
1070
     3
1000
133798
1002
}
  0
LINE
  5
93
330
70
100
AcDbEntity
  8
A-DETL
100
AcDbLine
 10
246.54491393018
 20
17.76958358676165
 30
0.0
 11
246.5449139301854
 21
19.51060193232479
 31
0.0
1001
REVIT
1002
{
1070
     1
1000
1950861
1002
}
1002
{
1070
     2
1000
-2000051
1002
}
1002
{
1070
     3
1000
133798
1002
}
  0
LINE
  5
94
330
70
100
AcDbEntity
  8
A-DETL
100
AcDbLine
 10
246.5449139301854
 20
19.51060193232479
 30
0.0
 11
251.0628386342359
 21
19.51060193231387
 31
0.0
1001
REVIT
1002
{
1070
     1
1000
1950862
1002
}
1002
{
1070
     2
1000
-2000051
1002
}
1002
{
1070
     3
1000
133798
1002
}
  0
LINE
  5
95
330
70
100
AcDbEntity
  8
A-DETL
100
AcDbLine
 10
251.0628386342359
 20
19.51060193231387
 30
0.0
 11
251.0628386342414
 21
21.049999999992
 31
0.0
1001
REVIT
1002
{
1070
     1
1000
1950863
1002
}
1002
{
1070
     2
1000
-2000051
1002
}
1002
{
1070
     3
1000
133798
1002
}
  0
LINE
  5
96
330
70
100
AcDbEntity
  8
A-DETL
100
AcDbLine
 10
251.0628386342414
 20
21.049999999992
 30
0.0
 11
246.3124999999982
 21
21.05000000000291
 31
0.0
1001
REVIT
1002
{
1070
     1
1000
1950864
1002
}
1002
{
1070
     2
1000
-2000051
1002
}
1002
{
1070
     3
1000
133798
1002
}
  0
LINE
  5
97
330
70
100
AcDbEntity
  8
A-DETL
100
AcDbLine
 10
246.3124999999982
 20
21.05000000000291
 30
0.0
 11
246.3125000000309
 21
35.20000000000255
 31
0.0
1001
REVIT
1002
{
1070
     1
1000
1950865
1002
}
1002
{
1070
     2
1000
-2000051
1002
}
1002
{
1070
     3
1000
133798
1002
}
  0
LINE
  5
98
330
70
100
AcDbEntity
  8
A-DETL
100
AcDbLine
 10
246.3125000000309
 20
35.20000000000255
 30
0.0
 11
251.0628386342741
 21
35.19999999999163
 31
0.0
1001
REVIT
1002
{
1070
     1
1000
1950866
1002
}
1002
{
1070
     2
1000
-2000051
1002
}
1002
{
1070
     3
1000
133798
1002
}
  0
LINE
  5
99
330
70
100
AcDbEntity
  8
A-DETL
100
AcDbLine
 10
251.0628386342741
 20
35.19999999999163
 30
0.0
 11
251.0628386342796
 21
36.73939806766612
 31
0.0
1001
REVIT
1002
{
1070
     1
1000
1950867
1002
}
1002
{
1070
     2
1000
-2000051
1002
}
1002
{
1070
     3
1000
133798
1002
}
  0
LINE
  5
9A
330
70
100
AcDbEntity
  8
A-DETL
100
AcDbLine
 10
251.0628386342796
 20
36.73939806766612
 30
0.0
 11
246.5449139302255
 21
36.73939806767703
 31
0.0
1001
REVIT
1002
{
1070
     1
1000
1950868
1002
}
1002
{
1070
     2
1000
-2000051
1002
}
1002
{
1070
     3
1000
133798
1002
}
  0
LINE
  5
9B
330
70
100
AcDbEntity
  8
A-DETL
100
AcDbLine
 10
246.5449139302255
 20
36.73939806767703
 30
0.0
 11
246.5449139302327
 21
38.48031550218911
 31
0.0
1001
REVIT
1002
{
1070
     1
1000
1950869
1002
}
1002
{
1070
     2
1000
-2000051
1002
}
1002
{
1070
     3
1000
133798
1002
}
  0
LINE
  5
9C
330
70
100
AcDbEntity
  8
A-DETL
100
AcDbLine
 10
246.5449139302327
 20
38.48031550218911
 30
0.0
 11
245.5546284884968
 21
38.48031550219094
 31
0.0
1001
REVIT
1002
{
1070
     1
1000
1950870
1002
}
1002
{
1070
     2
1000
-2000051
1002
}
1002
{
1070
     3
1000
133798
1002
}
  0
LINE
  5
9D
330
70
100
AcDbEntity
  8
A-DETL
100
AcDbLine
 10
245.5546284884968
 20
38.48031550219094
 30
0.0
 11
245.5546284885059
 21
41.80957286362536
 31
0.0
1001
REVIT
1002
{
1070
     1
1000
1950871
1002
}
1002
{
1070
     2
1000
-2000051
1002
}
1002
{
1070
     3
1000
133798
1002
}
  0
LINE
  5
9E
330
70
100
AcDbEntity
  8
A-DETL
100
AcDbLine
 10
245.5546284885059
 20
41.80957286362536
 30
0.0
 11
246.5449139302418
 21
41.80957286362354
 31
0.0
1001
REVIT
1002
{
1070
     1
1000
1950872
1002
}
1002
{
1070
     2
1000
-2000051
1002
}
1002
{
1070
     3
1000
133798
1002
}
  0
LINE
  5
9F
330
70
100
AcDbEntity
  8
A-DETL
100
AcDbLine
 10
246.5449139302418
 20
41.80957286362354
 30
0.0
 11
246.5449139302454
 21
43.5503893870864
 31
0.0
1001
REVIT
1002
{
1070
     1
1000
1950873
1002
}
1002
{
1070
     2
1000
-2000051
1002
}
1002
{
1070
     3
1000
133798
1002
}
  0
LINE
  5
A0
330
70
100
AcDbEntity
  8
A-DETL
100
AcDbLine
 10
246.5449139302454
 20
43.5503893870864
 30
0.0
 11
252.8807197666247
 21
43.55038938707366
 31
0.0
1001
REVIT
1002
{
1070
     1
1000
1950874
1002
}
1002
{
1070
     2
1000
-2000051
1002
}
1002
{
1070
     3
1000
133798
1002
}
  0
LINE
  5
A1
330
70
100
AcDbEntity
  8
A-DETL
100
AcDbLine
 10
252.8807197666247
 20
43.55038938707366
 30
0.0
 11
252.8807197666265
 21
44.38341010478143
 31
0.0
1001
REVIT
1002
{
1070
     1
1000
1950875
1002
}
1002
{
1070
     2
1000
-2000051
1002
}
1002
{
1070
     3
1000
133798
1002
}
  0
LINE
  5
A2
330
70
100
AcDbEntity
  8
A-DETL
100
AcDbLine
 10
252.8807197666265
 20
44.38341010478143
 30
0.0
 11
255.7090962476559
 21
44.38341010477415
 31
0.0
1001
REVIT
1002
{
1070
     1
1000
1950876
1002
}
1002
{
1070
     2
1000
-2000051
1002
}
1002
{
1070
     3
1000
133798
1002
}
  0
LINE
  5
A3
330
70
100
AcDbEntity
  8
A-DETL
100
AcDbLine
 10
255.7090962476559
 20
44.38341010477415
 30
0.0
 11
255.7090962476541
 21
43.55038938706639
 31
0.0
1001
REVIT
1002
{
1070
     1
1000
1950877
1002
}
1002
{
1070
     2
1000
-2000051
1002
}
1002
{
1070
     3
1000
133798
1002
}
  0
LINE
  5
A4
330
70
100
AcDbEntity
  8
A-DETL
100
AcDbLine
 10
255.7090962476541
 20
43.55038938706639
 30
0.0
 11
258.9740067193252
 21
43.55038938705911
 31
0.0
1001
REVIT
1002
{
1070
     1
1000
1950878
1002
}
1002
{
1070
     2
1000
-2000051
1002
}
1002
{
1070
     3
1000
133798
1002
}
  0
LINE
  5
A5
330
70
100
AcDbEntity
  8
A-DETL
100
AcDbLine
 10
258.9740067193252
 20
43.55038938705911
 30
0.0
 11
258.9740067193215
 21
41.80957286359626
 31
0.0
1001
REVIT
1002
{
1070
     1
1000
1950879
1002
}
1002
{
1070
     2
1000
-2000051
1002
}
1002
{
1070
     3
1000
133798
1002
}
  0
LINE
  5
A6
330
70
100
AcDbEntity
  8
A-DETL
100
AcDbLine
 10
258.9740067193215
 20
41.80957286359626
 30
0.0
 11
259.9046729354759
 21
41.80957286359443
 31
0.0
1001
REVIT
1002
{
1070
     1
1000
1950880
1002
}
1002
{
1070
     2
1000
-2000051
1002
}
1002
{
1070
     3
1000
133798
1002
}
  0
LINE
  5
A7
330
70
100
AcDbEntity
  8
A-DETL
100
AcDbLine
 10
259.9046729354759
 20
41.80957286359443
 30
0.0
 11
259.9046729354668
 21
38.48031550215819
 31
0.0
1001
REVIT
1002
{
1070
     1
1000
1950881
1002
}
1002
{
1070
     2
1000
-2000051
1002
}
1002
{
1070
     3
1000
133798
1002
}
  0
LINE
  5
A8
330
70
100
AcDbEntity
  8
A-DETL
100
AcDbLine
 10
259.9046729354668
 20
38.48031550215819
 30
0.0
 11
258.9740067193143
 21
38.48031550216183
 31
0.0
1001
REVIT
1002
{
1070
     1
1000
1950882
1002
}
1002
{
1070
     2
1000
-2000051
1002
}
1002
{
1070
     3
1000
133798
1002
}
  0
LINE
  5
A9
330
70
100
AcDbEntity
  8
A-DETL
100
AcDbLine
 10
258.9740067193143
 20
38.48031550216183
 30
0.0
 11
258.974006719307
 21
36.73939806764793
 31
0.0
1001
REVIT
1002
{
1070
     1
1000
1950883
1002
}
1002
{
1070
     2
1000
-2000051
1002
}
1002
{
1070
     3
1000
133798
1002
}
  0
LINE
  5
AA
330
70
100
AcDbEntity
  8
A-DETL
100
AcDbLine
 10
258.974006719307
 20
36.73939806764793
 30
0.0
 11
255.7090962476323
 21
36.7393980676552
 31
0.0
1001
REVIT
1002
{
1070
     1
1000
1950884
1002
}
1002
{
1070
     2
1000
-2000051
1002
}
1002
{
1070
     3
1000
133798
1002
}
  0
LINE
  5
AB
330
70
100
AcDbEntity
  8
A-DETL
100
AcDbLine
 10
255.7090962476323
 20
36.7393980676552
 30
0.0
 11
255.7090962476268
 21
35.19999999998072
 31
0.0
1001
REVIT
1002
{
1070
     1
1000
1950885
1002
}
1002
{
1070
     2
1000
-2000051
1002
}
1002
{
1070
     3
1000
133798
1002
}
  0
LINE
  5
AC
330
70
100
AcDbEntity
  8
A-DETL
100
AcDbLine
 10
255.7090962476268
 20
35.19999999998072
 30
0.0
 11
262.8624999999993
 21
35.19999999996253
 31
0.0
1001
REVIT
1002
{
1070
     1
1000
1950886
1002
}
1002
{
1070
     2
1000
-2000051
1002
}
1002
{
1070
     3
1000
133798
1002
}
  0
LINE
  5
AD
330
70
100
AcDbEntity
  8
A-DETL
100
AcDbLine
 10
262.8624999999993
 20
35.19999999996253
 30
0.0
 11
262.8624999999665
 21
21.04999999996107
 31
0.0
1001
REVIT
1002
{
1070
     1
1000
1950887
1002
}
1002
{
1070
     2
1000
-2000051
1002
}
1002
{
1070
     3
1000
133798
1002
}
  0
LINE
  5
AE
330
70
100
AcDbEntity
  8
A-DETL
100
AcDbLine
 10
262.8624999999665
 20
21.04999999996107
 30
0.0
 11
255.7090962475941
 21
21.04999999997926
 31
0.0
1001
REVIT
1002
{
1070
     1
1000
1950888
1002
}
1002
{
1070
     2
1000
-2000051
1002
}
1002
{
1070
     3
1000
133798
1002
}
  0
LINE
  5
AF
330
70
100
AcDbEntity
  8
A-DETL
100
AcDbLine
 10
255.7090962475941
 20
21.04999999997926
 30
0.0
 11
255.7090962475904
 21
19.5106019323066
 31
0.0
1001
REVIT
1002
{
1070
     1
1000
1950889
1002
}
1002
{
1070
     2
1000
-2000051
1002
}
1002
{
1070
     3
1000
133798
1002
}
  0
LINE
  5
B0
330
70
100
AcDbEntity
  8
A-DETL
100
AcDbLine
 10
255.7090962475904
 20
19.5106019323066
 30
0.0
 11
258.9740067192688
 21
19.5106019322975
 31
0.0
1001
REVIT
1002
{
1070
     1
1000
1950890
1002
}
1002
{
1070
     2
1000
-2000051
1002
}
1002
{
1070
     3
1000
133798
1002
}
  0
LINE
  5
B1
330
70
100
AcDbEntity
  8
A-DETL
100
AcDbLine
 10
258.9740067192688
 20
19.5106019322975
 30
0.0
 11
258.9740067192652
 21
17.76958358673437
 31
0.0
1001
REVIT
1002
{
1070
     1
1000
1950891
1002
}
1002
{
1070
     2
1000
-2000051
1002
}
1002
{
1070
     3
1000
133798
1002
}
  0
LINE
  5
B2
330
70
100
AcDbEntity
  8
A-DETL
100
AcDbLine
 10
258.9740067192652
 20
17.76958358673437
 30
0.0
 11
259.9046729354159
 21
17.76958358673073
 31
0.0
1001
REVIT
1002
{
1070
     1
1000
1950892
1002
}
1002
{
1070
     2
1000
-2000051
1002
}
1002
{
1070
     3
1000
133798
1002
}
  0
LINE
  5
B3
330
70
100
AcDbEntity
  8
A-DETL
100
AcDbLine
 10
259.9046729354159
 20
17.76958358673073
 30
0.0
 11
259.9046729354086
 21
14.4405280473984
 31
0.0
1001
REVIT
1002
{
1070
     1
1000
1950893
1002
}
1002
{
1070
     2
1000
-2000051
1002
}
1002
{
1070
     3
1000
133798
1002
}
  0
LINE
  5
B4
330
70
100
AcDbEntity
  8
A-DETL
100
AcDbLine
 10
259.9046729354086
 20
14.4405280473984
 30
0.0
 11
258.9740067192561
 21
14.44052804740022
 31
0.0
1001
REVIT
1002
{
1070
     1
1000
1950894
1002
}
1002
{
1070
     2
1000
-2000051
1002
}
1002
{
1070
     3
1000
133798
1002
}
  0
LINE
  5
B5
330
70
100
AcDbEntity
  8
A-DETL
100
AcDbLine
 10
258.9740067192561
 20
14.44052804740022
 30
0.0
 11
258.9740067192524
 21
12.69950970183709
 31
0.0
1001
REVIT
1002
{
1070
     1
1000
1950895
1002
}
1002
{
1070
     2
1000
-2000051
1002
}
1002
{
1070
     3
1000
133798
1002
}
  0
ARC
  5
B6
330
70
100
AcDbEntity
  8
A-DETL
100
AcDbCircle
 10
255.7636081505134
 20
5.500000000078215
 30
0.0
 40
1.0
100
AcDbArc
 50
180.0
 51
0.0
1001
REVIT
1002
{
1070
     1
1000
1950896
1002
}
1002
{
1070
     2
1000
-2000051
1002
}
1002
{
1070
     3
1000
133798
1002
}
  0
ARC
  5
B7
330
70
100
AcDbEntity
  8
A-DETL
100
AcDbCircle
 10
255.7636081505134
 20
5.500000000078215
 30
0.0
 40
0.999999999998181
100
AcDbArc
 50
0.0
 51
180.0
1001
REVIT
1002
{
1070
     1
1000
1950897
1002
}
1002
{
1070
     2
1000
-2000051
1002
}
1002
{
1070
     3
1000
133798
1002
}
  0
LINE
  5
B8
330
70
100
AcDbEntity
  8
A-DETL
100
AcDbLine
 10
236.6624999999694
 20
11.52499999955398
 30
0.0
 11
222.5125000000007
 21
11.52499999958672
 31
0.0
1001
REVIT
1002
{
1070
     1
1000
1950898
1002
}
1002
{
1070
     2
1000
-2000051
1002
}
1002
{
1070
     3
1000
133798
1002
}
  0
LINE
  5
B9
330
70
100
AcDbEntity
  8
A-DETL
100
AcDbLine
 10
222.5125000000007
 20
11.52499999958672
 30
0.0
 11
222.5125000000316
 21
25.67499999955544
 31
0.0
1001
REVIT
1002
{
1070
     1
1000
1950899
1002
}
1002
{
1070
     2
1000
-2000051
1002
}
1002
{
1070
     3
1000
133798
1002
}
  0
LINE
  5
BA
330
70
100
AcDbEntity
  8
A-DETL
100
AcDbLine
 10
222.5125000000316
 20
25.67499999955544
 30
0.0
 11
236.6625000000003
 21
25.6749999995227
 31
0.0
1001
REVIT
1002
{
1070
     1
1000
1950900
1002
}
1002
{
1070
     2
1000
-2000051
1002
}
1002
{
1070
     3
1000
133798
1002
}
  0
LINE
  5
BB
330
70
100
AcDbEntity
  8
A-DETL
100
AcDbLine
 10
236.6625000000003
 20
25.6749999995227
 30
0.0
 11
236.6624999999694
 21
11.52499999955398
 31
0.0
1001
REVIT
1002
{
1070
     1
1000
1950901
1002
}
1002
{
1070
     2
1000
-2000051
1002
}
1002
{
1070
     3
1000
133798
1002
}
  0
LINE
  5
BC
330
70
100
AcDbEntity
  8
A-DETL
100
AcDbLine
 10
215.1744999999664
 20
11.52499999960491
 30
0.0
 11
201.0244999999995
 21
11.52499999963765
 31
0.0
1001
REVIT
1002
{
1070
     1
1000
1950902
1002
}
1002
{
1070
     2
1000
-2000051
1002
}
1002
{
1070
     3
1000
133798
1002
}
  0
LINE
  5
BD
330
70
100
AcDbEntity
  8
A-DETL
100
AcDbLine
 10
201.0244999999995
 20
11.52499999963765
 30
0.0
 11
201.0245000000323
 21
25.67499999960637
 31
0.0
1001
REVIT
1002
{
1070
     1
1000
1950903
1002
}
1002
{
1070
     2
1000
-2000051
1002
}
1002
{
1070
     3
1000
133798
1002
}
  0
LINE
  5
BE
330
70
100
AcDbEntity
  8
A-DETL
100
AcDbLine
 10
201.0245000000323
 20
25.67499999960637
 30
0.0
 11
215.1744999999992
 21
25.67499999957363
 31
0.0
1001
REVIT
1002
{
1070
     1
1000
1950904
1002
}
1002
{
1070
     2
1000
-2000051
1002
}
1002
{
1070
     3
1000
133798
1002
}
  0
LINE
  5
BF
330
70
100
AcDbEntity
  8
A-DETL
100
AcDbLine
 10
215.1744999999992
 20
25.67499999957363
 30
0.0
 11
215.1744999999664
 21
11.52499999960491
 31
0.0
1001
REVIT
1002
{
1070
     1
1000
1950905
1002
}
1002
{
1070
     2
1000
-2000051
1002
}
1002
{
1070
     3
1000
133798
1002
}
  0
LINE
  5
C0
330
70
100
AcDbEntity
  8
A-DETL
100
AcDbLine
 10
196.1244999999671
 20
11.52499999964857
 30
0.0
 11
181.9745000000002
 21
11.52499999967949
 31
0.0
1001
REVIT
1002
{
1070
     1
1000
1950906
1002
}
1002
{
1070
     2
1000
-2000051
1002
}
1002
{
1070
     3
1000
133798
1002
}
  0
LINE
  5
C1
330
70
100
AcDbEntity
  8
A-DETL
100
AcDbLine
 10
181.9745000000002
 20
11.52499999967949
 30
0.0
 11
181.974500000033
 21
25.67499999965185
 31
0.0
1001
REVIT
1002
{
1070
     1
1000
1950907
1002
}
1002
{
1070
     2
1000
-2000051
1002
}
1002
{
1070
     3
1000
133798
1002
}
  0
LINE
  5
C2
330
70
100
AcDbEntity
  8
A-DETL
100
AcDbLine
 10
181.974500000033
 20
25.67499999965185
 30
0.0
 11
196.1244999999981
 21
25.6749999996191
 31
0.0
1001
REVIT
1002
{
1070
     1
1000
1950908
1002
}
1002
{
1070
     2
1000
-2000051
1002
}
1002
{
1070
     3
1000
133798
1002
}
  0
LINE
  5
C3
330
70
100
AcDbEntity
  8
A-DETL
100
AcDbLine
 10
196.1244999999981
 20
25.6749999996191
 30
0.0
 11
196.1244999999671
 21
11.52499999964857
 31
0.0
1001
REVIT
1002
{
1070
     1
1000
1950909
1002
}
1002
{
1070
     2
1000
-2000051
1002
}
1002
{
1070
     3
1000
133798
1002
}
  0
LINE
  5
C4
330
70
100
AcDbEntity
  8
A-DETL
100
AcDbLine
 10
177.0744999999988
 20
25.67499999966276
 30
0.0
 11
177.074499999966
 21
11.52499999969404
 31
0.0
1001
REVIT
1002
{
1070
     1
1000
1950910
1002
}
1002
{
1070
     2
1000
-2000051
1002
}
1002
{
1070
     3
1000
133798
1002
}
  0
LINE
  5
C5
330
70
100
AcDbEntity
  8
A-DETL
100
AcDbLine
 10
177.074499999966
 20
11.52499999969404
 30
0.0
 11
162.9244999999992
 21
11.52499999972497
 31
0.0
1001
REVIT
1002
{
1070
     1
1000
1950911
1002
}
1002
{
1070
     2
1000
-2000051
1002
}
1002
{
1070
     3
1000
133798
1002
}
  0
LINE
  5
C6
330
70
100
AcDbEntity
  8
A-DETL
100
AcDbLine
 10
162.9244999999992
 20
11.52499999972497
 30
0.0
 11
162.9245000000319
 21
25.67499999969368
 31
0.0
1001
REVIT
1002
{
1070
     1
1000
1950912
1002
}
1002
{
1070
     2
1000
-2000051
1002
}
1002
{
1070
     3
1000
133798
1002
}
  0
LINE
  5
C7
330
70
100
AcDbEntity
  8
A-DETL
100
AcDbLine
 10
162.9245000000319
 20
25.67499999969368
 30
0.0
 11
177.0744999999988
 21
25.67499999966276
 31
0.0
1001
REVIT
1002
{
1070
     1
1000
1950913
1002
}
1002
{
1070
     2
1000
-2000051
1002
}
1002
{
1070
     3
1000
133798
1002
}
  0
LINE
  5
C8
330
70
100
AcDbEntity
  8
A-DETL
100
AcDbLine
 10
158.0244999999668
 20
11.52499999973406
 30
0.0
 11
143.8744999999999
 21
11.5249999997668
 31
0.0
1001
REVIT
1002
{
1070
     1
1000
1950914
1002
}
1002
{
1070
     2
1000
-2000051
1002
}
1002
{
1070
     3
1000
133798
1002
}
  0
LINE
  5
C9
330
70
100
AcDbEntity
  8
A-DETL
100
AcDbLine
 10
143.8744999999999
 20
11.5249999997668
 30
0.0
 11
143.8745000000326
 21
25.67499999973552
 31
0.0
1001
REVIT
1002
{
1070
     1
1000
1950915
1002
}
1002
{
1070
     2
1000
-2000051
1002
}
1002
{
1070
     3
1000
133798
1002
}
  0
LINE
  5
CA
330
70
100
AcDbEntity
  8
A-DETL
100
AcDbLine
 10
143.8745000000326
 20
25.67499999973552
 30
0.0
 11
158.0244999999995
 21
25.67499999970278
 31
0.0
1001
REVIT
1002
{
1070
     1
1000
1950916
1002
}
1002
{
1070
     2
1000
-2000051
1002
}
1002
{
1070
     3
1000
133798
1002
}
  0
LINE
  5
CB
330
70
100
AcDbEntity
  8
A-DETL
100
AcDbLine
 10
158.0244999999995
 20
25.67499999970278
 30
0.0
 11
158.0244999999668
 21
11.52499999973406
 31
0.0
1001
REVIT
1002
{
1070
     1
1000
1950917
1002
}
1002
{
1070
     2
1000
-2000051
1002
}
1002
{
1070
     3
1000
133798
1002
}
  0
LINE
  5
CC
330
70
100
AcDbEntity
  8
A-DETL
100
AcDbLine
 10
138.9744999999657
 20
11.52499999977954
 30
0.0
 11
105.7744999999704
 21
11.52499999985593
 31
0.0
1001
REVIT
1002
{
1070
     1
1000
1950918
1002
}
1002
{
1070
     2
1000
-2000051
1002
}
1002
{
1070
     3
1000
133798
1002
}
  0
LINE
  5
CD
330
70
100
AcDbEntity
  8
A-DETL
100
AcDbLine
 10
105.7744999999704
 20
11.52499999985593
 30
0.0
 11
105.7745000000013
 21
25.67499999961001
 31
0.0
1001
REVIT
1002
{
1070
     1
1000
1950919
1002
}
1002
{
1070
     2
1000
-2000051
1002
}
1002
{
1070
     3
1000
133798
1002
}
  0
LINE
  5
CE
330
70
100
AcDbEntity
  8
A-DETL
100
AcDbLine
 10
105.7745000000013
 20
25.67499999961001
 30
0.0
 11
108.5830035716171
 21
25.67499999960273
 31
0.0
1001
REVIT
1002
{
1070
     1
1000
1950920
1002
}
1002
{
1070
     2
1000
-2000051
1002
}
1002
{
1070
     3
1000
133798
1002
}
  0
LINE
  5
CF
330
70
100
AcDbEntity
  8
A-DETL
100
AcDbLine
 10
108.5830035716171
 20
25.67499999960273
 30
0.0
 11
108.583003571619
 21
26.6736295346218
 31
0.0
1001
REVIT
1002
{
1070
     1
1000
1950921
1002
}
1002
{
1070
     2
1000
-2000051
1002
}
1002
{
1070
     3
1000
133798
1002
}
  0
LINE
  5
D0
330
70
100
AcDbEntity
  8
A-DETL
100
AcDbLine
 10
108.583003571619
 20
26.6736295346218
 30
0.0
 11
111.916627726996
 21
26.67362953461452
 31
0.0
1001
REVIT
1002
{
1070
     1
1000
1950922
1002
}
1002
{
1070
     2
1000
-2000051
1002
}
1002
{
1070
     3
1000
133798
1002
}
  0
LINE
  5
D1
330
70
100
AcDbEntity
  8
A-DETL
100
AcDbLine
 10
111.916627726996
 20
26.67362953461452
 30
0.0
 11
111.916627726996
 21
25.67499999959546
 31
0.0
1001
REVIT
1002
{
1070
     1
1000
1950923
1002
}
1002
{
1070
     2
1000
-2000051
1002
}
1002
{
1070
     3
1000
133798
1002
}
  0
LINE
  5
D2
330
70
100
AcDbEntity
  8
A-DETL
100
AcDbLine
 10
111.916627726996
 20
25.67499999959546
 30
0.0
 11
132.632792870816
 21
25.67499999954999
 31
0.0
1001
REVIT
1002
{
1070
     1
1000
1950924
1002
}
1002
{
1070
     2
1000
-2000051
1002
}
1002
{
1070
     3
1000
133798
1002
}
  0
LINE
  5
D3
330
70
100
AcDbEntity
  8
A-DETL
100
AcDbLine
 10
132.632792870816
 20
25.67499999954999
 30
0.0
 11
132.6327928708197
 21
26.67362953456905
 31
0.0
1001
REVIT
1002
{
1070
     1
1000
1950925
1002
}
1002
{
1070
     2
1000
-2000051
1002
}
1002
{
1070
     3
1000
133798
1002
}
  0
LINE
  5
D4
330
70
100
AcDbEntity
  8
A-DETL
100
AcDbLine
 10
132.6327928708197
 20
26.67362953456905
 30
0.0
 11
135.9664170261985
 21
26.67362953455995
 31
0.0
1001
REVIT
1002
{
1070
     1
1000
1950926
1002
}
1002
{
1070
     2
1000
-2000051
1002
}
1002
{
1070
     3
1000
133798
1002
}
  0
LINE
  5
D5
330
70
100
AcDbEntity
  8
A-DETL
100
AcDbLine
 10
135.9664170261985
 20
26.67362953455995
 30
0.0
 11
135.9664170261967
 21
25.67499999980464
 31
0.0
1001
REVIT
1002
{
1070
     1
1000
1950927
1002
}
1002
{
1070
     2
1000
-2000051
1002
}
1002
{
1070
     3
1000
133798
1002
}
  0
LINE
  5
D6
330
70
100
AcDbEntity
  8
A-DETL
100
AcDbLine
 10
135.9664170261967
 20
25.67499999980464
 30
0.0
 11
138.9744999999984
 21
25.67499999980464
 31
0.0
1001
REVIT
1002
{
1070
     1
1000
1950928
1002
}
1002
{
1070
     2
1000
-2000051
1002
}
1002
{
1070
     3
1000
133798
1002
}
  0
LINE
  5
D7
330
70
100
AcDbEntity
  8
A-DETL
100
AcDbLine
 10
138.9744999999984
 20
25.67499999980464
 30
0.0
 11
138.9744999999657
 21
11.52499999977954
 31
0.0
1001
REVIT
1002
{
1070
     1
1000
1950929
1002
}
1002
{
1070
     2
1000
-2000051
1002
}
1002
{
1070
     3
1000
133798
1002
}
  0
ARC
  5
D8
330
70
100
AcDbEntity
  8
A-DETL
100
AcDbCircle
 10
198.6130000000157
 20
5.500000000078215
 30
0.0
 40
1.0
100
AcDbArc
 50
0.0
 51
180.0
1001
REVIT
1002
{
1070
     1
1000
1950930
1002
}
1002
{
1070
     2
1000
-2000051
1002
}
1002
{
1070
     3
1000
133798
1002
}
  0
ARC
  5
D9
330
70
100
AcDbEntity
  8
A-DETL
100
AcDbCircle
 10
198.6130000000157
 20
5.500000000078215
 30
0.0
 40
1.0
100
AcDbArc
 50
180.0
 51
0.0
1001
REVIT
1002
{
1070
     1
1000
1950931
1002
}
1002
{
1070
     2
1000
-2000051
1002
}
1002
{
1070
     3
1000
133798
1002
}
  0
LINE
  5
DA
330
70
100
AcDbEntity
  8
A-DETL
100
AcDbLine
 10
215.1744999999664
 20
30.57499999982247
 30
0.0
 11
201.0244999999995
 21
30.57499999985521
 31
0.0
1001
REVIT
1002
{
1070
     1
1000
1950932
1002
}
1002
{
1070
     2
1000
-2000051
1002
}
1002
{
1070
     3
1000
133798
1002
}
  0
LINE
  5
DB
330
70
100
AcDbEntity
  8
A-DETL
100
AcDbLine
 10
201.0244999999995
 20
30.57499999985521
 30
0.0
 11
201.0245000000323
 21
44.725000000004
 31
0.0
1001
REVIT
1002
{
1070
     1
1000
1950933
1002
}
1002
{
1070
     2
1000
-2000051
1002
}
1002
{
1070
     3
1000
133798
1002
}
  0
LINE
  5
DC
330
70
100
AcDbEntity
  8
A-DETL
100
AcDbLine
 10
201.0245000000323
 20
44.725000000004
 30
0.0
 11
215.1744999999992
 21
44.72499999997125
 31
0.0
1001
REVIT
1002
{
1070
     1
1000
1950934
1002
}
1002
{
1070
     2
1000
-2000051
1002
}
1002
{
1070
     3
1000
133798
1002
}
  0
LINE
  5
DD
330
70
100
AcDbEntity
  8
A-DETL
100
AcDbLine
 10
215.1744999999992
 20
44.72499999997125
 30
0.0
 11
215.1744999999664
 21
30.57499999982247
 31
0.0
1001
REVIT
1002
{
1070
     1
1000
1950935
1002
}
1002
{
1070
     2
1000
-2000051
1002
}
1002
{
1070
     3
1000
133798
1002
}
  0
LINE
  5
DE
330
70
100
AcDbEntity
  8
A-DETL
100
AcDbLine
 10
196.1244999999671
 20
30.57499999986794
 30
0.0
 11
181.9745000000002
 21
30.57499999990068
 31
0.0
1001
REVIT
1002
{
1070
     1
1000
1950936
1002
}
1002
{
1070
     2
1000
-2000051
1002
}
1002
{
1070
     3
1000
133798
1002
}
  0
LINE
  5
DF
330
70
100
AcDbEntity
  8
A-DETL
100
AcDbLine
 10
181.9745000000002
 20
30.57499999990068
 30
0.0
 11
181.974500000033
 21
44.725000000004
 31
0.0
1001
REVIT
1002
{
1070
     1
1000
1950937
1002
}
1002
{
1070
     2
1000
-2000051
1002
}
1002
{
1070
     3
1000
133798
1002
}
  0
LINE
  5
E0
330
70
100
AcDbEntity
  8
A-DETL
100
AcDbLine
 10
181.974500000033
 20
44.725000000004
 30
0.0
 11
196.1244999999981
 21
44.72499999997125
 31
0.0
1001
REVIT
1002
{
1070
     1
1000
1950938
1002
}
1002
{
1070
     2
1000
-2000051
1002
}
1002
{
1070
     3
1000
133798
1002
}
  0
LINE
  5
E1
330
70
100
AcDbEntity
  8
A-DETL
100
AcDbLine
 10
196.1244999999981
 20
44.72499999997125
 30
0.0
 11
196.1244999999671
 21
30.57499999986794
 31
0.0
1001
REVIT
1002
{
1070
     1
1000
1950939
1002
}
1002
{
1070
     2
1000
-2000051
1002
}
1002
{
1070
     3
1000
133798
1002
}
  0
LINE
  5
E2
330
70
100
AcDbEntity
  8
A-DETL
100
AcDbLine
 10
177.074499999966
 20
30.5749999999116
 30
0.0
 11
162.9244999999992
 21
30.57499999994434
 31
0.0
1001
REVIT
1002
{
1070
     1
1000
1950940
1002
}
1002
{
1070
     2
1000
-2000051
1002
}
1002
{
1070
     3
1000
133798
1002
}
  0
LINE
  5
E3
330
70
100
AcDbEntity
  8
A-DETL
100
AcDbLine
 10
162.9244999999992
 20
30.57499999994434
 30
0.0
 11
162.9245000000319
 21
44.725000000004
 31
0.0
1001
REVIT
1002
{
1070
     1
1000
1950941
1002
}
1002
{
1070
     2
1000
-2000051
1002
}
1002
{
1070
     3
1000
133798
1002
}
  0
LINE
  5
E4
330
70
100
AcDbEntity
  8
A-DETL
100
AcDbLine
 10
162.9245000000319
 20
44.725000000004
 30
0.0
 11
177.0744999999988
 21
44.72499999997125
 31
0.0
1001
REVIT
1002
{
1070
     1
1000
1950942
1002
}
1002
{
1070
     2
1000
-2000051
1002
}
1002
{
1070
     3
1000
133798
1002
}
  0
LINE
  5
E5
330
70
100
AcDbEntity
  8
A-DETL
100
AcDbLine
 10
177.0744999999988
 20
44.72499999997125
 30
0.0
 11
177.074499999966
 21
30.5749999999116
 31
0.0
1001
REVIT
1002
{
1070
     1
1000
1950943
1002
}
1002
{
1070
     2
1000
-2000051
1002
}
1002
{
1070
     3
1000
133798
1002
}
  0
LINE
  5
E6
330
70
100
AcDbEntity
  8
A-DETL
100
AcDbLine
 10
158.0244999999668
 20
30.57499999999891
 30
0.0
 11
143.8744999999999
 21
30.57500000003165
 31
0.0
1001
REVIT
1002
{
1070
     1
1000
1950944
1002
}
1002
{
1070
     2
1000
-2000051
1002
}
1002
{
1070
     3
1000
133798
1002
}
  0
LINE
  5
E7
330
70
100
AcDbEntity
  8
A-DETL
100
AcDbLine
 10
143.8744999999999
 20
30.57500000003165
 30
0.0
 11
143.8745000000326
 21
44.72500000013678
 31
0.0
1001
REVIT
1002
{
1070
     1
1000
1950945
1002
}
1002
{
1070
     2
1000
-2000051
1002
}
1002
{
1070
     3
1000
133798
1002
}
  0
LINE
  5
E8
330
70
100
AcDbEntity
  8
A-DETL
100
AcDbLine
 10
143.8745000000326
 20
44.72500000013678
 30
0.0
 11
158.0244999999995
 21
44.72500000010405
 31
0.0
1001
REVIT
1002
{
1070
     1
1000
1950946
1002
}
1002
{
1070
     2
1000
-2000051
1002
}
1002
{
1070
     3
1000
133798
1002
}
  0
LINE
  5
E9
330
70
100
AcDbEntity
  8
A-DETL
100
AcDbLine
 10
158.0244999999995
 20
44.72500000010405
 30
0.0
 11
158.0244999999668
 21
30.57499999999891
 31
0.0
1001
REVIT
1002
{
1070
     1
1000
1950947
1002
}
1002
{
1070
     2
1000
-2000051
1002
}
1002
{
1070
     3
1000
133798
1002
}
  0
LINE
  5
EA
330
70
100
AcDbEntity
  8
A-DETL
100
AcDbLine
 10
138.9744999999657
 20
30.57499999999891
 30
0.0
 11
124.8245000000006
 21
30.57500000003165
 31
0.0
1001
REVIT
1002
{
1070
     1
1000
1950948
1002
}
1002
{
1070
     2
1000
-2000051
1002
}
1002
{
1070
     3
1000
133798
1002
}
  0
LINE
  5
EB
330
70
100
AcDbEntity
  8
A-DETL
100
AcDbLine
 10
124.8245000000006
 20
30.57500000003165
 30
0.0
 11
124.8245000000334
 21
44.72500000017862
 31
0.0
1001
REVIT
1002
{
1070
     1
1000
1950949
1002
}
1002
{
1070
     2
1000
-2000051
1002
}
1002
{
1070
     3
1000
133798
1002
}
  0
LINE
  5
EC
330
70
100
AcDbEntity
  8
A-DETL
100
AcDbLine
 10
124.8245000000334
 20
44.72500000017862
 30
0.0
 11
138.9744999999984
 21
44.7250000001477
 31
0.0
1001
REVIT
1002
{
1070
     1
1000
1950950
1002
}
1002
{
1070
     2
1000
-2000051
1002
}
1002
{
1070
     3
1000
133798
1002
}
  0
LINE
  5
ED
330
70
100
AcDbEntity
  8
A-DETL
100
AcDbLine
 10
138.9744999999984
 20
44.7250000001477
 30
0.0
 11
138.9744999999657
 21
30.57499999999891
 31
0.0
1001
REVIT
1002
{
1070
     1
1000
1950951
1002
}
1002
{
1070
     2
1000
-2000051
1002
}
1002
{
1070
     3
1000
133798
1002
}
  0
LINE
  5
EE
330
70
100
AcDbEntity
  8
A-DETL
100
AcDbLine
 10
119.9244999999664
 20
30.57500000004257
 30
0.0
 11
105.7744999999995
 21
30.57500000007531
 31
0.0
1001
REVIT
1002
{
1070
     1
1000
1950952
1002
}
1002
{
1070
     2
1000
-2000051
1002
}
1002
{
1070
     3
1000
133798
1002
}
  0
LINE
  5
EF
330
70
100
AcDbEntity
  8
A-DETL
100
AcDbLine
 10
105.7744999999995
 20
30.57500000007531
 30
0.0
 11
105.7745000000323
 21
44.72500000022228
 31
0.0
1001
REVIT
1002
{
1070
     1
1000
1950953
1002
}
1002
{
1070
     2
1000
-2000051
1002
}
1002
{
1070
     3
1000
133798
1002
}
  0
LINE
  5
F0
330
70
100
AcDbEntity
  8
A-DETL
100
AcDbLine
 10
105.7745000000323
 20
44.72500000022228
 30
0.0
 11
119.9244999999991
 21
44.72500000018953
 31
0.0
1001
REVIT
1002
{
1070
     1
1000
1950954
1002
}
1002
{
1070
     2
1000
-2000051
1002
}
1002
{
1070
     3
1000
133798
1002
}
  0
LINE
  5
F1
330
70
100
AcDbEntity
  8
A-DETL
100
AcDbLine
 10
119.9244999999991
 20
44.72500000018953
 30
0.0
 11
119.9244999999664
 21
30.57500000004257
 31
0.0
1001
REVIT
1002
{
1070
     1
1000
1950955
1002
}
1002
{
1070
     2
1000
-2000051
1002
}
1002
{
1070
     3
1000
133798
1002
}
  0
LINE
  5
F2
330
70
100
AcDbEntity
  8
A-DETL
100
AcDbLine
 10
100.8744999999671
 20
30.5750000000844
 30
0.0
 11
86.72450000000026
 21
30.57500000011714
 31
0.0
1001
REVIT
1002
{
1070
     1
1000
1950956
1002
}
1002
{
1070
     2
1000
-2000051
1002
}
1002
{
1070
     3
1000
133798
1002
}
  0
LINE
  5
F3
330
70
100
AcDbEntity
  8
A-DETL
100
AcDbLine
 10
86.72450000000026
 20
30.57500000011714
 30
0.0
 11
86.724500000033
 21
44.72500000026593
 31
0.0
1001
REVIT
1002
{
1070
     1
1000
1950957
1002
}
1002
{
1070
     2
1000
-2000051
1002
}
1002
{
1070
     3
1000
133798
1002
}
  0
LINE
  5
F4
330
70
100
AcDbEntity
  8
A-DETL
100
AcDbLine
 10
86.724500000033
 20
44.72500000026593
 30
0.0
 11
100.8744999999981
 21
44.72500000023319
 31
0.0
1001
REVIT
1002
{
1070
     1
1000
1950958
1002
}
1002
{
1070
     2
1000
-2000051
1002
}
1002
{
1070
     3
1000
133798
1002
}
  0
LINE
  5
F5
330
70
100
AcDbEntity
  8
A-DETL
100
AcDbLine
 10
100.8744999999981
 20
44.72500000023319
 30
0.0
 11
100.8744999999671
 21
30.5750000000844
 31
0.0
1001
REVIT
1002
{
1070
     1
1000
1950959
1002
}
1002
{
1070
     2
1000
-2000051
1002
}
1002
{
1070
     3
1000
133798
1002
}
  0
LINE
  5
F6
330
70
100
AcDbEntity
  8
A-DETL
100
AcDbLine
 10
86.72450000000209
 20
25.67499999987012
 30
0.0
 11
100.872283697985
 21
25.67499999983738
 31
0.0
1001
REVIT
1002
{
1070
     1
1000
1950960
1002
}
1002
{
1070
     2
1000
-2000051
1002
}
1002
{
1070
     3
1000
133798
1002
}
  0
LINE
  5
F7
330
70
100
AcDbEntity
  8
A-DETL
100
AcDbLine
 10
100.872283697985
 20
25.67499999983738
 30
0.0
 11
100.8722836979523
 21
11.52499999986867
 31
0.0
1001
REVIT
1002
{
1070
     1
1000
1950961
1002
}
1002
{
1070
     2
1000
-2000051
1002
}
1002
{
1070
     3
1000
133798
1002
}
  0
LINE
  5
F8
330
70
100
AcDbEntity
  8
A-DETL
100
AcDbLine
 10
100.8722836979523
 20
11.52499999986867
 30
0.0
 11
86.72449999996933
 21
11.52499999990141
 31
0.0
1001
REVIT
1002
{
1070
     1
1000
1950962
1002
}
1002
{
1070
     2
1000
-2000051
1002
}
1002
{
1070
     3
1000
133798
1002
}
  0
LINE
  5
F9
330
70
100
AcDbEntity
  8
A-DETL
100
AcDbLine
 10
86.72449999996933
 20
11.52499999990141
 30
0.0
 11
86.72450000000209
 21
25.67499999987012
 31
0.0
1001
REVIT
1002
{
1070
     1
1000
1950963
1002
}
1002
{
1070
     2
1000
-2000051
1002
}
1002
{
1070
     3
1000
133798
1002
}
  0
LINE
  5
FA
330
70
100
AcDbEntity
  8
A-DETL
100
AcDbLine
 10
234.2244999999693
 20
30.57499999978063
 30
0.0
 11
220.0745000000006
 21
30.57499999981156
 31
0.0
1001
REVIT
1002
{
1070
     1
1000
1950964
1002
}
1002
{
1070
     2
1000
-2000051
1002
}
1002
{
1070
     3
1000
133798
1002
}
  0
LINE
  5
FB
330
70
100
AcDbEntity
  8
A-DETL
100
AcDbLine
 10
220.0745000000006
 20
30.57499999981156
 30
0.0
 11
220.0745000000334
 21
44.72499999996034
 31
0.0
1001
REVIT
1002
{
1070
     1
1000
1950965
1002
}
1002
{
1070
     2
1000
-2000051
1002
}
1002
{
1070
     3
1000
133798
1002
}
  0
LINE
  5
FC
330
70
100
AcDbEntity
  8
A-DETL
100
AcDbLine
 10
220.0745000000334
 20
44.72499999996034
 30
0.0
 11
234.2245000000003
 21
44.7249999999276
 31
0.0
1001
REVIT
1002
{
1070
     1
1000
1950966
1002
}
1002
{
1070
     2
1000
-2000051
1002
}
1002
{
1070
     3
1000
133798
1002
}
  0
LINE
  5
FD
330
70
100
AcDbEntity
  8
A-DETL
100
AcDbLine
 10
234.2245000000003
 20
44.7249999999276
 30
0.0
 11
234.2244999999693
 21
30.57499999978063
 31
0.0
1001
REVIT
1002
{
1070
     1
1000
1950967
1002
}
1002
{
1070
     2
1000
-2000051
1002
}
1002
{
1070
     3
1000
133798
1002
}
  0
LINE
  5
FE
330
70
100
AcDbEntity
  8
A-DETL
100
AcDbLine
 10
234.2245000000112
 20
49.62499999951615
 30
0.0
 11
220.0745000000006
 21
49.62499999954889
 31
0.0
1001
REVIT
1002
{
1070
     1
1000
1950968
1002
}
1002
{
1070
     2
1000
-2000051
1002
}
1002
{
1070
     3
1000
133798
1002
}
  0
LINE
  5
FF
330
70
100
AcDbEntity
  8
A-DETL
100
AcDbLine
 10
220.0745000000006
 20
49.62499999954889
 30
0.0
 11
220.0745000000334
 21
63.77499999951942
 31
0.0
1001
REVIT
1002
{
1070
     1
1000
1950969
1002
}
1002
{
1070
     2
1000
-2000051
1002
}
1002
{
1070
     3
1000
133798
1002
}
  0
LINE
  5
100
330
70
100
AcDbEntity
  8
A-DETL
100
AcDbLine
 10
220.0745000000334
 20
63.77499999951942
 30
0.0
 11
234.2245000000439
 21
63.77499999948668
 31
0.0
1001
REVIT
1002
{
1070
     1
1000
1950970
1002
}
1002
{
1070
     2
1000
-2000051
1002
}
1002
{
1070
     3
1000
133798
1002
}
  0
LINE
  5
101
330
70
100
AcDbEntity
  8
A-DETL
100
AcDbLine
 10
234.2245000000439
 20
63.77499999948668
 30
0.0
 11
234.2245000000112
 21
49.62499999951615
 31
0.0
1001
REVIT
1002
{
1070
     1
1000
1950971
1002
}
1002
{
1070
     2
1000
-2000051
1002
}
1002
{
1070
     3
1000
133798
1002
}
  0
LINE
  5
102
330
70
100
AcDbEntity
  8
A-DETL
100
AcDbLine
 10
243.8874999999989
 20
49.62499999949613
 30
0.0
 11
243.8875000000316
 21
63.77499999946485
 31
0.0
1001
REVIT
1002
{
1070
     1
1000
1950972
1002
}
1002
{
1070
     2
1000
-2000051
1002
}
1002
{
1070
     3
1000
133798
1002
}
  0
LINE
  5
103
330
70
100
AcDbEntity
  8
A-DETL
100
AcDbLine
 10
243.8875000000316
 20
63.77499999946485
 30
0.0
 11
258.0375000000004
 21
63.77499999943211
 31
0.0
1001
REVIT
1002
{
1070
     1
1000
1950973
1002
}
1002
{
1070
     2
1000
-2000051
1002
}
1002
{
1070
     3
1000
133798
1002
}
  0
LINE
  5
104
330
70
100
AcDbEntity
  8
A-DETL
100
AcDbLine
 10
258.0375000000004
 20
63.77499999943211
 30
0.0
 11
258.0374999999676
 21
49.6249999994634
 31
0.0
1001
REVIT
1002
{
1070
     1
1000
1950974
1002
}
1002
{
1070
     2
1000
-2000051
1002
}
1002
{
1070
     3
1000
133798
1002
}
  0
LINE
  5
105
330
70
100
AcDbEntity
  8
A-DETL
100
AcDbLine
 10
258.0374999999676
 20
49.6249999994634
 30
0.0
 11
243.8874999999989
 21
49.62499999949613
 31
0.0
1001
REVIT
1002
{
1070
     1
1000
1950975
1002
}
1002
{
1070
     2
1000
-2000051
1002
}
1002
{
1070
     3
1000
133798
1002
}
  0
LINE
  5
106
330
70
100
AcDbEntity
  8
A-DETL
100
AcDbLine
 10
201.0245000000323
 20
63.77499999956308
 30
0.0
 11
215.1744999999992
 21
63.77499999953034
 31
0.0
1001
REVIT
1002
{
1070
     1
1000
1950976
1002
}
1002
{
1070
     2
1000
-2000051
1002
}
1002
{
1070
     3
1000
133798
1002
}
  0
LINE
  5
107
330
70
100
AcDbEntity
  8
A-DETL
100
AcDbLine
 10
215.1744999999992
 20
63.77499999953034
 30
0.0
 11
215.1744999999664
 21
49.62499999956162
 31
0.0
1001
REVIT
1002
{
1070
     1
1000
1950977
1002
}
1002
{
1070
     2
1000
-2000051
1002
}
1002
{
1070
     3
1000
133798
1002
}
  0
LINE
  5
108
330
70
100
AcDbEntity
  8
A-DETL
100
AcDbLine
 10
215.1744999999664
 20
49.62499999956162
 30
0.0
 11
201.0244999999995
 21
49.62499999959437
 31
0.0
1001
REVIT
1002
{
1070
     1
1000
1950978
1002
}
1002
{
1070
     2
1000
-2000051
1002
}
1002
{
1070
     3
1000
133798
1002
}
  0
LINE
  5
109
330
70
100
AcDbEntity
  8
A-DETL
100
AcDbLine
 10
201.0244999999995
 20
49.62499999959437
 30
0.0
 11
201.0245000000323
 21
63.77499999956308
 31
0.0
1001
REVIT
1002
{
1070
     1
1000
1950979
1002
}
1002
{
1070
     2
1000
-2000051
1002
}
1002
{
1070
     3
1000
133798
1002
}
  0
LINE
  5
10A
330
70
100
AcDbEntity
  8
A-DETL
100
AcDbLine
 10
181.974500000033
 20
63.77499999960855
 30
0.0
 11
196.1244999999981
 21
63.77499999957581
 31
0.0
1001
REVIT
1002
{
1070
     1
1000
1950980
1002
}
1002
{
1070
     2
1000
-2000051
1002
}
1002
{
1070
     3
1000
133798
1002
}
  0
LINE
  5
10B
330
70
100
AcDbEntity
  8
A-DETL
100
AcDbLine
 10
196.1244999999981
 20
63.77499999957581
 30
0.0
 11
196.1244999999671
 21
49.62499999960527
 31
0.0
1001
REVIT
1002
{
1070
     1
1000
1950981
1002
}
1002
{
1070
     2
1000
-2000051
1002
}
1002
{
1070
     3
1000
133798
1002
}
  0
LINE
  5
10C
330
70
100
AcDbEntity
  8
A-DETL
100
AcDbLine
 10
196.1244999999671
 20
49.62499999960527
 30
0.0
 11
181.9745000000002
 21
49.6249999996362
 31
0.0
1001
REVIT
1002
{
1070
     1
1000
1950982
1002
}
1002
{
1070
     2
1000
-2000051
1002
}
1002
{
1070
     3
1000
133798
1002
}
  0
LINE
  5
10D
330
70
100
AcDbEntity
  8
A-DETL
100
AcDbLine
 10
181.9745000000002
 20
49.6249999996362
 30
0.0
 11
181.974500000033
 21
63.77499999960855
 31
0.0
1001
REVIT
1002
{
1070
     1
1000
1950983
1002
}
1002
{
1070
     2
1000
-2000051
1002
}
1002
{
1070
     3
1000
133798
1002
}
  0
LINE
  5
10E
330
70
100
AcDbEntity
  8
A-DETL
100
AcDbLine
 10
162.9245000000319
 20
63.77499999965039
 30
0.0
 11
177.0744999999988
 21
63.77499999961765
 31
0.0
1001
REVIT
1002
{
1070
     1
1000
1950984
1002
}
1002
{
1070
     2
1000
-2000051
1002
}
1002
{
1070
     3
1000
133798
1002
}
  0
LINE
  5
10F
330
70
100
AcDbEntity
  8
A-DETL
100
AcDbLine
 10
177.0744999999988
 20
63.77499999961765
 30
0.0
 11
177.074499999966
 21
49.62499999965075
 31
0.0
1001
REVIT
1002
{
1070
     1
1000
1950985
1002
}
1002
{
1070
     2
1000
-2000051
1002
}
1002
{
1070
     3
1000
133798
1002
}
  0
LINE
  5
110
330
70
100
AcDbEntity
  8
A-DETL
100
AcDbLine
 10
177.074499999966
 20
49.62499999965075
 30
0.0
 11
162.9244999999992
 21
49.62499999968168
 31
0.0
1001
REVIT
1002
{
1070
     1
1000
1950986
1002
}
1002
{
1070
     2
1000
-2000051
1002
}
1002
{
1070
     3
1000
133798
1002
}
  0
LINE
  5
111
330
70
100
AcDbEntity
  8
A-DETL
100
AcDbLine
 10
162.9244999999992
 20
49.62499999968168
 30
0.0
 11
162.9245000000319
 21
63.77499999965039
 31
0.0
1001
REVIT
1002
{
1070
     1
1000
1950987
1002
}
1002
{
1070
     2
1000
-2000051
1002
}
1002
{
1070
     3
1000
133798
1002
}
  0
LINE
  5
112
330
70
100
AcDbEntity
  8
A-DETL
100
AcDbLine
 10
143.8745000000326
 20
63.77499999969223
 30
0.0
 11
158.0244999999995
 21
63.77499999965948
 31
0.0
1001
REVIT
1002
{
1070
     1
1000
1950988
1002
}
1002
{
1070
     2
1000
-2000051
1002
}
1002
{
1070
     3
1000
133798
1002
}
  0
LINE
  5
113
330
70
100
AcDbEntity
  8
A-DETL
100
AcDbLine
 10
158.0244999999995
 20
63.77499999965948
 30
0.0
 11
158.0244999999668
 21
49.62499999969077
 31
0.0
1001
REVIT
1002
{
1070
     1
1000
1950989
1002
}
1002
{
1070
     2
1000
-2000051
1002
}
1002
{
1070
     3
1000
133798
1002
}
  0
LINE
  5
114
330
70
100
AcDbEntity
  8
A-DETL
100
AcDbLine
 10
158.0244999999668
 20
49.62499999969077
 30
0.0
 11
143.8744999999999
 21
49.62499999972351
 31
0.0
1001
REVIT
1002
{
1070
     1
1000
1950990
1002
}
1002
{
1070
     2
1000
-2000051
1002
}
1002
{
1070
     3
1000
133798
1002
}
  0
LINE
  5
115
330
70
100
AcDbEntity
  8
A-DETL
100
AcDbLine
 10
143.8744999999999
 20
49.62499999972351
 30
0.0
 11
143.8745000000326
 21
63.77499999969223
 31
0.0
1001
REVIT
1002
{
1070
     1
1000
1950991
1002
}
1002
{
1070
     2
1000
-2000051
1002
}
1002
{
1070
     3
1000
133798
1002
}
  0
LINE
  5
116
330
70
100
AcDbEntity
  8
A-DETL
100
AcDbLine
 10
124.8245000000334
 20
63.7749999997377
 30
0.0
 11
138.9744999999984
 21
63.77499999970495
 31
0.0
1001
REVIT
1002
{
1070
     1
1000
1950992
1002
}
1002
{
1070
     2
1000
-2000051
1002
}
1002
{
1070
     3
1000
133798
1002
}
  0
LINE
  5
117
330
70
100
AcDbEntity
  8
A-DETL
100
AcDbLine
 10
138.9744999999984
 20
63.77499999970495
 30
0.0
 11
138.9744999999657
 21
49.62499999973625
 31
0.0
1001
REVIT
1002
{
1070
     1
1000
1950993
1002
}
1002
{
1070
     2
1000
-2000051
1002
}
1002
{
1070
     3
1000
133798
1002
}
  0
LINE
  5
118
330
70
100
AcDbEntity
  8
A-DETL
100
AcDbLine
 10
138.9744999999657
 20
49.62499999973625
 30
0.0
 11
124.8245000000006
 21
49.62499999976898
 31
0.0
1001
REVIT
1002
{
1070
     1
1000
1950994
1002
}
1002
{
1070
     2
1000
-2000051
1002
}
1002
{
1070
     3
1000
133798
1002
}
  0
LINE
  5
119
330
70
100
AcDbEntity
  8
A-DETL
100
AcDbLine
 10
124.8245000000006
 20
49.62499999976898
 30
0.0
 11
124.8245000000334
 21
63.7749999997377
 31
0.0
1001
REVIT
1002
{
1070
     1
1000
1950995
1002
}
1002
{
1070
     2
1000
-2000051
1002
}
1002
{
1070
     3
1000
133798
1002
}
  0
LINE
  5
11A
330
70
100
AcDbEntity
  8
A-DETL
100
AcDbLine
 10
105.7745000000323
 20
63.77499999978136
 30
0.0
 11
119.9244999999991
 21
63.77499999974862
 31
0.0
1001
REVIT
1002
{
1070
     1
1000
1950996
1002
}
1002
{
1070
     2
1000
-2000051
1002
}
1002
{
1070
     3
1000
133798
1002
}
  0
LINE
  5
11B
330
70
100
AcDbEntity
  8
A-DETL
100
AcDbLine
 10
119.9244999999991
 20
63.77499999974862
 30
0.0
 11
119.9244999999664
 21
49.6249999997799
 31
0.0
1001
REVIT
1002
{
1070
     1
1000
1950997
1002
}
1002
{
1070
     2
1000
-2000051
1002
}
1002
{
1070
     3
1000
133798
1002
}
  0
LINE
  5
11C
330
70
100
AcDbEntity
  8
A-DETL
100
AcDbLine
 10
119.9244999999664
 20
49.6249999997799
 30
0.0
 11
105.7744999999995
 21
49.62499999981265
 31
0.0
1001
REVIT
1002
{
1070
     1
1000
1950998
1002
}
1002
{
1070
     2
1000
-2000051
1002
}
1002
{
1070
     3
1000
133798
1002
}
  0
LINE
  5
11D
330
70
100
AcDbEntity
  8
A-DETL
100
AcDbLine
 10
105.7744999999995
 20
49.62499999981265
 30
0.0
 11
105.7745000000323
 21
63.77499999978136
 31
0.0
1001
REVIT
1002
{
1070
     1
1000
1950999
1002
}
1002
{
1070
     2
1000
-2000051
1002
}
1002
{
1070
     3
1000
133798
1002
}
  0
LINE
  5
11E
330
70
100
AcDbEntity
  8
A-DETL
100
AcDbLine
 10
86.724500000033
 20
63.77499999982501
 30
0.0
 11
100.8744999999981
 21
63.77499999979227
 31
0.0
1001
REVIT
1002
{
1070
     1
1000
1951000
1002
}
1002
{
1070
     2
1000
-2000051
1002
}
1002
{
1070
     3
1000
133798
1002
}
  0
LINE
  5
11F
330
70
100
AcDbEntity
  8
A-DETL
100
AcDbLine
 10
100.8744999999981
 20
63.77499999979227
 30
0.0
 11
100.8744999999671
 21
49.62499999982355
 31
0.0
1001
REVIT
1002
{
1070
     1
1000
1951001
1002
}
1002
{
1070
     2
1000
-2000051
1002
}
1002
{
1070
     3
1000
133798
1002
}
  0
LINE
  5
120
330
70
100
AcDbEntity
  8
A-DETL
100
AcDbLine
 10
100.8744999999671
 20
49.62499999982355
 30
0.0
 11
86.72450000000026
 21
49.6249999998563
 31
0.0
1001
REVIT
1002
{
1070
     1
1000
1951002
1002
}
1002
{
1070
     2
1000
-2000051
1002
}
1002
{
1070
     3
1000
133798
1002
}
  0
LINE
  5
121
330
70
100
AcDbEntity
  8
A-DETL
100
AcDbLine
 10
86.72450000000026
 20
49.6249999998563
 30
0.0
 11
86.724500000033
 21
63.77499999982501
 31
0.0
1001
REVIT
1002
{
1070
     1
1000
1951003
1002
}
1002
{
1070
     2
1000
-2000051
1002
}
1002
{
1070
     3
1000
133798
1002
}
  0
LINE
  5
122
330
70
100
AcDbEntity
  8
A-DETL
100
AcDbLine
 10
67.67450000003191
 20
63.77499999999963
 30
0.0
 11
81.8244999999988
 21
63.7749999999669
 31
0.0
1001
REVIT
1002
{
1070
     1
1000
1951004
1002
}
1002
{
1070
     2
1000
-2000051
1002
}
1002
{
1070
     3
1000
133798
1002
}
  0
LINE
  5
123
330
70
100
AcDbEntity
  8
A-DETL
100
AcDbLine
 10
81.8244999999988
 20
63.7749999999669
 30
0.0
 11
81.82449999996606
 21
49.62499999999818
 31
0.0
1001
REVIT
1002
{
1070
     1
1000
1951005
1002
}
1002
{
1070
     2
1000
-2000051
1002
}
1002
{
1070
     3
1000
133798
1002
}
  0
LINE
  5
124
330
70
100
AcDbEntity
  8
A-DETL
100
AcDbLine
 10
81.82449999996606
 20
49.62499999999818
 30
0.0
 11
67.67449999999917
 21
49.62500000003092
 31
0.0
1001
REVIT
1002
{
1070
     1
1000
1951006
1002
}
1002
{
1070
     2
1000
-2000051
1002
}
1002
{
1070
     3
1000
133798
1002
}
  0
LINE
  5
125
330
70
100
AcDbEntity
  8
A-DETL
100
AcDbLine
 10
67.67449999999917
 20
49.62500000003092
 30
0.0
 11
67.67450000003191
 21
63.77499999999963
 31
0.0
1001
REVIT
1002
{
1070
     1
1000
1951007
1002
}
1002
{
1070
     2
1000
-2000051
1002
}
1002
{
1070
     3
1000
133798
1002
}
  0
LINE
  5
126
330
70
100
AcDbEntity
  8
A-DETL
100
AcDbLine
 10
67.67450000003191
 20
44.72500000031141
 30
0.0
 11
81.8244999999988
 21
44.72500000027866
 31
0.0
1001
REVIT
1002
{
1070
     1
1000
1951008
1002
}
1002
{
1070
     2
1000
-2000051
1002
}
1002
{
1070
     3
1000
133798
1002
}
  0
LINE
  5
127
330
70
100
AcDbEntity
  8
A-DETL
100
AcDbLine
 10
81.8244999999988
 20
44.72500000027866
 30
0.0
 11
81.82449999996606
 21
30.57500000012988
 31
0.0
1001
REVIT
1002
{
1070
     1
1000
1951009
1002
}
1002
{
1070
     2
1000
-2000051
1002
}
1002
{
1070
     3
1000
133798
1002
}
  0
LINE
  5
128
330
70
100
AcDbEntity
  8
A-DETL
100
AcDbLine
 10
81.82449999996606
 20
30.57500000012988
 30
0.0
 11
67.67449999999917
 21
30.57500000016262
 31
0.0
1001
REVIT
1002
{
1070
     1
1000
1951010
1002
}
1002
{
1070
     2
1000
-2000051
1002
}
1002
{
1070
     3
1000
133798
1002
}
  0
LINE
  5
129
330
70
100
AcDbEntity
  8
A-DETL
100
AcDbLine
 10
67.67449999999917
 20
30.57500000016262
 30
0.0
 11
67.67450000003191
 21
44.72500000031141
 31
0.0
1001
REVIT
1002
{
1070
     1
1000
1951011
1002
}
1002
{
1070
     2
1000
-2000051
1002
}
1002
{
1070
     3
1000
133798
1002
}
  0
LINE
  5
12A
330
70
100
AcDbEntity
  8
A-DETL
100
AcDbLine
 10
67.67450000003191
 20
25.67499999991378
 30
0.0
 11
81.8244999999988
 21
25.67499999988104
 31
0.0
1001
REVIT
1002
{
1070
     1
1000
1951012
1002
}
1002
{
1070
     2
1000
-2000051
1002
}
1002
{
1070
     3
1000
133798
1002
}
  0
LINE
  5
12B
330
70
100
AcDbEntity
  8
A-DETL
100
AcDbLine
 10
81.8244999999988
 20
25.67499999988104
 30
0.0
 11
81.82449999996606
 21
11.52499999991232
 31
0.0
1001
REVIT
1002
{
1070
     1
1000
1951013
1002
}
1002
{
1070
     2
1000
-2000051
1002
}
1002
{
1070
     3
1000
133798
1002
}
  0
LINE
  5
12C
330
70
100
AcDbEntity
  8
A-DETL
100
AcDbLine
 10
81.82449999996606
 20
11.52499999991232
 30
0.0
 11
67.67449999999917
 21
11.52499999994506
 31
0.0
1001
REVIT
1002
{
1070
     1
1000
1951014
1002
}
1002
{
1070
     2
1000
-2000051
1002
}
1002
{
1070
     3
1000
133798
1002
}
  0
LINE
  5
12D
330
70
100
AcDbEntity
  8
A-DETL
100
AcDbLine
 10
67.67449999999917
 20
11.52499999994506
 30
0.0
 11
67.67450000003191
 21
25.67499999991378
 31
0.0
1001
REVIT
1002
{
1070
     1
1000
1951015
1002
}
1002
{
1070
     2
1000
-2000051
1002
}
1002
{
1070
     3
1000
133798
1002
}
  0
ARC
  5
12E
330
70
100
AcDbEntity
  8
A-DETL
100
AcDbCircle
 10
74.74949999998353
 20
5.500000000078215
 30
0.0
 40
1.0
100
AcDbArc
 50
0.0
 51
180.0
1001
REVIT
1002
{
1070
     1
1000
1951016
1002
}
1002
{
1070
     2
1000
-2000051
1002
}
1002
{
1070
     3
1000
133798
1002
}
  0
ARC
  5
12F
330
70
100
AcDbEntity
  8
A-DETL
100
AcDbCircle
 10
74.74949999998353
 20
5.500000000078215
 30
0.0
 40
1.0
100
AcDbArc
 50
180.0
 51
0.0
1001
REVIT
1002
{
1070
     1
1000
1951017
1002
}
1002
{
1070
     2
1000
-2000051
1002
}
1002
{
1070
     3
1000
133798
1002
}
  0
ARC
  5
130
330
70
100
AcDbEntity
  8
A-DETL
100
AcDbCircle
 10
74.74949999998353
 20
69.79999999992106
 30
0.0
 40
1.0
100
AcDbArc
 50
0.0
 51
180.0
1001
REVIT
1002
{
1070
     1
1000
1951018
1002
}
1002
{
1070
     2
1000
-2000051
1002
}
1002
{
1070
     3
1000
133798
1002
}
  0
ARC
  5
131
330
70
100
AcDbEntity
  8
A-DETL
100
AcDbCircle
 10
74.74949999998353
 20
69.79999999992106
 30
0.0
 40
1.0
100
AcDbArc
 50
180.0
 51
0.0
1001
REVIT
1002
{
1070
     1
1000
1951019
1002
}
1002
{
1070
     2
1000
-2000051
1002
}
1002
{
1070
     3
1000
133798
1002
}
  0
ARC
  5
132
330
70
100
AcDbEntity
  8
A-DETL
100
AcDbCircle
 10
198.6130000000157
 20
69.79999999992106
 30
0.0
 40
1.0
100
AcDbArc
 50
0.0
 51
180.0
1001
REVIT
1002
{
1070
     1
1000
1951020
1002
}
1002
{
1070
     2
1000
-2000051
1002
}
1002
{
1070
     3
1000
133798
1002
}
  0
ARC
  5
133
330
70
100
AcDbEntity
  8
A-DETL
100
AcDbCircle
 10
198.6130000000157
 20
69.79999999992106
 30
0.0
 40
1.0
100
AcDbArc
 50
180.0
 51
0.0
1001
REVIT
1002
{
1070
     1
1000
1951021
1002
}
1002
{
1070
     2
1000
-2000051
1002
}
1002
{
1070
     3
1000
133798
1002
}
  0
ARC
  5
134
330
70
100
AcDbEntity
  8
A-DETL
100
AcDbCircle
 10
255.7636081505134
 20
69.79999999992106
 30
0.0
 40
1.0
100
AcDbArc
 50
180.0
 51
0.0
1001
REVIT
1002
{
1070
     1
1000
1951022
1002
}
1002
{
1070
     2
1000
-2000051
1002
}
1002
{
1070
     3
1000
133798
1002
}
  0
ARC
  5
135
330
70
100
AcDbEntity
  8
A-DETL
100
AcDbCircle
 10
255.7636081505134
 20
69.79999999992106
 30
0.0
 40
0.999999999998181
100
AcDbArc
 50
0.0
 51
180.0
1001
REVIT
1002
{
1070
     1
1000
1951023
1002
}
1002
{
1070
     2
1000
-2000051
1002
}
1002
{
1070
     3
1000
133798
1002
}
  0
ARC
  5
136
330
70
100
AcDbEntity
  8
A-DETL
100
AcDbCircle
 10
17.59889184948406
 20
69.79999999992106
 30
0.0
 40
1.0
100
AcDbArc
 50
180.0
 51
0.0
1001
REVIT
1002
{
1070
     1
1000
1951024
1002
}
1002
{
1070
     2
1000
-2000051
1002
}
1002
{
1070
     3
1000
133798
1002
}
  0
ARC
  5
137
330
70
100
AcDbEntity
  8
A-DETL
100
AcDbCircle
 10
17.59889184948406
 20
69.79999999992106
 30
0.0
 40
1.0
100
AcDbArc
 50
0.0
 51
180.0
1001
REVIT
1002
{
1070
     1
1000
1951025
1002
}
1002
{
1070
     2
1000
-2000051
1002
}
1002
{
1070
     3
1000
133798
1002
}
  0
ARC
  5
138
330
70
100
AcDbEntity
  8
A-DETL
100
AcDbCircle
 10
17.59889184948406
 20
5.500000000078215
 30
0.0
 40
1.0
100
AcDbArc
 50
0.0
 51
180.0
1001
REVIT
1002
{
1070
     1
1000
1951026
1002
}
1002
{
1070
     2
1000
-2000051
1002
}
1002
{
1070
     3
1000
133798
1002
}
  0
ARC
  5
139
330
70
100
AcDbEntity
  8
A-DETL
100
AcDbCircle
 10
17.59889184948406
 20
5.500000000078215
 30
0.0
 40
1.0
100
AcDbArc
 50
180.0
 51
0.0
1001
REVIT
1002
{
1070
     1
1000
1951027
1002
}
1002
{
1070
     2
1000
-2000051
1002
}
1002
{
1070
     3
1000
133798
1002
}
  0
LINE
  5
13A
330
70
100
AcDbEntity
  8
A-DETL
100
AcDbLine
 10
24.67278369847554
 20
11.52499999999782
 30
0.0
 11
10.52500000049258
 21
11.52500000003056
 31
0.0
1001
REVIT
1002
{
1070
     1
1000
1951028
1002
}
1002
{
1070
     2
1000
-2000051
1002
}
1002
{
1070
     3
1000
133798
1002
}
  0
LINE
  5
13B
330
70
100
AcDbEntity
  8
A-DETL
100
AcDbLine
 10
10.52500000049258
 20
11.52500000003056
 30
0.0
 11
10.52500000052532
 21
25.67499999999927
 31
0.0
1001
REVIT
1002
{
1070
     1
1000
1951029
1002
}
1002
{
1070
     2
1000
-2000051
1002
}
1002
{
1070
     3
1000
133798
1002
}
  0
LINE
  5
13C
330
70
100
AcDbEntity
  8
A-DETL
100
AcDbLine
 10
10.52500000052532
 20
25.67499999999927
 30
0.0
 11
24.67278369850828
 21
25.67499999996653
 31
0.0
1001
REVIT
1002
{
1070
     1
1000
1951030
1002
}
1002
{
1070
     2
1000
-2000051
1002
}
1002
{
1070
     3
1000
133798
1002
}
  0
LINE
  5
13D
330
70
100
AcDbEntity
  8
A-DETL
100
AcDbLine
 10
24.67278369850828
 20
25.67499999996653
 30
0.0
 11
24.67278369847554
 21
11.52499999999782
 31
0.0
1001
REVIT
1002
{
1070
     1
1000
1951031
1002
}
1002
{
1070
     2
1000
-2000051
1002
}
1002
{
1070
     3
1000
133798
1002
}
  0
LINE
  5
13E
330
70
100
AcDbEntity
  8
A-DETL
100
AcDbLine
 10
24.67278369852102
 20
30.57500000026085
 30
0.0
 11
10.52500000054169
 21
30.57500000029359
 31
0.0
1001
REVIT
1002
{
1070
     1
1000
1951032
1002
}
1002
{
1070
     2
1000
-2000051
1002
}
1002
{
1070
     3
1000
133798
1002
}
  0
LINE
  5
13F
330
70
100
AcDbEntity
  8
A-DETL
100
AcDbLine
 10
10.52500000054169
 20
30.57500000029359
 30
0.0
 11
10.52500000057261
 21
44.72500000000036
 31
0.0
1001
REVIT
1002
{
1070
     1
1000
1951033
1002
}
1002
{
1070
     2
1000
-2000051
1002
}
1002
{
1070
     3
1000
133798
1002
}
  0
LINE
  5
140
330
70
100
AcDbEntity
  8
A-DETL
100
AcDbLine
 10
10.52500000057261
 20
44.72500000000036
 30
0.0
 11
24.67278369855376
 21
44.72499999996762
 31
0.0
1001
REVIT
1002
{
1070
     1
1000
1951034
1002
}
1002
{
1070
     2
1000
-2000051
1002
}
1002
{
1070
     3
1000
133798
1002
}
  0
LINE
  5
141
330
70
100
AcDbEntity
  8
A-DETL
100
AcDbLine
 10
24.67278369855376
 20
44.72499999996762
 30
0.0
 11
24.67278369852102
 21
30.57500000026085
 31
0.0
1001
REVIT
1002
{
1070
     1
1000
1951035
1002
}
1002
{
1070
     2
1000
-2000051
1002
}
1002
{
1070
     3
1000
133798
1002
}
  0
LINE
  5
142
330
70
100
AcDbEntity
  8
A-DETL
100
AcDbLine
 10
21.32987564770883
 20
47.94294756788985
 30
0.0
 11
13.85707128080503
 21
47.94294756788985
 31
0.0
1001
REVIT
1002
{
1070
     1
1000
1951036
1002
}
1002
{
1070
     2
1000
-2000051
1002
}
1002
{
1070
     3
1000
133798
1002
}
  0
LINE
  5
143
330
70
100
AcDbEntity
  8
A-DETL
100
AcDbLine
 10
13.85707128080503
 20
47.94294756788985
 30
0.0
 11
13.85707128080503
 21
49.62500000002183
 31
0.0
1001
REVIT
1002
{
1070
     1
1000
1951037
1002
}
1002
{
1070
     2
1000
-2000051
1002
}
1002
{
1070
     3
1000
133798
1002
}
  0
LINE
  5
144
330
70
100
AcDbEntity
  8
A-DETL
100
AcDbLine
 10
13.85707128080503
 20
49.62500000002183
 30
0.0
 11
10.52500000054169
 21
49.62500000003092
 31
0.0
1001
REVIT
1002
{
1070
     1
1000
1951038
1002
}
1002
{
1070
     2
1000
-2000051
1002
}
1002
{
1070
     3
1000
133798
1002
}
  0
LINE
  5
145
330
70
100
AcDbEntity
  8
A-DETL
100
AcDbLine
 10
10.52500000054169
 20
49.62500000003092
 30
0.0
 11
10.52500000057261
 21
63.77499999999963
 31
0.0
1001
REVIT
1002
{
1070
     1
1000
1951039
1002
}
1002
{
1070
     2
1000
-2000051
1002
}
1002
{
1070
     3
1000
133798
1002
}
  0
LINE
  5
146
330
70
100
AcDbEntity
  8
A-DETL
100
AcDbLine
 10
10.52500000057261
 20
63.77499999999963
 30
0.0
 11
13.85707128080503
 21
63.77499999999054
 31
0.0
1001
REVIT
1002
{
1070
     1
1000
1951040
1002
}
1002
{
1070
     2
1000
-2000051
1002
}
1002
{
1070
     3
1000
133798
1002
}
  0
LINE
  5
147
330
70
100
AcDbEntity
  8
A-DETL
100
AcDbLine
 10
13.85707128080503
 20
63.77499999999054
 30
0.0
 11
13.85707128080503
 21
65.45705243213888
 31
0.0
1001
REVIT
1002
{
1070
     1
1000
1951041
1002
}
1002
{
1070
     2
1000
-2000051
1002
}
1002
{
1070
     3
1000
133798
1002
}
  0
LINE
  5
148
330
70
100
AcDbEntity
  8
A-DETL
100
AcDbLine
 10
13.85707128080503
 20
65.45705243213888
 30
0.0
 11
21.32987564770883
 21
65.45705243213888
 31
0.0
1001
REVIT
1002
{
1070
     1
1000
1951042
1002
}
1002
{
1070
     2
1000
-2000051
1002
}
1002
{
1070
     3
1000
133798
1002
}
  0
LINE
  5
149
330
70
100
AcDbEntity
  8
A-DETL
100
AcDbLine
 10
21.32987564770883
 20
65.45705243213888
 30
0.0
 11
21.32987564770883
 21
63.77499999997599
 31
0.0
1001
REVIT
1002
{
1070
     1
1000
1951043
1002
}
1002
{
1070
     2
1000
-2000051
1002
}
1002
{
1070
     3
1000
133798
1002
}
  0
LINE
  5
14A
330
70
100
AcDbEntity
  8
A-DETL
100
AcDbLine
 10
21.32987564770883
 20
63.77499999997599
 30
0.0
 11
24.67278369855376
 21
63.7749999999669
 31
0.0
1001
REVIT
1002
{
1070
     1
1000
1951044
1002
}
1002
{
1070
     2
1000
-2000051
1002
}
1002
{
1070
     3
1000
133798
1002
}
  0
LINE
  5
14B
330
70
100
AcDbEntity
  8
A-DETL
100
AcDbLine
 10
24.67278369855376
 20
63.7749999999669
 30
0.0
 11
24.67278369852102
 21
49.62499999999818
 31
0.0
1001
REVIT
1002
{
1070
     1
1000
1951045
1002
}
1002
{
1070
     2
1000
-2000051
1002
}
1002
{
1070
     3
1000
133798
1002
}
  0
LINE
  5
14C
330
70
100
AcDbEntity
  8
A-DETL
100
AcDbLine
 10
24.67278369852102
 20
49.62499999999818
 30
0.0
 11
21.32987564770883
 21
49.62500000000727
 31
0.0
1001
REVIT
1002
{
1070
     1
1000
1951046
1002
}
1002
{
1070
     2
1000
-2000051
1002
}
1002
{
1070
     3
1000
133798
1002
}
  0
LINE
  5
14D
330
70
100
AcDbEntity
  8
A-DETL
100
AcDbLine
 10
21.32987564770883
 20
49.62500000000727
 30
0.0
 11
21.32987564770883
 21
47.94294756788985
 31
0.0
1001
REVIT
1002
{
1070
     1
1000
1951047
1002
}
1002
{
1070
     2
1000
-2000051
1002
}
1002
{
1070
     3
1000
133798
1002
}
  0
LINE
  5
14E
330
70
100
AcDbEntity
  8
A-DETL
100
AcDbLine
 10
43.72499999996762
 20
49.62499999999818
 30
0.0
 11
29.57499999999891
 21
49.62500000003092
 31
0.0
1001
REVIT
1002
{
1070
     1
1000
1951048
1002
}
1002
{
1070
     2
1000
-2000051
1002
}
1002
{
1070
     3
1000
133798
1002
}
  0
LINE
  5
14F
330
70
100
AcDbEntity
  8
A-DETL
100
AcDbLine
 10
29.57499999999891
 20
49.62500000003092
 30
0.0
 11
29.57500000003165
 21
63.77499999999963
 31
0.0
1001
REVIT
1002
{
1070
     1
1000
1951049
1002
}
1002
{
1070
     2
1000
-2000051
1002
}
1002
{
1070
     3
1000
133798
1002
}
  0
LINE
  5
150
330
70
100
AcDbEntity
  8
A-DETL
100
AcDbLine
 10
29.57500000003165
 20
63.77499999999963
 30
0.0
 11
43.72500000000036
 21
63.7749999999669
 31
0.0
1001
REVIT
1002
{
1070
     1
1000
1951050
1002
}
1002
{
1070
     2
1000
-2000051
1002
}
1002
{
1070
     3
1000
133798
1002
}
  0
LINE
  5
151
330
70
100
AcDbEntity
  8
A-DETL
100
AcDbLine
 10
43.72500000000036
 20
63.7749999999669
 30
0.0
 11
43.72499999996762
 21
49.62499999999818
 31
0.0
1001
REVIT
1002
{
1070
     1
1000
1951051
1002
}
1002
{
1070
     2
1000
-2000051
1002
}
1002
{
1070
     3
1000
133798
1002
}
  0
LINE
  5
152
330
70
100
AcDbEntity
  8
A-DETL
100
AcDbLine
 10
29.57500000003165
 20
44.72500000039872
 30
0.0
 11
43.72500000000036
 21
44.72500000036598
 31
0.0
1001
REVIT
1002
{
1070
     1
1000
1951052
1002
}
1002
{
1070
     2
1000
-2000051
1002
}
1002
{
1070
     3
1000
133798
1002
}
  0
LINE
  5
153
330
70
100
AcDbEntity
  8
A-DETL
100
AcDbLine
 10
43.72500000000036
 20
44.72500000036598
 30
0.0
 11
43.72499999996762
 21
30.57500000021719
 31
0.0
1001
REVIT
1002
{
1070
     1
1000
1951053
1002
}
1002
{
1070
     2
1000
-2000051
1002
}
1002
{
1070
     3
1000
133798
1002
}
  0
LINE
  5
154
330
70
100
AcDbEntity
  8
A-DETL
100
AcDbLine
 10
43.72499999996762
 20
30.57500000021719
 30
0.0
 11
29.57499999999891
 21
30.57500000024993
 31
0.0
1001
REVIT
1002
{
1070
     1
1000
1951054
1002
}
1002
{
1070
     2
1000
-2000051
1002
}
1002
{
1070
     3
1000
133798
1002
}
  0
LINE
  5
155
330
70
100
AcDbEntity
  8
A-DETL
100
AcDbLine
 10
29.57499999999891
 20
30.57500000024993
 30
0.0
 11
29.57500000003165
 21
44.72500000039872
 31
0.0
1001
REVIT
1002
{
1070
     1
1000
1951055
1002
}
1002
{
1070
     2
1000
-2000051
1002
}
1002
{
1070
     3
1000
133798
1002
}
  0
LINE
  5
156
330
70
100
AcDbEntity
  8
A-DETL
100
AcDbLine
 10
48.62450000003263
 20
44.72500000035506
 30
0.0
 11
62.77449999999953
 21
44.72500000032233
 31
0.0
1001
REVIT
1002
{
1070
     1
1000
1951056
1002
}
1002
{
1070
     2
1000
-2000051
1002
}
1002
{
1070
     3
1000
133798
1002
}
  0
LINE
  5
157
330
70
100
AcDbEntity
  8
A-DETL
100
AcDbLine
 10
62.77449999999953
 20
44.72500000032233
 30
0.0
 11
62.77449999996679
 21
30.57500000017353
 31
0.0
1001
REVIT
1002
{
1070
     1
1000
1951057
1002
}
1002
{
1070
     2
1000
-2000051
1002
}
1002
{
1070
     3
1000
133798
1002
}
  0
LINE
  5
158
330
70
100
AcDbEntity
  8
A-DETL
100
AcDbLine
 10
62.77449999996679
 20
30.57500000017353
 30
0.0
 11
48.6244999999999
 21
30.57500000020628
 31
0.0
1001
REVIT
1002
{
1070
     1
1000
1951058
1002
}
1002
{
1070
     2
1000
-2000051
1002
}
1002
{
1070
     3
1000
133798
1002
}
  0
LINE
  5
159
330
70
100
AcDbEntity
  8
A-DETL
100
AcDbLine
 10
48.6244999999999
 20
30.57500000020628
 30
0.0
 11
48.62450000003263
 21
44.72500000035506
 31
0.0
1001
REVIT
1002
{
1070
     1
1000
1951059
1002
}
1002
{
1070
     2
1000
-2000051
1002
}
1002
{
1070
     3
1000
133798
1002
}
  0
LINE
  5
15A
330
70
100
AcDbEntity
  8
A-DETL
100
AcDbLine
 10
62.77449999996679
 20
49.62499999999818
 30
0.0
 11
48.6244999999999
 21
49.62500000003092
 31
0.0
1001
REVIT
1002
{
1070
     1
1000
1951060
1002
}
1002
{
1070
     2
1000
-2000051
1002
}
1002
{
1070
     3
1000
133798
1002
}
  0
LINE
  5
15B
330
70
100
AcDbEntity
  8
A-DETL
100
AcDbLine
 10
48.6244999999999
 20
49.62500000003092
 30
0.0
 11
48.62450000003263
 21
63.77499999999963
 31
0.0
1001
REVIT
1002
{
1070
     1
1000
1951061
1002
}
1002
{
1070
     2
1000
-2000051
1002
}
1002
{
1070
     3
1000
133798
1002
}
  0
LINE
  5
15C
330
70
100
AcDbEntity
  8
A-DETL
100
AcDbLine
 10
48.62450000003263
 20
63.77499999999963
 30
0.0
 11
62.77449999999953
 21
63.7749999999669
 31
0.0
1001
REVIT
1002
{
1070
     1
1000
1951062
1002
}
1002
{
1070
     2
1000
-2000051
1002
}
1002
{
1070
     3
1000
133798
1002
}
  0
LINE
  5
15D
330
70
100
AcDbEntity
  8
A-DETL
100
AcDbLine
 10
62.77449999999953
 20
63.7749999999669
 30
0.0
 11
62.77449999996679
 21
49.62499999999818
 31
0.0
1001
REVIT
1002
{
1070
     1
1000
1951063
1002
}
1002
{
1070
     2
1000
-2000051
1002
}
1002
{
1070
     3
1000
133798
1002
}
  0
LINE
  5
15E
330
70
100
AcDbEntity
  8
A-DETL
100
AcDbLine
 10
48.62450000003263
 20
25.67499999999927
 30
0.0
 11
62.77449999999953
 21
25.67499999996653
 31
0.0
1001
REVIT
1002
{
1070
     1
1000
1951064
1002
}
1002
{
1070
     2
1000
-2000051
1002
}
1002
{
1070
     3
1000
133798
1002
}
  0
LINE
  5
15F
330
70
100
AcDbEntity
  8
A-DETL
100
AcDbLine
 10
62.77449999999953
 20
25.67499999996653
 30
0.0
 11
62.77449999996679
 21
11.52499999995234
 31
0.0
1001
REVIT
1002
{
1070
     1
1000
1951065
1002
}
1002
{
1070
     2
1000
-2000051
1002
}
1002
{
1070
     3
1000
133798
1002
}
  0
LINE
  5
160
330
70
100
AcDbEntity
  8
A-DETL
100
AcDbLine
 10
62.77449999996679
 20
11.52499999995234
 30
0.0
 11
48.6244999999999
 21
11.52499999998508
 31
0.0
1001
REVIT
1002
{
1070
     1
1000
1951066
1002
}
1002
{
1070
     2
1000
-2000051
1002
}
1002
{
1070
     3
1000
133798
1002
}
  0
LINE
  5
161
330
70
100
AcDbEntity
  8
A-DETL
100
AcDbLine
 10
48.6244999999999
 20
11.52499999998508
 30
0.0
 11
48.62450000003263
 21
25.67499999999927
 31
0.0
1001
REVIT
1002
{
1070
     1
1000
1951067
1002
}
1002
{
1070
     2
1000
-2000051
1002
}
1002
{
1070
     3
1000
133798
1002
}
  0
LINE
  5
162
330
70
100
AcDbEntity
  8
A-DETL
100
AcDbLine
 10
29.57500000003165
 20
25.67499999999927
 30
0.0
 11
43.72500000000036
 21
25.67499999996653
 31
0.0
1001
REVIT
1002
{
1070
     1
1000
1951068
1002
}
1002
{
1070
     2
1000
-2000051
1002
}
1002
{
1070
     3
1000
133798
1002
}
  0
LINE
  5
163
330
70
100
AcDbEntity
  8
A-DETL
100
AcDbLine
 10
43.72500000000036
 20
25.67499999996653
 30
0.0
 11
43.72499999996762
 21
11.52499999999782
 31
0.0
1001
REVIT
1002
{
1070
     1
1000
1951069
1002
}
1002
{
1070
     2
1000
-2000051
1002
}
1002
{
1070
     3
1000
133798
1002
}
  0
LINE
  5
164
330
70
100
AcDbEntity
  8
A-DETL
100
AcDbLine
 10
43.72499999996762
 20
11.52499999999782
 30
0.0
 11
29.57499999999891
 21
11.52500000003056
 31
0.0
1001
REVIT
1002
{
1070
     1
1000
1951070
1002
}
1002
{
1070
     2
1000
-2000051
1002
}
1002
{
1070
     3
1000
133798
1002
}
  0
LINE
  5
165
330
70
100
AcDbEntity
  8
A-DETL
100
AcDbLine
 10
29.57499999999891
 20
11.52500000003056
 30
0.0
 11
29.57500000003165
 21
25.67499999999927
 31
0.0
1001
REVIT
1002
{
1070
     1
1000
1951071
1002
}
1002
{
1070
     2
1000
-2000051
1002
}
1002
{
1070
     3
1000
133798
1002
}
  0
ENDSEC
  0
SECTION
  2
OBJECTS
  0
DICTIONARY
  5
C
330
0
100
AcDbDictionary
281
     1
  3
ACAD_CIP_PREVIOUS_PRODUCT_INFO
350
79
  3
ACAD_COLOR
350
63
  3
ACAD_DETAILVIEWSTYLE
350
6A
  3
ACAD_GROUP
350
D
  3
ACAD_IMAGE_VARS
350
7A
  3
ACAD_LAYOUT
350
62
  3
ACAD_MATERIAL
350
10
  3
ACAD_MLEADERSTYLE
350
66
  3
ACAD_MLINESTYLE
350
5F
  3
ACAD_PLOTSETTINGS
350
61
  3
ACAD_PLOTSTYLENAME
350
E
  3
ACAD_SCALELIST
350
42
  3
ACAD_SECTIONVIEWSTYLE
350
68
  3
ACAD_TABLESTYLE
350
64
  3
ACAD_VISUALSTYLE
350
29
  3
ACDB_RECOMPOSE_DATA
350
18D
  3
AcDbVariableDictionary
350
16E
  3
REVIT_DICTIONARY
350
166
  0
DICTIONARY
  5
16C
330
70
100
AcDbDictionary
280
     1
281
     1
  3
ACAD_SORTENTS
360
16D
  0
XRECORD
  5
79
102
{ACAD_REACTORS
330
C
102
}
330
C
100
AcDbXrecord
280
     1
300
ACD
300
2018
300

  0
DICTIONARY
  5
63
102
{ACAD_REACTORS
330
C
102
}
330
C
100
AcDbDictionary
281
     1
  0
DICTIONARY
  5
6A
102
{ACAD_REACTORS
330
C
102
}
330
C
100
AcDbDictionary
281
     1
  3
Imperial24
350
6B
  3
Metric50
350
176
  0
DICTIONARY
  5
D
102
{ACAD_REACTORS
330
C
102
}
330
C
100
AcDbDictionary
281
     1
  0
RASTERVARIABLES
  5
7A
102
{ACAD_REACTORS
330
C
102
}
330
C
100
AcDbRasterVariables
 90
        0
 70
     0
 71
     1
 72
     1
  0
DICTIONARY
  5
62
102
{ACAD_REACTORS
330
C
102
}
330
C
100
AcDbDictionary
281
     1
  3
Layout1
350
6F
  3
Layout2
350
77
  3
Model
350
73
  0
DICTIONARY
  5
10
102
{ACAD_REACTORS
330
C
102
}
330
C
100
AcDbDictionary
281
     1
  3
ByBlock
350
19
  3
ByLayer
350
11
  3
Global
350
21
  0
DICTIONARY
  5
66
102
{ACAD_REACTORS
330
C
102
}
330
C
100
AcDbDictionary
281
     1
  3
Standard
350
67
  0
DICTIONARY
  5
5F
102
{ACAD_REACTORS
330
C
102
}
330
C
100
AcDbDictionary
281
     1
  3
Standard
350
60
  0
DICTIONARY
  5
61
102
{ACAD_REACTORS
330
C
102
}
330
C
100
AcDbDictionary
281
     1
  0
ACDBDICTIONARYWDFLT
  5
E
102
{ACAD_REACTORS
330
C
102
}
330
C
100
AcDbDictionary
281
     1
  3
Normal
350
F
100
AcDbDictionaryWithDefault
340
F
  0
DICTIONARY
  5
42
102
{ACAD_REACTORS
330
C
102
}
330
C
100
AcDbDictionary
281
     1
  3
A0
350
43
  3
A1
350
44
  3
A2
350
45
  3
A3
350
46
  3
A4
350
47
  3
A5
350
48
  3
A6
350
49
  3
A7
350
4A
  3
A8
350
4B
  3
A9
350
4C
  3
B0
350
4D
  3
B1
350
4E
  3
B2
350
4F
  3
B3
350
50
  3
B4
350
51
  3
B5
350
52
  3
B6
350
53
  0
DICTIONARY
  5
68
102
{ACAD_REACTORS
330
C
102
}
330
C
100
AcDbDictionary
281
     1
  3
Imperial24
350
69
  3
Metric50
350
175
  0
DICTIONARY
  5
64
102
{ACAD_REACTORS
330
C
102
}
330
C
100
AcDbDictionary
281
     1
  3
Standard
350
65
  0
DICTIONARY
  5
29
102
{ACAD_REACTORS
330
C
102
}
330
C
100
AcDbDictionary
281
     1
  3
2dWireframe
350
2F
  3
Basic
350
2E
  3
Brighten
350
35
  3
ColorChange
350
39
  3
Conceptual
350
32
  3
Dim
350
34
  3
EdgeColorOff
350
41
  3
Facepattern
350
38
  3
Flat
350
2A
  3
FlatWithEdges
350
2B
  3
Gouraud
350
2C
  3
GouraudWithEdges
350
2D
  3
Hidden
350
31
  3
JitterOff
350
3F
  3
Linepattern
350
37
  3
OverhangOff
350
40
  3
Realistic
350
33
  3
Shaded
350
3E
  3
Shaded with edges
350
3D
  3
Shades of Gray
350
3A
  3
Sketchy
350
3B
  3
Thicken
350
36
  3
Wireframe
350
30
  3
X-Ray
350
3C
  0
XRECORD
  5
18D
102
{ACAD_REACTORS
330
C
102
}
330
C
100
AcDbXrecord
280
     1
 90
        1
330
65
  0
DICTIONARY
  5
16E
102
{ACAD_REACTORS
330
C
102
}
330
C
100
AcDbDictionary
281
     1
  3
CANNOSCALE
350
173
  3
CMLEADERSTYLE
350
170
  3
CTABLESTYLE
350
16F
  3
CVIEWDETAILSTYLE
350
171
  3
CVIEWSECTIONSTYLE
350
172
  0
DICTIONARY
  5
166
102
{ACAD_REACTORS
330
C
102
}
330
C
100
AcDbDictionary
281
     1
  3
DRAWING_TOOL
350
16B
  3
REVIT_CATEGORY_MAPPING
350
169
  3
REVIT_GET_SITE
350
167
  3
REVIT_SUB_CATEGORY_MAPPING
350
16A
  0
SORTENTSTABLE
  5
16D
102
{ACAD_REACTORS
330
16C
102
}
330
16C
100
AcDbSortentsTable
330
70
  0
ACDBDETAILVIEWSTYLE
  5
6B
102
{ACAD_XDICTIONARY
360
190
102
}
102
{ACAD_REACTORS
330
6A
102
}
330
6A
100
AcDbModelDocViewStyle
 70
     0
  3
Imperial24
290
     0
100
AcDbDetailViewStyle
 70
     0
 71
     0
 90
        3
 71
     1
340
55
 62
   256
 40
0.24
340
0
 62
   256
 40
0.24
300

 40
0.36
280
     3
 71
     2
340
5D
 90
       25
 62
   256
 71
     3
340
55
 62
   256
 40
0.24
 90
        1
 40
0.75
 90
        1
300
%<\AcVar ViewType \f "%tc1">% %<\AcVar ViewDetailId>%\PSCALE %<\AcVar ViewScale \f "%sn">%
 71
     4
340
5D
 90
       25
 62
   256
340
5D
 90
       25
 62
   256
280
     0
  0
ACDBDETAILVIEWSTYLE
  5
176
102
{ACAD_XDICTIONARY
360
194
102
}
102
{ACAD_REACTORS
330
6A
102
}
330
6A
100
AcDbModelDocViewStyle
 70
     0
  3
Metric50
290
     0
100
AcDbDetailViewStyle
 70
     0
 71
     0
 90
        3
 71
     1
340
55
 62
   256
 40
5.0
340
0
 62
   256
 40
5.0
300

 40
0.0
280
     1
 71
     2
340
5D
 90
       25
 62
   256
 71
     3
340
55
 62
   256
 40
5.0
 90
        0
 40
15.0
 90
        1
300
%<\AcVar ViewDetailId>% (%<\AcVar ViewScale \f "%sn">%)
 71
     4
340
5D
 90
       25
 62
   256
340
5D
 90
       25
 62
   256
280
     0
  0
LAYOUT
  5
6F
102
{ACAD_REACTORS
330
62
102
}
330
62
100
AcDbPlotSettings
  1

  2

  4

  6

 40
0.0
 41
0.0
 42
0.0
 43
0.0
 44
0.0
 45
0.0
 46
0.0
 47
0.0
 48
0.0
 49
0.0
140
0.0
141
0.0
142
1.0
143
1.0
 70
   688
 72
     0
 73
     0
 74
     5
  7

 75
    16
147
1.0
 76
     0
 77
     2
 78
   300
148
0.0
149
0.0
100
AcDbLayout
  1
Layout1
 70
     1
 71
     1
 10
0.0
 20
0.0
 11
12.0
 21
9.0
 12
0.0
 22
0.0
 32
0.0
 14
1.000000000000000E+20
 24
1.000000000000000E+20
 34
1.000000000000000E+20
 15
-1.000000000000000E+20
 25
-1.000000000000000E+20
 35
-1.000000000000000E+20
146
0.0
 13
0.0
 23
0.0
 33
0.0
 16
1.0
 26
0.0
 36
0.0
 17
0.0
 27
1.0
 37
0.0
 76
     0
330
6C
  0
LAYOUT
  5
77
102
{ACAD_REACTORS
330
62
102
}
330
62
100
AcDbPlotSettings
  1

  2

  4

  6

 40
0.0
 41
0.0
 42
0.0
 43
0.0
 44
0.0
 45
0.0
 46
0.0
 47
0.0
 48
0.0
 49
0.0
140
0.0
141
0.0
142
1.0
143
1.0
 70
   688
 72
     0
 73
     0
 74
     5
  7

 75
    16
147
1.0
 76
     0
 77
     2
 78
   300
148
0.0
149
0.0
100
AcDbLayout
  1
Layout2
 70
     1
 71
     2
 10
0.0
 20
0.0
 11
12.0
 21
9.0
 12
0.0
 22
0.0
 32
0.0
 14
0.0
 24
0.0
 34
0.0
 15
0.0
 25
0.0
 35
0.0
146
0.0
 13
0.0
 23
0.0
 33
0.0
 16
1.0
 26
0.0
 36
0.0
 17
0.0
 27
1.0
 37
0.0
 76
     0
330
74
  0
LAYOUT
  5
73
102
{ACAD_REACTORS
330
62
102
}
330
62
100
AcDbPlotSettings
  1

  2

  4

  6

 40
0.0
 41
0.0
 42
0.0
 43
0.0
 44
0.0
 45
0.0
 46
0.0
 47
0.0
 48
0.0
 49
0.0
140
0.0
141
0.0
142
1.0
143
1.0
 70
  1712
 72
     0
 73
     0
 74
     0
  7

 75
     0
147
1.0
 76
     0
 77
     2
 78
   300
148
0.0
149
0.0
100
AcDbLayout
  1
Model
 70
     1
 71
     0
 10
0.0
 20
0.0
 11
12.0
 21
9.0
 12
0.0
 22
0.0
 32
0.0
 14
0.0
 24
0.0
 34
0.0
 15
0.0
 25
0.0
 35
0.0
146
0.0
 13
0.0
 23
0.0
 33
0.0
 16
1.0
 26
0.0
 36
0.0
 17
0.0
 27
1.0
 37
0.0
 76
     0
330
70
331
57
  0
MATERIAL
  5
19
102
{ACAD_XDICTIONARY
360
1A
102
}
102
{ACAD_REACTORS
330
10
102
}
330
10
100
AcDbMaterial
  1
ByBlock
 72
     0
 43
0.0208333333333333
 43
0.0
 43
0.0
 43
0.0
 43
0.0
 43
0.0208333333333333
 43
0.0
 43
0.0
 43
0.0
 43
0.0
 43
1.0
 43
0.0
 43
0.0
 43
0.0
 43
0.0
 43
1.0
 77
     0
 47
0.0208333333333333
 47
0.0
 47
0.0
 47
0.0
 47
0.0
 47
0.0208333333333333
 47
0.0
 47
0.0
 47
0.0
 47
0.0
 47
1.0
 47
0.0
 47
0.0
 47
0.0
 47
0.0
 47
1.0
171
     0
 49
0.0208333333333333
 49
0.0
 49
0.0
 49
0.0
 49
0.0
 49
0.0208333333333333
 49
0.0
 49
0.0
 49
0.0
 49
0.0
 49
1.0
 49
0.0
 49
0.0
 49
0.0
 49
0.0
 49
1.0
175
     0
142
0.0208333333333333
142
0.0
142
0.0
142
0.0
142
0.0
142
0.0208333333333333
142
0.0
142
0.0
142
0.0
142
0.0
142
1.0
142
0.0
142
0.0
142
0.0
142
0.0
142
1.0
179
     0
144
0.0208333333333333
144
0.0
144
0.0
144
0.0
144
0.0
144
0.0208333333333333
144
0.0
144
0.0
144
0.0
144
0.0
144
1.0
144
0.0
144
0.0
144
0.0
144
0.0
144
1.0
147
0.0208333333333333
147
0.0
147
0.0
147
0.0
147
0.0
147
0.0208333333333333
147
0.0
147
0.0
147
0.0
147
0.0
147
1.0
147
0.0
147
0.0
147
0.0
147
0.0
147
1.0
  0
MATERIAL
  5
11
102
{ACAD_XDICTIONARY
360
12
102
}
102
{ACAD_REACTORS
330
10
102
}
330
10
100
AcDbMaterial
  1
ByLayer
 72
     0
 43
0.0208333333333333
 43
0.0
 43
0.0
 43
0.0
 43
0.0
 43
0.0208333333333333
 43
0.0
 43
0.0
 43
0.0
 43
0.0
 43
1.0
 43
0.0
 43
0.0
 43
0.0
 43
0.0
 43
1.0
 77
     0
 47
0.0208333333333333
 47
0.0
 47
0.0
 47
0.0
 47
0.0
 47
0.0208333333333333
 47
0.0
 47
0.0
 47
0.0
 47
0.0
 47
1.0
 47
0.0
 47
0.0
 47
0.0
 47
0.0
 47
1.0
171
     0
 49
0.0208333333333333
 49
0.0
 49
0.0
 49
0.0
 49
0.0
 49
0.0208333333333333
 49
0.0
 49
0.0
 49
0.0
 49
0.0
 49
1.0
 49
0.0
 49
0.0
 49
0.0
 49
0.0
 49
1.0
175
     0
142
0.0208333333333333
142
0.0
142
0.0
142
0.0
142
0.0
142
0.0208333333333333
142
0.0
142
0.0
142
0.0
142
0.0
142
1.0
142
0.0
142
0.0
142
0.0
142
0.0
142
1.0
179
     0
144
0.0208333333333333
144
0.0
144
0.0
144
0.0
144
0.0
144
0.0208333333333333
144
0.0
144
0.0
144
0.0
144
0.0
144
1.0
144
0.0
144
0.0
144
0.0
144
0.0
144
1.0
147
0.0208333333333333
147
0.0
147
0.0
147
0.0
147
0.0
147
0.0208333333333333
147
0.0
147
0.0
147
0.0
147
0.0
147
1.0
147
0.0
147
0.0
147
0.0
147
0.0
147
1.0
  0
MATERIAL
  5
21
102
{ACAD_XDICTIONARY
360
22
102
}
102
{ACAD_REACTORS
330
10
102
}
330
10
100
AcDbMaterial
  1
Global
 72
     0
 43
0.0208333333333333
 43
0.0
 43
0.0
 43
0.0
 43
0.0
 43
0.0208333333333333
 43
0.0
 43
0.0
 43
0.0
 43
0.0
 43
1.0
 43
0.0
 43
0.0
 43
0.0
 43
0.0
 43
1.0
 77
     0
 47
0.0208333333333333
 47
0.0
 47
0.0
 47
0.0
 47
0.0
 47
0.0208333333333333
 47
0.0
 47
0.0
 47
0.0
 47
0.0
 47
1.0
 47
0.0
 47
0.0
 47
0.0
 47
0.0
 47
1.0
171
     0
 49
0.0208333333333333
 49
0.0
 49
0.0
 49
0.0
 49
0.0
 49
0.0208333333333333
 49
0.0
 49
0.0
 49
0.0
 49
0.0
 49
1.0
 49
0.0
 49
0.0
 49
0.0
 49
0.0
 49
1.0
175
     0
142
0.0208333333333333
142
0.0
142
0.0
142
0.0
142
0.0
142
0.0208333333333333
142
0.0
142
0.0
142
0.0
142
0.0
142
1.0
142
0.0
142
0.0
142
0.0
142
0.0
142
1.0
179
     0
144
0.0208333333333333
144
0.0
144
0.0
144
0.0
144
0.0
144
0.0208333333333333
144
0.0
144
0.0
144
0.0
144
0.0
144
1.0
144
0.0
144
0.0
144
0.0
144
0.0
144
1.0
147
0.0208333333333333
147
0.0
147
0.0
147
0.0
147
0.0
147
0.0208333333333333
147
0.0
147
0.0
147
0.0
147
0.0
147
1.0
147
0.0
147
0.0
147
0.0
147
0.0
147
1.0
  0
MLEADERSTYLE
  5
67
102
{ACAD_REACTORS
330
66
102
}
330
66
100
AcDbMLeaderStyle
179
     2
170
     2
171
     1
172
     0
 90
        2
 40
0.0
 41
0.0
173
     1
 91
-1056964608
340
5B
 92
       -2
290
     1
 42
0.09
291
     1
 43
0.36
  3
Standard
 44
0.18
300

342
55
174
     1
178
     6
175
     1
176
     0
 93
-1056964608
 45
0.18
292
     0
297
     0
 46
0.18
 94
-1056964608
 47
1.0
 49
1.0
140
1.0
293
     1
141
0.0
294
     1
177
     0
142
1.0
295
     0
296
     0
143
0.125
271
     0
272
     9
273
     9
298
     1
  0
MLINESTYLE
  5
60
102
{ACAD_REACTORS
330
5F
102
}
330
5F
100
AcDbMlineStyle
  2
STANDARD
 70
     0
  3

 62
   256
 51
90.0
 52
90.0
 71
     2
 49
0.5
 62
   256
  6
BYLAYER
 49
-0.5
 62
   256
  6
BYLAYER
  0
ACDBPLACEHOLDER
  5
F
102
{ACAD_REACTORS
330
E
102
}
330
E
  0
SCALE
  5
43
102
{ACAD_REACTORS
330
42
102
}
330
42
100
AcDbScale
 70
     0
300
1:1
140
1.0
141
1.0
290
     1
  0
SCALE
  5
44
102
{ACAD_REACTORS
330
42
102
}
330
42
100
AcDbScale
 70
     0
300
1/128" = 1'-0"
140
0.0078125
141
12.0
290
     0
  0
SCALE
  5
45
102
{ACAD_REACTORS
330
42
102
}
330
42
100
AcDbScale
 70
     0
300
1/64" = 1'-0"
140
0.015625
141
12.0
290
     0
  0
SCALE
  5
46
102
{ACAD_REACTORS
330
42
102
}
330
42
100
AcDbScale
 70
     0
300
1/32" = 1'-0"
140
0.03125
141
12.0
290
     0
  0
SCALE
  5
47
102
{ACAD_REACTORS
330
42
102
}
330
42
100
AcDbScale
 70
     0
300
1/16" = 1'-0"
140
0.0625
141
12.0
290
     0
  0
SCALE
  5
48
102
{ACAD_REACTORS
330
42
102
}
330
42
100
AcDbScale
 70
     0
300
3/32" = 1'-0"
140
0.09375
141
12.0
290
     0
  0
SCALE
  5
49
102
{ACAD_REACTORS
330
42
102
}
330
42
100
AcDbScale
 70
     0
300
1/8" = 1'-0"
140
0.125
141
12.0
290
     0
  0
SCALE
  5
4A
102
{ACAD_REACTORS
330
42
102
}
330
42
100
AcDbScale
 70
     0
300
3/16" = 1'-0"
140
0.1875
141
12.0
290
     0
  0
SCALE
  5
4B
102
{ACAD_REACTORS
330
42
102
}
330
42
100
AcDbScale
 70
     0
300
1/4" = 1'-0"
140
0.25
141
12.0
290
     0
  0
SCALE
  5
4C
102
{ACAD_REACTORS
330
42
102
}
330
42
100
AcDbScale
 70
     0
300
3/8" = 1'-0"
140
0.375
141
12.0
290
     0
  0
SCALE
  5
4D
102
{ACAD_REACTORS
330
42
102
}
330
42
100
AcDbScale
 70
     0
300
1/2" = 1'-0"
140
0.5
141
12.0
290
     0
  0
SCALE
  5
4E
102
{ACAD_REACTORS
330
42
102
}
330
42
100
AcDbScale
 70
     0
300
3/4" = 1'-0"
140
0.75
141
12.0
290
     0
  0
SCALE
  5
4F
102
{ACAD_REACTORS
330
42
102
}
330
42
100
AcDbScale
 70
     0
300
1" = 1'-0"
140
1.0
141
12.0
290
     0
  0
SCALE
  5
50
102
{ACAD_REACTORS
330
42
102
}
330
42
100
AcDbScale
 70
     0
300
1-1/2" = 1'-0"
140
1.5
141
12.0
290
     0
  0
SCALE
  5
51
102
{ACAD_REACTORS
330
42
102
}
330
42
100
AcDbScale
 70
     0
300
3" = 1'-0"
140
3.0
141
12.0
290
     0
  0
SCALE
  5
52
102
{ACAD_REACTORS
330
42
102
}
330
42
100
AcDbScale
 70
     0
300
6" = 1'-0"
140
6.0
141
12.0
290
     0
  0
SCALE
  5
53
102
{ACAD_REACTORS
330
42
102
}
330
42
100
AcDbScale
 70
     0
300
1'-0" = 1'-0"
140
12.0
141
12.0
290
     0
  0
ACDBSECTIONVIEWSTYLE
  5
69
102
{ACAD_XDICTIONARY
360
18E
102
}
102
{ACAD_REACTORS
330
68
102
}
330
68
100
AcDbModelDocViewStyle
 70
     0
  3
Imperial24
290
     0
100
AcDbSectionViewStyle
 70
     0
 71
     0
 90
       78
 71
     1
340
55
 62
   256
 40
0.24
340
0
340
0
 62
   256
 40
0.24
300
I, O, Q, S, X, Z
 40
0.48
 90
        3
 40
0.18
 90
        1
 71
     2
340
5D
 90
       25
 62
   256
340
5D
 90
       50
 62
   256
 40
0.24
 40
0.0
 40
0.24
 71
     3
340
55
 62
   256
 40
0.24
 90
        1
 40
0.75
 90
        1
300
%<\AcVar ViewType \f "%tc1">% %<\AcVar ViewSectionStartId>%-%<\AcVar ViewSectionEndId>%\PSCALE %<\AcVar ViewScale \f "%sn">%
 71
     4
 62
   256
 62
   257
300
ANSI31
 40
1.0
 90
        0
290
     0
290
     0
 90
        6
 40
0.0
 40
1.570796326794896
 40
0.2617993877991494
 40
1.308996938995747
 40
-0.2617993877991494
 40
1.832595714594046
  0
ACDBSECTIONVIEWSTYLE
  5
175
102
{ACAD_XDICTIONARY
360
192
102
}
102
{ACAD_REACTORS
330
68
102
}
330
68
100
AcDbModelDocViewStyle
 70
     0
  3
Metric50
290
     0
100
AcDbSectionViewStyle
 70
     0
 71
     0
 90
      102
 71
     1
340
55
 62
   256
 40
5.0
340
0
340
0
 62
   256
 40
5.0
300
I, O, Q, S, X, Z
 40
10.0
 90
        0
 40
2.5
 90
        0
 71
     2
340
5D
 90
       25
 62
   256
340
5D
 90
       50
 62
   256
 40
5.0
 40
2.5
 40
5.0
 71
     3
340
55
 62
   256
 40
5.0
 90
        0
 40
15.0
 90
        1
300
%<\AcVar ViewSectionStartId>%-%<\AcVar ViewSectionEndId>% (%<\AcVar ViewScale \f "%sn">%)
 71
     4
 62
   256
 62
   257
300
ANSI31
 40
1.0
 90
        0
290
     0
290
     0
 90
        6
 40
0.0
 40
1.570796326794896
 40
0.2617993877991494
 40
1.308996938995747
 40
-0.2617993877991494
 40
1.832595714594046
  0
TABLESTYLE
  5
65
102
{ACAD_XDICTIONARY
360
18B
102
}
102
{ACAD_REACTORS
330
64
102
}
330
64
100
AcDbTableStyle
280
     0
  3
Standard
 70
     0
 71
     0
 40
0.06
 41
0.06
280
     0
281
     0
  7
Standard
140
0.18
170
     2
 62
     0
 63
     7
283
     0
 90
      512
 91
        0
  1

274
    -2
284
     1
 64
     0
275
    -2
285
     1
 65
     0
276
    -2
286
     1
 66
     0
277
    -2
287
     1
 67
     0
278
    -2
288
     1
 68
     0
279
    -2
289
     1
 69
     0
  7
Standard
140
0.25
170
     5
 62
     0
 63
     7
283
     0
 90
      512
 91
        0
  1

274
    -2
284
     1
 64
     0
275
    -2
285
     1
 65
     0
276
    -2
286
     1
 66
     0
277
    -2
287
     1
 67
     0
278
    -2
288
     1
 68
     0
279
    -2
289
     1
 69
     0
  7
Standard
140
0.18
170
     5
 62
     0
 63
     7
283
     0
 90
      512
 91
        0
  1

274
    -2
284
     1
 64
     0
275
    -2
285
     1
 65
     0
276
    -2
286
     1
 66
     0
277
    -2
287
     1
 67
     0
278
    -2
288
     1
 68
     0
279
    -2
289
     1
 69
     0
  0
VISUALSTYLE
  5
2F
102
{ACAD_REACTORS
330
29
102
}
330
29
100
AcDbVisualStyle
  2
2dWireframe
 70
     4
177
     3
291
     0
 70
    58
 90
        0
176
     1
 90
        2
176
     1
 90
        0
176
     1
 90
        0
176
     1
 40
0.6
176
     1
 40
30.0
176
     1
 62
     7
420
 16777215
176
     1
 90
        1
176
     1
 90
        4
176
     1
 62
     7
176
     1
 62
   257
176
     1
 90
        1
176
     1
 90
        1
176
     1
 40
1.0
176
     1
 90
        0
176
     1
 62
   257
176
     1
 40
1.0
176
     1
 90
        1
176
     1
 90
        6
176
     1
 90
        2
176
     1
 62
     7
176
     1
 90
        5
176
     1
 90
        0
176
     1
 90
        0
176
     1
290
     0
176
     1
 90
        1
176
     1
 40
0.0
176
     1
 90
        0
176
     1
290
     1
176
     1
290
     1
176
     1
290
     0
176
     1
290
     0
176
     1
290
     0
176
     1
290
     0
176
     1
290
     0
176
     1
290
     0
176
     1
290
     0
176
     1
 90
       50
176
     1
 40
0.0
176
     1
 40
1.0
176
     1
 90
        0
176
     1
 62
    18
420
        0
176
     1
 90
       50
176
     1
 90
        3
176
     1
 62
     5
420
      255
176
     1
290
     0
176
     1
 90
       50
176
     1
 90
       50
176
     1
 90
       50
176
     1
290
     0
176
     1
 90
       50
176
     1
 62
   256
176
     0
 40
1.0
176
     0
 90
        2
176
     1
  1
strokes_ogs.tif
176
     1
290
     0
176
     1
 40
1.0
176
     1
 40
1.0
176
     1
1001
ACAD
1000
AcDbSavedByObjectVersion
1070
     0
  0
VISUALSTYLE
  5
2E
102
{ACAD_REACTORS
330
29
102
}
330
29
100
AcDbVisualStyle
  2
Basic
 70
     7
177
     3
291
     1
 70
    58
 90
        1
176
     1
 90
        0
176
     1
 90
        1
176
     1
 90
        0
176
     1
 40
0.6
176
     1
 40
30.0
176
     1
 62
     7
420
 16777215
176
     1
 90
        0
176
     1
 90
        4
176
     1
 62
     7
176
     1
 62
   257
176
     1
 90
        1
176
     1
 90
        1
176
     1
 40
1.0
176
     1
 90
        8
176
     1
 62
     7
176
     1
 40
1.0
176
     1
 90
        1
176
     1
 90
        6
176
     1
 90
        2
176
     1
 62
     7
176
     1
 90
        5
176
     1
 90
        0
176
     1
 90
        0
176
     1
290
     0
176
     1
 90
        1
176
     1
 40
0.0
176
     1
 90
        0
176
     1
290
     0
176
     1
290
     1
176
     1
290
     1
176
     1
290
     0
176
     1
290
     0
176
     1
290
     0
176
     1
290
     0
176
     1
290
     0
176
     1
290
     0
176
     1
 90
       50
176
     1
 40
0.0
176
     1
 40
1.0
176
     1
 90
        0
176
     1
 62
    18
420
        0
176
     1
 90
       50
176
     1
 90
        3
176
     1
 62
     5
420
      255
176
     1
290
     0
176
     1
 90
       50
176
     1
 90
       50
176
     1
 90
       50
176
     1
290
     0
176
     1
 90
       50
176
     1
 62
   256
176
     0
 40
1.0
176
     0
 90
        2
176
     1
  1
strokes_ogs.tif
176
     1
290
     0
176
     1
 40
1.0
176
     1
 40
1.0
176
     1
1001
ACAD
1000
AcDbSavedByObjectVersion
1070
     0
  0
VISUALSTYLE
  5
35
102
{ACAD_REACTORS
330
29
102
}
330
29
100
AcDbVisualStyle
  2
Brighten
 70
    12
177
     3
291
     1
 70
    58
 90
        2
176
     1
 90
        2
176
     1
 90
        0
176
     1
 90
        0
176
     1
 40
0.6
176
     1
 40
30.0
176
     1
 62
     7
420
 16777215
176
     1
 90
        1
176
     1
 90
        4
176
     1
 62
     7
176
     1
 62
   257
176
     1
 90
        1
176
     1
 90
        1
176
     1
 40
1.0
176
     1
 90
        8
176
     1
 62
     7
176
     1
 40
1.0
176
     1
 90
        1
176
     1
 90
        6
176
     1
 90
        2
176
     1
 62
     7
176
     1
 90
        5
176
     1
 90
        0
176
     1
 90
        0
176
     1
290
     0
176
     1
 90
        1
176
     1
 40
50.0
176
     1
 90
        0
176
     1
290
     0
176
     1
290
     1
176
     1
290
     1
176
     1
290
     0
176
     1
290
     0
176
     1
290
     0
176
     1
290
     0
176
     1
290
     0
176
     1
290
     0
176
     1
 90
       50
176
     1
 40
0.0
176
     1
 40
1.0
176
     1
 90
        0
176
     1
 62
    18
420
        0
176
     1
 90
       50
176
     1
 90
        3
176
     1
 62
     5
420
      255
176
     1
290
     0
176
     1
 90
       50
176
     1
 90
       50
176
     1
 90
       50
176
     1
290
     0
176
     1
 90
       50
176
     1
 62
   256
176
     0
 40
1.0
176
     0
 90
        2
176
     1
  1
strokes_ogs.tif
176
     1
290
     0
176
     1
 40
1.0
176
     1
 40
1.0
176
     1
1001
ACAD
1000
AcDbSavedByObjectVersion
1070
     0
  0
VISUALSTYLE
  5
39
102
{ACAD_REACTORS
330
29
102
}
330
29
100
AcDbVisualStyle
  2
ColorChange
 70
    16
177
     3
291
     1
 70
    58
 90
        2
176
     1
 90
        2
176
     1
 90
        3
176
     1
 90
        0
176
     1
 40
0.6
176
     1
 40
30.0
176
     1
 62
     8
420
  8421504
176
     1
 90
        1
176
     1
 90
        4
176
     1
 62
     7
176
     1
 62
   257
176
     1
 90
        1
176
     1
 90
        1
176
     1
 40
1.0
176
     1
 90
        8
176
     1
 62
     8
420
  8421504
176
     1
 40
1.0
176
     1
 90
        1
176
     1
 90
        6
176
     1
 90
        2
176
     1
 62
     7
176
     1
 90
        5
176
     1
 90
        0
176
     1
 90
        0
176
     1
290
     0
176
     1
 90
        1
176
     1
 40
0.0
176
     1
 90
        0
176
     1
290
     0
176
     1
290
     1
176
     1
290
     1
176
     1
290
     0
176
     1
290
     0
176
     1
290
     0
176
     1
290
     0
176
     1
290
     0
176
     1
290
     0
176
     1
 90
       50
176
     1
 40
0.0
176
     1
 40
1.0
176
     1
 90
        0
176
     1
 62
    18
420
        0
176
     1
 90
       50
176
     1
 90
        3
176
     1
 62
     5
420
      255
176
     1
290
     0
176
     1
 90
       50
176
     1
 90
       50
176
     1
 90
       50
176
     1
290
     0
176
     1
 90
       50
176
     1
 62
   256
176
     0
 40
1.0
176
     0
 90
        2
176
     1
  1
strokes_ogs.tif
176
     1
290
     0
176
     1
 40
1.0
176
     1
 40
1.0
176
     1
1001
ACAD
1000
AcDbSavedByObjectVersion
1070
     0
  0
VISUALSTYLE
  5
32
102
{ACAD_REACTORS
330
29
102
}
330
29
100
AcDbVisualStyle
  2
Conceptual
 70
     9
177
     3
291
     0
 70
    58
 90
        3
176
     1
 90
        2
176
     1
 90
        0
176
     1
 90
        0
176
     1
 40
0.6
176
     1
 40
30.0
176
     1
 62
     7
420
 16777215
176
     1
 90
        2
176
     1
 90
        2
176
     1
 62
     7
176
     1
 62
   257
176
     1
 90
        1
176
     1
 90
        1
176
     1
 40
179.0
176
     1
 90
        8
176
     1
 62
     7
176
     1
 40
1.0
176
     1
 90
        1
176
     1
 90
        6
176
     1
 90
        2
176
     1
 62
     7
176
     1
 90
        3
176
     1
 90
        0
176
     1
 90
        0
176
     1
290
     0
176
     1
 90
        1
176
     1
 40
0.0
176
     1
 90
        0
176
     1
290
     0
176
     1
290
     1
176
     1
290
     1
176
     1
290
     0
176
     1
290
     0
176
     1
290
     0
176
     1
290
     0
176
     1
290
     0
176
     1
290
     0
176
     1
 90
       50
176
     1
 40
0.0
176
     1
 40
1.0
176
     1
 90
        0
176
     1
 62
    18
420
        0
176
     1
 90
       50
176
     1
 90
        3
176
     1
 62
     5
420
      255
176
     1
290
     0
176
     1
 90
       50
176
     1
 90
       50
176
     1
 90
       50
176
     1
290
     0
176
     1
 90
       50
176
     1
 62
   256
176
     0
 40
1.0
176
     0
 90
        2
176
     1
  1
strokes_ogs.tif
176
     1
290
     0
176
     1
 40
1.0
176
     1
 40
1.0
176
     1
1001
ACAD
1000
AcDbSavedByObjectVersion
1070
     0
  0
VISUALSTYLE
  5
34
102
{ACAD_REACTORS
330
29
102
}
330
29
100
AcDbVisualStyle
  2
Dim
 70
    11
177
     3
291
     1
 70
    58
 90
        2
176
     1
 90
        2
176
     1
 90
        0
176
     1
 90
        0
176
     1
 40
0.6
176
     1
 40
30.0
176
     1
 62
     7
420
 16777215
176
     1
 90
        1
176
     1
 90
        4
176
     1
 62
     7
176
     1
 62
   257
176
     1
 90
        1
176
     1
 90
        1
176
     1
 40
1.0
176
     1
 90
        8
176
     1
 62
     7
176
     1
 40
1.0
176
     1
 90
        1
176
     1
 90
        6
176
     1
 90
        2
176
     1
 62
     7
176
     1
 90
        5
176
     1
 90
        0
176
     1
 90
        0
176
     1
290
     0
176
     1
 90
        1
176
     1
 40
-50.0
176
     1
 90
        0
176
     1
290
     0
176
     1
290
     1
176
     1
290
     1
176
     1
290
     0
176
     1
290
     0
176
     1
290
     0
176
     1
290
     0
176
     1
290
     0
176
     1
290
     0
176
     1
 90
       50
176
     1
 40
0.0
176
     1
 40
1.0
176
     1
 90
        0
176
     1
 62
    18
420
        0
176
     1
 90
       50
176
     1
 90
        3
176
     1
 62
     5
420
      255
176
     1
290
     0
176
     1
 90
       50
176
     1
 90
       50
176
     1
 90
       50
176
     1
290
     0
176
     1
 90
       50
176
     1
 62
   256
176
     0
 40
1.0
176
     0
 90
        2
176
     1
  1
strokes_ogs.tif
176
     1
290
     0
176
     1
 40
1.0
176
     1
 40
1.0
176
     1
1001
ACAD
1000
AcDbSavedByObjectVersion
1070
     0
  0
VISUALSTYLE
  5
41
102
{ACAD_REACTORS
330
29
102
}
330
29
100
AcDbVisualStyle
  2
EdgeColorOff
 70
    22
177
     3
291
     1
 70
    58
 90
        2
176
     0
 90
        2
176
     0
 90
        0
176
     0
 90
        0
176
     0
 40
0.6
176
     0
 40
30.0
176
     0
 62
     7
420
 16777215
176
     0
 90
        1
176
     0
 90
        4
176
     0
 62
     7
176
     0
 62
   257
176
     0
 90
        1
176
     0
 90
        1
176
     0
 40
1.0
176
     0
 90
        8
176
     2
 62
     7
176
     0
 40
1.0
176
     0
 90
        1
176
     0
 90
        6
176
     0
 90
        2
176
     0
 62
     7
176
     0
 90
        5
176
     0
 90
        0
176
     0
 90
        0
176
     0
290
     0
176
     0
 90
        1
176
     0
 40
0.0
176
     0
 90
        0
176
     0
290
     0
176
     0
290
     1
176
     0
290
     1
176
     0
290
     0
176
     0
290
     0
176
     0
290
     0
176
     0
290
     0
176
     0
290
     0
176
     0
290
     0
176
     0
 90
       50
176
     0
 40
0.0
176
     0
 40
1.0
176
     0
 90
        0
176
     0
 62
    18
420
        0
176
     0
 90
       50
176
     0
 90
        3
176
     0
 62
     5
420
      255
176
     0
290
     0
176
     0
 90
       50
176
     0
 90
       50
176
     0
 90
       50
176
     0
290
     0
176
     0
 90
       50
176
     0
 62
   256
176
     0
 40
1.0
176
     0
 90
        2
176
     0
  1
strokes_ogs.tif
176
     0
290
     0
176
     0
 40
1.0
176
     0
 40
1.0
176
     0
1001
ACAD
1000
AcDbSavedByObjectVersion
1070
     0
  0
VISUALSTYLE
  5
38
102
{ACAD_REACTORS
330
29
102
}
330
29
100
AcDbVisualStyle
  2
Facepattern
 70
    15
177
     3
291
     1
 70
    58
 90
        2
176
     1
 90
        2
176
     1
 90
        0
176
     1
 90
        0
176
     1
 40
0.6
176
     1
 40
30.0
176
     1
 62
     7
420
 16777215
176
     1
 90
        1
176
     1
 90
        4
176
     1
 62
     7
176
     1
 62
   257
176
     1
 90
        1
176
     1
 90
        1
176
     1
 40
1.0
176
     1
 90
        8
176
     1
 62
     7
176
     1
 40
1.0
176
     1
 90
        1
176
     1
 90
        6
176
     1
 90
        2
176
     1
 62
     7
176
     1
 90
        5
176
     1
 90
        0
176
     1
 90
        0
176
     1
290
     0
176
     1
 90
        1
176
     1
 40
0.0
176
     1
 90
        0
176
     1
290
     0
176
     1
290
     1
176
     1
290
     1
176
     1
290
     0
176
     1
290
     0
176
     1
290
     0
176
     1
290
     0
176
     1
290
     0
176
     1
290
     0
176
     1
 90
       50
176
     1
 40
0.0
176
     1
 40
1.0
176
     1
 90
        0
176
     1
 62
    18
420
        0
176
     1
 90
       50
176
     1
 90
        3
176
     1
 62
     5
420
      255
176
     1
290
     0
176
     1
 90
       50
176
     1
 90
       50
176
     1
 90
       50
176
     1
290
     0
176
     1
 90
       50
176
     1
 62
   256
176
     0
 40
1.0
176
     0
 90
        2
176
     1
  1
strokes_ogs.tif
176
     1
290
     0
176
     1
 40
1.0
176
     1
 40
1.0
176
     1
1001
ACAD
1000
AcDbSavedByObjectVersion
1070
     0
  0
VISUALSTYLE
  5
2A
102
{ACAD_REACTORS
330
29
102
}
330
29
100
AcDbVisualStyle
  2
Flat
 70
     0
177
     3
291
     1
 70
    58
 90
        2
176
     1
 90
        1
176
     1
 90
        1
176
     1
 90
        2
176
     1
 40
0.6
176
     1
 40
30.0
176
     1
 62
     7
420
 16777215
176
     1
 90
        0
176
     1
 90
        0
176
     1
 62
     7
176
     1
 62
   257
176
     1
 90
        1
176
     1
 90
        1
176
     1
 40
1.0
176
     1
 90
        8
176
     1
 62
     7
176
     1
 40
1.0
176
     1
 90
        1
176
     1
 90
        6
176
     1
 90
        2
176
     1
 62
     7
176
     1
 90
        5
176
     1
 90
        0
176
     1
 90
        0
176
     1
290
     0
176
     1
 90
       13
176
     1
 40
0.0
176
     1
 90
        0
176
     1
290
     0
176
     1
290
     1
176
     1
290
     1
176
     1
290
     0
176
     1
290
     0
176
     1
290
     0
176
     1
290
     0
176
     1
290
     0
176
     1
290
     0
176
     1
 90
       50
176
     1
 40
0.0
176
     1
 40
1.0
176
     1
 90
        0
176
     1
 62
    18
420
        0
176
     1
 90
       50
176
     1
 90
        3
176
     1
 62
     5
420
      255
176
     1
290
     0
176
     1
 90
       50
176
     1
 90
       50
176
     1
 90
       50
176
     1
290
     0
176
     1
 90
       50
176
     1
 62
   256
176
     0
 40
1.0
176
     0
 90
        2
176
     1
  1
strokes_ogs.tif
176
     1
290
     0
176
     1
 40
1.0
176
     1
 40
1.0
176
     1
1001
ACAD
1000
AcDbSavedByObjectVersion
1070
     0
  0
VISUALSTYLE
  5
2B
102
{ACAD_REACTORS
330
29
102
}
330
29
100
AcDbVisualStyle
  2
FlatWithEdges
 70
     1
177
     3
291
     1
 70
    58
 90
        2
176
     1
 90
        1
176
     1
 90
        1
176
     1
 90
        2
176
     1
 40
0.6
176
     1
 40
30.0
176
     1
 62
     7
420
 16777215
176
     1
 90
        1
176
     1
 90
        0
176
     1
 62
     7
176
     1
 62
   257
176
     1
 90
        1
176
     1
 90
        1
176
     1
 40
1.0
176
     1
 90
        0
176
     1
 62
   257
176
     1
 40
1.0
176
     1
 90
        1
176
     1
 90
        6
176
     1
 90
        2
176
     1
 62
     7
176
     1
 90
        5
176
     1
 90
        0
176
     1
 90
        0
176
     1
290
     0
176
     1
 90
       13
176
     1
 40
0.0
176
     1
 90
        0
176
     1
290
     0
176
     1
290
     1
176
     1
290
     1
176
     1
290
     0
176
     1
290
     0
176
     1
290
     0
176
     1
290
     0
176
     1
290
     0
176
     1
290
     0
176
     1
 90
       50
176
     1
 40
0.0
176
     1
 40
1.0
176
     1
 90
        0
176
     1
 62
    18
420
        0
176
     1
 90
       50
176
     1
 90
        3
176
     1
 62
     5
420
      255
176
     1
290
     0
176
     1
 90
       50
176
     1
 90
       50
176
     1
 90
       50
176
     1
290
     0
176
     1
 90
       50
176
     1
 62
   256
176
     0
 40
1.0
176
     0
 90
        2
176
     1
  1
strokes_ogs.tif
176
     1
290
     0
176
     1
 40
1.0
176
     1
 40
1.0
176
     1
1001
ACAD
1000
AcDbSavedByObjectVersion
1070
     0
  0
VISUALSTYLE
  5
2C
102
{ACAD_REACTORS
330
29
102
}
330
29
100
AcDbVisualStyle
  2
Gouraud
 70
     2
177
     3
291
     1
 70
    58
 90
        2
176
     1
 90
        2
176
     1
 90
        1
176
     1
 90
        2
176
     1
 40
0.6
176
     1
 40
30.0
176
     1
 62
     7
420
 16777215
176
     1
 90
        0
176
     1
 90
        0
176
     1
 62
     7
176
     1
 62
   257
176
     1
 90
        1
176
     1
 90
        1
176
     1
 40
1.0
176
     1
 90
        0
176
     1
 62
     7
176
     1
 40
1.0
176
     1
 90
        1
176
     1
 90
        6
176
     1
 90
        2
176
     1
 62
     7
176
     1
 90
        5
176
     1
 90
        0
176
     1
 90
        0
176
     1
290
     0
176
     1
 90
       13
176
     1
 40
0.0
176
     1
 90
        0
176
     1
290
     0
176
     1
290
     1
176
     1
290
     1
176
     1
290
     0
176
     1
290
     0
176
     1
290
     0
176
     1
290
     0
176
     1
290
     0
176
     1
290
     0
176
     1
 90
       50
176
     1
 40
0.0
176
     1
 40
1.0
176
     1
 90
        0
176
     1
 62
    18
420
        0
176
     1
 90
       50
176
     1
 90
        3
176
     1
 62
     5
420
      255
176
     1
290
     0
176
     1
 90
       50
176
     1
 90
       50
176
     1
 90
       50
176
     1
290
     0
176
     1
 90
       50
176
     1
 62
   256
176
     0
 40
1.0
176
     0
 90
        2
176
     1
  1
strokes_ogs.tif
176
     1
290
     0
176
     1
 40
1.0
176
     1
 40
1.0
176
     1
1001
ACAD
1000
AcDbSavedByObjectVersion
1070
     0
  0
VISUALSTYLE
  5
2D
102
{ACAD_REACTORS
330
29
102
}
330
29
100
AcDbVisualStyle
  2
GouraudWithEdges
 70
     3
177
     3
291
     1
 70
    58
 90
        2
176
     1
 90
        2
176
     1
 90
        1
176
     1
 90
        2
176
     1
 40
0.6
176
     1
 40
30.0
176
     1
 62
     7
420
 16777215
176
     1
 90
        1
176
     1
 90
        0
176
     1
 62
     7
176
     1
 62
   257
176
     1
 90
        1
176
     1
 90
        1
176
     1
 40
1.0
176
     1
 90
        0
176
     1
 62
   257
176
     1
 40
1.0
176
     1
 90
        1
176
     1
 90
        6
176
     1
 90
        2
176
     1
 62
     7
176
     1
 90
        5
176
     1
 90
        0
176
     1
 90
        0
176
     1
290
     0
176
     1
 90
       13
176
     1
 40
0.0
176
     1
 90
        0
176
     1
290
     0
176
     1
290
     1
176
     1
290
     1
176
     1
290
     0
176
     1
290
     0
176
     1
290
     0
176
     1
290
     0
176
     1
290
     0
176
     1
290
     0
176
     1
 90
       50
176
     1
 40
0.0
176
     1
 40
1.0
176
     1
 90
        0
176
     1
 62
    18
420
        0
176
     1
 90
       50
176
     1
 90
        3
176
     1
 62
     5
420
      255
176
     1
290
     0
176
     1
 90
       50
176
     1
 90
       50
176
     1
 90
       50
176
     1
290
     0
176
     1
 90
       50
176
     1
 62
   256
176
     0
 40
1.0
176
     0
 90
        2
176
     1
  1
strokes_ogs.tif
176
     1
290
     0
176
     1
 40
1.0
176
     1
 40
1.0
176
     1
1001
ACAD
1000
AcDbSavedByObjectVersion
1070
     0
  0
VISUALSTYLE
  5
31
102
{ACAD_REACTORS
330
29
102
}
330
29
100
AcDbVisualStyle
  2
Hidden
 70
     6
177
     3
291
     0
 70
    58
 90
        1
176
     1
 90
        2
176
     1
 90
        2
176
     1
 90
        0
176
     1
 40
0.6
176
     1
 40
30.0
176
     1
 62
     7
420
 16777215
176
     1
 90
        2
176
     1
 90
        2
176
     1
 62
     7
176
     1
 62
   257
176
     1
 90
        2
176
     1
 90
        1
176
     1
 40
40.0
176
     1
 90
        0
176
     1
 62
   257
176
     1
 40
1.0
176
     1
 90
        1
176
     1
 90
        6
176
     1
 90
        2
176
     1
 62
     7
176
     1
 90
        3
176
     1
 90
        0
176
     1
 90
        0
176
     1
290
     0
176
     1
 90
        1
176
     1
 40
0.0
176
     1
 90
        0
176
     1
290
     0
176
     1
290
     1
176
     1
290
     1
176
     1
290
     0
176
     1
290
     0
176
     1
290
     0
176
     1
290
     0
176
     1
290
     0
176
     1
290
     0
176
     1
 90
       50
176
     1
 40
0.0
176
     1
 40
1.0
176
     1
 90
        0
176
     1
 62
    18
420
        0
176
     1
 90
       50
176
     1
 90
        3
176
     1
 62
     5
420
      255
176
     1
290
     0
176
     1
 90
       50
176
     1
 90
       50
176
     1
 90
       50
176
     1
290
     0
176
     1
 90
       50
176
     1
 62
   256
176
     0
 40
1.0
176
     0
 90
        2
176
     1
  1
strokes_ogs.tif
176
     1
290
     0
176
     1
 40
1.0
176
     1
 40
1.0
176
     1
1001
ACAD
1000
AcDbSavedByObjectVersion
1070
     0
  0
VISUALSTYLE
  5
3F
102
{ACAD_REACTORS
330
29
102
}
330
29
100
AcDbVisualStyle
  2
JitterOff
 70
    20
177
     3
291
     1
 70
    58
 90
        2
176
     0
 90
        2
176
     0
 90
        0
176
     0
 90
        0
176
     0
 40
0.6
176
     0
 40
30.0
176
     0
 62
     7
420
 16777215
176
     0
 90
        1
176
     0
 90
        4
176
     0
 62
     7
176
     0
 62
   257
176
     0
 90
        1
176
     0
 90
        1
176
     0
 40
1.0
176
     0
 90
       10
176
     2
 62
     7
176
     0
 40
1.0
176
     0
 90
        1
176
     0
 90
        6
176
     0
 90
        2
176
     0
 62
     7
176
     0
 90
        5
176
     0
 90
        0
176
     0
 90
        0
176
     0
290
     0
176
     0
 90
        1
176
     0
 40
0.0
176
     0
 90
        0
176
     0
290
     0
176
     0
290
     1
176
     0
290
     1
176
     0
290
     0
176
     0
290
     0
176
     0
290
     0
176
     0
290
     0
176
     0
290
     0
176
     0
290
     0
176
     0
 90
       50
176
     0
 40
0.0
176
     0
 40
1.0
176
     0
 90
        0
176
     0
 62
    18
420
        0
176
     0
 90
       50
176
     0
 90
        3
176
     0
 62
     5
420
      255
176
     0
290
     0
176
     0
 90
       50
176
     0
 90
       50
176
     0
 90
       50
176
     0
290
     0
176
     0
 90
       50
176
     0
 62
   256
176
     0
 40
1.0
176
     0
 90
        2
176
     0
  1
strokes_ogs.tif
176
     0
290
     0
176
     0
 40
1.0
176
     0
 40
1.0
176
     0
1001
ACAD
1000
AcDbSavedByObjectVersion
1070
     0
  0
VISUALSTYLE
  5
37
102
{ACAD_REACTORS
330
29
102
}
330
29
100
AcDbVisualStyle
  2
Linepattern
 70
    14
177
     3
291
     1
 70
    58
 90
        2
176
     1
 90
        2
176
     1
 90
        0
176
     1
 90
        0
176
     1
 40
0.6
176
     1
 40
30.0
176
     1
 62
     7
420
 16777215
176
     1
 90
        1
176
     1
 90
        4
176
     1
 62
     7
176
     1
 62
   257
176
     1
 90
        7
176
     1
 90
        7
176
     1
 40
1.0
176
     1
 90
        8
176
     1
 62
     7
176
     1
 40
1.0
176
     1
 90
        1
176
     1
 90
        6
176
     1
 90
        2
176
     1
 62
     7
176
     1
 90
        5
176
     1
 90
        0
176
     1
 90
        0
176
     1
290
     0
176
     1
 90
        1
176
     1
 40
0.0
176
     1
 90
        0
176
     1
290
     0
176
     1
290
     1
176
     1
290
     1
176
     1
290
     0
176
     1
290
     0
176
     1
290
     0
176
     1
290
     0
176
     1
290
     0
176
     1
290
     0
176
     1
 90
       50
176
     1
 40
0.0
176
     1
 40
1.0
176
     1
 90
        0
176
     1
 62
    18
420
        0
176
     1
 90
       50
176
     1
 90
        3
176
     1
 62
     5
420
      255
176
     1
290
     0
176
     1
 90
       50
176
     1
 90
       50
176
     1
 90
       50
176
     1
290
     0
176
     1
 90
       50
176
     1
 62
   256
176
     0
 40
1.0
176
     0
 90
        2
176
     1
  1
strokes_ogs.tif
176
     1
290
     0
176
     1
 40
1.0
176
     1
 40
1.0
176
     1
1001
ACAD
1000
AcDbSavedByObjectVersion
1070
     0
  0
VISUALSTYLE
  5
40
102
{ACAD_REACTORS
330
29
102
}
330
29
100
AcDbVisualStyle
  2
OverhangOff
 70
    21
177
     3
291
     1
 70
    58
 90
        2
176
     0
 90
        2
176
     0
 90
        0
176
     0
 90
        0
176
     0
 40
0.6
176
     0
 40
30.0
176
     0
 62
     7
420
 16777215
176
     0
 90
        1
176
     0
 90
        4
176
     0
 62
     7
176
     0
 62
   257
176
     0
 90
        1
176
     0
 90
        1
176
     0
 40
1.0
176
     0
 90
        9
176
     2
 62
     7
176
     0
 40
1.0
176
     0
 90
        1
176
     0
 90
        6
176
     0
 90
        2
176
     0
 62
     7
176
     0
 90
        5
176
     0
 90
        0
176
     0
 90
        0
176
     0
290
     0
176
     0
 90
        1
176
     0
 40
0.0
176
     0
 90
        0
176
     0
290
     0
176
     0
290
     1
176
     0
290
     1
176
     0
290
     0
176
     0
290
     0
176
     0
290
     0
176
     0
290
     0
176
     0
290
     0
176
     0
290
     0
176
     0
 90
       50
176
     0
 40
0.0
176
     0
 40
1.0
176
     0
 90
        0
176
     0
 62
    18
420
        0
176
     0
 90
       50
176
     0
 90
        3
176
     0
 62
     5
420
      255
176
     0
290
     0
176
     0
 90
       50
176
     0
 90
       50
176
     0
 90
       50
176
     0
290
     0
176
     0
 90
       50
176
     0
 62
   256
176
     0
 40
1.0
176
     0
 90
        2
176
     0
  1
strokes_ogs.tif
176
     0
290
     0
176
     0
 40
1.0
176
     0
 40
1.0
176
     0
1001
ACAD
1000
AcDbSavedByObjectVersion
1070
     0
  0
VISUALSTYLE
  5
33
102
{ACAD_REACTORS
330
29
102
}
330
29
100
AcDbVisualStyle
  2
Realistic
 70
     8
177
     3
291
     0
 70
    58
 90
        2
176
     1
 90
        3
176
     1
 90
        0
176
     1
 90
        2
176
     1
 40
0.6
176
     1
 40
30.0
176
     1
 62
     7
420
 16777215
176
     1
 90
        0
176
     1
 90
        0
176
     1
 62
     7
176
     1
 62
   257
176
     1
 90
        1
176
     1
 90
        1
176
     1
 40
1.0
176
     1
 90
        8
176
     1
 62
   257
176
     1
 40
1.0
176
     1
 90
        1
176
     1
 90
        6
176
     1
 90
        2
176
     1
 62
     7
176
     1
 90
        3
176
     1
 90
        0
176
     1
 90
        0
176
     1
290
     0
176
     1
 90
       13
176
     1
 40
0.0
176
     1
 90
        0
176
     1
290
     0
176
     1
290
     1
176
     1
290
     1
176
     1
290
     0
176
     1
290
     0
176
     1
290
     0
176
     1
290
     0
176
     1
290
     0
176
     1
290
     0
176
     1
 90
       50
176
     1
 40
0.0
176
     1
 40
1.0
176
     1
 90
        0
176
     1
 62
    18
420
        0
176
     1
 90
       50
176
     1
 90
        3
176
     1
 62
     5
420
      255
176
     1
290
     0
176
     1
 90
       50
176
     1
 90
       50
176
     1
 90
       50
176
     1
290
     0
176
     1
 90
       50
176
     1
 62
   256
176
     0
 40
1.0
176
     0
 90
        2
176
     1
  1
strokes_ogs.tif
176
     1
290
     0
176
     1
 40
1.0
176
     1
 40
1.0
176
     1
1001
ACAD
1000
AcDbSavedByObjectVersion
1070
     0
  0
VISUALSTYLE
  5
3E
102
{ACAD_REACTORS
330
29
102
}
330
29
100
AcDbVisualStyle
  2
Shaded
 70
    27
177
     3
291
     0
 70
    58
 90
        2
176
     1
 90
        2
176
     1
 90
        1
176
     1
 90
        2
176
     1
 40
0.6
176
     1
 40
30.0
176
     1
 62
     7
420
 16777215
176
     1
 90
        0
176
     1
 90
        4
176
     1
 62
     7
176
     1
 62
   257
176
     1
 90
        1
176
     1
 90
        1
176
     1
 40
1.0
176
     1
 90
        8
176
     1
 62
   257
176
     1
 40
1.0
176
     1
 90
        1
176
     1
 90
        6
176
     1
 90
        2
176
     1
 62
     8
420
  7895160
176
     1
 90
        3
176
     1
 90
        0
176
     1
 90
        0
176
     1
290
     0
176
     1
 90
        5
176
     1
 40
0.0
176
     1
 90
        0
176
     1
290
     0
176
     1
290
     1
176
     1
290
     1
176
     1
290
     0
176
     1
290
     0
176
     1
290
     0
176
     1
290
     0
176
     1
290
     0
176
     1
290
     0
176
     1
 90
       50
176
     1
 40
0.0
176
     1
 40
1.0
176
     1
 90
        0
176
     1
 62
    18
420
        0
176
     1
 90
       50
176
     1
 90
        3
176
     1
 62
     5
420
      255
176
     1
290
     0
176
     1
 90
       50
176
     1
 90
       50
176
     1
 90
       50
176
     1
290
     0
176
     1
 90
       50
176
     1
 62
   256
176
     0
 40
1.0
176
     0
 90
        2
176
     1
  1
strokes_ogs.tif
176
     1
290
     0
176
     1
 40
1.0
176
     1
 40
1.0
176
     1
1001
ACAD
1000
AcDbSavedByObjectVersion
1070
     0
  0
VISUALSTYLE
  5
3D
102
{ACAD_REACTORS
330
29
102
}
330
29
100
AcDbVisualStyle
  2
Shaded with edges
 70
    26
177
     3
291
     0
 70
    58
 90
        2
176
     1
 90
        2
176
     1
 90
        1
176
     1
 90
        2
176
     1
 40
0.6
176
     1
 40
30.0
176
     1
 62
     7
420
 16777215
176
     1
 90
        1
176
     1
 90
        2
176
     1
 62
     7
176
     1
 62
   257
176
     1
 90
        2
176
     1
 90
        1
176
     1
 40
1.0
176
     1
 90
        8
176
     1
 62
   257
176
     1
 40
1.0
176
     1
 90
        1
176
     1
 90
        6
176
     1
 90
        2
176
     1
 62
     7
176
     1
 90
        3
176
     1
 90
        0
176
     1
 90
        0
176
     1
290
     0
176
     1
 90
        5
176
     1
 40
0.0
176
     1
 90
        0
176
     1
290
     0
176
     1
290
     1
176
     1
290
     1
176
     1
290
     0
176
     1
290
     0
176
     1
290
     0
176
     1
290
     0
176
     1
290
     0
176
     1
290
     0
176
     1
 90
       50
176
     1
 40
0.0
176
     1
 40
1.0
176
     1
 90
        0
176
     1
 62
    18
420
        0
176
     1
 90
       50
176
     1
 90
        3
176
     1
 62
     5
420
      255
176
     1
290
     0
176
     1
 90
       50
176
     1
 90
       50
176
     1
 90
       50
176
     1
290
     0
176
     1
 90
       50
176
     1
 62
   256
176
     0
 40
1.0
176
     0
 90
        2
176
     1
  1
strokes_ogs.tif
176
     1
290
     0
176
     1
 40
1.0
176
     1
 40
1.0
176
     1
1001
ACAD
1000
AcDbSavedByObjectVersion
1070
     0
  0
VISUALSTYLE
  5
3A
102
{ACAD_REACTORS
330
29
102
}
330
29
100
AcDbVisualStyle
  2
Shades of Gray
 70
    23
177
     3
291
     0
 70
    58
 90
        2
176
     1
 90
        2
176
     1
 90
        3
176
     1
 90
        0
176
     1
 40
0.6
176
     1
 40
30.0
176
     1
 62
     7
420
 16777215
176
     1
 90
        2
176
     1
 90
        2
176
     1
 62
     7
176
     1
 62
     7
176
     1
 90
        1
176
     1
 90
        1
176
     1
 40
40.0
176
     1
 90
        8
176
     1
 62
     7
176
     1
 40
1.0
176
     1
 90
        1
176
     1
 90
        6
176
     1
 90
        2
176
     1
 62
     7
176
     1
 90
        3
176
     1
 90
        0
176
     1
 90
        0
176
     1
290
     0
176
     1
 90
        1
176
     1
 40
0.0
176
     1
 90
        0
176
     1
290
     0
176
     1
290
     1
176
     1
290
     1
176
     1
290
     0
176
     1
290
     0
176
     1
290
     0
176
     1
290
     0
176
     1
290
     0
176
     1
290
     0
176
     1
 90
       50
176
     1
 40
0.0
176
     1
 40
1.0
176
     1
 90
        0
176
     1
 62
    18
420
        0
176
     1
 90
       50
176
     1
 90
        3
176
     1
 62
     5
420
      255
176
     1
290
     0
176
     1
 90
       50
176
     1
 90
       50
176
     1
 90
       50
176
     1
290
     0
176
     1
 90
       50
176
     1
 62
   256
176
     0
 40
1.0
176
     0
 90
        2
176
     1
  1
strokes_ogs.tif
176
     1
290
     0
176
     1
 40
1.0
176
     1
 40
1.0
176
     1
1001
ACAD
1000
AcDbSavedByObjectVersion
1070
     0
  0
VISUALSTYLE
  5
3B
102
{ACAD_REACTORS
330
29
102
}
330
29
100
AcDbVisualStyle
  2
Sketchy
 70
    24
177
     3
291
     0
 70
    58
 90
        1
176
     1
 90
        2
176
     1
 90
        2
176
     1
 90
        0
176
     1
 40
0.6
176
     1
 40
30.0
176
     1
 62
     7
420
 16777215
176
     1
 90
        2
176
     1
 90
        2
176
     1
 62
     7
176
     1
 62
     7
176
     1
 90
        1
176
     1
 90
        1
176
     1
 40
40.0
176
     1
 90
       11
176
     1
 62
     7
176
     1
 40
1.0
176
     1
 90
        1
176
     1
 90
        6
176
     1
 90
        2
176
     1
 62
     7
176
     1
 90
        6
176
     1
 90
        0
176
     1
 90
        0
176
     1
290
     0
176
     1
 90
        1
176
     1
 40
0.0
176
     1
 90
        0
176
     1
290
     0
176
     1
290
     1
176
     1
290
     1
176
     1
290
     0
176
     1
290
     0
176
     1
290
     0
176
     1
290
     0
176
     1
290
     0
176
     1
290
     0
176
     1
 90
       50
176
     1
 40
0.0
176
     1
 40
1.0
176
     1
 90
        0
176
     1
 62
    18
420
        0
176
     1
 90
       50
176
     1
 90
        3
176
     1
 62
     5
420
      255
176
     1
290
     0
176
     1
 90
       50
176
     1
 90
       50
176
     1
 90
       50
176
     1
290
     0
176
     1
 90
       50
176
     1
 62
   256
176
     0
 40
1.0
176
     0
 90
        2
176
     1
  1
strokes_ogs.tif
176
     1
290
     0
176
     1
 40
1.0
176
     1
 40
1.0
176
     1
1001
ACAD
1000
AcDbSavedByObjectVersion
1070
     0
  0
VISUALSTYLE
  5
36
102
{ACAD_REACTORS
330
29
102
}
330
29
100
AcDbVisualStyle
  2
Thicken
 70
    13
177
     3
291
     1
 70
    58
 90
        2
176
     1
 90
        2
176
     1
 90
        0
176
     1
 90
        0
176
     1
 40
0.6
176
     1
 40
30.0
176
     1
 62
     7
420
 16777215
176
     1
 90
        1
176
     1
 90
        4
176
     1
 62
     7
176
     1
 62
   257
176
     1
 90
        1
176
     1
 90
        1
176
     1
 40
1.0
176
     1
 90
       12
176
     1
 62
     7
176
     1
 40
1.0
176
     1
 90
        1
176
     1
 90
        6
176
     1
 90
        2
176
     1
 62
     7
176
     1
 90
        5
176
     1
 90
        0
176
     1
 90
        0
176
     1
290
     0
176
     1
 90
        1
176
     1
 40
0.0
176
     1
 90
        0
176
     1
290
     0
176
     1
290
     1
176
     1
290
     1
176
     1
290
     0
176
     1
290
     0
176
     1
290
     0
176
     1
290
     0
176
     1
290
     0
176
     1
290
     0
176
     1
 90
       50
176
     1
 40
0.0
176
     1
 40
1.0
176
     1
 90
        0
176
     1
 62
    18
420
        0
176
     1
 90
       50
176
     1
 90
        3
176
     1
 62
     5
420
      255
176
     1
290
     0
176
     1
 90
       50
176
     1
 90
       50
176
     1
 90
       50
176
     1
290
     0
176
     1
 90
       50
176
     1
 62
   256
176
     0
 40
1.0
176
     0
 90
        2
176
     1
  1
strokes_ogs.tif
176
     1
290
     0
176
     1
 40
1.0
176
     1
 40
1.0
176
     1
1001
ACAD
1000
AcDbSavedByObjectVersion
1070
     0
  0
VISUALSTYLE
  5
30
102
{ACAD_REACTORS
330
29
102
}
330
29
100
AcDbVisualStyle
  2
Wireframe
 70
     5
177
     3
291
     0
 70
    58
 90
        0
176
     1
 90
        2
176
     1
 90
        0
176
     1
 90
        0
176
     1
 40
0.6
176
     1
 40
30.0
176
     1
 62
     7
420
 16777215
176
     1
 90
        1
176
     1
 90
        4
176
     1
 62
     7
176
     1
 62
   257
176
     1
 90
        1
176
     1
 90
        1
176
     1
 40
1.0
176
     1
 90
        0
176
     1
 62
   257
176
     1
 40
1.0
176
     1
 90
        1
176
     1
 90
        6
176
     1
 90
        2
176
     1
 62
     7
176
     1
 90
        3
176
     1
 90
        0
176
     1
 90
        0
176
     1
290
     0
176
     1
 90
        1
176
     1
 40
0.0
176
     1
 90
        0
176
     1
290
     0
176
     1
290
     1
176
     1
290
     1
176
     1
290
     0
176
     1
290
     0
176
     1
290
     0
176
     1
290
     0
176
     1
290
     0
176
     1
290
     0
176
     1
 90
       50
176
     1
 40
0.0
176
     1
 40
1.0
176
     1
 90
        0
176
     1
 62
    18
420
        0
176
     1
 90
       50
176
     1
 90
        3
176
     1
 62
     5
420
      255
176
     1
290
     0
176
     1
 90
       50
176
     1
 90
       50
176
     1
 90
       50
176
     1
290
     0
176
     1
 90
       50
176
     1
 62
   256
176
     0
 40
1.0
176
     0
 90
        2
176
     1
  1
strokes_ogs.tif
176
     1
290
     0
176
     1
 40
1.0
176
     1
 40
1.0
176
     1
1001
ACAD
1000
AcDbSavedByObjectVersion
1070
     0
  0
VISUALSTYLE
  5
3C
102
{ACAD_REACTORS
330
29
102
}
330
29
100
AcDbVisualStyle
  2
X-Ray
 70
    25
177
     3
291
     0
 70
    58
 90
        2
176
     1
 90
        2
176
     1
 90
        1
176
     1
 90
        1
176
     1
 40
0.5
176
     1
 40
30.0
176
     1
 62
     7
420
 16777215
176
     1
 90
        1
176
     1
 90
        0
176
     1
 62
     7
176
     1
 62
   257
176
     1
 90
        1
176
     1
 90
        1
176
     1
 40
1.0
176
     1
 90
        8
176
     1
 62
     7
176
     1
 40
1.0
176
     1
 90
        1
176
     1
 90
        6
176
     1
 90
        2
176
     1
 62
     7
176
     1
 90
        3
176
     1
 90
        0
176
     1
 90
        0
176
     1
290
     0
176
     1
 90
       13
176
     1
 40
0.0
176
     1
 90
        0
176
     1
290
     0
176
     1
290
     1
176
     1
290
     1
176
     1
290
     0
176
     1
290
     0
176
     1
290
     0
176
     1
290
     0
176
     1
290
     0
176
     1
290
     0
176
     1
 90
       50
176
     1
 40
0.0
176
     1
 40
1.0
176
     1
 90
        0
176
     1
 62
    18
420
        0
176
     1
 90
       50
176
     1
 90
        3
176
     1
 62
     5
420
      255
176
     1
290
     0
176
     1
 90
       50
176
     1
 90
       50
176
     1
 90
       50
176
     1
290
     0
176
     1
 90
       50
176
     1
 62
   256
176
     0
 40
1.0
176
     0
 90
        2
176
     1
  1
strokes_ogs.tif
176
     1
290
     0
176
     1
 40
1.0
176
     1
 40
1.0
176
     1
1001
ACAD
1000
AcDbSavedByObjectVersion
1070
     0
  0
DICTIONARYVAR
  5
173
102
{ACAD_REACTORS
330
16E
102
}
330
16E
100
DictionaryVariables
280
     0
  1
1:1
  0
DICTIONARYVAR
  5
170
102
{ACAD_REACTORS
330
16E
102
}
330
16E
100
DictionaryVariables
280
     0
  1
STANDARD
  0
DICTIONARYVAR
  5
16F
102
{ACAD_REACTORS
330
16E
102
}
330
16E
100
DictionaryVariables
280
     0
  1
STANDARD
  0
DICTIONARYVAR
  5
171
102
{ACAD_REACTORS
330
16E
102
}
330
16E
100
DictionaryVariables
280
     0
  1
Imperial24
  0
DICTIONARYVAR
  5
172
102
{ACAD_REACTORS
330
16E
102
}
330
16E
100
DictionaryVariables
280
     0
  1
Imperial24
  0
XRECORD
  5
16B
102
{ACAD_REACTORS
330
166
102
}
330
166
100
AcDbXrecord
280
     1
  1
BUILDING_ID
  1
prkl30 case
  1
FLOOR_ID
  1
1945291
  0
XRECORD
  5
169
102
{ACAD_REACTORS
330
166
102
}
330
166
100
AcDbXrecord
280
     1
  1
-2000051
  1
Lines
  0
XRECORD
  5
167
102
{ACAD_REACTORS
330
166
102
}
330
166
100
AcDbXrecord
280
     1
  1
088f6ea7-c8ac-4094-858e-b525683119e4
  0
XRECORD
  5
16A
102
{ACAD_REACTORS
330
166
102
}
330
166
100
AcDbXrecord
280
     1
  1
133798
  1
Muutosalue
  0
DICTIONARY
  5
190
330
6B
100
AcDbDictionary
280
     1
281
     1
  3
ACAD_XREC_ROUNDTRIP
360
191
  0
DICTIONARY
  5
194
330
176
100
AcDbDictionary
280
     1
281
     1
  3
ACAD_XREC_ROUNDTRIP
360
195
  0
DICTIONARY
  5
1A
330
19
100
AcDbDictionary
280
     1
281
     1
  3
BUMPTILE
360
1C
  3
DIFFUSETILE
360
1B
  3
OPACITYTILE
360
1F
  3
REFLECTIONTILE
360
1E
  3
REFRACTIONTILE
360
20
  3
SPECULARTILE
360
1D
  0
DICTIONARY
  5
12
330
11
100
AcDbDictionary
280
     1
281
     1
  3
BUMPTILE
360
14
  3
DIFFUSETILE
360
13
  3
OPACITYTILE
360
17
  3
REFLECTIONTILE
360
16
  3
REFRACTIONTILE
360
18
  3
SPECULARTILE
360
15
  0
DICTIONARY
  5
22
330
21
100
AcDbDictionary
280
     1
281
     1
  3
BUMPTILE
360
24
  3
DIFFUSETILE
360
23
  3
OPACITYTILE
360
27
  3
REFLECTIONTILE
360
26
  3
REFRACTIONTILE
360
28
  3
SPECULARTILE
360
25
  0
DICTIONARY
  5
18E
330
69
100
AcDbDictionary
280
     1
281
     1
  3
ACAD_XREC_ROUNDTRIP
360
18F
  0
DICTIONARY
  5
192
330
175
100
AcDbDictionary
280
     1
281
     1
  3
ACAD_XREC_ROUNDTRIP
360
193
  0
DICTIONARY
  5
18B
330
65
100
AcDbDictionary
280
     1
281
     1
  3
ACAD_ROUNDTRIP_2008_TABLESTYLE_CELLSTYLEMAP
360
18C
  0
XRECORD
  5
191
102
{ACAD_REACTORS
330
190
102
}
330
190
100
AcDbXrecord
280
     1
102
DISPLAYNAME
  1
Imperial24
102
FLAGS
 90
        0
  0
XRECORD
  5
195
102
{ACAD_REACTORS
330
194
102
}
330
194
100
AcDbXrecord
280
     1
102
DISPLAYNAME
  1
Metric50
102
FLAGS
 90
        0
  0
XRECORD
  5
1C
102
{ACAD_REACTORS
330
1A
102
}
330
1A
100
AcDbXrecord
280
     1
270
     1
271
     1
  0
XRECORD
  5
1B
102
{ACAD_REACTORS
330
1A
102
}
330
1A
100
AcDbXrecord
280
     1
270
     1
271
     1
  0
XRECORD
  5
1F
102
{ACAD_REACTORS
330
1A
102
}
330
1A
100
AcDbXrecord
280
     1
270
     1
271
     1
  0
XRECORD
  5
1E
102
{ACAD_REACTORS
330
1A
102
}
330
1A
100
AcDbXrecord
280
     1
270
     1
271
     1
  0
XRECORD
  5
20
102
{ACAD_REACTORS
330
1A
102
}
330
1A
100
AcDbXrecord
280
     1
270
     1
271
     1
  0
XRECORD
  5
1D
102
{ACAD_REACTORS
330
1A
102
}
330
1A
100
AcDbXrecord
280
     1
270
     1
271
     1
  0
XRECORD
  5
14
102
{ACAD_REACTORS
330
12
102
}
330
12
100
AcDbXrecord
280
     1
270
     1
271
     1
  0
XRECORD
  5
13
102
{ACAD_REACTORS
330
12
102
}
330
12
100
AcDbXrecord
280
     1
270
     1
271
     1
  0
XRECORD
  5
17
102
{ACAD_REACTORS
330
12
102
}
330
12
100
AcDbXrecord
280
     1
270
     1
271
     1
  0
XRECORD
  5
16
102
{ACAD_REACTORS
330
12
102
}
330
12
100
AcDbXrecord
280
     1
270
     1
271
     1
  0
XRECORD
  5
18
102
{ACAD_REACTORS
330
12
102
}
330
12
100
AcDbXrecord
280
     1
270
     1
271
     1
  0
XRECORD
  5
15
102
{ACAD_REACTORS
330
12
102
}
330
12
100
AcDbXrecord
280
     1
270
     1
271
     1
  0
XRECORD
  5
24
102
{ACAD_REACTORS
330
22
102
}
330
22
100
AcDbXrecord
280
     1
270
     1
271
     1
  0
XRECORD
  5
23
102
{ACAD_REACTORS
330
22
102
}
330
22
100
AcDbXrecord
280
     1
270
     1
271
     1
  0
XRECORD
  5
27
102
{ACAD_REACTORS
330
22
102
}
330
22
100
AcDbXrecord
280
     1
270
     1
271
     1
  0
XRECORD
  5
26
102
{ACAD_REACTORS
330
22
102
}
330
22
100
AcDbXrecord
280
     1
270
     1
271
     1
  0
XRECORD
  5
28
102
{ACAD_REACTORS
330
22
102
}
330
22
100
AcDbXrecord
280
     1
270
     1
271
     1
  0
XRECORD
  5
25
102
{ACAD_REACTORS
330
22
102
}
330
22
100
AcDbXrecord
280
     1
270
     1
271
     1
  0
XRECORD
  5
18F
102
{ACAD_REACTORS
330
18E
102
}
330
18E
100
AcDbXrecord
280
     1
102
DISPLAYNAME
  1
Imperial24
102
FLAGS
 90
        0
  0
XRECORD
  5
193
102
{ACAD_REACTORS
330
192
102
}
330
192
100
AcDbXrecord
280
     1
102
DISPLAYNAME
  1
Metric50
102
FLAGS
 90
        0
  0
CELLSTYLEMAP
  5
18C
102
{ACAD_REACTORS
330
18B
102
}
330
18B
100
AcDbCellStyleMap
 90
        3
300
CELLSTYLE
  1
TABLEFORMAT_BEGIN
 90
        5
170
     1
 91
        0
 92
    32768
 62
   257
 93
        1
300
CONTENTFORMAT
  1
CONTENTFORMAT_BEGIN
 90
        0
 91
        0
 92
      512
 93
        0
300

 40
0.0
140
1.0
 94
        5
 62
     0
340
55
144
0.25
309
CONTENTFORMAT_END
171
     0
 94
        0
309
TABLEFORMAT_END
  1
CELLSTYLE_BEGIN
 90
        1
 91
        1
300
_TITLE
309
CELLSTYLE_END
300
CELLSTYLE
  1
TABLEFORMAT_BEGIN
 90
        5
170
     1
 91
        0
 92
        0
 62
   257
 93
        1
300
CONTENTFORMAT
  1
CONTENTFORMAT_BEGIN
 90
        0
 91
        0
 92
      512
 93
        0
300

 40
0.0
140
1.0
 94
        5
 62
     0
340
55
144
0.18
309
CONTENTFORMAT_END
171
     0
 94
        0
309
TABLEFORMAT_END
  1
CELLSTYLE_BEGIN
 90
        2
 91
        1
300
_HEADER
309
CELLSTYLE_END
300
CELLSTYLE
  1
TABLEFORMAT_BEGIN
 90
        5
170
     1
 91
        0
 92
        0
 62
   257
 93
        1
300
CONTENTFORMAT
  1
CONTENTFORMAT_BEGIN
 90
        0
 91
        0
 92
      512
 93
        0
300

 40
0.0
140
1.0
 94
        2
 62
     0
340
55
144
0.18
309
CONTENTFORMAT_END
171
     0
 94
        0
309
TABLEFORMAT_END
  1
CELLSTYLE_BEGIN
 90
        3
 91
        2
300
_DATA
309
CELLSTYLE_END
  0
ENDSEC
  0
EOF
