  0
SECTION
  2
HEADER
  9
$ACADVER
  1
AC1032
  9
$ACADMAINTVER
 90
       10
  9
$DWGCODEPAGE
  3
ANSI_1252
  9
$LASTSAVEDBY
  1
Megaturbo
  9
$REQUIREDVERSIONS
160
                 0
  9
$INSBASE
 10
0.0
 20
0.0
 30
0.0
  9
$EXTMIN
 10
-0.5988918494858809
 20
0.0
 30
0.0
  9
$EXTMAX
 10
11555.75995970012
 20
11423.5872264951
 30
0.0
  9
$LIMMIN
 10
0.0
 20
0.0
  9
$LIMMAX
 10
12.0
 20
9.0
  9
$ORTHOMODE
 70
     0
  9
$REGENMODE
 70
     1
  9
$FILLMODE
 70
     1
  9
$QTEXTMODE
 70
     0
  9
$MIRRTEXT
 70
     0
  9
$LTSCALE
 40
1.0
  9
$ATTMODE
 70
     1
  9
$TEXTSIZE
 40
0.2
  9
$TRACEWID
 40
0.05
  9
$TEXTSTYLE
  7
Standard
  9
$CLAYER
  8
0
  9
$CELTYPE
  6
ByLayer
  9
$CECOLOR
 62
   256
  9
$CELTSCALE
 40
1.0
  9
$DISPSILH
 70
     0
  9
$DIMSCALE
 40
1.0
  9
$DIMASZ
 40
0.18
  9
$DIMEXO
 40
0.0625
  9
$DIMDLI
 40
0.38
  9
$DIMRND
 40
0.0
  9
$DIMDLE
 40
0.0
  9
$DIMEXE
 40
0.18
  9
$DIMTP
 40
0.0
  9
$DIMTM
 40
0.0
  9
$DIMTXT
 40
0.18
  9
$DIMCEN
 40
0.09
  9
$DIMTSZ
 40
0.0
  9
$DIMTOL
 70
     0
  9
$DIMLIM
 70
     0
  9
$DIMTIH
 70
     1
  9
$DIMTOH
 70
     1
  9
$DIMSE1
 70
     0
  9
$DIMSE2
 70
     0
  9
$DIMTAD
 70
     0
  9
$DIMZIN
 70
     0
  9
$DIMBLK
  1

  9
$DIMASO
 70
     1
  9
$DIMSHO
 70
     1
  9
$DIMPOST
  1

  9
$DIMAPOST
  1

  9
$DIMALT
 70
     0
  9
$DIMALTD
 70
     2
  9
$DIMALTF
 40
25.4
  9
$DIMLFAC
 40
1.0
  9
$DIMTOFL
 70
     0
  9
$DIMTVP
 40
0.0
  9
$DIMTIX
 70
     0
  9
$DIMSOXD
 70
     0
  9
$DIMSAH
 70
     0
  9
$DIMBLK1
  1

  9
$DIMBLK2
  1

  9
$DIMSTYLE
  2
Standard
  9
$DIMCLRD
 70
     0
  9
$DIMCLRE
 70
     0
  9
$DIMCLRT
 70
     0
  9
$DIMTFAC
 40
1.0
  9
$DIMGAP
 40
0.09
  9
$DIMJUST
 70
     0
  9
$DIMSD1
 70
     0
  9
$DIMSD2
 70
     0
  9
$DIMTOLJ
 70
     1
  9
$DIMTZIN
 70
     0
  9
$DIMALTZ
 70
     0
  9
$DIMALTTZ
 70
     0
  9
$DIMUPT
 70
     0
  9
$DIMDEC
 70
     4
  9
$DIMTDEC
 70
     4
  9
$DIMALTU
 70
     2
  9
$DIMALTTD
 70
     2
  9
$DIMTXSTY
  7
Standard
  9
$DIMAUNIT
 70
     0
  9
$DIMADEC
 70
     0
  9
$DIMALTRND
 40
0.0
  9
$DIMAZIN
 70
     0
  9
$DIMDSEP
 70
    46
  9
$DIMATFIT
 70
     3
  9
$DIMFRAC
 70
     0
  9
$DIMLDRBLK
  1

  9
$DIMLUNIT
 70
     2
  9
$DIMLWD
 70
    -2
  9
$DIMLWE
 70
    -2
  9
$DIMTMOVE
 70
     0
  9
$DIMFXL
 40
1.0
  9
$DIMFXLON
 70
     0
  9
$DIMJOGANG
 40
0.7853981633974483
  9
$DIMTFILL
 70
     0
  9
$DIMTFILLCLR
 70
     0
  9
$DIMARCSYM
 70
     0
  9
$DIMLTYPE
  6

  9
$DIMLTEX1
  6

  9
$DIMLTEX2
  6

  9
$DIMTXTDIRECTION
 70
     0
  9
$LUNITS
 70
     2
  9
$LUPREC
 70
     4
  9
$SKETCHINC
 40
0.1
  9
$FILLETRAD
 40
0.0
  9
$AUNITS
 70
     0
  9
$AUPREC
 70
     0
  9
$MENU
  1
.
  9
$ELEVATION
 40
0.0
  9
$PELEVATION
 40
0.0
  9
$THICKNESS
 40
0.0
  9
$LIMCHECK
 70
     0
  9
$CHAMFERA
 40
0.0
  9
$CHAMFERB
 40
0.0
  9
$CHAMFERC
 40
0.0
  9
$CHAMFERD
 40
0.0
  9
$SKPOLY
 70
     0
  9
$TDCREATE
 40
2458921.021215278
  9
$TDUCREATE
 40
2458920.937881944
  9
$TDUPDATE
 40
2459088.901631945
  9
$TDUUPDATE
 40
2459088.776631944
  9
$TDINDWG
 40
0.0070717593
  9
$TDUSRTIMER
 40
0.0070717593
  9
$USRTIMER
 70
     1
  9
$ANGBASE
 50
0.0
  9
$ANGDIR
 70
     0
  9
$PDMODE
 70
     0
  9
$PDSIZE
 40
0.0
  9
$PLINEWID
 40
0.0
  9
$SPLFRAME
 70
     0
  9
$SPLINETYPE
 70
     6
  9
$SPLINESEGS
 70
     8
  9
$HANDSEED
  5
186
  9
$SURFTAB1
 70
     6
  9
$SURFTAB2
 70
     6
  9
$SURFTYPE
 70
     6
  9
$SURFU
 70
     6
  9
$SURFV
 70
     6
  9
$UCSBASE
  2

  9
$UCSNAME
  2

  9
$UCSORG
 10
0.0
 20
0.0
 30
0.0
  9
$UCSXDIR
 10
1.0
 20
0.0
 30
0.0
  9
$UCSYDIR
 10
0.0
 20
1.0
 30
0.0
  9
$UCSORTHOREF
  2

  9
$UCSORTHOVIEW
 70
     0
  9
$UCSORGTOP
 10
0.0
 20
0.0
 30
0.0
  9
$UCSORGBOTTOM
 10
0.0
 20
0.0
 30
0.0
  9
$UCSORGLEFT
 10
0.0
 20
0.0
 30
0.0
  9
$UCSORGRIGHT
 10
0.0
 20
0.0
 30
0.0
  9
$UCSORGFRONT
 10
0.0
 20
0.0
 30
0.0
  9
$UCSORGBACK
 10
0.0
 20
0.0
 30
0.0
  9
$PUCSBASE
  2

  9
$PUCSNAME
  2

  9
$PUCSORG
 10
0.0
 20
0.0
 30
0.0
  9
$PUCSXDIR
 10
1.0
 20
0.0
 30
0.0
  9
$PUCSYDIR
 10
0.0
 20
1.0
 30
0.0
  9
$PUCSORTHOREF
  2

  9
$PUCSORTHOVIEW
 70
     0
  9
$PUCSORGTOP
 10
0.0
 20
0.0
 30
0.0
  9
$PUCSORGBOTTOM
 10
0.0
 20
0.0
 30
0.0
  9
$PUCSORGLEFT
 10
0.0
 20
0.0
 30
0.0
  9
$PUCSORGRIGHT
 10
0.0
 20
0.0
 30
0.0
  9
$PUCSORGFRONT
 10
0.0
 20
0.0
 30
0.0
  9
$PUCSORGBACK
 10
0.0
 20
0.0
 30
0.0
  9
$USERI1
 70
     0
  9
$USERI2
 70
     0
  9
$USERI3
 70
     0
  9
$USERI4
 70
     0
  9
$USERI5
 70
     0
  9
$USERR1
 40
0.0
  9
$USERR2
 40
0.0
  9
$USERR3
 40
0.0
  9
$USERR4
 40
0.0
  9
$USERR5
 40
0.0
  9
$WORLDVIEW
 70
     1
  9
$SHADEDGE
 70
     3
  9
$SHADEDIF
 70
    70
  9
$TILEMODE
 70
     1
  9
$MAXACTVP
 70
    64
  9
$PINSBASE
 10
0.0
 20
0.0
 30
0.0
  9
$PLIMCHECK
 70
     0
  9
$PEXTMIN
 10
1.000000000000000E+20
 20
1.000000000000000E+20
 30
1.000000000000000E+20
  9
$PEXTMAX
 10
-1.000000000000000E+20
 20
-1.000000000000000E+20
 30
-1.000000000000000E+20
  9
$PLIMMIN
 10
0.0
 20
0.0
  9
$PLIMMAX
 10
12.0
 20
9.0
  9
$UNITMODE
 70
     0
  9
$VISRETAIN
 70
     1
  9
$PLINEGEN
 70
     0
  9
$PSLTSCALE
 70
     1
  9
$TREEDEPTH
 70
  3020
  9
$CMLSTYLE
  2
Standard
  9
$CMLJUST
 70
     0
  9
$CMLSCALE
 40
1.0
  9
$PROXYGRAPHICS
 70
     1
  9
$MEASUREMENT
 70
     1
  9
$CELWEIGHT
370
    -1
  9
$ENDCAPS
280
     0
  9
$JOINSTYLE
280
     0
  9
$LWDISPLAY
290
     0
  9
$INSUNITS
 70
     4
  9
$HYPERLINKBASE
  1

  9
$STYLESHEET
  1

  9
$XEDIT
290
     1
  9
$CEPSNTYPE
380
     0
  9
$PSTYLEMODE
290
     1
  9
$FINGERPRINTGUID
  2
{6D8BC3C9-F97D-D14D-AE2D-335A6E7B72C5}
  9
$VERSIONGUID
  2
{0D25F436-FFA3-6545-8C1F-107A001CDF41}
  9
$EXTNAMES
290
     1
  9
$PSVPSCALE
 40
0.0
  9
$OLESTARTUP
290
     0
  9
$SORTENTS
280
   127
  9
$INDEXCTL
280
     0
  9
$HIDETEXT
280
     1
  9
$XCLIPFRAME
280
     2
  9
$HALOGAP
280
     0
  9
$OBSCOLOR
 70
   257
  9
$OBSLTYPE
280
     0
  9
$INTERSECTIONDISPLAY
280
     0
  9
$INTERSECTIONCOLOR
 70
   257
  9
$DIMASSOC
280
     2
  9
$PROJECTNAME
  1

  9
$CAMERADISPLAY
290
     0
  9
$LENSLENGTH
 40
50.0
  9
$CAMERAHEIGHT
 40
0.0
  9
$STEPSPERSEC
 40
2.0
  9
$STEPSIZE
 40
6.0
  9
$3DDWFPREC
 40
2.0
  9
$PSOLWIDTH
 40
0.25
  9
$PSOLHEIGHT
 40
4.0
  9
$LOFTANG1
 40
1.570796326794896
  9
$LOFTANG2
 40
1.570796326794896
  9
$LOFTMAG1
 40
0.0
  9
$LOFTMAG2
 40
0.0
  9
$LOFTPARAM
 70
     7
  9
$LOFTNORMALS
280
     1
  9
$LATITUDE
 40
37.795
  9
$LONGITUDE
 40
-122.394
  9
$NORTHDIRECTION
 40
0.0
  9
$TIMEZONE
 70
 -8000
  9
$LIGHTGLYPHDISPLAY
280
     1
  9
$TILEMODELIGHTSYNCH
280
     1
  9
$CMATERIAL
347
11
  9
$SOLIDHIST
280
     0
  9
$SHOWHIST
280
     1
  9
$DWFFRAME
280
     2
  9
$DGNFRAME
280
     0
  9
$REALWORLDSCALE
290
     1
  9
$INTERFERECOLOR
 62
     1
  9
$INTERFEREOBJVS
345
33
  9
$INTERFEREVPVS
346
30
  9
$CSHADOW
280
     0
  9
$SHADOWPLANELOCATION
 40
0.0
  0
ENDSEC
  0
SECTION
  2
CLASSES
  0
CLASS
  1
ACDBDICTIONARYWDFLT
  2
AcDbDictionaryWithDefault
  3
ObjectDBX Classes
 90
        0
 91
        1
280
     0
281
     0
  0
CLASS
  1
MATERIAL
  2
AcDbMaterial
  3
ObjectDBX Classes
 90
     1153
 91
        3
280
     0
281
     0
  0
CLASS
  1
VISUALSTYLE
  2
AcDbVisualStyle
  3
ObjectDBX Classes
 90
     4095
 91
       24
280
     0
281
     0
  0
CLASS
  1
SCALE
  2
AcDbScale
  3
ObjectDBX Classes
 90
     1153
 91
       17
280
     0
281
     0
  0
CLASS
  1
TABLESTYLE
  2
AcDbTableStyle
  3
ObjectDBX Classes
 90
     4095
 91
        1
280
     0
281
     0
  0
CLASS
  1
MLEADERSTYLE
  2
AcDbMLeaderStyle
  3
ACDB_MLEADERSTYLE_CLASS
 90
     4095
 91
        1
280
     0
281
     0
  0
CLASS
  1
ACDBSECTIONVIEWSTYLE
  2
AcDbSectionViewStyle
  3
ObjectDBX Classes
 90
     1025
 91
        2
280
     0
281
     0
  0
CLASS
  1
ACDBDETAILVIEWSTYLE
  2
AcDbDetailViewStyle
  3
ObjectDBX Classes
 90
     1025
 91
        2
280
     0
281
     0
  0
CLASS
  1
RASTERVARIABLES
  2
AcDbRasterVariables
  3
ISM
 90
        0
 91
        1
280
     0
281
     0
  0
CLASS
  1
DICTIONARYVAR
  2
AcDbDictionaryVar
  3
ObjectDBX Classes
 90
        0
 91
        5
280
     0
281
     0
  0
CLASS
  1
SORTENTSTABLE
  2
AcDbSortentsTable
  3
ObjectDBX Classes
 90
        0
 91
        1
280
     0
281
     0
  0
CLASS
  1
CELLSTYLEMAP
  2
AcDbCellStyleMap
  3
ObjectDBX Classes
 90
     1152
 91
        1
280
     0
281
     0
  0
ENDSEC
  0
SECTION
  2
TABLES
  0
TABLE
  2
VPORT
  5
8
330
0
100
AcDbSymbolTable
 70
     1
  0
VPORT
  5
57
330
8
100
AcDbSymbolTableRecord
100
AcDbViewportTableRecord
  2
*Active
 70
     0
 10
0.0
 20
0.0
 11
1.0
 21
1.0
 12
254.4198161825483
 22
46.88004871030898
 13
0.0
 23
0.0
 14
1.0
 24
1.0
 15
0.0
 25
0.0
 16
0.0
 26
0.0
 36
1.0
 17
0.0
 27
0.0
 37
0.0
 40
332.6039321440731
 41
2.149211711711711
 42
50.0
 43
0.0
 44
0.0
 50
0.0
 51
0.0
 71
     0
 72
  1000
 73
     1
 74
     0
 75
     1
 76
     0
 77
     0
 78
     0
281
     0
 65
     1
110
0.0
120
0.0
130
0.0
111
1.0
121
0.0
131
0.0
112
0.0
122
1.0
132
0.0
 79
     0
146
0.0
348
2F
 60
     3
 61
     5
292
     1
282
     1
141
0.0
142
0.0
 63
   250
421
  3355443
1001
ACAD_NAV_VCDISPLAY
1070
     3
  0
ENDTAB
  0
TABLE
  2
LTYPE
  5
5
330
0
100
AcDbSymbolTable
 70
     2
  0
LTYPE
  5
5B
330
5
100
AcDbSymbolTableRecord
100
AcDbLinetypeTableRecord
  2
ByBlock
 70
     0
  3

 72
    65
 73
     0
 40
0.0
  0
LTYPE
  5
5C
330
5
100
AcDbSymbolTableRecord
100
AcDbLinetypeTableRecord
  2
ByLayer
 70
     0
  3

 72
    65
 73
     0
 40
0.0
  0
LTYPE
  5
5D
330
5
100
AcDbSymbolTableRecord
100
AcDbLinetypeTableRecord
  2
Continuous
 70
     0
  3
Solid line
 72
    65
 73
     0
 40
0.0
  0
ENDTAB
  0
TABLE
  2
LAYER
  5
2
330
0
100
AcDbSymbolTable
 70
     2
  0
LAYER
  5
54
330
2
100
AcDbSymbolTableRecord
100
AcDbLayerTableRecord
  2
0
 70
     0
 62
     7
  6
Continuous
370
    -3
390
F
347
21
348
0
  0
LAYER
  5
81
330
2
100
AcDbSymbolTableRecord
100
AcDbLayerTableRecord
  2
A-DETL
 70
     0
 62
    90
  6
Continuous
370
    18
390
F
347
21
348
0
  0
ENDTAB
  0
TABLE
  2
STYLE
  5
3
330
0
100
AcDbSymbolTable
 70
     2
  0
STYLE
  5
55
330
3
100
AcDbSymbolTableRecord
100
AcDbTextStyleTableRecord
  2
Standard
 70
     0
 40
0.0
 41
1.0
 50
0.0
 71
     0
 42
0.2
  3
txt
  4

  0
STYLE
  5
5A
330
3
100
AcDbSymbolTableRecord
100
AcDbTextStyleTableRecord
  2
Annotative
 70
     0
 40
0.0
 41
1.0
 50
0.0
 71
     0
 42
0.2
  3
txt
  4

1001
AcadAnnotative
1000
AnnotativeData
1002
{
1070
     1
1070
     1
1002
}
  0
ENDTAB
  0
TABLE
  2
VIEW
  5
6
330
0
100
AcDbSymbolTable
 70
     0
  0
ENDTAB
  0
TABLE
  2
UCS
  5
7
330
0
100
AcDbSymbolTable
 70
     1
  0
UCS
  5
168
330
7
100
AcDbSymbolTableRecord
100
AcDbUCSTableRecord
  2
REVIT60-Internal
 70
     0
 10
0.0
 20
0.0
 30
0.0
 11
1.0
 21
0.0
 31
0.0
 12
0.0
 22
1.0
 32
0.0
 79
     0
146
0.0
  0
ENDTAB
  0
TABLE
  2
APPID
  5
9
330
0
100
AcDbSymbolTable
 70
     5
  0
APPID
  5
56
330
9
100
AcDbSymbolTableRecord
100
AcDbRegAppTableRecord
  2
ACAD
 70
     0
  0
APPID
  5
5E
330
9
100
AcDbSymbolTableRecord
100
AcDbRegAppTableRecord
  2
AcadAnnotative
 70
     0
  0
APPID
  5
78
330
9
100
AcDbSymbolTableRecord
100
AcDbRegAppTableRecord
  2
REVIT
 70
     0
  0
APPID
  5
17A
330
9
100
AcDbSymbolTableRecord
100
AcDbRegAppTableRecord
  2
ACAD_EXEMPT_FROM_CAD_STANDARDS
 70
     0
  0
APPID
  5
182
330
9
100
AcDbSymbolTableRecord
100
AcDbRegAppTableRecord
  2
ACAD_NAV_VCDISPLAY
 70
     0
  0
ENDTAB
  0
TABLE
  2
DIMSTYLE
  5
A
330
0
100
AcDbSymbolTable
 70
     3
100
AcDbDimStyleTable
 71
     1
340
58
  0
DIMSTYLE
105
58
330
A
100
AcDbSymbolTableRecord
100
AcDbDimStyleTableRecord
  2
Standard
 70
     0
340
55
  0
DIMSTYLE
105
59
330
A
100
AcDbSymbolTableRecord
100
AcDbDimStyleTableRecord
  2
Annotative
 70
     0
340
55
1001
AcadAnnotative
1000
AnnotativeData
1002
{
1070
     1
1070
     1
1002
}
  0
ENDTAB
  0
TABLE
  2
BLOCK_RECORD
  5
1
330
0
100
AcDbSymbolTable
 70
     2
  0
BLOCK_RECORD
  5
70
102
{ACAD_XDICTIONARY
360
16C
102
}
330
1
100
AcDbSymbolTableRecord
100
AcDbBlockTableRecord
  2
*Model_Space
340
73
 70
     0
280
     1
281
     0
  0
BLOCK_RECORD
  5
6C
330
1
100
AcDbSymbolTableRecord
100
AcDbBlockTableRecord
  2
*Paper_Space
340
6F
 70
     0
280
     1
281
     0
  0
BLOCK_RECORD
  5
74
330
1
100
AcDbSymbolTableRecord
100
AcDbBlockTableRecord
  2
*Paper_Space0
340
77
 70
     0
280
     1
281
     0
  0
ENDTAB
  0
ENDSEC
  0
SECTION
  2
BLOCKS
  0
BLOCK
  5
71
330
70
100
AcDbEntity
  8
0
100
AcDbBlockBegin
  2
*Model_Space
 70
     0
 10
0.0
 20
0.0
 30
0.0
  3
*Model_Space
  1

  0
ENDBLK
  5
72
330
70
100
AcDbEntity
  8
0
100
AcDbBlockEnd
  0
BLOCK
  5
6D
330
6C
100
AcDbEntity
 67
     1
  8
0
100
AcDbBlockBegin
  2
*Paper_Space
 70
     0
 10
0.0
 20
0.0
 30
0.0
  3
*Paper_Space
  1

  0
ENDBLK
  5
6E
330
6C
100
AcDbEntity
 67
     1
  8
0
100
AcDbBlockEnd
  0
BLOCK
  5
75
330
74
100
AcDbEntity
 67
     1
  8
0
100
AcDbBlockBegin
  2
*Paper_Space0
 70
     0
 10
0.0
 20
0.0
 30
0.0
  3
*Paper_Space0
  1

  0
ENDBLK
  5
76
330
74
100
AcDbEntity
 67
     1
  8
0
100
AcDbBlockEnd
  0
ENDSEC
  0
SECTION
  2
ENTITIES
  0
LINE
  5
82
330
70
100
AcDbEntity
  8
A-DETL
100
AcDbLine
 10
265.7636081505134
 20
73.79999999991923
 30
0.0
 11
6.401108150515938
 21
73.79999999992105
 31
0.0
1001
REVIT
1002
{
1070
     1
1000
1909928
1002
}
1002
{
1070
     2
1000
-2000051
1002
}
1002
{
1070
     3
1000
133798
1002
}
  0
ARC
  5
83
330
70
100
AcDbEntity
  8
A-DETL
100
AcDbCircle
 10
6.401108150515938
 20
66.79999999992105
 30
0.0
 40
7.000000000001818
100
AcDbArc
 50
90.0
 51
180.0
1001
REVIT
1002
{
1070
     1
1000
1909929
1002
}
1002
{
1070
     2
1000
-2000051
1002
}
1002
{
1070
     3
1000
133798
1002
}
  0
LINE
  5
84
330
70
100
AcDbEntity
  8
A-DETL
100
AcDbLine
 10
-0.5988918494858809
 20
66.79999999992105
 30
0.0
 11
-0.5988918494858809
 21
7.499999999921783
 31
0.0
1001
REVIT
1002
{
1070
     1
1000
1909930
1002
}
1002
{
1070
     2
1000
-2000051
1002
}
1002
{
1070
     3
1000
133798
1002
}
  0
ARC
  5
85
330
70
100
AcDbEntity
  8
A-DETL
100
AcDbCircle
 10
6.401108150515938
 20
7.499999999921783
 30
0.0
 40
7.000000000001818
100
AcDbArc
 50
180.0
 51
270.0
1001
REVIT
1002
{
1070
     1
1000
1909931
1002
}
1002
{
1070
     2
1000
-2000051
1002
}
1002
{
1070
     3
1000
133798
1002
}
  0
LINE
  5
86
330
70
100
AcDbEntity
  8
A-DETL
100
AcDbLine
 10
6.401108150515938
 20
0.4999999999181455
 30
0.0
 11
265.8503011597568
 21
0.4999999999181455
 31
0.0
1001
REVIT
1002
{
1070
     1
1000
1909932
1002
}
1002
{
1070
     2
1000
-2000051
1002
}
1002
{
1070
     3
1000
133798
1002
}
  0
ARC
  5
87
330
70
100
AcDbEntity
  8
A-DETL
100
AcDbCircle
 10
265.8503011597568
 20
7.413306990676574
 30
0.0
 40
6.913306990758428
100
AcDbArc
 50
270.0
 51
0.0
1001
REVIT
1002
{
1070
     1
1000
1909933
1002
}
1002
{
1070
     2
1000
-2000051
1002
}
1002
{
1070
     3
1000
133798
1002
}
  0
LINE
  5
88
330
70
100
AcDbEntity
  8
A-DETL
100
AcDbLine
 10
272.7636081505152
 20
7.413306990676574
 30
0.0
 11
272.7636081505152
 21
66.79999999992105
 31
0.0
1001
REVIT
1002
{
1070
     1
1000
1909934
1002
}
1002
{
1070
     2
1000
-2000051
1002
}
1002
{
1070
     3
1000
133798
1002
}
  0
ARC
  5
89
330
70
100
AcDbEntity
  8
A-DETL
100
AcDbCircle
 10
265.7636081505134
 20
66.79999999992105
 30
0.0
 40
7.000000000001818
100
AcDbArc
 50
0.0
 51
90.0
1001
REVIT
1002
{
1070
     1
1000
1909935
1002
}
1002
{
1070
     2
1000
-2000051
1002
}
1002
{
1070
     3
1000
133798
1002
}
  0
ARC
  5
8A
330
70
100
AcDbEntity
  8
A-DETL
100
AcDbCircle
 10
255.1647163010293
 20
69.29999999984284
 30
0.0
 40
1.5
100
AcDbArc
 50
180.0
 51
0.0
1001
REVIT
1002
{
1070
     1
1000
1909936
1002
}
1002
{
1070
     2
1000
-2000051
1002
}
1002
{
1070
     3
1000
133798
1002
}
  0
ARC
  5
8B
330
70
100
AcDbEntity
  8
A-DETL
100
AcDbCircle
 10
255.1647163010293
 20
69.29999999984284
 30
0.0
 40
1.5
100
AcDbArc
 50
0.0
 51
180.0
1001
REVIT
1002
{
1070
     1
1000
1909937
1002
}
1002
{
1070
     2
1000
-2000051
1002
}
1002
{
1070
     3
1000
133798
1002
}
  0
ARC
  5
8C
330
70
100
AcDbEntity
  8
A-DETL
100
AcDbCircle
 10
198.0141081505317
 20
69.29999999984284
 30
0.0
 40
1.499999999998181
100
AcDbArc
 50
180.0
 51
0.0
1001
REVIT
1002
{
1070
     1
1000
1909938
1002
}
1002
{
1070
     2
1000
-2000051
1002
}
1002
{
1070
     3
1000
133798
1002
}
  0
ARC
  5
8D
330
70
100
AcDbEntity
  8
A-DETL
100
AcDbCircle
 10
198.0141081505317
 20
69.29999999984284
 30
0.0
 40
1.5
100
AcDbArc
 50
0.0
 51
180.0
1001
REVIT
1002
{
1070
     1
1000
1909939
1002
}
1002
{
1070
     2
1000
-2000051
1002
}
1002
{
1070
     3
1000
133798
1002
}
  0
LINE
  5
8E
330
70
100
AcDbEntity
  8
A-DETL
100
AcDbLine
 10
200.4256081505482
 20
63.27499999948122
 30
0.0
 11
214.5756081505133
 21
63.27499999944848
 31
0.0
1001
REVIT
1002
{
1070
     1
1000
1909940
1002
}
1002
{
1070
     2
1000
-2000051
1002
}
1002
{
1070
     3
1000
133798
1002
}
  0
LINE
  5
8F
330
70
100
AcDbEntity
  8
A-DETL
100
AcDbLine
 10
214.5756081505133
 20
63.27499999944848
 30
0.0
 11
214.5756081504824
 21
49.12499999947977
 31
0.0
1001
REVIT
1002
{
1070
     1
1000
1909941
1002
}
1002
{
1070
     2
1000
-2000051
1002
}
1002
{
1070
     3
1000
133798
1002
}
  0
LINE
  5
90
330
70
100
AcDbEntity
  8
A-DETL
100
AcDbLine
 10
214.5756081504824
 20
49.12499999947977
 30
0.0
 11
200.4256081505155
 21
49.12499999951251
 31
0.0
1001
REVIT
1002
{
1070
     1
1000
1909942
1002
}
1002
{
1070
     2
1000
-2000051
1002
}
1002
{
1070
     3
1000
133798
1002
}
  0
LINE
  5
91
330
70
100
AcDbEntity
  8
A-DETL
100
AcDbLine
 10
200.4256081505155
 20
49.12499999951251
 30
0.0
 11
200.4256081505482
 21
63.27499999948122
 31
0.0
1001
REVIT
1002
{
1070
     1
1000
1909943
1002
}
1002
{
1070
     2
1000
-2000051
1002
}
1002
{
1070
     3
1000
133798
1002
}
  0
LINE
  5
92
330
70
100
AcDbEntity
  8
A-DETL
100
AcDbLine
 10
219.4756081505475
 20
63.27499999943757
 30
0.0
 11
233.6256081505599
 21
63.27499999940664
 31
0.0
1001
REVIT
1002
{
1070
     1
1000
1909944
1002
}
1002
{
1070
     2
1000
-2000051
1002
}
1002
{
1070
     3
1000
133798
1002
}
  0
LINE
  5
93
330
70
100
AcDbEntity
  8
A-DETL
100
AcDbLine
 10
233.6256081505599
 20
63.27499999940664
 30
0.0
 11
233.6256081505271
 21
49.12499999943793
 31
0.0
1001
REVIT
1002
{
1070
     1
1000
1909945
1002
}
1002
{
1070
     2
1000
-2000051
1002
}
1002
{
1070
     3
1000
133798
1002
}
  0
LINE
  5
94
330
70
100
AcDbEntity
  8
A-DETL
100
AcDbLine
 10
233.6256081505271
 20
49.12499999943793
 30
0.0
 11
219.4756081505147
 21
49.12499999946885
 31
0.0
1001
REVIT
1002
{
1070
     1
1000
1909946
1002
}
1002
{
1070
     2
1000
-2000051
1002
}
1002
{
1070
     3
1000
133798
1002
}
  0
LINE
  5
95
330
70
100
AcDbEntity
  8
A-DETL
100
AcDbLine
 10
219.4756081505147
 20
49.12499999946885
 30
0.0
 11
219.4756081505475
 21
63.27499999943757
 31
0.0
1001
REVIT
1002
{
1070
     1
1000
1909947
1002
}
1002
{
1070
     2
1000
-2000051
1002
}
1002
{
1070
     3
1000
133798
1002
}
  0
LINE
  5
96
330
70
100
AcDbEntity
  8
A-DETL
100
AcDbLine
 10
243.2886081505476
 20
63.27499999938481
 30
0.0
 11
257.4386081505163
 21
63.27499999935207
 31
0.0
1001
REVIT
1002
{
1070
     1
1000
1909948
1002
}
1002
{
1070
     2
1000
-2000051
1002
}
1002
{
1070
     3
1000
133798
1002
}
  0
LINE
  5
97
330
70
100
AcDbEntity
  8
A-DETL
100
AcDbLine
 10
257.4386081505163
 20
63.27499999935207
 30
0.0
 11
257.4386081504836
 21
49.12499999938336
 31
0.0
1001
REVIT
1002
{
1070
     1
1000
1909949
1002
}
1002
{
1070
     2
1000
-2000051
1002
}
1002
{
1070
     3
1000
133798
1002
}
  0
LINE
  5
98
330
70
100
AcDbEntity
  8
A-DETL
100
AcDbLine
 10
257.4386081504836
 20
49.12499999938336
 30
0.0
 11
243.2886081505149
 21
49.1249999994161
 31
0.0
1001
REVIT
1002
{
1070
     1
1000
1909950
1002
}
1002
{
1070
     2
1000
-2000051
1002
}
1002
{
1070
     3
1000
133798
1002
}
  0
LINE
  5
99
330
70
100
AcDbEntity
  8
A-DETL
100
AcDbLine
 10
243.2886081505149
 20
49.1249999994161
 30
0.0
 11
243.2886081505476
 21
63.27499999938481
 31
0.0
1001
REVIT
1002
{
1070
     1
1000
1909951
1002
}
1002
{
1070
     2
1000
-2000051
1002
}
1002
{
1070
     3
1000
133798
1002
}
  0
LINE
  5
9A
330
70
100
AcDbEntity
  8
A-DETL
100
AcDbLine
 10
219.4756081505475
 20
44.22499999988031
 30
0.0
 11
233.6256081505162
 21
44.22499999984757
 31
0.0
1001
REVIT
1002
{
1070
     1
1000
1909952
1002
}
1002
{
1070
     2
1000
-2000051
1002
}
1002
{
1070
     3
1000
133798
1002
}
  0
LINE
  5
9B
330
70
100
AcDbEntity
  8
A-DETL
100
AcDbLine
 10
233.6256081505162
 20
44.22499999984757
 30
0.0
 11
233.6256081504834
 21
30.0749999997006
 31
0.0
1001
REVIT
1002
{
1070
     1
1000
1909953
1002
}
1002
{
1070
     2
1000
-2000051
1002
}
1002
{
1070
     3
1000
133798
1002
}
  0
LINE
  5
9C
330
70
100
AcDbEntity
  8
A-DETL
100
AcDbLine
 10
233.6256081504834
 20
30.0749999997006
 30
0.0
 11
219.4756081505147
 21
30.07499999973334
 31
0.0
1001
REVIT
1002
{
1070
     1
1000
1909954
1002
}
1002
{
1070
     2
1000
-2000051
1002
}
1002
{
1070
     3
1000
133798
1002
}
  0
LINE
  5
9D
330
70
100
AcDbEntity
  8
A-DETL
100
AcDbLine
 10
219.4756081505147
 20
30.07499999973334
 30
0.0
 11
219.4756081505475
 21
44.22499999988031
 31
0.0
1001
REVIT
1002
{
1070
     1
1000
1909955
1002
}
1002
{
1070
     2
1000
-2000051
1002
}
1002
{
1070
     3
1000
133798
1002
}
  0
LINE
  5
9E
330
70
100
AcDbEntity
  8
A-DETL
100
AcDbLine
 10
245.7136081505141
 20
20.54999999992469
 30
0.0
 11
245.7136081505469
 21
34.69999999992433
 31
0.0
1001
REVIT
1002
{
1070
     1
1000
1909956
1002
}
1002
{
1070
     2
1000
-2000051
1002
}
1002
{
1070
     3
1000
133798
1002
}
  0
LINE
  5
9F
330
70
100
AcDbEntity
  8
A-DETL
100
AcDbLine
 10
245.7136081505469
 20
34.69999999992433
 30
0.0
 11
250.4639467847883
 21
34.69999999991342
 31
0.0
1001
REVIT
1002
{
1070
     1
1000
1909957
1002
}
1002
{
1070
     2
1000
-2000051
1002
}
1002
{
1070
     3
1000
133798
1002
}
  0
LINE
  5
A0
330
70
100
AcDbEntity
  8
A-DETL
100
AcDbLine
 10
250.4639467847883
 20
34.69999999991342
 30
0.0
 11
250.4639467847955
 21
36.2393980675879
 31
0.0
1001
REVIT
1002
{
1070
     1
1000
1909958
1002
}
1002
{
1070
     2
1000
-2000051
1002
}
1002
{
1070
     3
1000
133798
1002
}
  0
LINE
  5
A1
330
70
100
AcDbEntity
  8
A-DETL
100
AcDbLine
 10
250.4639467847955
 20
36.2393980675879
 30
0.0
 11
245.9460220807414
 21
36.23939806759882
 31
0.0
1001
REVIT
1002
{
1070
     1
1000
1909959
1002
}
1002
{
1070
     2
1000
-2000051
1002
}
1002
{
1070
     3
1000
133798
1002
}
  0
LINE
  5
A2
330
70
100
AcDbEntity
  8
A-DETL
100
AcDbLine
 10
245.9460220807414
 20
36.23939806759882
 30
0.0
 11
245.9460220807486
 21
37.9803155021109
 31
0.0
1001
REVIT
1002
{
1070
     1
1000
1909960
1002
}
1002
{
1070
     2
1000
-2000051
1002
}
1002
{
1070
     3
1000
133798
1002
}
  0
LINE
  5
A3
330
70
100
AcDbEntity
  8
A-DETL
100
AcDbLine
 10
245.9460220807486
 20
37.9803155021109
 30
0.0
 11
244.9557366390127
 21
37.98031550211272
 31
0.0
1001
REVIT
1002
{
1070
     1
1000
1909961
1002
}
1002
{
1070
     2
1000
-2000051
1002
}
1002
{
1070
     3
1000
133798
1002
}
  0
LINE
  5
A4
330
70
100
AcDbEntity
  8
A-DETL
100
AcDbLine
 10
244.9557366390127
 20
37.98031550211272
 30
0.0
 11
244.9557366390218
 21
41.30957286354714
 31
0.0
1001
REVIT
1002
{
1070
     1
1000
1909962
1002
}
1002
{
1070
     2
1000
-2000051
1002
}
1002
{
1070
     3
1000
133798
1002
}
  0
LINE
  5
A5
330
70
100
AcDbEntity
  8
A-DETL
100
AcDbLine
 10
244.9557366390218
 20
41.30957286354714
 30
0.0
 11
245.9460220807559
 21
41.30957286354532
 31
0.0
1001
REVIT
1002
{
1070
     1
1000
1909963
1002
}
1002
{
1070
     2
1000
-2000051
1002
}
1002
{
1070
     3
1000
133798
1002
}
  0
LINE
  5
A6
330
70
100
AcDbEntity
  8
A-DETL
100
AcDbLine
 10
245.9460220807559
 20
41.30957286354532
 30
0.0
 11
245.9460220807614
 21
43.05038938700818
 31
0.0
1001
REVIT
1002
{
1070
     1
1000
1909964
1002
}
1002
{
1070
     2
1000
-2000051
1002
}
1002
{
1070
     3
1000
133798
1002
}
  0
LINE
  5
A7
330
70
100
AcDbEntity
  8
A-DETL
100
AcDbLine
 10
245.9460220807614
 20
43.05038938700818
 30
0.0
 11
252.2818279171388
 21
43.05038938699545
 31
0.0
1001
REVIT
1002
{
1070
     1
1000
1909965
1002
}
1002
{
1070
     2
1000
-2000051
1002
}
1002
{
1070
     3
1000
133798
1002
}
  0
LINE
  5
A8
330
70
100
AcDbEntity
  8
A-DETL
100
AcDbLine
 10
252.2818279171388
 20
43.05038938699545
 30
0.0
 11
252.2818279171424
 21
43.88341010470139
 31
0.0
1001
REVIT
1002
{
1070
     1
1000
1909966
1002
}
1002
{
1070
     2
1000
-2000051
1002
}
1002
{
1070
     3
1000
133798
1002
}
  0
LINE
  5
A9
330
70
100
AcDbEntity
  8
A-DETL
100
AcDbLine
 10
252.2818279171424
 20
43.88341010470139
 30
0.0
 11
255.1102043981718
 21
43.88341010469412
 31
0.0
1001
REVIT
1002
{
1070
     1
1000
1909967
1002
}
1002
{
1070
     2
1000
-2000051
1002
}
1002
{
1070
     3
1000
133798
1002
}
  0
LINE
  5
AA
330
70
100
AcDbEntity
  8
A-DETL
100
AcDbLine
 10
255.1102043981718
 20
43.88341010469412
 30
0.0
 11
255.11020439817
 21
43.05038938698635
 31
0.0
1001
REVIT
1002
{
1070
     1
1000
1909968
1002
}
1002
{
1070
     2
1000
-2000051
1002
}
1002
{
1070
     3
1000
133798
1002
}
  0
LINE
  5
AB
330
70
100
AcDbEntity
  8
A-DETL
100
AcDbLine
 10
255.11020439817
 20
43.05038938698635
 30
0.0
 11
258.3751148698411
 21
43.05038938697726
 31
0.0
1001
REVIT
1002
{
1070
     1
1000
1909969
1002
}
1002
{
1070
     2
1000
-2000051
1002
}
1002
{
1070
     3
1000
133798
1002
}
  0
LINE
  5
AC
330
70
100
AcDbEntity
  8
A-DETL
100
AcDbLine
 10
258.3751148698411
 20
43.05038938697726
 30
0.0
 11
258.3751148698357
 21
41.30957286351804
 31
0.0
1001
REVIT
1002
{
1070
     1
1000
1909970
1002
}
1002
{
1070
     2
1000
-2000051
1002
}
1002
{
1070
     3
1000
133798
1002
}
  0
LINE
  5
AD
330
70
100
AcDbEntity
  8
A-DETL
100
AcDbLine
 10
258.3751148698357
 20
41.30957286351804
 30
0.0
 11
259.30578108599
 21
41.3095728635144
 31
0.0
1001
REVIT
1002
{
1070
     1
1000
1909971
1002
}
1002
{
1070
     2
1000
-2000051
1002
}
1002
{
1070
     3
1000
133798
1002
}
  0
LINE
  5
AE
330
70
100
AcDbEntity
  8
A-DETL
100
AcDbLine
 10
259.30578108599
 20
41.3095728635144
 30
0.0
 11
259.3057810859809
 21
37.98031550207998
 31
0.0
1001
REVIT
1002
{
1070
     1
1000
1909972
1002
}
1002
{
1070
     2
1000
-2000051
1002
}
1002
{
1070
     3
1000
133798
1002
}
  0
LINE
  5
AF
330
70
100
AcDbEntity
  8
A-DETL
100
AcDbLine
 10
259.3057810859809
 20
37.98031550207998
 30
0.0
 11
258.3751148698302
 21
37.98031550208361
 31
0.0
1001
REVIT
1002
{
1070
     1
1000
1909973
1002
}
1002
{
1070
     2
1000
-2000051
1002
}
1002
{
1070
     3
1000
133798
1002
}
  0
LINE
  5
B0
330
70
100
AcDbEntity
  8
A-DETL
100
AcDbLine
 10
258.3751148698302
 20
37.98031550208361
 30
0.0
 11
258.375114869823
 21
36.23939806756607
 31
0.0
1001
REVIT
1002
{
1070
     1
1000
1909974
1002
}
1002
{
1070
     2
1000
-2000051
1002
}
1002
{
1070
     3
1000
133798
1002
}
  0
LINE
  5
B1
330
70
100
AcDbEntity
  8
A-DETL
100
AcDbLine
 10
258.375114869823
 20
36.23939806756607
 30
0.0
 11
255.1102043981482
 21
36.23939806757517
 31
0.0
1001
REVIT
1002
{
1070
     1
1000
1909975
1002
}
1002
{
1070
     2
1000
-2000051
1002
}
1002
{
1070
     3
1000
133798
1002
}
  0
LINE
  5
B2
330
70
100
AcDbEntity
  8
A-DETL
100
AcDbLine
 10
255.1102043981482
 20
36.23939806757517
 30
0.0
 11
255.1102043981409
 21
34.6999999999025
 31
0.0
1001
REVIT
1002
{
1070
     1
1000
1909976
1002
}
1002
{
1070
     2
1000
-2000051
1002
}
1002
{
1070
     3
1000
133798
1002
}
  0
LINE
  5
B3
330
70
100
AcDbEntity
  8
A-DETL
100
AcDbLine
 10
255.1102043981409
 20
34.6999999999025
 30
0.0
 11
259.8636081505156
 21
34.69999999989159
 31
0.0
1001
REVIT
1002
{
1070
     1
1000
1909977
1002
}
1002
{
1070
     2
1000
-2000051
1002
}
1002
{
1070
     3
1000
133798
1002
}
  0
LINE
  5
B4
330
70
100
AcDbEntity
  8
A-DETL
100
AcDbLine
 10
259.8636081505156
 20
34.69999999989159
 30
0.0
 11
259.8636081504828
 21
20.54999999988831
 31
0.0
1001
REVIT
1002
{
1070
     1
1000
1909978
1002
}
1002
{
1070
     2
1000
-2000051
1002
}
1002
{
1070
     3
1000
133798
1002
}
  0
LINE
  5
B5
330
70
100
AcDbEntity
  8
A-DETL
100
AcDbLine
 10
259.8636081504828
 20
20.54999999988831
 30
0.0
 11
255.11020439811
 21
20.54999999989923
 31
0.0
1001
REVIT
1002
{
1070
     1
1000
1909979
1002
}
1002
{
1070
     2
1000
-2000051
1002
}
1002
{
1070
     3
1000
133798
1002
}
  0
LINE
  5
B6
330
70
100
AcDbEntity
  8
A-DETL
100
AcDbLine
 10
255.11020439811
 20
20.54999999989923
 30
0.0
 11
255.1102043981046
 21
19.01060193222656
 31
0.0
1001
REVIT
1002
{
1070
     1
1000
1909980
1002
}
1002
{
1070
     2
1000
-2000051
1002
}
1002
{
1070
     3
1000
133798
1002
}
  0
LINE
  5
B7
330
70
100
AcDbEntity
  8
A-DETL
100
AcDbLine
 10
255.1102043981046
 20
19.01060193222656
 30
0.0
 11
258.3751148697847
 21
19.01060193221929
 31
0.0
1001
REVIT
1002
{
1070
     1
1000
1909981
1002
}
1002
{
1070
     2
1000
-2000051
1002
}
1002
{
1070
     3
1000
133798
1002
}
  0
LINE
  5
B8
330
70
100
AcDbEntity
  8
A-DETL
100
AcDbLine
 10
258.3751148697847
 20
19.01060193221929
 30
0.0
 11
258.3751148697793
 21
17.26958358665615
 31
0.0
1001
REVIT
1002
{
1070
     1
1000
1909982
1002
}
1002
{
1070
     2
1000
-2000051
1002
}
1002
{
1070
     3
1000
133798
1002
}
  0
LINE
  5
B9
330
70
100
AcDbEntity
  8
A-DETL
100
AcDbLine
 10
258.3751148697793
 20
17.26958358665615
 30
0.0
 11
259.3057810859318
 21
17.26958358665251
 31
0.0
1001
REVIT
1002
{
1070
     1
1000
1909983
1002
}
1002
{
1070
     2
1000
-2000051
1002
}
1002
{
1070
     3
1000
133798
1002
}
  0
LINE
  5
BA
330
70
100
AcDbEntity
  8
A-DETL
100
AcDbLine
 10
259.3057810859318
 20
17.26958358665251
 30
0.0
 11
259.3057810859227
 21
13.94052804731655
 31
0.0
1001
REVIT
1002
{
1070
     1
1000
1909984
1002
}
1002
{
1070
     2
1000
-2000051
1002
}
1002
{
1070
     3
1000
133798
1002
}
  0
LINE
  5
BB
330
70
100
AcDbEntity
  8
A-DETL
100
AcDbLine
 10
259.3057810859227
 20
13.94052804731655
 30
0.0
 11
258.375114869772
 21
13.94052804732018
 31
0.0
1001
REVIT
1002
{
1070
     1
1000
1909985
1002
}
1002
{
1070
     2
1000
-2000051
1002
}
1002
{
1070
     3
1000
133798
1002
}
  0
LINE
  5
BC
330
70
100
AcDbEntity
  8
A-DETL
100
AcDbLine
 10
258.375114869772
 20
13.94052804732018
 30
0.0
 11
258.3751148697666
 21
12.19950970175887
 31
0.0
1001
REVIT
1002
{
1070
     1
1000
1909986
1002
}
1002
{
1070
     2
1000
-2000051
1002
}
1002
{
1070
     3
1000
133798
1002
}
  0
LINE
  5
BD
330
70
100
AcDbEntity
  8
A-DETL
100
AcDbLine
 10
258.3751148697666
 20
12.19950970175887
 30
0.0
 11
255.1102043980936
 21
12.19950970176614
 31
0.0
1001
REVIT
1002
{
1070
     1
1000
1909987
1002
}
1002
{
1070
     2
1000
-2000051
1002
}
1002
{
1070
     3
1000
133798
1002
}
  0
LINE
  5
BE
330
70
100
AcDbEntity
  8
A-DETL
100
AcDbLine
 10
255.1102043980936
 20
12.19950970176614
 30
0.0
 11
255.11020439809
 21
11.36651925737533
 31
0.0
1001
REVIT
1002
{
1070
     1
1000
1909988
1002
}
1002
{
1070
     2
1000
-2000051
1002
}
1002
{
1070
     3
1000
133798
1002
}
  0
LINE
  5
BF
330
70
100
AcDbEntity
  8
A-DETL
100
AcDbLine
 10
255.11020439809
 20
11.36651925737533
 30
0.0
 11
252.2818279170624
 21
11.36651925738078
 31
0.0
1001
REVIT
1002
{
1070
     1
1000
1909989
1002
}
1002
{
1070
     2
1000
-2000051
1002
}
1002
{
1070
     3
1000
133798
1002
}
  0
LINE
  5
C0
330
70
100
AcDbEntity
  8
A-DETL
100
AcDbLine
 10
252.2818279170624
 20
11.36651925738078
 30
0.0
 11
252.281827917066
 21
12.1995097017716
 31
0.0
1001
REVIT
1002
{
1070
     1
1000
1909990
1002
}
1002
{
1070
     2
1000
-2000051
1002
}
1002
{
1070
     3
1000
133798
1002
}
  0
LINE
  5
C1
330
70
100
AcDbEntity
  8
A-DETL
100
AcDbLine
 10
252.281827917066
 20
12.1995097017716
 30
0.0
 11
245.946022080685
 21
12.19950970178433
 31
0.0
1001
REVIT
1002
{
1070
     1
1000
1909991
1002
}
1002
{
1070
     2
1000
-2000051
1002
}
1002
{
1070
     3
1000
133798
1002
}
  0
LINE
  5
C2
330
70
100
AcDbEntity
  8
A-DETL
100
AcDbLine
 10
245.946022080685
 20
12.19950970178433
 30
0.0
 11
245.9460220806905
 21
13.94052804734747
 31
0.0
1001
REVIT
1002
{
1070
     1
1000
1909992
1002
}
1002
{
1070
     2
1000
-2000051
1002
}
1002
{
1070
     3
1000
133798
1002
}
  0
LINE
  5
C3
330
70
100
AcDbEntity
  8
A-DETL
100
AcDbLine
 10
245.9460220806905
 20
13.94052804734747
 30
0.0
 11
244.9557366389545
 21
13.94052804734929
 31
0.0
1001
REVIT
1002
{
1070
     1
1000
1909993
1002
}
1002
{
1070
     2
1000
-2000051
1002
}
1002
{
1070
     3
1000
133798
1002
}
  0
LINE
  5
C4
330
70
100
AcDbEntity
  8
A-DETL
100
AcDbLine
 10
244.9557366389545
 20
13.94052804734929
 30
0.0
 11
244.9557366389636
 21
17.26958358668525
 31
0.0
1001
REVIT
1002
{
1070
     1
1000
1909994
1002
}
1002
{
1070
     2
1000
-2000051
1002
}
1002
{
1070
     3
1000
133798
1002
}
  0
LINE
  5
C5
330
70
100
AcDbEntity
  8
A-DETL
100
AcDbLine
 10
244.9557366389636
 20
17.26958358668525
 30
0.0
 11
245.9460220806959
 21
17.26958358668344
 31
0.0
1001
REVIT
1002
{
1070
     1
1000
1909995
1002
}
1002
{
1070
     2
1000
-2000051
1002
}
1002
{
1070
     3
1000
133798
1002
}
  0
LINE
  5
C6
330
70
100
AcDbEntity
  8
A-DETL
100
AcDbLine
 10
245.9460220806959
 20
17.26958358668344
 30
0.0
 11
245.9460220806995
 21
19.01060193224475
 31
0.0
1001
REVIT
1002
{
1070
     1
1000
1909996
1002
}
1002
{
1070
     2
1000
-2000051
1002
}
1002
{
1070
     3
1000
133798
1002
}
  0
LINE
  5
C7
330
70
100
AcDbEntity
  8
A-DETL
100
AcDbLine
 10
245.9460220806995
 20
19.01060193224475
 30
0.0
 11
250.4639467847519
 21
19.01060193223384
 31
0.0
1001
REVIT
1002
{
1070
     1
1000
1909997
1002
}
1002
{
1070
     2
1000
-2000051
1002
}
1002
{
1070
     3
1000
133798
1002
}
  0
LINE
  5
C8
330
70
100
AcDbEntity
  8
A-DETL
100
AcDbLine
 10
250.4639467847519
 20
19.01060193223384
 30
0.0
 11
250.4639467847555
 21
20.54999999991378
 31
0.0
1001
REVIT
1002
{
1070
     1
1000
1909998
1002
}
1002
{
1070
     2
1000
-2000051
1002
}
1002
{
1070
     3
1000
133798
1002
}
  0
LINE
  5
C9
330
70
100
AcDbEntity
  8
A-DETL
100
AcDbLine
 10
250.4639467847555
 20
20.54999999991378
 30
0.0
 11
245.7136081505141
 21
20.54999999992469
 31
0.0
1001
REVIT
1002
{
1070
     1
1000
1909999
1002
}
1002
{
1070
     2
1000
-2000051
1002
}
1002
{
1070
     3
1000
133798
1002
}
  0
ARC
  5
CA
330
70
100
AcDbEntity
  8
A-DETL
100
AcDbCircle
 10
255.1647163010293
 20
5.0
 30
0.0
 40
1.5
100
AcDbArc
 50
180.0
 51
0.0
1001
REVIT
1002
{
1070
     1
1000
1910000
1002
}
1002
{
1070
     2
1000
-2000051
1002
}
1002
{
1070
     3
1000
133798
1002
}
  0
ARC
  5
CB
330
70
100
AcDbEntity
  8
A-DETL
100
AcDbCircle
 10
255.1647163010293
 20
5.0
 30
0.0
 40
1.5
100
AcDbArc
 50
0.0
 51
180.0
1001
REVIT
1002
{
1070
     1
1000
1910001
1002
}
1002
{
1070
     2
1000
-2000051
1002
}
1002
{
1070
     3
1000
133798
1002
}
  0
ARC
  5
CC
330
70
100
AcDbEntity
  8
A-DETL
100
AcDbCircle
 10
198.0141081505317
 20
5.0
 30
0.0
 40
1.499999999998181
100
AcDbArc
 50
180.0
 51
0.0
1001
REVIT
1002
{
1070
     1
1000
1910002
1002
}
1002
{
1070
     2
1000
-2000051
1002
}
1002
{
1070
     3
1000
133798
1002
}
  0
ARC
  5
CD
330
70
100
AcDbEntity
  8
A-DETL
100
AcDbCircle
 10
198.0141081505317
 20
5.0
 30
0.0
 40
1.5
100
AcDbArc
 50
0.0
 51
180.0
1001
REVIT
1002
{
1070
     1
1000
1910003
1002
}
1002
{
1070
     2
1000
-2000051
1002
}
1002
{
1070
     3
1000
133798
1002
}
  0
LINE
  5
CE
330
70
100
AcDbEntity
  8
A-DETL
100
AcDbLine
 10
214.5756081504824
 20
11.02499999952306
 30
0.0
 11
200.4256081505155
 21
11.0249999995558
 31
0.0
1001
REVIT
1002
{
1070
     1
1000
1910004
1002
}
1002
{
1070
     2
1000
-2000051
1002
}
1002
{
1070
     3
1000
133798
1002
}
  0
LINE
  5
CF
330
70
100
AcDbEntity
  8
A-DETL
100
AcDbLine
 10
200.4256081505155
 20
11.0249999995558
 30
0.0
 11
200.4256081505482
 21
25.17499999952452
 31
0.0
1001
REVIT
1002
{
1070
     1
1000
1910005
1002
}
1002
{
1070
     2
1000
-2000051
1002
}
1002
{
1070
     3
1000
133798
1002
}
  0
LINE
  5
D0
330
70
100
AcDbEntity
  8
A-DETL
100
AcDbLine
 10
200.4256081505482
 20
25.17499999952452
 30
0.0
 11
214.5756081505133
 21
25.17499999949178
 31
0.0
1001
REVIT
1002
{
1070
     1
1000
1910006
1002
}
1002
{
1070
     2
1000
-2000051
1002
}
1002
{
1070
     3
1000
133798
1002
}
  0
LINE
  5
D1
330
70
100
AcDbEntity
  8
A-DETL
100
AcDbLine
 10
214.5756081505133
 20
25.17499999949178
 30
0.0
 11
214.5756081504824
 21
11.02499999952306
 31
0.0
1001
REVIT
1002
{
1070
     1
1000
1910007
1002
}
1002
{
1070
     2
1000
-2000051
1002
}
1002
{
1070
     3
1000
133798
1002
}
  0
LINE
  5
D2
330
70
100
AcDbEntity
  8
A-DETL
100
AcDbLine
 10
221.9136081505149
 20
11.02499999950851
 30
0.0
 11
221.9136081505476
 21
25.17499999947722
 31
0.0
1001
REVIT
1002
{
1070
     1
1000
1910008
1002
}
1002
{
1070
     2
1000
-2000051
1002
}
1002
{
1070
     3
1000
133798
1002
}
  0
LINE
  5
D3
330
70
100
AcDbEntity
  8
A-DETL
100
AcDbLine
 10
221.9136081505476
 20
25.17499999947722
 30
0.0
 11
236.0636081505163
 21
25.17499999944448
 31
0.0
1001
REVIT
1002
{
1070
     1
1000
1910009
1002
}
1002
{
1070
     2
1000
-2000051
1002
}
1002
{
1070
     3
1000
133798
1002
}
  0
LINE
  5
D4
330
70
100
AcDbEntity
  8
A-DETL
100
AcDbLine
 10
236.0636081505163
 20
25.17499999944448
 30
0.0
 11
236.0636081504836
 21
11.02499999947577
 31
0.0
1001
REVIT
1002
{
1070
     1
1000
1910010
1002
}
1002
{
1070
     2
1000
-2000051
1002
}
1002
{
1070
     3
1000
133798
1002
}
  0
LINE
  5
D5
330
70
100
AcDbEntity
  8
A-DETL
100
AcDbLine
 10
236.0636081504836
 20
11.02499999947577
 30
0.0
 11
221.9136081505149
 21
11.02499999950851
 31
0.0
1001
REVIT
1002
{
1070
     1
1000
1910011
1002
}
1002
{
1070
     2
1000
-2000051
1002
}
1002
{
1070
     3
1000
133798
1002
}
  0
LINE
  5
D6
330
70
100
AcDbEntity
  8
A-DETL
100
AcDbLine
 10
214.5756081504824
 20
30.07499999974425
 30
0.0
 11
200.4256081505155
 21
30.07499999977699
 31
0.0
1001
REVIT
1002
{
1070
     1
1000
1910012
1002
}
1002
{
1070
     2
1000
-2000051
1002
}
1002
{
1070
     3
1000
133798
1002
}
  0
LINE
  5
D7
330
70
100
AcDbEntity
  8
A-DETL
100
AcDbLine
 10
200.4256081505155
 20
30.07499999977699
 30
0.0
 11
200.4256081505482
 21
44.22499999992396
 31
0.0
1001
REVIT
1002
{
1070
     1
1000
1910013
1002
}
1002
{
1070
     2
1000
-2000051
1002
}
1002
{
1070
     3
1000
133798
1002
}
  0
LINE
  5
D8
330
70
100
AcDbEntity
  8
A-DETL
100
AcDbLine
 10
200.4256081505482
 20
44.22499999992396
 30
0.0
 11
214.5756081505133
 21
44.22499999989122
 31
0.0
1001
REVIT
1002
{
1070
     1
1000
1910014
1002
}
1002
{
1070
     2
1000
-2000051
1002
}
1002
{
1070
     3
1000
133798
1002
}
  0
LINE
  5
D9
330
70
100
AcDbEntity
  8
A-DETL
100
AcDbLine
 10
214.5756081505133
 20
44.22499999989122
 30
0.0
 11
214.5756081504824
 21
30.07499999974425
 31
0.0
1001
REVIT
1002
{
1070
     1
1000
1910015
1002
}
1002
{
1070
     2
1000
-2000051
1002
}
1002
{
1070
     3
1000
133798
1002
}
  0
LINE
  5
DA
330
70
100
AcDbEntity
  8
A-DETL
100
AcDbLine
 10
195.525608150514
 20
44.22499999989122
 30
0.0
 11
195.5256081504813
 21
30.07499999978791
 31
0.0
1001
REVIT
1002
{
1070
     1
1000
1910016
1002
}
1002
{
1070
     2
1000
-2000051
1002
}
1002
{
1070
     3
1000
133798
1002
}
  0
LINE
  5
DB
330
70
100
AcDbEntity
  8
A-DETL
100
AcDbLine
 10
195.5256081504813
 20
30.07499999978791
 30
0.0
 11
181.3756081505144
 21
30.07499999982065
 31
0.0
1001
REVIT
1002
{
1070
     1
1000
1910017
1002
}
1002
{
1070
     2
1000
-2000051
1002
}
1002
{
1070
     3
1000
133798
1002
}
  0
LINE
  5
DC
330
70
100
AcDbEntity
  8
A-DETL
100
AcDbLine
 10
181.3756081505144
 20
30.07499999982065
 30
0.0
 11
181.3756081505471
 21
44.22499999992396
 31
0.0
1001
REVIT
1002
{
1070
     1
1000
1910018
1002
}
1002
{
1070
     2
1000
-2000051
1002
}
1002
{
1070
     3
1000
133798
1002
}
  0
LINE
  5
DD
330
70
100
AcDbEntity
  8
A-DETL
100
AcDbLine
 10
181.3756081505471
 20
44.22499999992396
 30
0.0
 11
195.525608150514
 21
44.22499999989122
 31
0.0
1001
REVIT
1002
{
1070
     1
1000
1910019
1002
}
1002
{
1070
     2
1000
-2000051
1002
}
1002
{
1070
     3
1000
133798
1002
}
  0
LINE
  5
DE
330
70
100
AcDbEntity
  8
A-DETL
100
AcDbLine
 10
195.5256081504813
 20
49.12499999952342
 30
0.0
 11
181.3756081505144
 21
49.12499999955617
 31
0.0
1001
REVIT
1002
{
1070
     1
1000
1910020
1002
}
1002
{
1070
     2
1000
-2000051
1002
}
1002
{
1070
     3
1000
133798
1002
}
  0
LINE
  5
DF
330
70
100
AcDbEntity
  8
A-DETL
100
AcDbLine
 10
181.3756081505144
 20
49.12499999955617
 30
0.0
 11
181.3756081505471
 21
63.27499999952852
 31
0.0
1001
REVIT
1002
{
1070
     1
1000
1910021
1002
}
1002
{
1070
     2
1000
-2000051
1002
}
1002
{
1070
     3
1000
133798
1002
}
  0
LINE
  5
E0
330
70
100
AcDbEntity
  8
A-DETL
100
AcDbLine
 10
181.3756081505471
 20
63.27499999952852
 30
0.0
 11
195.525608150514
 21
63.27499999949759
 31
0.0
1001
REVIT
1002
{
1070
     1
1000
1910022
1002
}
1002
{
1070
     2
1000
-2000051
1002
}
1002
{
1070
     3
1000
133798
1002
}
  0
LINE
  5
E1
330
70
100
AcDbEntity
  8
A-DETL
100
AcDbLine
 10
195.525608150514
 20
63.27499999949759
 30
0.0
 11
195.5256081504813
 21
49.12499999952342
 31
0.0
1001
REVIT
1002
{
1070
     1
1000
1910023
1002
}
1002
{
1070
     2
1000
-2000051
1002
}
1002
{
1070
     3
1000
133798
1002
}
  0
LINE
  5
E2
330
70
100
AcDbEntity
  8
A-DETL
100
AcDbLine
 10
176.475608150482
 20
49.12499999957072
 30
0.0
 11
162.3256081505151
 21
49.12499999960346
 31
0.0
1001
REVIT
1002
{
1070
     1
1000
1910024
1002
}
1002
{
1070
     2
1000
-2000051
1002
}
1002
{
1070
     3
1000
133798
1002
}
  0
LINE
  5
E3
330
70
100
AcDbEntity
  8
A-DETL
100
AcDbLine
 10
162.3256081505151
 20
49.12499999960346
 30
0.0
 11
162.3256081505478
 21
63.27499999957217
 31
0.0
1001
REVIT
1002
{
1070
     1
1000
1910025
1002
}
1002
{
1070
     2
1000
-2000051
1002
}
1002
{
1070
     3
1000
133798
1002
}
  0
LINE
  5
E4
330
70
100
AcDbEntity
  8
A-DETL
100
AcDbLine
 10
162.3256081505478
 20
63.27499999957217
 30
0.0
 11
176.4756081505147
 21
63.27499999953943
 31
0.0
1001
REVIT
1002
{
1070
     1
1000
1910026
1002
}
1002
{
1070
     2
1000
-2000051
1002
}
1002
{
1070
     3
1000
133798
1002
}
  0
LINE
  5
E5
330
70
100
AcDbEntity
  8
A-DETL
100
AcDbLine
 10
176.4756081505147
 20
63.27499999953943
 30
0.0
 11
176.475608150482
 21
49.12499999957072
 31
0.0
1001
REVIT
1002
{
1070
     1
1000
1910027
1002
}
1002
{
1070
     2
1000
-2000051
1002
}
1002
{
1070
     3
1000
133798
1002
}
  0
LINE
  5
E6
330
70
100
AcDbEntity
  8
A-DETL
100
AcDbLine
 10
162.3256081505478
 20
44.22499999992396
 30
0.0
 11
176.4756081505147
 21
44.22499999989122
 31
0.0
1001
REVIT
1002
{
1070
     1
1000
1910028
1002
}
1002
{
1070
     2
1000
-2000051
1002
}
1002
{
1070
     3
1000
133798
1002
}
  0
LINE
  5
E7
330
70
100
AcDbEntity
  8
A-DETL
100
AcDbLine
 10
176.4756081505147
 20
44.22499999989122
 30
0.0
 11
176.475608150482
 21
30.07499999983156
 31
0.0
1001
REVIT
1002
{
1070
     1
1000
1910029
1002
}
1002
{
1070
     2
1000
-2000051
1002
}
1002
{
1070
     3
1000
133798
1002
}
  0
LINE
  5
E8
330
70
100
AcDbEntity
  8
A-DETL
100
AcDbLine
 10
176.475608150482
 20
30.07499999983156
 30
0.0
 11
162.3256081505151
 21
30.07499999986431
 31
0.0
1001
REVIT
1002
{
1070
     1
1000
1910030
1002
}
1002
{
1070
     2
1000
-2000051
1002
}
1002
{
1070
     3
1000
133798
1002
}
  0
LINE
  5
E9
330
70
100
AcDbEntity
  8
A-DETL
100
AcDbLine
 10
162.3256081505151
 20
30.07499999986431
 30
0.0
 11
162.3256081505478
 21
44.22499999992396
 31
0.0
1001
REVIT
1002
{
1070
     1
1000
1910031
1002
}
1002
{
1070
     2
1000
-2000051
1002
}
1002
{
1070
     3
1000
133798
1002
}
  0
LINE
  5
EA
330
70
100
AcDbEntity
  8
A-DETL
100
AcDbLine
 10
162.3256081505478
 20
25.17499999961547
 30
0.0
 11
176.4756081505147
 21
25.17499999958273
 31
0.0
1001
REVIT
1002
{
1070
     1
1000
1910032
1002
}
1002
{
1070
     2
1000
-2000051
1002
}
1002
{
1070
     3
1000
133798
1002
}
  0
LINE
  5
EB
330
70
100
AcDbEntity
  8
A-DETL
100
AcDbLine
 10
176.4756081505147
 20
25.17499999958273
 30
0.0
 11
176.475608150482
 21
11.02499999961401
 31
0.0
1001
REVIT
1002
{
1070
     1
1000
1910033
1002
}
1002
{
1070
     2
1000
-2000051
1002
}
1002
{
1070
     3
1000
133798
1002
}
  0
LINE
  5
EC
330
70
100
AcDbEntity
  8
A-DETL
100
AcDbLine
 10
176.475608150482
 20
11.02499999961401
 30
0.0
 11
162.3256081505151
 21
11.02499999964675
 31
0.0
1001
REVIT
1002
{
1070
     1
1000
1910034
1002
}
1002
{
1070
     2
1000
-2000051
1002
}
1002
{
1070
     3
1000
133798
1002
}
  0
LINE
  5
ED
330
70
100
AcDbEntity
  8
A-DETL
100
AcDbLine
 10
162.3256081505151
 20
11.02499999964675
 30
0.0
 11
162.3256081505478
 21
25.17499999961547
 31
0.0
1001
REVIT
1002
{
1070
     1
1000
1910035
1002
}
1002
{
1070
     2
1000
-2000051
1002
}
1002
{
1070
     3
1000
133798
1002
}
  0
LINE
  5
EE
330
70
100
AcDbEntity
  8
A-DETL
100
AcDbLine
 10
181.3756081505471
 20
25.17499999957181
 30
0.0
 11
195.525608150514
 21
25.17499999954089
 31
0.0
1001
REVIT
1002
{
1070
     1
1000
1910036
1002
}
1002
{
1070
     2
1000
-2000051
1002
}
1002
{
1070
     3
1000
133798
1002
}
  0
LINE
  5
EF
330
70
100
AcDbEntity
  8
A-DETL
100
AcDbLine
 10
195.525608150514
 20
25.17499999954089
 30
0.0
 11
195.5256081504813
 21
11.02499999956672
 31
0.0
1001
REVIT
1002
{
1070
     1
1000
1910037
1002
}
1002
{
1070
     2
1000
-2000051
1002
}
1002
{
1070
     3
1000
133798
1002
}
  0
LINE
  5
F0
330
70
100
AcDbEntity
  8
A-DETL
100
AcDbLine
 10
195.5256081504813
 20
11.02499999956672
 30
0.0
 11
181.3756081505144
 21
11.02499999959946
 31
0.0
1001
REVIT
1002
{
1070
     1
1000
1910038
1002
}
1002
{
1070
     2
1000
-2000051
1002
}
1002
{
1070
     3
1000
133798
1002
}
  0
LINE
  5
F1
330
70
100
AcDbEntity
  8
A-DETL
100
AcDbLine
 10
181.3756081505144
 20
11.02499999959946
 30
0.0
 11
181.3756081505471
 21
25.17499999957181
 31
0.0
1001
REVIT
1002
{
1070
     1
1000
1910039
1002
}
1002
{
1070
     2
1000
-2000051
1002
}
1002
{
1070
     3
1000
133798
1002
}
  0
LINE
  5
F2
330
70
100
AcDbEntity
  8
A-DETL
100
AcDbLine
 10
143.2756081505486
 20
25.17499999965731
 30
0.0
 11
157.4256081505136
 21
25.17499999962456
 31
0.0
1001
REVIT
1002
{
1070
     1
1000
1910040
1002
}
1002
{
1070
     2
1000
-2000051
1002
}
1002
{
1070
     3
1000
133798
1002
}
  0
LINE
  5
F3
330
70
100
AcDbEntity
  8
A-DETL
100
AcDbLine
 10
157.4256081505136
 20
25.17499999962456
 30
0.0
 11
157.4256081504809
 21
11.02499999965584
 31
0.0
1001
REVIT
1002
{
1070
     1
1000
1910041
1002
}
1002
{
1070
     2
1000
-2000051
1002
}
1002
{
1070
     3
1000
133798
1002
}
  0
LINE
  5
F4
330
70
100
AcDbEntity
  8
A-DETL
100
AcDbLine
 10
157.4256081504809
 20
11.02499999965584
 30
0.0
 11
143.2756081505158
 21
11.02499999968859
 31
0.0
1001
REVIT
1002
{
1070
     1
1000
1910042
1002
}
1002
{
1070
     2
1000
-2000051
1002
}
1002
{
1070
     3
1000
133798
1002
}
  0
LINE
  5
F5
330
70
100
AcDbEntity
  8
A-DETL
100
AcDbLine
 10
143.2756081505158
 20
11.02499999968859
 30
0.0
 11
143.2756081505486
 21
25.17499999965731
 31
0.0
1001
REVIT
1002
{
1070
     1
1000
1910043
1002
}
1002
{
1070
     2
1000
-2000051
1002
}
1002
{
1070
     3
1000
133798
1002
}
  0
LINE
  5
F6
330
70
100
AcDbEntity
  8
A-DETL
100
AcDbLine
 10
157.4256081504809
 20
30.07499999992069
 30
0.0
 11
143.2756081505158
 21
30.07499999995344
 31
0.0
1001
REVIT
1002
{
1070
     1
1000
1910044
1002
}
1002
{
1070
     2
1000
-2000051
1002
}
1002
{
1070
     3
1000
133798
1002
}
  0
LINE
  5
F7
330
70
100
AcDbEntity
  8
A-DETL
100
AcDbLine
 10
143.2756081505158
 20
30.07499999995344
 30
0.0
 11
143.2756081505486
 21
44.22500000005493
 31
0.0
1001
REVIT
1002
{
1070
     1
1000
1910045
1002
}
1002
{
1070
     2
1000
-2000051
1002
}
1002
{
1070
     3
1000
133798
1002
}
  0
LINE
  5
F8
330
70
100
AcDbEntity
  8
A-DETL
100
AcDbLine
 10
143.2756081505486
 20
44.22500000005493
 30
0.0
 11
157.4256081505136
 21
44.22500000002401
 31
0.0
1001
REVIT
1002
{
1070
     1
1000
1910046
1002
}
1002
{
1070
     2
1000
-2000051
1002
}
1002
{
1070
     3
1000
133798
1002
}
  0
LINE
  5
F9
330
70
100
AcDbEntity
  8
A-DETL
100
AcDbLine
 10
157.4256081505136
 20
44.22500000002401
 30
0.0
 11
157.4256081504809
 21
30.07499999992069
 31
0.0
1001
REVIT
1002
{
1070
     1
1000
1910047
1002
}
1002
{
1070
     2
1000
-2000051
1002
}
1002
{
1070
     3
1000
133798
1002
}
  0
LINE
  5
FA
330
70
100
AcDbEntity
  8
A-DETL
100
AcDbLine
 10
157.4256081504809
 20
49.12499999961255
 30
0.0
 11
143.2756081505158
 21
49.1249999996453
 31
0.0
1001
REVIT
1002
{
1070
     1
1000
1910048
1002
}
1002
{
1070
     2
1000
-2000051
1002
}
1002
{
1070
     3
1000
133798
1002
}
  0
LINE
  5
FB
330
70
100
AcDbEntity
  8
A-DETL
100
AcDbLine
 10
143.2756081505158
 20
49.1249999996453
 30
0.0
 11
143.2756081505486
 21
63.27499999961401
 31
0.0
1001
REVIT
1002
{
1070
     1
1000
1910049
1002
}
1002
{
1070
     2
1000
-2000051
1002
}
1002
{
1070
     3
1000
133798
1002
}
  0
LINE
  5
FC
330
70
100
AcDbEntity
  8
A-DETL
100
AcDbLine
 10
143.2756081505486
 20
63.27499999961401
 30
0.0
 11
157.4256081505136
 21
63.27499999958127
 31
0.0
1001
REVIT
1002
{
1070
     1
1000
1910050
1002
}
1002
{
1070
     2
1000
-2000051
1002
}
1002
{
1070
     3
1000
133798
1002
}
  0
LINE
  5
FD
330
70
100
AcDbEntity
  8
A-DETL
100
AcDbLine
 10
157.4256081505136
 20
63.27499999958127
 30
0.0
 11
157.4256081504809
 21
49.12499999961255
 31
0.0
1001
REVIT
1002
{
1070
     1
1000
1910051
1002
}
1002
{
1070
     2
1000
-2000051
1002
}
1002
{
1070
     3
1000
133798
1002
}
  0
LINE
  5
FE
330
70
100
AcDbEntity
  8
A-DETL
100
AcDbLine
 10
138.3756081504816
 20
49.12499999965621
 30
0.0
 11
124.2256081505147
 21
49.12499999968895
 31
0.0
1001
REVIT
1002
{
1070
     1
1000
1910052
1002
}
1002
{
1070
     2
1000
-2000051
1002
}
1002
{
1070
     3
1000
133798
1002
}
  0
LINE
  5
FF
330
70
100
AcDbEntity
  8
A-DETL
100
AcDbLine
 10
124.2256081505147
 20
49.12499999968895
 30
0.0
 11
124.2256081505475
 21
63.27499999965766
 31
0.0
1001
REVIT
1002
{
1070
     1
1000
1910053
1002
}
1002
{
1070
     2
1000
-2000051
1002
}
1002
{
1070
     3
1000
133798
1002
}
  0
LINE
  5
100
330
70
100
AcDbEntity
  8
A-DETL
100
AcDbLine
 10
124.2256081505475
 20
63.27499999965766
 30
0.0
 11
138.3756081505143
 21
63.27499999962492
 31
0.0
1001
REVIT
1002
{
1070
     1
1000
1910054
1002
}
1002
{
1070
     2
1000
-2000051
1002
}
1002
{
1070
     3
1000
133798
1002
}
  0
LINE
  5
101
330
70
100
AcDbEntity
  8
A-DETL
100
AcDbLine
 10
138.3756081505143
 20
63.27499999962492
 30
0.0
 11
138.3756081504816
 21
49.12499999965621
 31
0.0
1001
REVIT
1002
{
1070
     1
1000
1910055
1002
}
1002
{
1070
     2
1000
-2000051
1002
}
1002
{
1070
     3
1000
133798
1002
}
  0
LINE
  5
102
330
70
100
AcDbEntity
  8
A-DETL
100
AcDbLine
 10
119.3256081504823
 20
49.12499999969987
 30
0.0
 11
105.1756081505154
 21
49.12499999973261
 31
0.0
1001
REVIT
1002
{
1070
     1
1000
1910056
1002
}
1002
{
1070
     2
1000
-2000051
1002
}
1002
{
1070
     3
1000
133798
1002
}
  0
LINE
  5
103
330
70
100
AcDbEntity
  8
A-DETL
100
AcDbLine
 10
105.1756081505154
 20
49.12499999973261
 30
0.0
 11
105.1756081505482
 21
63.2749999996995
 31
0.0
1001
REVIT
1002
{
1070
     1
1000
1910057
1002
}
1002
{
1070
     2
1000
-2000051
1002
}
1002
{
1070
     3
1000
133798
1002
}
  0
LINE
  5
104
330
70
100
AcDbEntity
  8
A-DETL
100
AcDbLine
 10
105.1756081505482
 20
63.2749999996995
 30
0.0
 11
119.3256081505133
 21
63.27499999966858
 31
0.0
1001
REVIT
1002
{
1070
     1
1000
1910058
1002
}
1002
{
1070
     2
1000
-2000051
1002
}
1002
{
1070
     3
1000
133798
1002
}
  0
LINE
  5
105
330
70
100
AcDbEntity
  8
A-DETL
100
AcDbLine
 10
119.3256081505133
 20
63.27499999966858
 30
0.0
 11
119.3256081504823
 21
49.12499999969987
 31
0.0
1001
REVIT
1002
{
1070
     1
1000
1910059
1002
}
1002
{
1070
     2
1000
-2000051
1002
}
1002
{
1070
     3
1000
133798
1002
}
  0
LINE
  5
106
330
70
100
AcDbEntity
  8
A-DETL
100
AcDbLine
 10
105.1756081505482
 20
44.22500000014224
 30
0.0
 11
119.3256081505133
 21
44.2250000001095
 31
0.0
1001
REVIT
1002
{
1070
     1
1000
1910060
1002
}
1002
{
1070
     2
1000
-2000051
1002
}
1002
{
1070
     3
1000
133798
1002
}
  0
LINE
  5
107
330
70
100
AcDbEntity
  8
A-DETL
100
AcDbLine
 10
119.3256081505133
 20
44.2250000001095
 30
0.0
 11
119.3256081504823
 21
30.07499999996435
 31
0.0
1001
REVIT
1002
{
1070
     1
1000
1910061
1002
}
1002
{
1070
     2
1000
-2000051
1002
}
1002
{
1070
     3
1000
133798
1002
}
  0
LINE
  5
108
330
70
100
AcDbEntity
  8
A-DETL
100
AcDbLine
 10
119.3256081504823
 20
30.07499999996435
 30
0.0
 11
105.1756081505154
 21
30.07499999999527
 31
0.0
1001
REVIT
1002
{
1070
     1
1000
1910062
1002
}
1002
{
1070
     2
1000
-2000051
1002
}
1002
{
1070
     3
1000
133798
1002
}
  0
LINE
  5
109
330
70
100
AcDbEntity
  8
A-DETL
100
AcDbLine
 10
105.1756081505154
 20
30.07499999999527
 30
0.0
 11
105.1756081505482
 21
44.22500000014224
 31
0.0
1001
REVIT
1002
{
1070
     1
1000
1910063
1002
}
1002
{
1070
     2
1000
-2000051
1002
}
1002
{
1070
     3
1000
133798
1002
}
  0
LINE
  5
10A
330
70
100
AcDbEntity
  8
A-DETL
100
AcDbLine
 10
124.2256081505475
 20
44.22500000009859
 30
0.0
 11
138.3756081505143
 21
44.22500000006585
 31
0.0
1001
REVIT
1002
{
1070
     1
1000
1910064
1002
}
1002
{
1070
     2
1000
-2000051
1002
}
1002
{
1070
     3
1000
133798
1002
}
  0
LINE
  5
10B
330
70
100
AcDbEntity
  8
A-DETL
100
AcDbLine
 10
138.3756081505143
 20
44.22500000006585
 30
0.0
 11
138.3756081504816
 21
30.07499999992069
 31
0.0
1001
REVIT
1002
{
1070
     1
1000
1910065
1002
}
1002
{
1070
     2
1000
-2000051
1002
}
1002
{
1070
     3
1000
133798
1002
}
  0
LINE
  5
10C
330
70
100
AcDbEntity
  8
A-DETL
100
AcDbLine
 10
138.3756081504816
 20
30.07499999992069
 30
0.0
 11
124.2256081505147
 21
30.07499999995344
 31
0.0
1001
REVIT
1002
{
1070
     1
1000
1910066
1002
}
1002
{
1070
     2
1000
-2000051
1002
}
1002
{
1070
     3
1000
133798
1002
}
  0
LINE
  5
10D
330
70
100
AcDbEntity
  8
A-DETL
100
AcDbLine
 10
124.2256081505147
 20
30.07499999995344
 30
0.0
 11
124.2256081505475
 21
44.22500000009859
 31
0.0
1001
REVIT
1002
{
1070
     1
1000
1910067
1002
}
1002
{
1070
     2
1000
-2000051
1002
}
1002
{
1070
     3
1000
133798
1002
}
  0
LINE
  5
10E
330
70
100
AcDbEntity
  8
A-DETL
100
AcDbLine
 10
111.3177358775119
 20
25.1749999995136
 30
0.0
 11
132.033901021332
 21
25.17499999946813
 31
0.0
1001
REVIT
1002
{
1070
     1
1000
1910068
1002
}
1002
{
1070
     2
1000
-2000051
1002
}
1002
{
1070
     3
1000
133798
1002
}
  0
LINE
  5
10F
330
70
100
AcDbEntity
  8
A-DETL
100
AcDbLine
 10
132.033901021332
 20
25.17499999946813
 30
0.0
 11
132.0339010213338
 21
26.17362953449083
 31
0.0
1001
REVIT
1002
{
1070
     1
1000
1910069
1002
}
1002
{
1070
     2
1000
-2000051
1002
}
1002
{
1070
     3
1000
133798
1002
}
  0
LINE
  5
110
330
70
100
AcDbEntity
  8
A-DETL
100
AcDbLine
 10
132.0339010213338
 20
26.17362953449083
 30
0.0
 11
135.3675251767145
 21
26.17362953448174
 31
0.0
1001
REVIT
1002
{
1070
     1
1000
1910070
1002
}
1002
{
1070
     2
1000
-2000051
1002
}
1002
{
1070
     3
1000
133798
1002
}
  0
LINE
  5
111
330
70
100
AcDbEntity
  8
A-DETL
100
AcDbLine
 10
135.3675251767145
 20
26.17362953448174
 30
0.0
 11
135.3675251767108
 21
25.17499999972461
 31
0.0
1001
REVIT
1002
{
1070
     1
1000
1910071
1002
}
1002
{
1070
     2
1000
-2000051
1002
}
1002
{
1070
     3
1000
133798
1002
}
  0
LINE
  5
112
330
70
100
AcDbEntity
  8
A-DETL
100
AcDbLine
 10
135.3675251767108
 20
25.17499999972461
 30
0.0
 11
138.3756081505143
 21
25.17499999972461
 31
0.0
1001
REVIT
1002
{
1070
     1
1000
1910072
1002
}
1002
{
1070
     2
1000
-2000051
1002
}
1002
{
1070
     3
1000
133798
1002
}
  0
LINE
  5
113
330
70
100
AcDbEntity
  8
A-DETL
100
AcDbLine
 10
138.3756081505143
 20
25.17499999972461
 30
0.0
 11
138.3756081504816
 21
11.02499999970132
 31
0.0
1001
REVIT
1002
{
1070
     1
1000
1910073
1002
}
1002
{
1070
     2
1000
-2000051
1002
}
1002
{
1070
     3
1000
133798
1002
}
  0
LINE
  5
114
330
70
100
AcDbEntity
  8
A-DETL
100
AcDbLine
 10
138.3756081504816
 20
11.02499999970132
 30
0.0
 11
105.1756081504845
 21
11.02499999977772
 31
0.0
1001
REVIT
1002
{
1070
     1
1000
1910074
1002
}
1002
{
1070
     2
1000
-2000051
1002
}
1002
{
1070
     3
1000
133798
1002
}
  0
LINE
  5
115
330
70
100
AcDbEntity
  8
A-DETL
100
AcDbLine
 10
105.1756081504845
 20
11.02499999977772
 30
0.0
 11
105.1756081505173
 21
25.17499999952998
 31
0.0
1001
REVIT
1002
{
1070
     1
1000
1910075
1002
}
1002
{
1070
     2
1000
-2000051
1002
}
1002
{
1070
     3
1000
133798
1002
}
  0
LINE
  5
116
330
70
100
AcDbEntity
  8
A-DETL
100
AcDbLine
 10
105.1756081505173
 20
25.17499999952998
 30
0.0
 11
107.9841117221312
 21
25.1749999995227
 31
0.0
1001
REVIT
1002
{
1070
     1
1000
1910076
1002
}
1002
{
1070
     2
1000
-2000051
1002
}
1002
{
1070
     3
1000
133798
1002
}
  0
LINE
  5
117
330
70
100
AcDbEntity
  8
A-DETL
100
AcDbLine
 10
107.9841117221312
 20
25.1749999995227
 30
0.0
 11
107.9841117221349
 21
26.17362953454176
 31
0.0
1001
REVIT
1002
{
1070
     1
1000
1910077
1002
}
1002
{
1070
     2
1000
-2000051
1002
}
1002
{
1070
     3
1000
133798
1002
}
  0
LINE
  5
118
330
70
100
AcDbEntity
  8
A-DETL
100
AcDbLine
 10
107.9841117221349
 20
26.17362953454176
 30
0.0
 11
111.3177358775119
 21
26.17362953453266
 31
0.0
1001
REVIT
1002
{
1070
     1
1000
1910078
1002
}
1002
{
1070
     2
1000
-2000051
1002
}
1002
{
1070
     3
1000
133798
1002
}
  0
LINE
  5
119
330
70
100
AcDbEntity
  8
A-DETL
100
AcDbLine
 10
111.3177358775119
 20
26.17362953453266
 30
0.0
 11
111.3177358775119
 21
25.1749999995136
 31
0.0
1001
REVIT
1002
{
1070
     1
1000
1910079
1002
}
1002
{
1070
     2
1000
-2000051
1002
}
1002
{
1070
     3
1000
133798
1002
}
  0
LINE
  5
11A
330
70
100
AcDbEntity
  8
A-DETL
100
AcDbLine
 10
86.12560815051802
 20
25.17499999979191
 30
0.0
 11
100.2733918485009
 21
25.17499999975917
 31
0.0
1001
REVIT
1002
{
1070
     1
1000
1910080
1002
}
1002
{
1070
     2
1000
-2000051
1002
}
1002
{
1070
     3
1000
133798
1002
}
  0
LINE
  5
11B
330
70
100
AcDbEntity
  8
A-DETL
100
AcDbLine
 10
100.2733918485009
 20
25.17499999975917
 30
0.0
 11
100.2733918484682
 21
11.02499999979045
 31
0.0
1001
REVIT
1002
{
1070
     1
1000
1910081
1002
}
1002
{
1070
     2
1000
-2000051
1002
}
1002
{
1070
     3
1000
133798
1002
}
  0
LINE
  5
11C
330
70
100
AcDbEntity
  8
A-DETL
100
AcDbLine
 10
100.2733918484682
 20
11.02499999979045
 30
0.0
 11
86.12560815048528
 21
11.02499999982319
 31
0.0
1001
REVIT
1002
{
1070
     1
1000
1910082
1002
}
1002
{
1070
     2
1000
-2000051
1002
}
1002
{
1070
     3
1000
133798
1002
}
  0
LINE
  5
11D
330
70
100
AcDbEntity
  8
A-DETL
100
AcDbLine
 10
86.12560815048528
 20
11.02499999982319
 30
0.0
 11
86.12560815051802
 21
25.17499999979191
 31
0.0
1001
REVIT
1002
{
1070
     1
1000
1910083
1002
}
1002
{
1070
     2
1000
-2000051
1002
}
1002
{
1070
     3
1000
133798
1002
}
  0
LINE
  5
11E
330
70
100
AcDbEntity
  8
A-DETL
100
AcDbLine
 10
100.2756081504813
 20
30.07500000000618
 30
0.0
 11
86.12560815051438
 21
30.07500000003893
 31
0.0
1001
REVIT
1002
{
1070
     1
1000
1910084
1002
}
1002
{
1070
     2
1000
-2000051
1002
}
1002
{
1070
     3
1000
133798
1002
}
  0
LINE
  5
11F
330
70
100
AcDbEntity
  8
A-DETL
100
AcDbLine
 10
86.12560815051438
 20
30.07500000003893
 30
0.0
 11
86.12560815054711
 21
44.22500000018589
 31
0.0
1001
REVIT
1002
{
1070
     1
1000
1910085
1002
}
1002
{
1070
     2
1000
-2000051
1002
}
1002
{
1070
     3
1000
133798
1002
}
  0
LINE
  5
120
330
70
100
AcDbEntity
  8
A-DETL
100
AcDbLine
 10
86.12560815054711
 20
44.22500000018589
 30
0.0
 11
100.275608150514
 21
44.22500000015316
 31
0.0
1001
REVIT
1002
{
1070
     1
1000
1910086
1002
}
1002
{
1070
     2
1000
-2000051
1002
}
1002
{
1070
     3
1000
133798
1002
}
  0
LINE
  5
121
330
70
100
AcDbEntity
  8
A-DETL
100
AcDbLine
 10
100.275608150514
 20
44.22500000015316
 30
0.0
 11
100.2756081504813
 21
30.07500000000618
 31
0.0
1001
REVIT
1002
{
1070
     1
1000
1910087
1002
}
1002
{
1070
     2
1000
-2000051
1002
}
1002
{
1070
     3
1000
133798
1002
}
  0
LINE
  5
122
330
70
100
AcDbEntity
  8
A-DETL
100
AcDbLine
 10
100.2756081504813
 20
49.1249999997417
 30
0.0
 11
86.12560815051438
 21
49.12499999977445
 31
0.0
1001
REVIT
1002
{
1070
     1
1000
1910088
1002
}
1002
{
1070
     2
1000
-2000051
1002
}
1002
{
1070
     3
1000
133798
1002
}
  0
LINE
  5
123
330
70
100
AcDbEntity
  8
A-DETL
100
AcDbLine
 10
86.12560815051438
 20
49.12499999977445
 30
0.0
 11
86.12560815054711
 21
63.27499999974316
 31
0.0
1001
REVIT
1002
{
1070
     1
1000
1910089
1002
}
1002
{
1070
     2
1000
-2000051
1002
}
1002
{
1070
     3
1000
133798
1002
}
  0
LINE
  5
124
330
70
100
AcDbEntity
  8
A-DETL
100
AcDbLine
 10
86.12560815054711
 20
63.27499999974316
 30
0.0
 11
100.275608150514
 21
63.27499999971042
 31
0.0
1001
REVIT
1002
{
1070
     1
1000
1910090
1002
}
1002
{
1070
     2
1000
-2000051
1002
}
1002
{
1070
     3
1000
133798
1002
}
  0
LINE
  5
125
330
70
100
AcDbEntity
  8
A-DETL
100
AcDbLine
 10
100.275608150514
 20
63.27499999971042
 30
0.0
 11
100.2756081504813
 21
49.1249999997417
 31
0.0
1001
REVIT
1002
{
1070
     1
1000
1910091
1002
}
1002
{
1070
     2
1000
-2000051
1002
}
1002
{
1070
     3
1000
133798
1002
}
  0
LINE
  5
126
330
70
100
AcDbEntity
  8
A-DETL
100
AcDbLine
 10
81.22560815048201
 20
49.12499999991997
 30
0.0
 11
67.07560815051511
 21
49.1249999999527
 31
0.0
1001
REVIT
1002
{
1070
     1
1000
1910092
1002
}
1002
{
1070
     2
1000
-2000051
1002
}
1002
{
1070
     3
1000
133798
1002
}
  0
LINE
  5
127
330
70
100
AcDbEntity
  8
A-DETL
100
AcDbLine
 10
67.07560815051511
 20
49.1249999999527
 30
0.0
 11
67.07560815054785
 21
63.27499999992141
 31
0.0
1001
REVIT
1002
{
1070
     1
1000
1910093
1002
}
1002
{
1070
     2
1000
-2000051
1002
}
1002
{
1070
     3
1000
133798
1002
}
  0
LINE
  5
128
330
70
100
AcDbEntity
  8
A-DETL
100
AcDbLine
 10
67.07560815054785
 20
63.27499999992141
 30
0.0
 11
81.22560815051475
 21
63.27499999988868
 31
0.0
1001
REVIT
1002
{
1070
     1
1000
1910094
1002
}
1002
{
1070
     2
1000
-2000051
1002
}
1002
{
1070
     3
1000
133798
1002
}
  0
LINE
  5
129
330
70
100
AcDbEntity
  8
A-DETL
100
AcDbLine
 10
81.22560815051475
 20
63.27499999988868
 30
0.0
 11
81.22560815048201
 21
49.12499999991997
 31
0.0
1001
REVIT
1002
{
1070
     1
1000
1910095
1002
}
1002
{
1070
     2
1000
-2000051
1002
}
1002
{
1070
     3
1000
133798
1002
}
  0
LINE
  5
12A
330
70
100
AcDbEntity
  8
A-DETL
100
AcDbLine
 10
67.07560815054785
 20
44.22500000023319
 30
0.0
 11
81.22560815051475
 21
44.22500000020045
 31
0.0
1001
REVIT
1002
{
1070
     1
1000
1910096
1002
}
1002
{
1070
     2
1000
-2000051
1002
}
1002
{
1070
     3
1000
133798
1002
}
  0
LINE
  5
12B
330
70
100
AcDbEntity
  8
A-DETL
100
AcDbLine
 10
81.22560815051475
 20
44.22500000020045
 30
0.0
 11
81.22560815048201
 21
30.07500000004984
 31
0.0
1001
REVIT
1002
{
1070
     1
1000
1910097
1002
}
1002
{
1070
     2
1000
-2000051
1002
}
1002
{
1070
     3
1000
133798
1002
}
  0
LINE
  5
12C
330
70
100
AcDbEntity
  8
A-DETL
100
AcDbLine
 10
81.22560815048201
 20
30.07500000004984
 30
0.0
 11
67.07560815051511
 21
30.07500000008259
 31
0.0
1001
REVIT
1002
{
1070
     1
1000
1910098
1002
}
1002
{
1070
     2
1000
-2000051
1002
}
1002
{
1070
     3
1000
133798
1002
}
  0
LINE
  5
12D
330
70
100
AcDbEntity
  8
A-DETL
100
AcDbLine
 10
67.07560815051511
 20
30.07500000008259
 30
0.0
 11
67.07560815054785
 21
44.22500000023319
 31
0.0
1001
REVIT
1002
{
1070
     1
1000
1910099
1002
}
1002
{
1070
     2
1000
-2000051
1002
}
1002
{
1070
     3
1000
133798
1002
}
  0
LINE
  5
12E
330
70
100
AcDbEntity
  8
A-DETL
100
AcDbLine
 10
67.07560815054785
 20
25.17499999983556
 30
0.0
 11
81.22560815051475
 21
25.17499999980282
 31
0.0
1001
REVIT
1002
{
1070
     1
1000
1910100
1002
}
1002
{
1070
     2
1000
-2000051
1002
}
1002
{
1070
     3
1000
133798
1002
}
  0
LINE
  5
12F
330
70
100
AcDbEntity
  8
A-DETL
100
AcDbLine
 10
81.22560815051475
 20
25.17499999980282
 30
0.0
 11
81.22560815048201
 21
11.02499999983411
 31
0.0
1001
REVIT
1002
{
1070
     1
1000
1910101
1002
}
1002
{
1070
     2
1000
-2000051
1002
}
1002
{
1070
     3
1000
133798
1002
}
  0
LINE
  5
130
330
70
100
AcDbEntity
  8
A-DETL
100
AcDbLine
 10
81.22560815048201
 20
11.02499999983411
 30
0.0
 11
67.07560815051511
 21
11.02499999986685
 31
0.0
1001
REVIT
1002
{
1070
     1
1000
1910102
1002
}
1002
{
1070
     2
1000
-2000051
1002
}
1002
{
1070
     3
1000
133798
1002
}
  0
LINE
  5
131
330
70
100
AcDbEntity
  8
A-DETL
100
AcDbLine
 10
67.07560815051511
 20
11.02499999986685
 30
0.0
 11
67.07560815054785
 21
25.17499999983556
 31
0.0
1001
REVIT
1002
{
1070
     1
1000
1910103
1002
}
1002
{
1070
     2
1000
-2000051
1002
}
1002
{
1070
     3
1000
133798
1002
}
  0
ARC
  5
132
330
70
100
AcDbEntity
  8
A-DETL
100
AcDbCircle
 10
74.15060815049764
 20
5.0
 30
0.0
 40
1.5
100
AcDbArc
 50
180.0
 51
0.0
1001
REVIT
1002
{
1070
     1
1000
1910104
1002
}
1002
{
1070
     2
1000
-2000051
1002
}
1002
{
1070
     3
1000
133798
1002
}
  0
ARC
  5
133
330
70
100
AcDbEntity
  8
A-DETL
100
AcDbCircle
 10
74.15060815049764
 20
5.0
 30
0.0
 40
1.499999999998181
100
AcDbArc
 50
0.0
 51
180.0
1001
REVIT
1002
{
1070
     1
1000
1910105
1002
}
1002
{
1070
     2
1000
-2000051
1002
}
1002
{
1070
     3
1000
133798
1002
}
  0
ARC
  5
134
330
70
100
AcDbEntity
  8
A-DETL
100
AcDbCircle
 10
74.15060815049764
 20
69.29999999984284
 30
0.0
 40
1.499999999998181
100
AcDbArc
 50
0.0
 51
180.0
1001
REVIT
1002
{
1070
     1
1000
1910106
1002
}
1002
{
1070
     2
1000
-2000051
1002
}
1002
{
1070
     3
1000
133798
1002
}
  0
ARC
  5
135
330
70
100
AcDbEntity
  8
A-DETL
100
AcDbCircle
 10
74.15060815049764
 20
69.29999999984284
 30
0.0
 40
1.5
100
AcDbArc
 50
180.0
 51
0.0
1001
REVIT
1002
{
1070
     1
1000
1910107
1002
}
1002
{
1070
     2
1000
-2000051
1002
}
1002
{
1070
     3
1000
133798
1002
}
  0
ARC
  5
136
330
70
100
AcDbEntity
  8
A-DETL
100
AcDbCircle
 10
17.0
 20
69.29999999984284
 30
0.0
 40
1.5
100
AcDbArc
 50
180.0
 51
0.0
1001
REVIT
1002
{
1070
     1
1000
1910108
1002
}
1002
{
1070
     2
1000
-2000051
1002
}
1002
{
1070
     3
1000
133798
1002
}
  0
ARC
  5
137
330
70
100
AcDbEntity
  8
A-DETL
100
AcDbCircle
 10
17.0
 20
69.29999999984284
 30
0.0
 40
1.5
100
AcDbArc
 50
0.0
 51
180.0
1001
REVIT
1002
{
1070
     1
1000
1910109
1002
}
1002
{
1070
     2
1000
-2000051
1002
}
1002
{
1070
     3
1000
133798
1002
}
  0
LINE
  5
138
330
70
100
AcDbEntity
  8
A-DETL
100
AcDbLine
 10
13.25817943131915
 20
64.95705243205702
 30
0.0
 11
20.73098379822295
 21
64.95705243205702
 31
0.0
1001
REVIT
1002
{
1070
     1
1000
1910110
1002
}
1002
{
1070
     2
1000
-2000051
1002
}
1002
{
1070
     3
1000
133798
1002
}
  0
LINE
  5
139
330
70
100
AcDbEntity
  8
A-DETL
100
AcDbLine
 10
20.73098379822295
 20
64.95705243205702
 30
0.0
 11
20.73098379822295
 21
63.27499999989595
 31
0.0
1001
REVIT
1002
{
1070
     1
1000
1910111
1002
}
1002
{
1070
     2
1000
-2000051
1002
}
1002
{
1070
     3
1000
133798
1002
}
  0
LINE
  5
13A
330
70
100
AcDbEntity
  8
A-DETL
100
AcDbLine
 10
20.73098379822295
 20
63.27499999989595
 30
0.0
 11
24.0738918490697
 21
63.27499999988686
 31
0.0
1001
REVIT
1002
{
1070
     1
1000
1910112
1002
}
1002
{
1070
     2
1000
-2000051
1002
}
1002
{
1070
     3
1000
133798
1002
}
  0
LINE
  5
13B
330
70
100
AcDbEntity
  8
A-DETL
100
AcDbLine
 10
24.0738918490697
 20
63.27499999988686
 30
0.0
 11
24.07389184903696
 21
49.12499999991815
 31
0.0
1001
REVIT
1002
{
1070
     1
1000
1910113
1002
}
1002
{
1070
     2
1000
-2000051
1002
}
1002
{
1070
     3
1000
133798
1002
}
  0
LINE
  5
13C
330
70
100
AcDbEntity
  8
A-DETL
100
AcDbLine
 10
24.07389184903696
 20
49.12499999991815
 30
0.0
 11
20.73098379822295
 21
49.12499999992724
 31
0.0
1001
REVIT
1002
{
1070
     1
1000
1910114
1002
}
1002
{
1070
     2
1000
-2000051
1002
}
1002
{
1070
     3
1000
133798
1002
}
  0
LINE
  5
13D
330
70
100
AcDbEntity
  8
A-DETL
100
AcDbLine
 10
20.73098379822295
 20
49.12499999992724
 30
0.0
 11
20.73098379822295
 21
47.44294756780982
 31
0.0
1001
REVIT
1002
{
1070
     1
1000
1910115
1002
}
1002
{
1070
     2
1000
-2000051
1002
}
1002
{
1070
     3
1000
133798
1002
}
  0
LINE
  5
13E
330
70
100
AcDbEntity
  8
A-DETL
100
AcDbLine
 10
20.73098379822295
 20
47.44294756780982
 30
0.0
 11
13.25817943131915
 21
47.44294756780982
 31
0.0
1001
REVIT
1002
{
1070
     1
1000
1910116
1002
}
1002
{
1070
     2
1000
-2000051
1002
}
1002
{
1070
     3
1000
133798
1002
}
  0
LINE
  5
13F
330
70
100
AcDbEntity
  8
A-DETL
100
AcDbLine
 10
13.25817943131915
 20
47.44294756780982
 30
0.0
 11
13.25817943131915
 21
49.12499999994179
 31
0.0
1001
REVIT
1002
{
1070
     1
1000
1910117
1002
}
1002
{
1070
     2
1000
-2000051
1002
}
1002
{
1070
     3
1000
133798
1002
}
  0
LINE
  5
140
330
70
100
AcDbEntity
  8
A-DETL
100
AcDbLine
 10
13.25817943131915
 20
49.12499999994179
 30
0.0
 11
9.926108151055814
 21
49.12499999995088
 31
0.0
1001
REVIT
1002
{
1070
     1
1000
1910118
1002
}
1002
{
1070
     2
1000
-2000051
1002
}
1002
{
1070
     3
1000
133798
1002
}
  0
LINE
  5
141
330
70
100
AcDbEntity
  8
A-DETL
100
AcDbLine
 10
9.926108151055814
 20
49.12499999995088
 30
0.0
 11
9.926108151088556
 21
63.2749999999196
 31
0.0
1001
REVIT
1002
{
1070
     1
1000
1910119
1002
}
1002
{
1070
     2
1000
-2000051
1002
}
1002
{
1070
     3
1000
133798
1002
}
  0
LINE
  5
142
330
70
100
AcDbEntity
  8
A-DETL
100
AcDbLine
 10
9.926108151088556
 20
63.2749999999196
 30
0.0
 11
13.25817943131915
 21
63.27499999991051
 31
0.0
1001
REVIT
1002
{
1070
     1
1000
1910120
1002
}
1002
{
1070
     2
1000
-2000051
1002
}
1002
{
1070
     3
1000
133798
1002
}
  0
LINE
  5
143
330
70
100
AcDbEntity
  8
A-DETL
100
AcDbLine
 10
13.25817943131915
 20
63.27499999991051
 30
0.0
 11
13.25817943131915
 21
64.95705243205702
 31
0.0
1001
REVIT
1002
{
1070
     1
1000
1910121
1002
}
1002
{
1070
     2
1000
-2000051
1002
}
1002
{
1070
     3
1000
133798
1002
}
  0
LINE
  5
144
330
70
100
AcDbEntity
  8
A-DETL
100
AcDbLine
 10
28.97610815054759
 20
63.2749999999196
 30
0.0
 11
43.1261081505163
 21
63.27499999988686
 31
0.0
1001
REVIT
1002
{
1070
     1
1000
1910122
1002
}
1002
{
1070
     2
1000
-2000051
1002
}
1002
{
1070
     3
1000
133798
1002
}
  0
LINE
  5
145
330
70
100
AcDbEntity
  8
A-DETL
100
AcDbLine
 10
43.1261081505163
 20
63.27499999988686
 30
0.0
 11
43.12610815048356
 21
49.12499999991815
 31
0.0
1001
REVIT
1002
{
1070
     1
1000
1910123
1002
}
1002
{
1070
     2
1000
-2000051
1002
}
1002
{
1070
     3
1000
133798
1002
}
  0
LINE
  5
146
330
70
100
AcDbEntity
  8
A-DETL
100
AcDbLine
 10
43.12610815048356
 20
49.12499999991815
 30
0.0
 11
28.97610815051485
 21
49.12499999995088
 31
0.0
1001
REVIT
1002
{
1070
     1
1000
1910124
1002
}
1002
{
1070
     2
1000
-2000051
1002
}
1002
{
1070
     3
1000
133798
1002
}
  0
LINE
  5
147
330
70
100
AcDbEntity
  8
A-DETL
100
AcDbLine
 10
28.97610815051485
 20
49.12499999995088
 30
0.0
 11
28.97610815054759
 21
63.2749999999196
 31
0.0
1001
REVIT
1002
{
1070
     1
1000
1910125
1002
}
1002
{
1070
     2
1000
-2000051
1002
}
1002
{
1070
     3
1000
133798
1002
}
  0
LINE
  5
148
330
70
100
AcDbEntity
  8
A-DETL
100
AcDbLine
 10
48.02560815054857
 20
63.2749999999196
 30
0.0
 11
62.17560815051365
 21
63.27499999988686
 31
0.0
1001
REVIT
1002
{
1070
     1
1000
1910126
1002
}
1002
{
1070
     2
1000
-2000051
1002
}
1002
{
1070
     3
1000
133798
1002
}
  0
LINE
  5
149
330
70
100
AcDbEntity
  8
A-DETL
100
AcDbLine
 10
62.17560815051365
 20
63.27499999988686
 30
0.0
 11
62.17560815048091
 21
49.12499999991815
 31
0.0
1001
REVIT
1002
{
1070
     1
1000
1910127
1002
}
1002
{
1070
     2
1000
-2000051
1002
}
1002
{
1070
     3
1000
133798
1002
}
  0
LINE
  5
14A
330
70
100
AcDbEntity
  8
A-DETL
100
AcDbLine
 10
62.17560815048091
 20
49.12499999991815
 30
0.0
 11
48.02560815051584
 21
49.12499999995088
 31
0.0
1001
REVIT
1002
{
1070
     1
1000
1910128
1002
}
1002
{
1070
     2
1000
-2000051
1002
}
1002
{
1070
     3
1000
133798
1002
}
  0
LINE
  5
14B
330
70
100
AcDbEntity
  8
A-DETL
100
AcDbLine
 10
48.02560815051584
 20
49.12499999995088
 30
0.0
 11
48.02560815054857
 21
63.2749999999196
 31
0.0
1001
REVIT
1002
{
1070
     1
1000
1910129
1002
}
1002
{
1070
     2
1000
-2000051
1002
}
1002
{
1070
     3
1000
133798
1002
}
  0
LINE
  5
14C
330
70
100
AcDbEntity
  8
A-DETL
100
AcDbLine
 10
48.02560815054857
 20
44.22500000027503
 30
0.0
 11
62.17560815051365
 21
44.22500000024228
 31
0.0
1001
REVIT
1002
{
1070
     1
1000
1910130
1002
}
1002
{
1070
     2
1000
-2000051
1002
}
1002
{
1070
     3
1000
133798
1002
}
  0
LINE
  5
14D
330
70
100
AcDbEntity
  8
A-DETL
100
AcDbLine
 10
62.17560815051365
 20
44.22500000024228
 30
0.0
 11
62.17560815048091
 21
30.07500000009532
 31
0.0
1001
REVIT
1002
{
1070
     1
1000
1910131
1002
}
1002
{
1070
     2
1000
-2000051
1002
}
1002
{
1070
     3
1000
133798
1002
}
  0
LINE
  5
14E
330
70
100
AcDbEntity
  8
A-DETL
100
AcDbLine
 10
62.17560815048091
 20
30.07500000009532
 30
0.0
 11
48.02560815051584
 21
30.07500000012806
 31
0.0
1001
REVIT
1002
{
1070
     1
1000
1910132
1002
}
1002
{
1070
     2
1000
-2000051
1002
}
1002
{
1070
     3
1000
133798
1002
}
  0
LINE
  5
14F
330
70
100
AcDbEntity
  8
A-DETL
100
AcDbLine
 10
48.02560815051584
 20
30.07500000012806
 30
0.0
 11
48.02560815054857
 21
44.22500000027503
 31
0.0
1001
REVIT
1002
{
1070
     1
1000
1910133
1002
}
1002
{
1070
     2
1000
-2000051
1002
}
1002
{
1070
     3
1000
133798
1002
}
  0
LINE
  5
150
330
70
100
AcDbEntity
  8
A-DETL
100
AcDbLine
 10
28.97610815054759
 20
44.22500000031686
 30
0.0
 11
43.1261081505163
 21
44.22500000028594
 31
0.0
1001
REVIT
1002
{
1070
     1
1000
1910134
1002
}
1002
{
1070
     2
1000
-2000051
1002
}
1002
{
1070
     3
1000
133798
1002
}
  0
LINE
  5
151
330
70
100
AcDbEntity
  8
A-DETL
100
AcDbLine
 10
43.1261081505163
 20
44.22500000028594
 30
0.0
 11
43.12610815048356
 21
30.07500000013897
 31
0.0
1001
REVIT
1002
{
1070
     1
1000
1910135
1002
}
1002
{
1070
     2
1000
-2000051
1002
}
1002
{
1070
     3
1000
133798
1002
}
  0
LINE
  5
152
330
70
100
AcDbEntity
  8
A-DETL
100
AcDbLine
 10
43.12610815048356
 20
30.07500000013897
 30
0.0
 11
28.97610815051485
 21
30.07500000017171
 31
0.0
1001
REVIT
1002
{
1070
     1
1000
1910136
1002
}
1002
{
1070
     2
1000
-2000051
1002
}
1002
{
1070
     3
1000
133798
1002
}
  0
LINE
  5
153
330
70
100
AcDbEntity
  8
A-DETL
100
AcDbLine
 10
28.97610815051485
 20
30.07500000017171
 30
0.0
 11
28.97610815054759
 21
44.22500000031686
 31
0.0
1001
REVIT
1002
{
1070
     1
1000
1910137
1002
}
1002
{
1070
     2
1000
-2000051
1002
}
1002
{
1070
     3
1000
133798
1002
}
  0
LINE
  5
154
330
70
100
AcDbEntity
  8
A-DETL
100
AcDbLine
 10
9.926108151088556
 20
44.22499999991851
 30
0.0
 11
24.0738918490697
 21
44.22499999988576
 31
0.0
1001
REVIT
1002
{
1070
     1
1000
1910138
1002
}
1002
{
1070
     2
1000
-2000051
1002
}
1002
{
1070
     3
1000
133798
1002
}
  0
LINE
  5
155
330
70
100
AcDbEntity
  8
A-DETL
100
AcDbLine
 10
24.0738918490697
 20
44.22499999988576
 30
0.0
 11
24.07389184903696
 21
30.07500000018263
 31
0.0
1001
REVIT
1002
{
1070
     1
1000
1910139
1002
}
1002
{
1070
     2
1000
-2000051
1002
}
1002
{
1070
     3
1000
133798
1002
}
  0
LINE
  5
156
330
70
100
AcDbEntity
  8
A-DETL
100
AcDbLine
 10
24.07389184903696
 20
30.07500000018263
 30
0.0
 11
9.926108151055814
 21
30.07500000021537
 31
0.0
1001
REVIT
1002
{
1070
     1
1000
1910140
1002
}
1002
{
1070
     2
1000
-2000051
1002
}
1002
{
1070
     3
1000
133798
1002
}
  0
LINE
  5
157
330
70
100
AcDbEntity
  8
A-DETL
100
AcDbLine
 10
9.926108151055814
 20
30.07500000021537
 30
0.0
 11
9.926108151088556
 21
44.22499999991851
 31
0.0
1001
REVIT
1002
{
1070
     1
1000
1910141
1002
}
1002
{
1070
     2
1000
-2000051
1002
}
1002
{
1070
     3
1000
133798
1002
}
  0
LINE
  5
158
330
70
100
AcDbEntity
  8
A-DETL
100
AcDbLine
 10
9.926108151041262
 20
25.17499999991924
 30
0.0
 11
24.07389184902422
 21
25.1749999998865
 31
0.0
1001
REVIT
1002
{
1070
     1
1000
1910142
1002
}
1002
{
1070
     2
1000
-2000051
1002
}
1002
{
1070
     3
1000
133798
1002
}
  0
LINE
  5
159
330
70
100
AcDbEntity
  8
A-DETL
100
AcDbLine
 10
24.07389184902422
 20
25.1749999998865
 30
0.0
 11
24.07389184899148
 21
11.02499999991778
 31
0.0
1001
REVIT
1002
{
1070
     1
1000
1910143
1002
}
1002
{
1070
     2
1000
-2000051
1002
}
1002
{
1070
     3
1000
133798
1002
}
  0
LINE
  5
15A
330
70
100
AcDbEntity
  8
A-DETL
100
AcDbLine
 10
24.07389184899148
 20
11.02499999991778
 30
0.0
 11
9.92610815100852
 21
11.02499999995052
 31
0.0
1001
REVIT
1002
{
1070
     1
1000
1910144
1002
}
1002
{
1070
     2
1000
-2000051
1002
}
1002
{
1070
     3
1000
133798
1002
}
  0
LINE
  5
15B
330
70
100
AcDbEntity
  8
A-DETL
100
AcDbLine
 10
9.92610815100852
 20
11.02499999995052
 30
0.0
 11
9.926108151041262
 21
25.17499999991924
 31
0.0
1001
REVIT
1002
{
1070
     1
1000
1910145
1002
}
1002
{
1070
     2
1000
-2000051
1002
}
1002
{
1070
     3
1000
133798
1002
}
  0
ARC
  5
15C
330
70
100
AcDbEntity
  8
A-DETL
100
AcDbCircle
 10
17.0
 20
5.0
 30
0.0
 40
1.5
100
AcDbArc
 50
180.0
 51
0.0
1001
REVIT
1002
{
1070
     1
1000
1910146
1002
}
1002
{
1070
     2
1000
-2000051
1002
}
1002
{
1070
     3
1000
133798
1002
}
  0
ARC
  5
15D
330
70
100
AcDbEntity
  8
A-DETL
100
AcDbCircle
 10
17.0
 20
5.0
 30
0.0
 40
1.5
100
AcDbArc
 50
0.0
 51
180.0
1001
REVIT
1002
{
1070
     1
1000
1910147
1002
}
1002
{
1070
     2
1000
-2000051
1002
}
1002
{
1070
     3
1000
133798
1002
}
  0
LINE
  5
15E
330
70
100
AcDbEntity
  8
A-DETL
100
AcDbLine
 10
43.12610815048356
 20
11.02499999991778
 30
0.0
 11
28.97610815051485
 21
11.02499999995052
 31
0.0
1001
REVIT
1002
{
1070
     1
1000
1910148
1002
}
1002
{
1070
     2
1000
-2000051
1002
}
1002
{
1070
     3
1000
133798
1002
}
  0
LINE
  5
15F
330
70
100
AcDbEntity
  8
A-DETL
100
AcDbLine
 10
28.97610815051485
 20
11.02499999995052
 30
0.0
 11
28.97610815054759
 21
25.17499999991924
 31
0.0
1001
REVIT
1002
{
1070
     1
1000
1910149
1002
}
1002
{
1070
     2
1000
-2000051
1002
}
1002
{
1070
     3
1000
133798
1002
}
  0
LINE
  5
160
330
70
100
AcDbEntity
  8
A-DETL
100
AcDbLine
 10
28.97610815054759
 20
25.17499999991924
 30
0.0
 11
43.1261081505163
 21
25.1749999998865
 31
0.0
1001
REVIT
1002
{
1070
     1
1000
1910150
1002
}
1002
{
1070
     2
1000
-2000051
1002
}
1002
{
1070
     3
1000
133798
1002
}
  0
LINE
  5
161
330
70
100
AcDbEntity
  8
A-DETL
100
AcDbLine
 10
43.1261081505163
 20
25.1749999998865
 30
0.0
 11
43.12610815048356
 21
11.02499999991778
 31
0.0
1001
REVIT
1002
{
1070
     1
1000
1910151
1002
}
1002
{
1070
     2
1000
-2000051
1002
}
1002
{
1070
     3
1000
133798
1002
}
  0
LINE
  5
162
330
70
100
AcDbEntity
  8
A-DETL
100
AcDbLine
 10
48.02560815054857
 20
25.17499999991924
 30
0.0
 11
62.17560815051365
 21
25.1749999998865
 31
0.0
1001
REVIT
1002
{
1070
     1
1000
1910152
1002
}
1002
{
1070
     2
1000
-2000051
1002
}
1002
{
1070
     3
1000
133798
1002
}
  0
LINE
  5
163
330
70
100
AcDbEntity
  8
A-DETL
100
AcDbLine
 10
62.17560815051365
 20
25.1749999998865
 30
0.0
 11
62.17560815048091
 21
11.02499999987412
 31
0.0
1001
REVIT
1002
{
1070
     1
1000
1910153
1002
}
1002
{
1070
     2
1000
-2000051
1002
}
1002
{
1070
     3
1000
133798
1002
}
  0
LINE
  5
164
330
70
100
AcDbEntity
  8
A-DETL
100
AcDbLine
 10
62.17560815048091
 20
11.02499999987412
 30
0.0
 11
48.02560815051584
 21
11.02499999990687
 31
0.0
1001
REVIT
1002
{
1070
     1
1000
1910154
1002
}
1002
{
1070
     2
1000
-2000051
1002
}
1002
{
1070
     3
1000
133798
1002
}
  0
LINE
  5
165
330
70
100
AcDbEntity
  8
A-DETL
100
AcDbLine
 10
48.02560815051584
 20
11.02499999990687
 30
0.0
 11
48.02560815054857
 21
25.17499999991924
 31
0.0
1001
REVIT
1002
{
1070
     1
1000
1910155
1002
}
1002
{
1070
     2
1000
-2000051
1002
}
1002
{
1070
     3
1000
133798
1002
}
  0
ENDSEC
  0
SECTION
  2
OBJECTS
  0
DICTIONARY
  5
C
330
0
100
AcDbDictionary
281
     1
  3
ACAD_CIP_PREVIOUS_PRODUCT_INFO
350
79
  3
ACAD_COLOR
350
63
  3
ACAD_DETAILVIEWSTYLE
350
6A
  3
ACAD_GROUP
350
D
  3
ACAD_IMAGE_VARS
350
7A
  3
ACAD_LAYOUT
350
62
  3
ACAD_MATERIAL
350
10
  3
ACAD_MLEADERSTYLE
350
66
  3
ACAD_MLINESTYLE
350
5F
  3
ACAD_PLOTSETTINGS
350
61
  3
ACAD_PLOTSTYLENAME
350
E
  3
ACAD_SCALELIST
350
42
  3
ACAD_SECTIONVIEWSTYLE
350
68
  3
ACAD_TABLESTYLE
350
64
  3
ACAD_VISUALSTYLE
350
29
  3
ACDB_RECOMPOSE_DATA
350
185
  3
AcDbVariableDictionary
350
16E
  3
REVIT_DICTIONARY
350
166
  0
DICTIONARY
  5
16C
330
70
100
AcDbDictionary
280
     1
281
     1
  3
ACAD_SORTENTS
360
16D
  0
XRECORD
  5
79
102
{ACAD_REACTORS
330
C
102
}
330
C
100
AcDbXrecord
280
     1
300
ACD
300
2018
300

  0
DICTIONARY
  5
63
102
{ACAD_REACTORS
330
C
102
}
330
C
100
AcDbDictionary
281
     1
  0
DICTIONARY
  5
6A
102
{ACAD_REACTORS
330
C
102
}
330
C
100
AcDbDictionary
281
     1
  3
Imperial24
350
6B
  3
Metric50
350
176
  0
DICTIONARY
  5
D
102
{ACAD_REACTORS
330
C
102
}
330
C
100
AcDbDictionary
281
     1
  0
RASTERVARIABLES
  5
7A
102
{ACAD_REACTORS
330
C
102
}
330
C
100
AcDbRasterVariables
 90
        0
 70
     0
 71
     1
 72
     1
  0
DICTIONARY
  5
62
102
{ACAD_REACTORS
330
C
102
}
330
C
100
AcDbDictionary
281
     1
  3
Layout1
350
6F
  3
Layout2
350
77
  3
Model
350
73
  0
DICTIONARY
  5
10
102
{ACAD_REACTORS
330
C
102
}
330
C
100
AcDbDictionary
281
     1
  3
ByBlock
350
19
  3
ByLayer
350
11
  3
Global
350
21
  0
DICTIONARY
  5
66
102
{ACAD_REACTORS
330
C
102
}
330
C
100
AcDbDictionary
281
     1
  3
Standard
350
67
  0
DICTIONARY
  5
5F
102
{ACAD_REACTORS
330
C
102
}
330
C
100
AcDbDictionary
281
     1
  3
Standard
350
60
  0
DICTIONARY
  5
61
102
{ACAD_REACTORS
330
C
102
}
330
C
100
AcDbDictionary
281
     1
  0
ACDBDICTIONARYWDFLT
  5
E
102
{ACAD_REACTORS
330
C
102
}
330
C
100
AcDbDictionary
281
     1
  3
Normal
350
F
100
AcDbDictionaryWithDefault
340
F
  0
DICTIONARY
  5
42
102
{ACAD_REACTORS
330
C
102
}
330
C
100
AcDbDictionary
281
     1
  3
A0
350
43
  3
A1
350
44
  3
A2
350
45
  3
A3
350
46
  3
A4
350
47
  3
A5
350
48
  3
A6
350
49
  3
A7
350
4A
  3
A8
350
4B
  3
A9
350
4C
  3
B0
350
4D
  3
B1
350
4E
  3
B2
350
4F
  3
B3
350
50
  3
B4
350
51
  3
B5
350
52
  3
B6
350
53
  0
DICTIONARY
  5
68
102
{ACAD_REACTORS
330
C
102
}
330
C
100
AcDbDictionary
281
     1
  3
Imperial24
350
69
  3
Metric50
350
175
  0
DICTIONARY
  5
64
102
{ACAD_REACTORS
330
C
102
}
330
C
100
AcDbDictionary
281
     1
  3
Standard
350
65
  0
DICTIONARY
  5
29
102
{ACAD_REACTORS
330
C
102
}
330
C
100
AcDbDictionary
281
     1
  3
2dWireframe
350
2F
  3
Basic
350
2E
  3
Brighten
350
35
  3
ColorChange
350
39
  3
Conceptual
350
32
  3
Dim
350
34
  3
EdgeColorOff
350
41
  3
Facepattern
350
38
  3
Flat
350
2A
  3
FlatWithEdges
350
2B
  3
Gouraud
350
2C
  3
GouraudWithEdges
350
2D
  3
Hidden
350
31
  3
JitterOff
350
3F
  3
Linepattern
350
37
  3
OverhangOff
350
40
  3
Realistic
350
33
  3
Shaded
350
3E
  3
Shaded with edges
350
3D
  3
Shades of Gray
350
3A
  3
Sketchy
350
3B
  3
Thicken
350
36
  3
Wireframe
350
30
  3
X-Ray
350
3C
  0
XRECORD
  5
185
102
{ACAD_REACTORS
330
C
102
}
330
C
100
AcDbXrecord
280
     1
 90
        1
330
65
  0
DICTIONARY
  5
16E
102
{ACAD_REACTORS
330
C
102
}
330
C
100
AcDbDictionary
281
     1
  3
CANNOSCALE
350
173
  3
CMLEADERSTYLE
350
170
  3
CTABLESTYLE
350
16F
  3
CVIEWDETAILSTYLE
350
171
  3
CVIEWSECTIONSTYLE
350
172
  0
DICTIONARY
  5
166
102
{ACAD_REACTORS
330
C
102
}
330
C
100
AcDbDictionary
281
     1
  3
DRAWING_TOOL
350
16B
  3
REVIT_CATEGORY_MAPPING
350
169
  3
REVIT_GET_SITE
350
167
  3
REVIT_SUB_CATEGORY_MAPPING
350
16A
  0
SORTENTSTABLE
  5
16D
102
{ACAD_REACTORS
330
16C
102
}
330
16C
100
AcDbSortentsTable
330
70
  0
ACDBDETAILVIEWSTYLE
  5
6B
102
{ACAD_REACTORS
330
6A
102
}
330
6A
100
AcDbModelDocViewStyle
 70
     0
  3
Imperial24
290
     1
300
Imperial24
 90
        0
100
AcDbDetailViewStyle
 70
     0
 71
     0
 90
        3
 71
     1
340
55
 62
   256
 40
0.24
340
0
 62
   256
 40
0.24
300

 40
0.36
280
     3
 71
     2
340
5D
 90
       25
 62
   256
 71
     3
340
55
 62
   256
 40
0.24
 90
        1
 40
0.75
 90
        1
300
%<\AcVar ViewType \f "%tc1">% %<\AcVar ViewDetailId>%\PSCALE %<\AcVar ViewScale \f "%sn">%
 71
     4
340
5D
 90
       25
 62
   256
340
5D
 90
       25
 62
   256
280
     0
  0
ACDBDETAILVIEWSTYLE
  5
176
102
{ACAD_REACTORS
330
6A
102
}
330
6A
100
AcDbModelDocViewStyle
 70
     0
  3
Metric50
290
     1
300
Metric50
 90
        0
100
AcDbDetailViewStyle
 70
     0
 71
     0
 90
        3
 71
     1
340
55
 62
   256
 40
5.0
340
0
 62
   256
 40
5.0
300

 40
0.0
280
     1
 71
     2
340
5D
 90
       25
 62
   256
 71
     3
340
55
 62
   256
 40
5.0
 90
        0
 40
15.0
 90
        1
300
%<\AcVar ViewDetailId>% (%<\AcVar ViewScale \f "%sn">%)
 71
     4
340
5D
 90
       25
 62
   256
340
5D
 90
       25
 62
   256
280
     0
  0
LAYOUT
  5
6F
102
{ACAD_REACTORS
330
62
102
}
330
62
100
AcDbPlotSettings
  1

  2

  4

  6

 40
0.0
 41
0.0
 42
0.0
 43
0.0
 44
0.0
 45
0.0
 46
0.0
 47
0.0
 48
0.0
 49
0.0
140
0.0
141
0.0
142
1.0
143
1.0
 70
   688
 72
     0
 73
     0
 74
     5
  7

 75
    16
147
1.0
 76
     0
 77
     2
 78
   300
148
0.0
149
0.0
100
AcDbLayout
  1
Layout1
 70
     1
 71
     1
 10
0.0
 20
0.0
 11
12.0
 21
9.0
 12
0.0
 22
0.0
 32
0.0
 14
1.000000000000000E+20
 24
1.000000000000000E+20
 34
1.000000000000000E+20
 15
-1.000000000000000E+20
 25
-1.000000000000000E+20
 35
-1.000000000000000E+20
146
0.0
 13
0.0
 23
0.0
 33
0.0
 16
1.0
 26
0.0
 36
0.0
 17
0.0
 27
1.0
 37
0.0
 76
     0
330
6C
  0
LAYOUT
  5
77
102
{ACAD_REACTORS
330
62
102
}
330
62
100
AcDbPlotSettings
  1

  2

  4

  6

 40
0.0
 41
0.0
 42
0.0
 43
0.0
 44
0.0
 45
0.0
 46
0.0
 47
0.0
 48
0.0
 49
0.0
140
0.0
141
0.0
142
1.0
143
1.0
 70
   688
 72
     0
 73
     0
 74
     5
  7

 75
    16
147
1.0
 76
     0
 77
     2
 78
   300
148
0.0
149
0.0
100
AcDbLayout
  1
Layout2
 70
     1
 71
     2
 10
0.0
 20
0.0
 11
12.0
 21
9.0
 12
0.0
 22
0.0
 32
0.0
 14
0.0
 24
0.0
 34
0.0
 15
0.0
 25
0.0
 35
0.0
146
0.0
 13
0.0
 23
0.0
 33
0.0
 16
1.0
 26
0.0
 36
0.0
 17
0.0
 27
1.0
 37
0.0
 76
     0
330
74
  0
LAYOUT
  5
73
102
{ACAD_REACTORS
330
62
102
}
330
62
100
AcDbPlotSettings
  1

  2

  4

  6

 40
0.0
 41
0.0
 42
0.0
 43
0.0
 44
0.0
 45
0.0
 46
0.0
 47
0.0
 48
0.0
 49
0.0
140
0.0
141
0.0
142
1.0
143
1.0
 70
  1712
 72
     0
 73
     0
 74
     0
  7

 75
     0
147
1.0
 76
     0
 77
     2
 78
   300
148
0.0
149
0.0
100
AcDbLayout
  1
Model
 70
     1
 71
     0
 10
0.0
 20
0.0
 11
12.0
 21
9.0
 12
0.0
 22
0.0
 32
0.0
 14
0.0
 24
0.0
 34
0.0
 15
0.0
 25
0.0
 35
0.0
146
0.0
 13
0.0
 23
0.0
 33
0.0
 16
1.0
 26
0.0
 36
0.0
 17
0.0
 27
1.0
 37
0.0
 76
     0
330
70
331
57
  0
MATERIAL
  5
19
102
{ACAD_XDICTIONARY
360
1A
102
}
102
{ACAD_REACTORS
330
10
102
}
330
10
100
AcDbMaterial
  1
ByBlock
 72
     0
 43
0.0208333333333333
 43
0.0
 43
0.0
 43
0.0
 43
0.0
 43
0.0208333333333333
 43
0.0
 43
0.0
 43
0.0
 43
0.0
 43
1.0
 43
0.0
 43
0.0
 43
0.0
 43
0.0
 43
1.0
 77
     0
 47
0.0208333333333333
 47
0.0
 47
0.0
 47
0.0
 47
0.0
 47
0.0208333333333333
 47
0.0
 47
0.0
 47
0.0
 47
0.0
 47
1.0
 47
0.0
 47
0.0
 47
0.0
 47
0.0
 47
1.0
171
     0
 49
0.0208333333333333
 49
0.0
 49
0.0
 49
0.0
 49
0.0
 49
0.0208333333333333
 49
0.0
 49
0.0
 49
0.0
 49
0.0
 49
1.0
 49
0.0
 49
0.0
 49
0.0
 49
0.0
 49
1.0
175
     0
142
0.0208333333333333
142
0.0
142
0.0
142
0.0
142
0.0
142
0.0208333333333333
142
0.0
142
0.0
142
0.0
142
0.0
142
1.0
142
0.0
142
0.0
142
0.0
142
0.0
142
1.0
179
     0
144
0.0208333333333333
144
0.0
144
0.0
144
0.0
144
0.0
144
0.0208333333333333
144
0.0
144
0.0
144
0.0
144
0.0
144
1.0
144
0.0
144
0.0
144
0.0
144
0.0
144
1.0
147
0.0208333333333333
147
0.0
147
0.0
147
0.0
147
0.0
147
0.0208333333333333
147
0.0
147
0.0
147
0.0
147
0.0
147
1.0
147
0.0
147
0.0
147
0.0
147
0.0
147
1.0
  0
MATERIAL
  5
11
102
{ACAD_XDICTIONARY
360
12
102
}
102
{ACAD_REACTORS
330
10
102
}
330
10
100
AcDbMaterial
  1
ByLayer
 72
     0
 43
0.0208333333333333
 43
0.0
 43
0.0
 43
0.0
 43
0.0
 43
0.0208333333333333
 43
0.0
 43
0.0
 43
0.0
 43
0.0
 43
1.0
 43
0.0
 43
0.0
 43
0.0
 43
0.0
 43
1.0
 77
     0
 47
0.0208333333333333
 47
0.0
 47
0.0
 47
0.0
 47
0.0
 47
0.0208333333333333
 47
0.0
 47
0.0
 47
0.0
 47
0.0
 47
1.0
 47
0.0
 47
0.0
 47
0.0
 47
0.0
 47
1.0
171
     0
 49
0.0208333333333333
 49
0.0
 49
0.0
 49
0.0
 49
0.0
 49
0.0208333333333333
 49
0.0
 49
0.0
 49
0.0
 49
0.0
 49
1.0
 49
0.0
 49
0.0
 49
0.0
 49
0.0
 49
1.0
175
     0
142
0.0208333333333333
142
0.0
142
0.0
142
0.0
142
0.0
142
0.0208333333333333
142
0.0
142
0.0
142
0.0
142
0.0
142
1.0
142
0.0
142
0.0
142
0.0
142
0.0
142
1.0
179
     0
144
0.0208333333333333
144
0.0
144
0.0
144
0.0
144
0.0
144
0.0208333333333333
144
0.0
144
0.0
144
0.0
144
0.0
144
1.0
144
0.0
144
0.0
144
0.0
144
0.0
144
1.0
147
0.0208333333333333
147
0.0
147
0.0
147
0.0
147
0.0
147
0.0208333333333333
147
0.0
147
0.0
147
0.0
147
0.0
147
1.0
147
0.0
147
0.0
147
0.0
147
0.0
147
1.0
  0
MATERIAL
  5
21
102
{ACAD_XDICTIONARY
360
22
102
}
102
{ACAD_REACTORS
330
10
102
}
330
10
100
AcDbMaterial
  1
Global
 72
     0
 43
0.0208333333333333
 43
0.0
 43
0.0
 43
0.0
 43
0.0
 43
0.0208333333333333
 43
0.0
 43
0.0
 43
0.0
 43
0.0
 43
1.0
 43
0.0
 43
0.0
 43
0.0
 43
0.0
 43
1.0
 77
     0
 47
0.0208333333333333
 47
0.0
 47
0.0
 47
0.0
 47
0.0
 47
0.0208333333333333
 47
0.0
 47
0.0
 47
0.0
 47
0.0
 47
1.0
 47
0.0
 47
0.0
 47
0.0
 47
0.0
 47
1.0
171
     0
 49
0.0208333333333333
 49
0.0
 49
0.0
 49
0.0
 49
0.0
 49
0.0208333333333333
 49
0.0
 49
0.0
 49
0.0
 49
0.0
 49
1.0
 49
0.0
 49
0.0
 49
0.0
 49
0.0
 49
1.0
175
     0
142
0.0208333333333333
142
0.0
142
0.0
142
0.0
142
0.0
142
0.0208333333333333
142
0.0
142
0.0
142
0.0
142
0.0
142
1.0
142
0.0
142
0.0
142
0.0
142
0.0
142
1.0
179
     0
144
0.0208333333333333
144
0.0
144
0.0
144
0.0
144
0.0
144
0.0208333333333333
144
0.0
144
0.0
144
0.0
144
0.0
144
1.0
144
0.0
144
0.0
144
0.0
144
0.0
144
1.0
147
0.0208333333333333
147
0.0
147
0.0
147
0.0
147
0.0
147
0.0208333333333333
147
0.0
147
0.0
147
0.0
147
0.0
147
1.0
147
0.0
147
0.0
147
0.0
147
0.0
147
1.0
  0
MLEADERSTYLE
  5
67
102
{ACAD_REACTORS
330
66
102
}
330
66
100
AcDbMLeaderStyle
179
     2
170
     2
171
     1
172
     0
 90
        2
 40
0.0
 41
0.0
173
     1
 91
-1056964608
340
5B
 92
       -2
290
     1
 42
0.09
291
     1
 43
0.36
  3
Standard
 44
0.18
300

342
55
174
     1
178
     6
175
     1
176
     0
 93
-1056964608
 45
0.18
292
     0
297
     0
 46
0.18
 94
-1056964608
 47
1.0
 49
1.0
140
1.0
293
     1
141
0.0
294
     1
177
     0
142
1.0
295
     1
296
     0
143
0.125
271
     0
272
     9
273
     9
298
     1
  0
MLINESTYLE
  5
60
102
{ACAD_REACTORS
330
5F
102
}
330
5F
100
AcDbMlineStyle
  2
STANDARD
 70
     0
  3

 62
   256
 51
90.0
 52
90.0
 71
     2
 49
0.5
 62
   256
  6
BYLAYER
 49
-0.5
 62
   256
  6
BYLAYER
  0
ACDBPLACEHOLDER
  5
F
102
{ACAD_REACTORS
330
E
102
}
330
E
  0
SCALE
  5
43
102
{ACAD_REACTORS
330
42
102
}
330
42
100
AcDbScale
 70
     0
300
1:1
140
1.0
141
1.0
290
     1
  0
SCALE
  5
44
102
{ACAD_REACTORS
330
42
102
}
330
42
100
AcDbScale
 70
     0
300
1/128" = 1'-0"
140
0.0078125
141
12.0
290
     0
  0
SCALE
  5
45
102
{ACAD_REACTORS
330
42
102
}
330
42
100
AcDbScale
 70
     0
300
1/64" = 1'-0"
140
0.015625
141
12.0
290
     0
  0
SCALE
  5
46
102
{ACAD_REACTORS
330
42
102
}
330
42
100
AcDbScale
 70
     0
300
1/32" = 1'-0"
140
0.03125
141
12.0
290
     0
  0
SCALE
  5
47
102
{ACAD_REACTORS
330
42
102
}
330
42
100
AcDbScale
 70
     0
300
1/16" = 1'-0"
140
0.0625
141
12.0
290
     0
  0
SCALE
  5
48
102
{ACAD_REACTORS
330
42
102
}
330
42
100
AcDbScale
 70
     0
300
3/32" = 1'-0"
140
0.09375
141
12.0
290
     0
  0
SCALE
  5
49
102
{ACAD_REACTORS
330
42
102
}
330
42
100
AcDbScale
 70
     0
300
1/8" = 1'-0"
140
0.125
141
12.0
290
     0
  0
SCALE
  5
4A
102
{ACAD_REACTORS
330
42
102
}
330
42
100
AcDbScale
 70
     0
300
3/16" = 1'-0"
140
0.1875
141
12.0
290
     0
  0
SCALE
  5
4B
102
{ACAD_REACTORS
330
42
102
}
330
42
100
AcDbScale
 70
     0
300
1/4" = 1'-0"
140
0.25
141
12.0
290
     0
  0
SCALE
  5
4C
102
{ACAD_REACTORS
330
42
102
}
330
42
100
AcDbScale
 70
     0
300
3/8" = 1'-0"
140
0.375
141
12.0
290
     0
  0
SCALE
  5
4D
102
{ACAD_REACTORS
330
42
102
}
330
42
100
AcDbScale
 70
     0
300
1/2" = 1'-0"
140
0.5
141
12.0
290
     0
  0
SCALE
  5
4E
102
{ACAD_REACTORS
330
42
102
}
330
42
100
AcDbScale
 70
     0
300
3/4" = 1'-0"
140
0.75
141
12.0
290
     0
  0
SCALE
  5
4F
102
{ACAD_REACTORS
330
42
102
}
330
42
100
AcDbScale
 70
     0
300
1" = 1'-0"
140
1.0
141
12.0
290
     0
  0
SCALE
  5
50
102
{ACAD_REACTORS
330
42
102
}
330
42
100
AcDbScale
 70
     0
300
1-1/2" = 1'-0"
140
1.5
141
12.0
290
     0
  0
SCALE
  5
51
102
{ACAD_REACTORS
330
42
102
}
330
42
100
AcDbScale
 70
     0
300
3" = 1'-0"
140
3.0
141
12.0
290
     0
  0
SCALE
  5
52
102
{ACAD_REACTORS
330
42
102
}
330
42
100
AcDbScale
 70
     0
300
6" = 1'-0"
140
6.0
141
12.0
290
     0
  0
SCALE
  5
53
102
{ACAD_REACTORS
330
42
102
}
330
42
100
AcDbScale
 70
     0
300
1'-0" = 1'-0"
140
12.0
141
12.0
290
     0
  0
ACDBSECTIONVIEWSTYLE
  5
69
102
{ACAD_REACTORS
330
68
102
}
330
68
100
AcDbModelDocViewStyle
 70
     0
  3
Imperial24
290
     1
300
Imperial24
 90
        0
100
AcDbSectionViewStyle
 70
     0
 71
     0
 90
       78
 71
     1
340
55
 62
   256
 40
0.24
340
0
340
0
 62
   256
 40
0.24
300
I, O, Q, S, X, Z
 40
0.48
 90
        3
 40
0.18
 90
        1
 71
     2
340
5D
 90
       25
 62
   256
340
5D
 90
       50
 62
   256
 40
0.24
 40
0.0
 40
0.24
 71
     3
340
55
 62
   256
 40
0.24
 90
        1
 40
0.75
 90
        1
300
%<\AcVar ViewType \f "%tc1">% %<\AcVar ViewSectionStartId>%-%<\AcVar ViewSectionEndId>%\PSCALE %<\AcVar ViewScale \f "%sn">%
 71
     4
 62
   256
 62
   257
300
ANSI31
 40
1.0
 90
        0
290
     0
290
     0
 90
        6
 40
0.0
 40
1.570796326794896
 40
0.2617993877991494
 40
1.308996938995747
 40
-0.2617993877991494
 40
1.832595714594046
  0
ACDBSECTIONVIEWSTYLE
  5
175
102
{ACAD_REACTORS
330
68
102
}
330
68
100
AcDbModelDocViewStyle
 70
     0
  3
Metric50
290
     1
300
Metric50
 90
        0
100
AcDbSectionViewStyle
 70
     0
 71
     0
 90
      102
 71
     1
340
55
 62
   256
 40
5.0
340
0
340
0
 62
   256
 40
5.0
300
I, O, Q, S, X, Z
 40
10.0
 90
        0
 40
2.5
 90
        0
 71
     2
340
5D
 90
       25
 62
   256
340
5D
 90
       50
 62
   256
 40
5.0
 40
2.5
 40
5.0
 71
     3
340
55
 62
   256
 40
5.0
 90
        0
 40
15.0
 90
        1
300
%<\AcVar ViewSectionStartId>%-%<\AcVar ViewSectionEndId>% (%<\AcVar ViewScale \f "%sn">%)
 71
     4
 62
   256
 62
   257
300
ANSI31
 40
1.0
 90
        0
290
     0
290
     0
 90
        6
 40
0.0
 40
1.570796326794896
 40
0.2617993877991494
 40
1.308996938995747
 40
-0.2617993877991494
 40
1.832595714594046
  0
TABLESTYLE
  5
65
102
{ACAD_XDICTIONARY
360
183
102
}
102
{ACAD_REACTORS
330
64
102
}
330
64
100
AcDbTableStyle
280
     0
  3
Standard
 70
     0
 71
     0
 40
0.06
 41
0.06
280
     0
281
     0
  7
Standard
140
0.18
170
     2
 62
     0
 63
     7
283
     0
 90
      512
 91
        0
  1

274
    -2
284
     1
 64
     0
275
    -2
285
     1
 65
     0
276
    -2
286
     1
 66
     0
277
    -2
287
     1
 67
     0
278
    -2
288
     1
 68
     0
279
    -2
289
     1
 69
     0
  7
Standard
140
0.25
170
     5
 62
     0
 63
     7
283
     0
 90
      512
 91
        0
  1

274
    -2
284
     1
 64
     0
275
    -2
285
     1
 65
     0
276
    -2
286
     1
 66
     0
277
    -2
287
     1
 67
     0
278
    -2
288
     1
 68
     0
279
    -2
289
     1
 69
     0
  7
Standard
140
0.18
170
     5
 62
     0
 63
     7
283
     0
 90
      512
 91
        0
  1

274
    -2
284
     1
 64
     0
275
    -2
285
     1
 65
     0
276
    -2
286
     1
 66
     0
277
    -2
287
     1
 67
     0
278
    -2
288
     1
 68
     0
279
    -2
289
     1
 69
     0
  0
VISUALSTYLE
  5
2F
102
{ACAD_REACTORS
330
29
102
}
330
29
100
AcDbVisualStyle
  2
2dWireframe
 70
     4
177
     3
291
     0
 70
    58
 90
        0
176
     1
 90
        2
176
     1
 90
        0
176
     1
 90
        0
176
     1
 40
0.6
176
     1
 40
30.0
176
     1
 62
     7
420
 16777215
176
     1
 90
        1
176
     1
 90
        4
176
     1
 62
     7
176
     1
 62
   257
176
     1
 90
        1
176
     1
 90
        1
176
     1
 40
1.0
176
     1
 90
        0
176
     1
 62
   257
176
     1
 40
1.0
176
     1
 90
        1
176
     1
 90
        6
176
     1
 90
        2
176
     1
 62
     7
176
     1
 90
        5
176
     1
 90
        0
176
     1
 90
        0
176
     1
290
     0
176
     1
 90
        1
176
     1
 40
0.0
176
     1
 90
        0
176
     1
290
     1
176
     1
290
     1
176
     1
290
     0
176
     1
290
     0
176
     1
290
     0
176
     1
290
     0
176
     1
290
     0
176
     1
290
     0
176
     1
290
     0
176
     1
 90
       50
176
     1
 40
0.0
176
     1
 40
1.0
176
     1
 90
        0
176
     1
 62
    18
420
        0
176
     1
 90
       50
176
     1
 90
        3
176
     1
 62
     5
420
      255
176
     1
290
     0
176
     1
 90
       50
176
     1
 90
       50
176
     1
 90
       50
176
     1
290
     0
176
     1
 90
       50
176
     1
 62
   256
176
     0
 40
1.0
176
     0
 90
        2
176
     1
  1
strokes_ogs.tif
176
     1
290
     0
176
     1
 40
1.0
176
     1
 40
1.0
176
     1
  0
VISUALSTYLE
  5
2E
102
{ACAD_REACTORS
330
29
102
}
330
29
100
AcDbVisualStyle
  2
Basic
 70
     7
177
     3
291
     1
 70
    58
 90
        1
176
     1
 90
        0
176
     1
 90
        1
176
     1
 90
        0
176
     1
 40
0.6
176
     1
 40
30.0
176
     1
 62
     7
420
 16777215
176
     1
 90
        0
176
     1
 90
        4
176
     1
 62
     7
176
     1
 62
   257
176
     1
 90
        1
176
     1
 90
        1
176
     1
 40
1.0
176
     1
 90
        8
176
     1
 62
     7
176
     1
 40
1.0
176
     1
 90
        1
176
     1
 90
        6
176
     1
 90
        2
176
     1
 62
     7
176
     1
 90
        5
176
     1
 90
        0
176
     1
 90
        0
176
     1
290
     0
176
     1
 90
        1
176
     1
 40
0.0
176
     1
 90
        0
176
     1
290
     0
176
     1
290
     1
176
     1
290
     1
176
     1
290
     0
176
     1
290
     0
176
     1
290
     0
176
     1
290
     0
176
     1
290
     0
176
     1
290
     0
176
     1
 90
       50
176
     1
 40
0.0
176
     1
 40
1.0
176
     1
 90
        0
176
     1
 62
    18
420
        0
176
     1
 90
       50
176
     1
 90
        3
176
     1
 62
     5
420
      255
176
     1
290
     0
176
     1
 90
       50
176
     1
 90
       50
176
     1
 90
       50
176
     1
290
     0
176
     1
 90
       50
176
     1
 62
   256
176
     0
 40
1.0
176
     0
 90
        2
176
     1
  1
strokes_ogs.tif
176
     1
290
     0
176
     1
 40
1.0
176
     1
 40
1.0
176
     1
  0
VISUALSTYLE
  5
35
102
{ACAD_REACTORS
330
29
102
}
330
29
100
AcDbVisualStyle
  2
Brighten
 70
    12
177
     3
291
     1
 70
    58
 90
        2
176
     1
 90
        2
176
     1
 90
        0
176
     1
 90
        0
176
     1
 40
0.6
176
     1
 40
30.0
176
     1
 62
     7
420
 16777215
176
     1
 90
        1
176
     1
 90
        4
176
     1
 62
     7
176
     1
 62
   257
176
     1
 90
        1
176
     1
 90
        1
176
     1
 40
1.0
176
     1
 90
        8
176
     1
 62
     7
176
     1
 40
1.0
176
     1
 90
        1
176
     1
 90
        6
176
     1
 90
        2
176
     1
 62
     7
176
     1
 90
        5
176
     1
 90
        0
176
     1
 90
        0
176
     1
290
     0
176
     1
 90
        1
176
     1
 40
50.0
176
     1
 90
        0
176
     1
290
     0
176
     1
290
     1
176
     1
290
     1
176
     1
290
     0
176
     1
290
     0
176
     1
290
     0
176
     1
290
     0
176
     1
290
     0
176
     1
290
     0
176
     1
 90
       50
176
     1
 40
0.0
176
     1
 40
1.0
176
     1
 90
        0
176
     1
 62
    18
420
        0
176
     1
 90
       50
176
     1
 90
        3
176
     1
 62
     5
420
      255
176
     1
290
     0
176
     1
 90
       50
176
     1
 90
       50
176
     1
 90
       50
176
     1
290
     0
176
     1
 90
       50
176
     1
 62
   256
176
     0
 40
1.0
176
     0
 90
        2
176
     1
  1
strokes_ogs.tif
176
     1
290
     0
176
     1
 40
1.0
176
     1
 40
1.0
176
     1
  0
VISUALSTYLE
  5
39
102
{ACAD_REACTORS
330
29
102
}
330
29
100
AcDbVisualStyle
  2
ColorChange
 70
    16
177
     3
291
     1
 70
    58
 90
        2
176
     1
 90
        2
176
     1
 90
        3
176
     1
 90
        0
176
     1
 40
0.6
176
     1
 40
30.0
176
     1
 62
     8
420
  8421504
176
     1
 90
        1
176
     1
 90
        4
176
     1
 62
     7
176
     1
 62
   257
176
     1
 90
        1
176
     1
 90
        1
176
     1
 40
1.0
176
     1
 90
        8
176
     1
 62
     8
420
  8421504
176
     1
 40
1.0
176
     1
 90
        1
176
     1
 90
        6
176
     1
 90
        2
176
     1
 62
     7
176
     1
 90
        5
176
     1
 90
        0
176
     1
 90
        0
176
     1
290
     0
176
     1
 90
        1
176
     1
 40
0.0
176
     1
 90
        0
176
     1
290
     0
176
     1
290
     1
176
     1
290
     1
176
     1
290
     0
176
     1
290
     0
176
     1
290
     0
176
     1
290
     0
176
     1
290
     0
176
     1
290
     0
176
     1
 90
       50
176
     1
 40
0.0
176
     1
 40
1.0
176
     1
 90
        0
176
     1
 62
    18
420
        0
176
     1
 90
       50
176
     1
 90
        3
176
     1
 62
     5
420
      255
176
     1
290
     0
176
     1
 90
       50
176
     1
 90
       50
176
     1
 90
       50
176
     1
290
     0
176
     1
 90
       50
176
     1
 62
   256
176
     0
 40
1.0
176
     0
 90
        2
176
     1
  1
strokes_ogs.tif
176
     1
290
     0
176
     1
 40
1.0
176
     1
 40
1.0
176
     1
  0
VISUALSTYLE
  5
32
102
{ACAD_REACTORS
330
29
102
}
330
29
100
AcDbVisualStyle
  2
Conceptual
 70
     9
177
     3
291
     0
 70
    58
 90
        3
176
     1
 90
        2
176
     1
 90
        0
176
     1
 90
        0
176
     1
 40
0.6
176
     1
 40
30.0
176
     1
 62
     7
420
 16777215
176
     1
 90
        2
176
     1
 90
        2
176
     1
 62
     7
176
     1
 62
   257
176
     1
 90
        1
176
     1
 90
        1
176
     1
 40
179.0
176
     1
 90
        8
176
     1
 62
     7
176
     1
 40
1.0
176
     1
 90
        1
176
     1
 90
        6
176
     1
 90
        2
176
     1
 62
     7
176
     1
 90
        3
176
     1
 90
        0
176
     1
 90
        0
176
     1
290
     0
176
     1
 90
        1
176
     1
 40
0.0
176
     1
 90
        0
176
     1
290
     0
176
     1
290
     1
176
     1
290
     1
176
     1
290
     0
176
     1
290
     0
176
     1
290
     0
176
     1
290
     0
176
     1
290
     0
176
     1
290
     0
176
     1
 90
       50
176
     1
 40
0.0
176
     1
 40
1.0
176
     1
 90
        0
176
     1
 62
    18
420
        0
176
     1
 90
       50
176
     1
 90
        3
176
     1
 62
     5
420
      255
176
     1
290
     0
176
     1
 90
       50
176
     1
 90
       50
176
     1
 90
       50
176
     1
290
     0
176
     1
 90
       50
176
     1
 62
   256
176
     0
 40
1.0
176
     0
 90
        2
176
     1
  1
strokes_ogs.tif
176
     1
290
     0
176
     1
 40
1.0
176
     1
 40
1.0
176
     1
  0
VISUALSTYLE
  5
34
102
{ACAD_REACTORS
330
29
102
}
330
29
100
AcDbVisualStyle
  2
Dim
 70
    11
177
     3
291
     1
 70
    58
 90
        2
176
     1
 90
        2
176
     1
 90
        0
176
     1
 90
        0
176
     1
 40
0.6
176
     1
 40
30.0
176
     1
 62
     7
420
 16777215
176
     1
 90
        1
176
     1
 90
        4
176
     1
 62
     7
176
     1
 62
   257
176
     1
 90
        1
176
     1
 90
        1
176
     1
 40
1.0
176
     1
 90
        8
176
     1
 62
     7
176
     1
 40
1.0
176
     1
 90
        1
176
     1
 90
        6
176
     1
 90
        2
176
     1
 62
     7
176
     1
 90
        5
176
     1
 90
        0
176
     1
 90
        0
176
     1
290
     0
176
     1
 90
        1
176
     1
 40
-50.0
176
     1
 90
        0
176
     1
290
     0
176
     1
290
     1
176
     1
290
     1
176
     1
290
     0
176
     1
290
     0
176
     1
290
     0
176
     1
290
     0
176
     1
290
     0
176
     1
290
     0
176
     1
 90
       50
176
     1
 40
0.0
176
     1
 40
1.0
176
     1
 90
        0
176
     1
 62
    18
420
        0
176
     1
 90
       50
176
     1
 90
        3
176
     1
 62
     5
420
      255
176
     1
290
     0
176
     1
 90
       50
176
     1
 90
       50
176
     1
 90
       50
176
     1
290
     0
176
     1
 90
       50
176
     1
 62
   256
176
     0
 40
1.0
176
     0
 90
        2
176
     1
  1
strokes_ogs.tif
176
     1
290
     0
176
     1
 40
1.0
176
     1
 40
1.0
176
     1
  0
VISUALSTYLE
  5
41
102
{ACAD_REACTORS
330
29
102
}
330
29
100
AcDbVisualStyle
  2
EdgeColorOff
 70
    22
177
     3
291
     1
 70
    58
 90
        2
176
     0
 90
        2
176
     0
 90
        0
176
     0
 90
        0
176
     0
 40
0.6
176
     0
 40
30.0
176
     0
 62
     7
420
 16777215
176
     0
 90
        1
176
     0
 90
        4
176
     0
 62
     7
176
     0
 62
   257
176
     0
 90
        1
176
     0
 90
        1
176
     0
 40
1.0
176
     0
 90
        8
176
     2
 62
     7
176
     0
 40
1.0
176
     0
 90
        1
176
     0
 90
        6
176
     0
 90
        2
176
     0
 62
     7
176
     0
 90
        5
176
     0
 90
        0
176
     0
 90
        0
176
     0
290
     0
176
     0
 90
        1
176
     0
 40
0.0
176
     0
 90
        0
176
     0
290
     0
176
     0
290
     1
176
     0
290
     1
176
     0
290
     0
176
     0
290
     0
176
     0
290
     0
176
     0
290
     0
176
     0
290
     0
176
     0
290
     0
176
     0
 90
       50
176
     0
 40
0.0
176
     0
 40
1.0
176
     0
 90
        0
176
     0
 62
    18
420
        0
176
     0
 90
       50
176
     0
 90
        3
176
     0
 62
     5
420
      255
176
     0
290
     0
176
     0
 90
       50
176
     0
 90
       50
176
     0
 90
       50
176
     0
290
     0
176
     0
 90
       50
176
     0
 62
   256
176
     0
 40
1.0
176
     0
 90
        2
176
     0
  1
strokes_ogs.tif
176
     0
290
     0
176
     0
 40
1.0
176
     0
 40
1.0
176
     0
  0
VISUALSTYLE
  5
38
102
{ACAD_REACTORS
330
29
102
}
330
29
100
AcDbVisualStyle
  2
Facepattern
 70
    15
177
     3
291
     1
 70
    58
 90
        2
176
     1
 90
        2
176
     1
 90
        0
176
     1
 90
        0
176
     1
 40
0.6
176
     1
 40
30.0
176
     1
 62
     7
420
 16777215
176
     1
 90
        1
176
     1
 90
        4
176
     1
 62
     7
176
     1
 62
   257
176
     1
 90
        1
176
     1
 90
        1
176
     1
 40
1.0
176
     1
 90
        8
176
     1
 62
     7
176
     1
 40
1.0
176
     1
 90
        1
176
     1
 90
        6
176
     1
 90
        2
176
     1
 62
     7
176
     1
 90
        5
176
     1
 90
        0
176
     1
 90
        0
176
     1
290
     0
176
     1
 90
        1
176
     1
 40
0.0
176
     1
 90
        0
176
     1
290
     0
176
     1
290
     1
176
     1
290
     1
176
     1
290
     0
176
     1
290
     0
176
     1
290
     0
176
     1
290
     0
176
     1
290
     0
176
     1
290
     0
176
     1
 90
       50
176
     1
 40
0.0
176
     1
 40
1.0
176
     1
 90
        0
176
     1
 62
    18
420
        0
176
     1
 90
       50
176
     1
 90
        3
176
     1
 62
     5
420
      255
176
     1
290
     0
176
     1
 90
       50
176
     1
 90
       50
176
     1
 90
       50
176
     1
290
     0
176
     1
 90
       50
176
     1
 62
   256
176
     0
 40
1.0
176
     0
 90
        2
176
     1
  1
strokes_ogs.tif
176
     1
290
     0
176
     1
 40
1.0
176
     1
 40
1.0
176
     1
  0
VISUALSTYLE
  5
2A
102
{ACAD_REACTORS
330
29
102
}
330
29
100
AcDbVisualStyle
  2
Flat
 70
     0
177
     3
291
     1
 70
    58
 90
        2
176
     1
 90
        1
176
     1
 90
        1
176
     1
 90
        2
176
     1
 40
0.6
176
     1
 40
30.0
176
     1
 62
     7
420
 16777215
176
     1
 90
        0
176
     1
 90
        0
176
     1
 62
     7
176
     1
 62
   257
176
     1
 90
        1
176
     1
 90
        1
176
     1
 40
1.0
176
     1
 90
        8
176
     1
 62
     7
176
     1
 40
1.0
176
     1
 90
        1
176
     1
 90
        6
176
     1
 90
        2
176
     1
 62
     7
176
     1
 90
        5
176
     1
 90
        0
176
     1
 90
        0
176
     1
290
     0
176
     1
 90
       13
176
     1
 40
0.0
176
     1
 90
        0
176
     1
290
     0
176
     1
290
     1
176
     1
290
     1
176
     1
290
     0
176
     1
290
     0
176
     1
290
     0
176
     1
290
     0
176
     1
290
     0
176
     1
290
     0
176
     1
 90
       50
176
     1
 40
0.0
176
     1
 40
1.0
176
     1
 90
        0
176
     1
 62
    18
420
        0
176
     1
 90
       50
176
     1
 90
        3
176
     1
 62
     5
420
      255
176
     1
290
     0
176
     1
 90
       50
176
     1
 90
       50
176
     1
 90
       50
176
     1
290
     0
176
     1
 90
       50
176
     1
 62
   256
176
     0
 40
1.0
176
     0
 90
        2
176
     1
  1
strokes_ogs.tif
176
     1
290
     0
176
     1
 40
1.0
176
     1
 40
1.0
176
     1
  0
VISUALSTYLE
  5
2B
102
{ACAD_REACTORS
330
29
102
}
330
29
100
AcDbVisualStyle
  2
FlatWithEdges
 70
     1
177
     3
291
     1
 70
    58
 90
        2
176
     1
 90
        1
176
     1
 90
        1
176
     1
 90
        2
176
     1
 40
0.6
176
     1
 40
30.0
176
     1
 62
     7
420
 16777215
176
     1
 90
        1
176
     1
 90
        0
176
     1
 62
     7
176
     1
 62
   257
176
     1
 90
        1
176
     1
 90
        1
176
     1
 40
1.0
176
     1
 90
        0
176
     1
 62
   257
176
     1
 40
1.0
176
     1
 90
        1
176
     1
 90
        6
176
     1
 90
        2
176
     1
 62
     7
176
     1
 90
        5
176
     1
 90
        0
176
     1
 90
        0
176
     1
290
     0
176
     1
 90
       13
176
     1
 40
0.0
176
     1
 90
        0
176
     1
290
     0
176
     1
290
     1
176
     1
290
     1
176
     1
290
     0
176
     1
290
     0
176
     1
290
     0
176
     1
290
     0
176
     1
290
     0
176
     1
290
     0
176
     1
 90
       50
176
     1
 40
0.0
176
     1
 40
1.0
176
     1
 90
        0
176
     1
 62
    18
420
        0
176
     1
 90
       50
176
     1
 90
        3
176
     1
 62
     5
420
      255
176
     1
290
     0
176
     1
 90
       50
176
     1
 90
       50
176
     1
 90
       50
176
     1
290
     0
176
     1
 90
       50
176
     1
 62
   256
176
     0
 40
1.0
176
     0
 90
        2
176
     1
  1
strokes_ogs.tif
176
     1
290
     0
176
     1
 40
1.0
176
     1
 40
1.0
176
     1
  0
VISUALSTYLE
  5
2C
102
{ACAD_REACTORS
330
29
102
}
330
29
100
AcDbVisualStyle
  2
Gouraud
 70
     2
177
     3
291
     1
 70
    58
 90
        2
176
     1
 90
        2
176
     1
 90
        1
176
     1
 90
        2
176
     1
 40
0.6
176
     1
 40
30.0
176
     1
 62
     7
420
 16777215
176
     1
 90
        0
176
     1
 90
        0
176
     1
 62
     7
176
     1
 62
   257
176
     1
 90
        1
176
     1
 90
        1
176
     1
 40
1.0
176
     1
 90
        0
176
     1
 62
     7
176
     1
 40
1.0
176
     1
 90
        1
176
     1
 90
        6
176
     1
 90
        2
176
     1
 62
     7
176
     1
 90
        5
176
     1
 90
        0
176
     1
 90
        0
176
     1
290
     0
176
     1
 90
       13
176
     1
 40
0.0
176
     1
 90
        0
176
     1
290
     0
176
     1
290
     1
176
     1
290
     1
176
     1
290
     0
176
     1
290
     0
176
     1
290
     0
176
     1
290
     0
176
     1
290
     0
176
     1
290
     0
176
     1
 90
       50
176
     1
 40
0.0
176
     1
 40
1.0
176
     1
 90
        0
176
     1
 62
    18
420
        0
176
     1
 90
       50
176
     1
 90
        3
176
     1
 62
     5
420
      255
176
     1
290
     0
176
     1
 90
       50
176
     1
 90
       50
176
     1
 90
       50
176
     1
290
     0
176
     1
 90
       50
176
     1
 62
   256
176
     0
 40
1.0
176
     0
 90
        2
176
     1
  1
strokes_ogs.tif
176
     1
290
     0
176
     1
 40
1.0
176
     1
 40
1.0
176
     1
  0
VISUALSTYLE
  5
2D
102
{ACAD_REACTORS
330
29
102
}
330
29
100
AcDbVisualStyle
  2
GouraudWithEdges
 70
     3
177
     3
291
     1
 70
    58
 90
        2
176
     1
 90
        2
176
     1
 90
        1
176
     1
 90
        2
176
     1
 40
0.6
176
     1
 40
30.0
176
     1
 62
     7
420
 16777215
176
     1
 90
        1
176
     1
 90
        0
176
     1
 62
     7
176
     1
 62
   257
176
     1
 90
        1
176
     1
 90
        1
176
     1
 40
1.0
176
     1
 90
        0
176
     1
 62
   257
176
     1
 40
1.0
176
     1
 90
        1
176
     1
 90
        6
176
     1
 90
        2
176
     1
 62
     7
176
     1
 90
        5
176
     1
 90
        0
176
     1
 90
        0
176
     1
290
     0
176
     1
 90
       13
176
     1
 40
0.0
176
     1
 90
        0
176
     1
290
     0
176
     1
290
     1
176
     1
290
     1
176
     1
290
     0
176
     1
290
     0
176
     1
290
     0
176
     1
290
     0
176
     1
290
     0
176
     1
290
     0
176
     1
 90
       50
176
     1
 40
0.0
176
     1
 40
1.0
176
     1
 90
        0
176
     1
 62
    18
420
        0
176
     1
 90
       50
176
     1
 90
        3
176
     1
 62
     5
420
      255
176
     1
290
     0
176
     1
 90
       50
176
     1
 90
       50
176
     1
 90
       50
176
     1
290
     0
176
     1
 90
       50
176
     1
 62
   256
176
     0
 40
1.0
176
     0
 90
        2
176
     1
  1
strokes_ogs.tif
176
     1
290
     0
176
     1
 40
1.0
176
     1
 40
1.0
176
     1
  0
VISUALSTYLE
  5
31
102
{ACAD_REACTORS
330
29
102
}
330
29
100
AcDbVisualStyle
  2
Hidden
 70
     6
177
     3
291
     0
 70
    58
 90
        1
176
     1
 90
        2
176
     1
 90
        2
176
     1
 90
        0
176
     1
 40
0.6
176
     1
 40
30.0
176
     1
 62
     7
420
 16777215
176
     1
 90
        2
176
     1
 90
        2
176
     1
 62
     7
176
     1
 62
   257
176
     1
 90
        2
176
     1
 90
        1
176
     1
 40
40.0
176
     1
 90
        0
176
     1
 62
   257
176
     1
 40
1.0
176
     1
 90
        1
176
     1
 90
        6
176
     1
 90
        2
176
     1
 62
     7
176
     1
 90
        3
176
     1
 90
        0
176
     1
 90
        0
176
     1
290
     0
176
     1
 90
        1
176
     1
 40
0.0
176
     1
 90
        0
176
     1
290
     0
176
     1
290
     1
176
     1
290
     1
176
     1
290
     0
176
     1
290
     0
176
     1
290
     0
176
     1
290
     0
176
     1
290
     0
176
     1
290
     0
176
     1
 90
       50
176
     1
 40
0.0
176
     1
 40
1.0
176
     1
 90
        0
176
     1
 62
    18
420
        0
176
     1
 90
       50
176
     1
 90
        3
176
     1
 62
     5
420
      255
176
     1
290
     0
176
     1
 90
       50
176
     1
 90
       50
176
     1
 90
       50
176
     1
290
     0
176
     1
 90
       50
176
     1
 62
   256
176
     0
 40
1.0
176
     0
 90
        2
176
     1
  1
strokes_ogs.tif
176
     1
290
     0
176
     1
 40
1.0
176
     1
 40
1.0
176
     1
  0
VISUALSTYLE
  5
3F
102
{ACAD_REACTORS
330
29
102
}
330
29
100
AcDbVisualStyle
  2
JitterOff
 70
    20
177
     3
291
     1
 70
    58
 90
        2
176
     0
 90
        2
176
     0
 90
        0
176
     0
 90
        0
176
     0
 40
0.6
176
     0
 40
30.0
176
     0
 62
     7
420
 16777215
176
     0
 90
        1
176
     0
 90
        4
176
     0
 62
     7
176
     0
 62
   257
176
     0
 90
        1
176
     0
 90
        1
176
     0
 40
1.0
176
     0
 90
       10
176
     2
 62
     7
176
     0
 40
1.0
176
     0
 90
        1
176
     0
 90
        6
176
     0
 90
        2
176
     0
 62
     7
176
     0
 90
        5
176
     0
 90
        0
176
     0
 90
        0
176
     0
290
     0
176
     0
 90
        1
176
     0
 40
0.0
176
     0
 90
        0
176
     0
290
     0
176
     0
290
     1
176
     0
290
     1
176
     0
290
     0
176
     0
290
     0
176
     0
290
     0
176
     0
290
     0
176
     0
290
     0
176
     0
290
     0
176
     0
 90
       50
176
     0
 40
0.0
176
     0
 40
1.0
176
     0
 90
        0
176
     0
 62
    18
420
        0
176
     0
 90
       50
176
     0
 90
        3
176
     0
 62
     5
420
      255
176
     0
290
     0
176
     0
 90
       50
176
     0
 90
       50
176
     0
 90
       50
176
     0
290
     0
176
     0
 90
       50
176
     0
 62
   256
176
     0
 40
1.0
176
     0
 90
        2
176
     0
  1
strokes_ogs.tif
176
     0
290
     0
176
     0
 40
1.0
176
     0
 40
1.0
176
     0
  0
VISUALSTYLE
  5
37
102
{ACAD_REACTORS
330
29
102
}
330
29
100
AcDbVisualStyle
  2
Linepattern
 70
    14
177
     3
291
     1
 70
    58
 90
        2
176
     1
 90
        2
176
     1
 90
        0
176
     1
 90
        0
176
     1
 40
0.6
176
     1
 40
30.0
176
     1
 62
     7
420
 16777215
176
     1
 90
        1
176
     1
 90
        4
176
     1
 62
     7
176
     1
 62
   257
176
     1
 90
        7
176
     1
 90
        7
176
     1
 40
1.0
176
     1
 90
        8
176
     1
 62
     7
176
     1
 40
1.0
176
     1
 90
        1
176
     1
 90
        6
176
     1
 90
        2
176
     1
 62
     7
176
     1
 90
        5
176
     1
 90
        0
176
     1
 90
        0
176
     1
290
     0
176
     1
 90
        1
176
     1
 40
0.0
176
     1
 90
        0
176
     1
290
     0
176
     1
290
     1
176
     1
290
     1
176
     1
290
     0
176
     1
290
     0
176
     1
290
     0
176
     1
290
     0
176
     1
290
     0
176
     1
290
     0
176
     1
 90
       50
176
     1
 40
0.0
176
     1
 40
1.0
176
     1
 90
        0
176
     1
 62
    18
420
        0
176
     1
 90
       50
176
     1
 90
        3
176
     1
 62
     5
420
      255
176
     1
290
     0
176
     1
 90
       50
176
     1
 90
       50
176
     1
 90
       50
176
     1
290
     0
176
     1
 90
       50
176
     1
 62
   256
176
     0
 40
1.0
176
     0
 90
        2
176
     1
  1
strokes_ogs.tif
176
     1
290
     0
176
     1
 40
1.0
176
     1
 40
1.0
176
     1
  0
VISUALSTYLE
  5
40
102
{ACAD_REACTORS
330
29
102
}
330
29
100
AcDbVisualStyle
  2
OverhangOff
 70
    21
177
     3
291
     1
 70
    58
 90
        2
176
     0
 90
        2
176
     0
 90
        0
176
     0
 90
        0
176
     0
 40
0.6
176
     0
 40
30.0
176
     0
 62
     7
420
 16777215
176
     0
 90
        1
176
     0
 90
        4
176
     0
 62
     7
176
     0
 62
   257
176
     0
 90
        1
176
     0
 90
        1
176
     0
 40
1.0
176
     0
 90
        9
176
     2
 62
     7
176
     0
 40
1.0
176
     0
 90
        1
176
     0
 90
        6
176
     0
 90
        2
176
     0
 62
     7
176
     0
 90
        5
176
     0
 90
        0
176
     0
 90
        0
176
     0
290
     0
176
     0
 90
        1
176
     0
 40
0.0
176
     0
 90
        0
176
     0
290
     0
176
     0
290
     1
176
     0
290
     1
176
     0
290
     0
176
     0
290
     0
176
     0
290
     0
176
     0
290
     0
176
     0
290
     0
176
     0
290
     0
176
     0
 90
       50
176
     0
 40
0.0
176
     0
 40
1.0
176
     0
 90
        0
176
     0
 62
    18
420
        0
176
     0
 90
       50
176
     0
 90
        3
176
     0
 62
     5
420
      255
176
     0
290
     0
176
     0
 90
       50
176
     0
 90
       50
176
     0
 90
       50
176
     0
290
     0
176
     0
 90
       50
176
     0
 62
   256
176
     0
 40
1.0
176
     0
 90
        2
176
     0
  1
strokes_ogs.tif
176
     0
290
     0
176
     0
 40
1.0
176
     0
 40
1.0
176
     0
  0
VISUALSTYLE
  5
33
102
{ACAD_REACTORS
330
29
102
}
330
29
100
AcDbVisualStyle
  2
Realistic
 70
     8
177
     3
291
     0
 70
    58
 90
        2
176
     1
 90
        3
176
     1
 90
        0
176
     1
 90
        2
176
     1
 40
0.6
176
     1
 40
30.0
176
     1
 62
     7
420
 16777215
176
     1
 90
        0
176
     1
 90
        0
176
     1
 62
     7
176
     1
 62
   257
176
     1
 90
        1
176
     1
 90
        1
176
     1
 40
1.0
176
     1
 90
        8
176
     1
 62
   257
176
     1
 40
1.0
176
     1
 90
        1
176
     1
 90
        6
176
     1
 90
        2
176
     1
 62
     7
176
     1
 90
        3
176
     1
 90
        0
176
     1
 90
        0
176
     1
290
     0
176
     1
 90
       13
176
     1
 40
0.0
176
     1
 90
        0
176
     1
290
     0
176
     1
290
     1
176
     1
290
     1
176
     1
290
     0
176
     1
290
     0
176
     1
290
     0
176
     1
290
     0
176
     1
290
     0
176
     1
290
     0
176
     1
 90
       50
176
     1
 40
0.0
176
     1
 40
1.0
176
     1
 90
        0
176
     1
 62
    18
420
        0
176
     1
 90
       50
176
     1
 90
        3
176
     1
 62
     5
420
      255
176
     1
290
     0
176
     1
 90
       50
176
     1
 90
       50
176
     1
 90
       50
176
     1
290
     0
176
     1
 90
       50
176
     1
 62
   256
176
     0
 40
1.0
176
     0
 90
        2
176
     1
  1
strokes_ogs.tif
176
     1
290
     0
176
     1
 40
1.0
176
     1
 40
1.0
176
     1
  0
VISUALSTYLE
  5
3E
102
{ACAD_REACTORS
330
29
102
}
330
29
100
AcDbVisualStyle
  2
Shaded
 70
    27
177
     3
291
     0
 70
    58
 90
        2
176
     1
 90
        2
176
     1
 90
        1
176
     1
 90
        2
176
     1
 40
0.6
176
     1
 40
30.0
176
     1
 62
     7
420
 16777215
176
     1
 90
        0
176
     1
 90
        4
176
     1
 62
     7
176
     1
 62
   257
176
     1
 90
        1
176
     1
 90
        1
176
     1
 40
1.0
176
     1
 90
        8
176
     1
 62
   257
176
     1
 40
1.0
176
     1
 90
        1
176
     1
 90
        6
176
     1
 90
        2
176
     1
 62
     8
420
  7895160
176
     1
 90
        3
176
     1
 90
        0
176
     1
 90
        0
176
     1
290
     0
176
     1
 90
        5
176
     1
 40
0.0
176
     1
 90
        0
176
     1
290
     0
176
     1
290
     1
176
     1
290
     1
176
     1
290
     0
176
     1
290
     0
176
     1
290
     0
176
     1
290
     0
176
     1
290
     0
176
     1
290
     0
176
     1
 90
       50
176
     1
 40
0.0
176
     1
 40
1.0
176
     1
 90
        0
176
     1
 62
    18
420
        0
176
     1
 90
       50
176
     1
 90
        3
176
     1
 62
     5
420
      255
176
     1
290
     0
176
     1
 90
       50
176
     1
 90
       50
176
     1
 90
       50
176
     1
290
     0
176
     1
 90
       50
176
     1
 62
   256
176
     0
 40
1.0
176
     0
 90
        2
176
     1
  1
strokes_ogs.tif
176
     1
290
     0
176
     1
 40
1.0
176
     1
 40
1.0
176
     1
  0
VISUALSTYLE
  5
3D
102
{ACAD_REACTORS
330
29
102
}
330
29
100
AcDbVisualStyle
  2
Shaded with edges
 70
    26
177
     3
291
     0
 70
    58
 90
        2
176
     1
 90
        2
176
     1
 90
        1
176
     1
 90
        2
176
     1
 40
0.6
176
     1
 40
30.0
176
     1
 62
     7
420
 16777215
176
     1
 90
        1
176
     1
 90
        2
176
     1
 62
     7
176
     1
 62
   257
176
     1
 90
        2
176
     1
 90
        1
176
     1
 40
1.0
176
     1
 90
        8
176
     1
 62
   257
176
     1
 40
1.0
176
     1
 90
        1
176
     1
 90
        6
176
     1
 90
        2
176
     1
 62
     7
176
     1
 90
        3
176
     1
 90
        0
176
     1
 90
        0
176
     1
290
     0
176
     1
 90
        5
176
     1
 40
0.0
176
     1
 90
        0
176
     1
290
     0
176
     1
290
     1
176
     1
290
     1
176
     1
290
     0
176
     1
290
     0
176
     1
290
     0
176
     1
290
     0
176
     1
290
     0
176
     1
290
     0
176
     1
 90
       50
176
     1
 40
0.0
176
     1
 40
1.0
176
     1
 90
        0
176
     1
 62
    18
420
        0
176
     1
 90
       50
176
     1
 90
        3
176
     1
 62
     5
420
      255
176
     1
290
     0
176
     1
 90
       50
176
     1
 90
       50
176
     1
 90
       50
176
     1
290
     0
176
     1
 90
       50
176
     1
 62
   256
176
     0
 40
1.0
176
     0
 90
        2
176
     1
  1
strokes_ogs.tif
176
     1
290
     0
176
     1
 40
1.0
176
     1
 40
1.0
176
     1
  0
VISUALSTYLE
  5
3A
102
{ACAD_REACTORS
330
29
102
}
330
29
100
AcDbVisualStyle
  2
Shades of Gray
 70
    23
177
     3
291
     0
 70
    58
 90
        2
176
     1
 90
        2
176
     1
 90
        3
176
     1
 90
        0
176
     1
 40
0.6
176
     1
 40
30.0
176
     1
 62
     7
420
 16777215
176
     1
 90
        2
176
     1
 90
        2
176
     1
 62
     7
176
     1
 62
     7
176
     1
 90
        1
176
     1
 90
        1
176
     1
 40
40.0
176
     1
 90
        8
176
     1
 62
     7
176
     1
 40
1.0
176
     1
 90
        1
176
     1
 90
        6
176
     1
 90
        2
176
     1
 62
     7
176
     1
 90
        3
176
     1
 90
        0
176
     1
 90
        0
176
     1
290
     0
176
     1
 90
        1
176
     1
 40
0.0
176
     1
 90
        0
176
     1
290
     0
176
     1
290
     1
176
     1
290
     1
176
     1
290
     0
176
     1
290
     0
176
     1
290
     0
176
     1
290
     0
176
     1
290
     0
176
     1
290
     0
176
     1
 90
       50
176
     1
 40
0.0
176
     1
 40
1.0
176
     1
 90
        0
176
     1
 62
    18
420
        0
176
     1
 90
       50
176
     1
 90
        3
176
     1
 62
     5
420
      255
176
     1
290
     0
176
     1
 90
       50
176
     1
 90
       50
176
     1
 90
       50
176
     1
290
     0
176
     1
 90
       50
176
     1
 62
   256
176
     0
 40
1.0
176
     0
 90
        2
176
     1
  1
strokes_ogs.tif
176
     1
290
     0
176
     1
 40
1.0
176
     1
 40
1.0
176
     1
  0
VISUALSTYLE
  5
3B
102
{ACAD_REACTORS
330
29
102
}
330
29
100
AcDbVisualStyle
  2
Sketchy
 70
    24
177
     3
291
     0
 70
    58
 90
        1
176
     1
 90
        2
176
     1
 90
        2
176
     1
 90
        0
176
     1
 40
0.6
176
     1
 40
30.0
176
     1
 62
     7
420
 16777215
176
     1
 90
        2
176
     1
 90
        2
176
     1
 62
     7
176
     1
 62
     7
176
     1
 90
        1
176
     1
 90
        1
176
     1
 40
40.0
176
     1
 90
       11
176
     1
 62
     7
176
     1
 40
1.0
176
     1
 90
        1
176
     1
 90
        6
176
     1
 90
        2
176
     1
 62
     7
176
     1
 90
        6
176
     1
 90
        0
176
     1
 90
        0
176
     1
290
     0
176
     1
 90
        1
176
     1
 40
0.0
176
     1
 90
        0
176
     1
290
     0
176
     1
290
     1
176
     1
290
     1
176
     1
290
     0
176
     1
290
     0
176
     1
290
     0
176
     1
290
     0
176
     1
290
     0
176
     1
290
     0
176
     1
 90
       50
176
     1
 40
0.0
176
     1
 40
1.0
176
     1
 90
        0
176
     1
 62
    18
420
        0
176
     1
 90
       50
176
     1
 90
        3
176
     1
 62
     5
420
      255
176
     1
290
     0
176
     1
 90
       50
176
     1
 90
       50
176
     1
 90
       50
176
     1
290
     0
176
     1
 90
       50
176
     1
 62
   256
176
     0
 40
1.0
176
     0
 90
        2
176
     1
  1
strokes_ogs.tif
176
     1
290
     0
176
     1
 40
1.0
176
     1
 40
1.0
176
     1
  0
VISUALSTYLE
  5
36
102
{ACAD_REACTORS
330
29
102
}
330
29
100
AcDbVisualStyle
  2
Thicken
 70
    13
177
     3
291
     1
 70
    58
 90
        2
176
     1
 90
        2
176
     1
 90
        0
176
     1
 90
        0
176
     1
 40
0.6
176
     1
 40
30.0
176
     1
 62
     7
420
 16777215
176
     1
 90
        1
176
     1
 90
        4
176
     1
 62
     7
176
     1
 62
   257
176
     1
 90
        1
176
     1
 90
        1
176
     1
 40
1.0
176
     1
 90
       12
176
     1
 62
     7
176
     1
 40
1.0
176
     1
 90
        1
176
     1
 90
        6
176
     1
 90
        2
176
     1
 62
     7
176
     1
 90
        5
176
     1
 90
        0
176
     1
 90
        0
176
     1
290
     0
176
     1
 90
        1
176
     1
 40
0.0
176
     1
 90
        0
176
     1
290
     0
176
     1
290
     1
176
     1
290
     1
176
     1
290
     0
176
     1
290
     0
176
     1
290
     0
176
     1
290
     0
176
     1
290
     0
176
     1
290
     0
176
     1
 90
       50
176
     1
 40
0.0
176
     1
 40
1.0
176
     1
 90
        0
176
     1
 62
    18
420
        0
176
     1
 90
       50
176
     1
 90
        3
176
     1
 62
     5
420
      255
176
     1
290
     0
176
     1
 90
       50
176
     1
 90
       50
176
     1
 90
       50
176
     1
290
     0
176
     1
 90
       50
176
     1
 62
   256
176
     0
 40
1.0
176
     0
 90
        2
176
     1
  1
strokes_ogs.tif
176
     1
290
     0
176
     1
 40
1.0
176
     1
 40
1.0
176
     1
  0
VISUALSTYLE
  5
30
102
{ACAD_REACTORS
330
29
102
}
330
29
100
AcDbVisualStyle
  2
Wireframe
 70
     5
177
     3
291
     0
 70
    58
 90
        0
176
     1
 90
        2
176
     1
 90
        0
176
     1
 90
        0
176
     1
 40
0.6
176
     1
 40
30.0
176
     1
 62
     7
420
 16777215
176
     1
 90
        1
176
     1
 90
        4
176
     1
 62
     7
176
     1
 62
   257
176
     1
 90
        1
176
     1
 90
        1
176
     1
 40
1.0
176
     1
 90
        0
176
     1
 62
   257
176
     1
 40
1.0
176
     1
 90
        1
176
     1
 90
        6
176
     1
 90
        2
176
     1
 62
     7
176
     1
 90
        3
176
     1
 90
        0
176
     1
 90
        0
176
     1
290
     0
176
     1
 90
        1
176
     1
 40
0.0
176
     1
 90
        0
176
     1
290
     0
176
     1
290
     1
176
     1
290
     1
176
     1
290
     0
176
     1
290
     0
176
     1
290
     0
176
     1
290
     0
176
     1
290
     0
176
     1
290
     0
176
     1
 90
       50
176
     1
 40
0.0
176
     1
 40
1.0
176
     1
 90
        0
176
     1
 62
    18
420
        0
176
     1
 90
       50
176
     1
 90
        3
176
     1
 62
     5
420
      255
176
     1
290
     0
176
     1
 90
       50
176
     1
 90
       50
176
     1
 90
       50
176
     1
290
     0
176
     1
 90
       50
176
     1
 62
   256
176
     0
 40
1.0
176
     0
 90
        2
176
     1
  1
strokes_ogs.tif
176
     1
290
     0
176
     1
 40
1.0
176
     1
 40
1.0
176
     1
  0
VISUALSTYLE
  5
3C
102
{ACAD_REACTORS
330
29
102
}
330
29
100
AcDbVisualStyle
  2
X-Ray
 70
    25
177
     3
291
     0
 70
    58
 90
        2
176
     1
 90
        2
176
     1
 90
        1
176
     1
 90
        1
176
     1
 40
0.5
176
     1
 40
30.0
176
     1
 62
     7
420
 16777215
176
     1
 90
        1
176
     1
 90
        0
176
     1
 62
     7
176
     1
 62
   257
176
     1
 90
        1
176
     1
 90
        1
176
     1
 40
1.0
176
     1
 90
        8
176
     1
 62
     7
176
     1
 40
1.0
176
     1
 90
        1
176
     1
 90
        6
176
     1
 90
        2
176
     1
 62
     7
176
     1
 90
        3
176
     1
 90
        0
176
     1
 90
        0
176
     1
290
     0
176
     1
 90
       13
176
     1
 40
0.0
176
     1
 90
        0
176
     1
290
     0
176
     1
290
     1
176
     1
290
     1
176
     1
290
     0
176
     1
290
     0
176
     1
290
     0
176
     1
290
     0
176
     1
290
     0
176
     1
290
     0
176
     1
 90
       50
176
     1
 40
0.0
176
     1
 40
1.0
176
     1
 90
        0
176
     1
 62
    18
420
        0
176
     1
 90
       50
176
     1
 90
        3
176
     1
 62
     5
420
      255
176
     1
290
     0
176
     1
 90
       50
176
     1
 90
       50
176
     1
 90
       50
176
     1
290
     0
176
     1
 90
       50
176
     1
 62
   256
176
     0
 40
1.0
176
     0
 90
        2
176
     1
  1
strokes_ogs.tif
176
     1
290
     0
176
     1
 40
1.0
176
     1
 40
1.0
176
     1
  0
DICTIONARYVAR
  5
173
102
{ACAD_REACTORS
330
16E
102
}
330
16E
100
DictionaryVariables
280
     0
  1
1:1
  0
DICTIONARYVAR
  5
170
102
{ACAD_REACTORS
330
16E
102
}
330
16E
100
DictionaryVariables
280
     0
  1
STANDARD
  0
DICTIONARYVAR
  5
16F
102
{ACAD_REACTORS
330
16E
102
}
330
16E
100
DictionaryVariables
280
     0
  1
STANDARD
  0
DICTIONARYVAR
  5
171
102
{ACAD_REACTORS
330
16E
102
}
330
16E
100
DictionaryVariables
280
     0
  1
Imperial24
  0
DICTIONARYVAR
  5
172
102
{ACAD_REACTORS
330
16E
102
}
330
16E
100
DictionaryVariables
280
     0
  1
Imperial24
  0
XRECORD
  5
16B
102
{ACAD_REACTORS
330
166
102
}
330
166
100
AcDbXrecord
280
     1
  1
BUILDING_ID
  1
prkl30 case
  1
FLOOR_ID
  1
1904824
  0
XRECORD
  5
169
102
{ACAD_REACTORS
330
166
102
}
330
166
100
AcDbXrecord
280
     1
  1
-2000051
  1
Lines
  0
XRECORD
  5
167
102
{ACAD_REACTORS
330
166
102
}
330
166
100
AcDbXrecord
280
     1
  1
088f6ea7-c8ac-4094-858e-b525683119e4
  0
XRECORD
  5
16A
102
{ACAD_REACTORS
330
166
102
}
330
166
100
AcDbXrecord
280
     1
  1
133798
  1
Muutosalue
  0
DICTIONARY
  5
1A
330
19
100
AcDbDictionary
280
     1
281
     1
  3
BUMPTILE
360
1C
  3
DIFFUSETILE
360
1B
  3
OPACITYTILE
360
1F
  3
REFLECTIONTILE
360
1E
  3
REFRACTIONTILE
360
20
  3
SPECULARTILE
360
1D
  0
DICTIONARY
  5
12
330
11
100
AcDbDictionary
280
     1
281
     1
  3
BUMPTILE
360
14
  3
DIFFUSETILE
360
13
  3
OPACITYTILE
360
17
  3
REFLECTIONTILE
360
16
  3
REFRACTIONTILE
360
18
  3
SPECULARTILE
360
15
  0
DICTIONARY
  5
22
330
21
100
AcDbDictionary
280
     1
281
     1
  3
BUMPTILE
360
24
  3
DIFFUSETILE
360
23
  3
OPACITYTILE
360
27
  3
REFLECTIONTILE
360
26
  3
REFRACTIONTILE
360
28
  3
SPECULARTILE
360
25
  0
DICTIONARY
  5
183
330
65
100
AcDbDictionary
280
     1
281
     1
  3
ACAD_ROUNDTRIP_2008_TABLESTYLE_CELLSTYLEMAP
360
184
  0
XRECORD
  5
1C
102
{ACAD_REACTORS
330
1A
102
}
330
1A
100
AcDbXrecord
280
     1
270
     1
271
     1
  0
XRECORD
  5
1B
102
{ACAD_REACTORS
330
1A
102
}
330
1A
100
AcDbXrecord
280
     1
270
     1
271
     1
  0
XRECORD
  5
1F
102
{ACAD_REACTORS
330
1A
102
}
330
1A
100
AcDbXrecord
280
     1
270
     1
271
     1
  0
XRECORD
  5
1E
102
{ACAD_REACTORS
330
1A
102
}
330
1A
100
AcDbXrecord
280
     1
270
     1
271
     1
  0
XRECORD
  5
20
102
{ACAD_REACTORS
330
1A
102
}
330
1A
100
AcDbXrecord
280
     1
270
     1
271
     1
  0
XRECORD
  5
1D
102
{ACAD_REACTORS
330
1A
102
}
330
1A
100
AcDbXrecord
280
     1
270
     1
271
     1
  0
XRECORD
  5
14
102
{ACAD_REACTORS
330
12
102
}
330
12
100
AcDbXrecord
280
     1
270
     1
271
     1
  0
XRECORD
  5
13
102
{ACAD_REACTORS
330
12
102
}
330
12
100
AcDbXrecord
280
     1
270
     1
271
     1
  0
XRECORD
  5
17
102
{ACAD_REACTORS
330
12
102
}
330
12
100
AcDbXrecord
280
     1
270
     1
271
     1
  0
XRECORD
  5
16
102
{ACAD_REACTORS
330
12
102
}
330
12
100
AcDbXrecord
280
     1
270
     1
271
     1
  0
XRECORD
  5
18
102
{ACAD_REACTORS
330
12
102
}
330
12
100
AcDbXrecord
280
     1
270
     1
271
     1
  0
XRECORD
  5
15
102
{ACAD_REACTORS
330
12
102
}
330
12
100
AcDbXrecord
280
     1
270
     1
271
     1
  0
XRECORD
  5
24
102
{ACAD_REACTORS
330
22
102
}
330
22
100
AcDbXrecord
280
     1
270
     1
271
     1
  0
XRECORD
  5
23
102
{ACAD_REACTORS
330
22
102
}
330
22
100
AcDbXrecord
280
     1
270
     1
271
     1
  0
XRECORD
  5
27
102
{ACAD_REACTORS
330
22
102
}
330
22
100
AcDbXrecord
280
     1
270
     1
271
     1
  0
XRECORD
  5
26
102
{ACAD_REACTORS
330
22
102
}
330
22
100
AcDbXrecord
280
     1
270
     1
271
     1
  0
XRECORD
  5
28
102
{ACAD_REACTORS
330
22
102
}
330
22
100
AcDbXrecord
280
     1
270
     1
271
     1
  0
XRECORD
  5
25
102
{ACAD_REACTORS
330
22
102
}
330
22
100
AcDbXrecord
280
     1
270
     1
271
     1
  0
CELLSTYLEMAP
  5
184
102
{ACAD_REACTORS
330
183
102
}
330
183
100
AcDbCellStyleMap
 90
        3
300
CELLSTYLE
  1
TABLEFORMAT_BEGIN
 90
        5
170
     1
 91
        0
 92
    32768
 62
   257
 93
        1
300
CONTENTFORMAT
  1
CONTENTFORMAT_BEGIN
 90
        0
 91
        0
 92
      512
 93
        0
300

 40
0.0
140
1.0
 94
        5
 62
     0
340
55
144
0.25
309
CONTENTFORMAT_END
171
     0
 94
        0
309
TABLEFORMAT_END
  1
CELLSTYLE_BEGIN
 90
        1
 91
        1
300
_TITLE
309
CELLSTYLE_END
300
CELLSTYLE
  1
TABLEFORMAT_BEGIN
 90
        5
170
     1
 91
        0
 92
        0
 62
   257
 93
        1
300
CONTENTFORMAT
  1
CONTENTFORMAT_BEGIN
 90
        0
 91
        0
 92
      512
 93
        0
300

 40
0.0
140
1.0
 94
        5
 62
     0
340
55
144
0.18
309
CONTENTFORMAT_END
171
     0
 94
        0
309
TABLEFORMAT_END
  1
CELLSTYLE_BEGIN
 90
        2
 91
        1
300
_HEADER
309
CELLSTYLE_END
300
CELLSTYLE
  1
TABLEFORMAT_BEGIN
 90
        5
170
     1
 91
        0
 92
        0
 62
   257
 93
        1
300
CONTENTFORMAT
  1
CONTENTFORMAT_BEGIN
 90
        0
 91
        0
 92
      512
 93
        0
300

 40
0.0
140
1.0
 94
        2
 62
     0
340
55
144
0.18
309
CONTENTFORMAT_END
171
     0
 94
        0
309
TABLEFORMAT_END
  1
CELLSTYLE_BEGIN
 90
        3
 91
        2
300
_DATA
309
CELLSTYLE_END
  0
ENDSEC
  0
EOF
