  0
SECTION
  2
HEADER
  9
$ACADVER
  1
AC1032
  9
$ACADMAINTVER
 90
       73
  9
$DWGCODEPAGE
  3
ANSI_1252
  9
$REQUIREDVERSIONS
160
                 0
  9
$INSBASE
 10
0.0
 20
0.0
 30
0.0
  9
$EXTMIN
 10
11282.39745970011
 20
11350.28722649509
 30
0.0
  9
$EXTMAX
 10
11555.75995970012
 20
11423.5872264951
 30
0.0
  9
$LIMMIN
 10
0.0
 20
0.0
  9
$LIMMAX
 10
12.0
 20
9.0
  9
$ORTHOMODE
 70
     0
  9
$REGENMODE
 70
     1
  9
$FILLMODE
 70
     1
  9
$QTEXTMODE
 70
     0
  9
$MIRRTEXT
 70
     0
  9
$LTSCALE
 40
1.0
  9
$ATTMODE
 70
     1
  9
$TEXTSIZE
 40
0.2
  9
$TRACEWID
 40
0.05
  9
$TEXTSTYLE
  7
Standard
  9
$CLAYER
  8
0
  9
$CELTYPE
  6
ByLayer
  9
$CECOLOR
 62
   256
  9
$CELTSCALE
 40
1.0
  9
$DISPSILH
 70
     0
  9
$DIMSCALE
 40
1.0
  9
$DIMASZ
 40
0.18
  9
$DIMEXO
 40
0.0625
  9
$DIMDLI
 40
0.38
  9
$DIMRND
 40
0.0
  9
$DIMDLE
 40
0.0
  9
$DIMEXE
 40
0.18
  9
$DIMTP
 40
0.0
  9
$DIMTM
 40
0.0
  9
$DIMTXT
 40
0.18
  9
$DIMCEN
 40
0.09
  9
$DIMTSZ
 40
0.0
  9
$DIMTOL
 70
     0
  9
$DIMLIM
 70
     0
  9
$DIMTIH
 70
     1
  9
$DIMTOH
 70
     1
  9
$DIMSE1
 70
     0
  9
$DIMSE2
 70
     0
  9
$DIMTAD
 70
     0
  9
$DIMZIN
 70
     0
  9
$DIMBLK
  1

  9
$DIMASO
 70
     1
  9
$DIMSHO
 70
     1
  9
$DIMPOST
  1

  9
$DIMAPOST
  1

  9
$DIMALT
 70
     0
  9
$DIMALTD
 70
     2
  9
$DIMALTF
 40
25.4
  9
$DIMLFAC
 40
1.0
  9
$DIMTOFL
 70
     0
  9
$DIMTVP
 40
0.0
  9
$DIMTIX
 70
     0
  9
$DIMSOXD
 70
     0
  9
$DIMSAH
 70
     0
  9
$DIMBLK1
  1

  9
$DIMBLK2
  1

  9
$DIMSTYLE
  2
Standard
  9
$DIMCLRD
 70
     0
  9
$DIMCLRE
 70
     0
  9
$DIMCLRT
 70
     0
  9
$DIMTFAC
 40
1.0
  9
$DIMGAP
 40
0.09
  9
$DIMJUST
 70
     0
  9
$DIMSD1
 70
     0
  9
$DIMSD2
 70
     0
  9
$DIMTOLJ
 70
     1
  9
$DIMTZIN
 70
     0
  9
$DIMALTZ
 70
     0
  9
$DIMALTTZ
 70
     0
  9
$DIMUPT
 70
     0
  9
$DIMDEC
 70
     4
  9
$DIMTDEC
 70
     4
  9
$DIMALTU
 70
     2
  9
$DIMALTTD
 70
     2
  9
$DIMTXSTY
  7
Standard
  9
$DIMAUNIT
 70
     0
  9
$DIMADEC
 70
     0
  9
$DIMALTRND
 40
0.0
  9
$DIMAZIN
 70
     0
  9
$DIMDSEP
 70
    46
  9
$DIMATFIT
 70
     3
  9
$DIMFRAC
 70
     0
  9
$DIMLDRBLK
  1

  9
$DIMLUNIT
 70
     2
  9
$DIMLWD
 70
    -2
  9
$DIMLWE
 70
    -2
  9
$DIMTMOVE
 70
     0
  9
$DIMFXL
 40
1.0
  9
$DIMFXLON
 70
     0
  9
$DIMJOGANG
 40
0.7853981633974483
  9
$DIMTFILL
 70
     0
  9
$DIMTFILLCLR
 70
     0
  9
$DIMARCSYM
 70
     0
  9
$DIMLTYPE
  6

  9
$DIMLTEX1
  6

  9
$DIMLTEX2
  6

  9
$DIMTXTDIRECTION
 70
     0
  9
$LUNITS
 70
     2
  9
$LUPREC
 70
     4
  9
$SKETCHINC
 40
0.1
  9
$FILLETRAD
 40
0.0
  9
$AUNITS
 70
     0
  9
$AUPREC
 70
     0
  9
$MENU
  1
.
  9
$ELEVATION
 40
0.0
  9
$PELEVATION
 40
0.0
  9
$THICKNESS
 40
0.0
  9
$LIMCHECK
 70
     0
  9
$CHAMFERA
 40
0.0
  9
$CHAMFERB
 40
0.0
  9
$CHAMFERC
 40
0.0
  9
$CHAMFERD
 40
0.0
  9
$SKPOLY
 70
     0
  9
$TDCREATE
 40
2458921.020694444
  9
$TDUCREATE
 40
2458920.937361111
  9
$TDUPDATE
 40
2458921.020694444
  9
$TDUUPDATE
 40
2458920.937361111
  9
$TDINDWG
 40
0.0000115741
  9
$TDUSRTIMER
 40
0.0000115741
  9
$USRTIMER
 70
     1
  9
$ANGBASE
 50
0.0
  9
$ANGDIR
 70
     0
  9
$PDMODE
 70
     0
  9
$PDSIZE
 40
0.0
  9
$PLINEWID
 40
0.0
  9
$SPLFRAME
 70
     0
  9
$SPLINETYPE
 70
     6
  9
$SPLINESEGS
 70
     8
  9
$HANDSEED
  5
174
  9
$SURFTAB1
 70
     6
  9
$SURFTAB2
 70
     6
  9
$SURFTYPE
 70
     6
  9
$SURFU
 70
     6
  9
$SURFV
 70
     6
  9
$UCSBASE
  2

  9
$UCSNAME
  2

  9
$UCSORG
 10
0.0
 20
0.0
 30
0.0
  9
$UCSXDIR
 10
1.0
 20
0.0
 30
0.0
  9
$UCSYDIR
 10
0.0
 20
1.0
 30
0.0
  9
$UCSORTHOREF
  2

  9
$UCSORTHOVIEW
 70
     0
  9
$UCSORGTOP
 10
0.0
 20
0.0
 30
0.0
  9
$UCSORGBOTTOM
 10
0.0
 20
0.0
 30
0.0
  9
$UCSORGLEFT
 10
0.0
 20
0.0
 30
0.0
  9
$UCSORGRIGHT
 10
0.0
 20
0.0
 30
0.0
  9
$UCSORGFRONT
 10
0.0
 20
0.0
 30
0.0
  9
$UCSORGBACK
 10
0.0
 20
0.0
 30
0.0
  9
$PUCSBASE
  2

  9
$PUCSNAME
  2

  9
$PUCSORG
 10
0.0
 20
0.0
 30
0.0
  9
$PUCSXDIR
 10
1.0
 20
0.0
 30
0.0
  9
$PUCSYDIR
 10
0.0
 20
1.0
 30
0.0
  9
$PUCSORTHOREF
  2

  9
$PUCSORTHOVIEW
 70
     0
  9
$PUCSORGTOP
 10
0.0
 20
0.0
 30
0.0
  9
$PUCSORGBOTTOM
 10
0.0
 20
0.0
 30
0.0
  9
$PUCSORGLEFT
 10
0.0
 20
0.0
 30
0.0
  9
$PUCSORGRIGHT
 10
0.0
 20
0.0
 30
0.0
  9
$PUCSORGFRONT
 10
0.0
 20
0.0
 30
0.0
  9
$PUCSORGBACK
 10
0.0
 20
0.0
 30
0.0
  9
$USERI1
 70
     0
  9
$USERI2
 70
     0
  9
$USERI3
 70
     0
  9
$USERI4
 70
     0
  9
$USERI5
 70
     0
  9
$USERR1
 40
0.0
  9
$USERR2
 40
0.0
  9
$USERR3
 40
0.0
  9
$USERR4
 40
0.0
  9
$USERR5
 40
0.0
  9
$WORLDVIEW
 70
     1
  9
$SHADEDGE
 70
     3
  9
$SHADEDIF
 70
    70
  9
$TILEMODE
 70
     1
  9
$MAXACTVP
 70
    64
  9
$PINSBASE
 10
0.0
 20
0.0
 30
0.0
  9
$PLIMCHECK
 70
     0
  9
$PEXTMIN
 10
1.000000000000000E+20
 20
1.000000000000000E+20
 30
1.000000000000000E+20
  9
$PEXTMAX
 10
-1.000000000000000E+20
 20
-1.000000000000000E+20
 30
-1.000000000000000E+20
  9
$PLIMMIN
 10
0.0
 20
0.0
  9
$PLIMMAX
 10
12.0
 20
9.0
  9
$UNITMODE
 70
     0
  9
$VISRETAIN
 70
     1
  9
$PLINEGEN
 70
     0
  9
$PSLTSCALE
 70
     1
  9
$TREEDEPTH
 70
  3020
  9
$CMLSTYLE
  2
Standard
  9
$CMLJUST
 70
     0
  9
$CMLSCALE
 40
1.0
  9
$PROXYGRAPHICS
 70
     1
  9
$MEASUREMENT
 70
     1
  9
$CELWEIGHT
370
    -1
  9
$ENDCAPS
280
     0
  9
$JOINSTYLE
280
     0
  9
$LWDISPLAY
290
     0
  9
$INSUNITS
 70
     4
  9
$HYPERLINKBASE
  1

  9
$STYLESHEET
  1

  9
$XEDIT
290
     1
  9
$CEPSNTYPE
380
     0
  9
$PSTYLEMODE
290
     1
  9
$FINGERPRINTGUID
  2
{79CFE29C-2DB8-C94A-9FB6-E4E2E9A5D69E}
  9
$VERSIONGUID
  2
{4D9D2B5D-9E39-5A45-A652-69269ECE0E06}
  9
$EXTNAMES
290
     1
  9
$PSVPSCALE
 40
0.0
  9
$OLESTARTUP
290
     0
  9
$SORTENTS
280
   127
  9
$INDEXCTL
280
     0
  9
$HIDETEXT
280
     1
  9
$XCLIPFRAME
280
     2
  9
$HALOGAP
280
     0
  9
$OBSCOLOR
 70
   257
  9
$OBSLTYPE
280
     0
  9
$INTERSECTIONDISPLAY
280
     0
  9
$INTERSECTIONCOLOR
 70
   257
  9
$DIMASSOC
280
     2
  9
$PROJECTNAME
  1

  9
$CAMERADISPLAY
290
     0
  9
$LENSLENGTH
 40
50.0
  9
$CAMERAHEIGHT
 40
0.0
  9
$STEPSPERSEC
 40
2.0
  9
$STEPSIZE
 40
6.0
  9
$3DDWFPREC
 40
2.0
  9
$PSOLWIDTH
 40
0.25
  9
$PSOLHEIGHT
 40
4.0
  9
$LOFTANG1
 40
1.570796326794896
  9
$LOFTANG2
 40
1.570796326794896
  9
$LOFTMAG1
 40
0.0
  9
$LOFTMAG2
 40
0.0
  9
$LOFTPARAM
 70
     7
  9
$LOFTNORMALS
280
     1
  9
$LATITUDE
 40
37.795
  9
$LONGITUDE
 40
-122.394
  9
$NORTHDIRECTION
 40
0.0
  9
$TIMEZONE
 70
 -8000
  9
$LIGHTGLYPHDISPLAY
280
     1
  9
$TILEMODELIGHTSYNCH
280
     1
  9
$CMATERIAL
347
11
  9
$SOLIDHIST
280
     0
  9
$SHOWHIST
280
     1
  9
$DWFFRAME
280
     2
  9
$DGNFRAME
280
     0
  9
$REALWORLDSCALE
290
     1
  9
$INTERFERECOLOR
 62
     1
  9
$INTERFEREOBJVS
345
33
  9
$INTERFEREVPVS
346
30
  9
$CSHADOW
280
     0
  9
$SHADOWPLANELOCATION
 40
0.0
  0
ENDSEC
  0
SECTION
  2
CLASSES
  0
CLASS
  1
ACDBDICTIONARYWDFLT
  2
AcDbDictionaryWithDefault
  3
ObjectDBX Classes
 90
        0
 91
        1
280
     0
281
     0
  0
CLASS
  1
MATERIAL
  2
AcDbMaterial
  3
ObjectDBX Classes
 90
     1153
 91
        3
280
     0
281
     0
  0
CLASS
  1
VISUALSTYLE
  2
AcDbVisualStyle
  3
ObjectDBX Classes
 90
     4095
 91
       24
280
     0
281
     0
  0
CLASS
  1
SCALE
  2
AcDbScale
  3
ObjectDBX Classes
 90
     1153
 91
       17
280
     0
281
     0
  0
CLASS
  1
TABLESTYLE
  2
AcDbTableStyle
  3
ObjectDBX Classes
 90
     4095
 91
        1
280
     0
281
     0
  0
CLASS
  1
MLEADERSTYLE
  2
AcDbMLeaderStyle
  3
ACDB_MLEADERSTYLE_CLASS
 90
     4095
 91
        1
280
     0
281
     0
  0
CLASS
  1
ACDBSECTIONVIEWSTYLE
  2
AcDbSectionViewStyle
  3
ObjectDBX Classes
 90
     1025
 91
        1
280
     0
281
     0
  0
CLASS
  1
ACDBDETAILVIEWSTYLE
  2
AcDbDetailViewStyle
  3
ObjectDBX Classes
 90
     1025
 91
        1
280
     0
281
     0
  0
CLASS
  1
RASTERVARIABLES
  2
AcDbRasterVariables
  3
ISM
 90
        0
 91
        1
280
     0
281
     0
  0
CLASS
  1
DICTIONARYVAR
  2
AcDbDictionaryVar
  3
ObjectDBX Classes
 90
        0
 91
        5
280
     0
281
     0
  0
CLASS
  1
CELLSTYLEMAP
  2
AcDbCellStyleMap
  3
ObjectDBX Classes
 90
     1152
 91
        2
280
     0
281
     0
  0
CLASS
  1
SORTENTSTABLE
  2
AcDbSortentsTable
  3
ObjectDBX Classes
 90
        0
 91
        1
280
     0
281
     0
  0
ENDSEC
  0
SECTION
  2
TABLES
  0
TABLE
  2
VPORT
  5
8
330
0
100
AcDbSymbolTable
 70
     1
  0
VPORT
  5
57
330
8
100
AcDbSymbolTableRecord
100
AcDbViewportTableRecord
  2
*Active
 70
     0
 10
0.0
 20
0.0
 11
1.0
 21
1.0
 12
11419.07870970012
 22
11386.9372264951
 13
0.0
 23
0.0
 14
1.0
 24
1.0
 15
0.0
 25
0.0
 16
0.0
 26
0.0
 36
1.0
 17
0.0
 27
0.0
 37
0.0
 40
73.30000000000473
 41
3.729365620736472
 42
50.0
 43
0.0
 44
0.0
 50
0.0
 51
0.0
 71
     0
 72
  1000
 73
     1
 74
     0
 75
     1
 76
     0
 77
     0
 78
     0
281
     0
 65
     1
110
0.0
120
0.0
130
0.0
111
1.0
121
0.0
131
0.0
112
0.0
122
1.0
132
0.0
 79
     0
146
0.0
 60
     3
 61
     5
292
     1
282
     1
141
0.0
142
0.0
 63
   250
421
  3355443
  0
ENDTAB
  0
TABLE
  2
LTYPE
  5
5
330
0
100
AcDbSymbolTable
 70
     1
  0
LTYPE
  5
5B
330
5
100
AcDbSymbolTableRecord
100
AcDbLinetypeTableRecord
  2
ByBlock
 70
     0
  3

 72
    65
 73
     0
 40
0.0
  0
LTYPE
  5
5C
330
5
100
AcDbSymbolTableRecord
100
AcDbLinetypeTableRecord
  2
ByLayer
 70
     0
  3

 72
    65
 73
     0
 40
0.0
  0
LTYPE
  5
5D
330
5
100
AcDbSymbolTableRecord
100
AcDbLinetypeTableRecord
  2
Continuous
 70
     0
  3
Solid line
 72
    65
 73
     0
 40
0.0
  0
ENDTAB
  0
TABLE
  2
LAYER
  5
2
330
0
100
AcDbSymbolTable
 70
     2
  0
LAYER
  5
54
330
2
100
AcDbSymbolTableRecord
100
AcDbLayerTableRecord
  2
0
 70
     0
 62
     7
  6
Continuous
370
    -3
390
F
347
21
348
0
  0
LAYER
  5
84
330
2
100
AcDbSymbolTableRecord
100
AcDbLayerTableRecord
  2
A-DETL
 70
     0
 62
    90
  6
Continuous
370
    18
390
F
347
21
348
0
  0
ENDTAB
  0
TABLE
  2
STYLE
  5
3
330
0
100
AcDbSymbolTable
 70
     2
  0
STYLE
  5
55
330
3
100
AcDbSymbolTableRecord
100
AcDbTextStyleTableRecord
  2
Standard
 70
     0
 40
0.0
 41
1.0
 50
0.0
 71
     0
 42
0.2
  3
txt
  4

  0
STYLE
  5
5A
330
3
100
AcDbSymbolTableRecord
100
AcDbTextStyleTableRecord
  2
Annotative
 70
     0
 40
0.0
 41
1.0
 50
0.0
 71
     0
 42
0.2
  3
txt
  4

1001
AcadAnnotative
1000
AnnotativeData
1002
{
1070
     1
1070
     1
1002
}
  0
ENDTAB
  0
TABLE
  2
VIEW
  5
6
330
0
100
AcDbSymbolTable
 70
     0
  0
ENDTAB
  0
TABLE
  2
UCS
  5
7
330
0
100
AcDbSymbolTable
 70
     1
  0
UCS
  5
16B
330
7
100
AcDbSymbolTableRecord
100
AcDbUCSTableRecord
  2
REVIT60-Internal
 70
     0
 10
0.0
 20
0.0
 30
0.0
 11
1.0
 21
0.0
 31
0.0
 12
0.0
 22
1.0
 32
0.0
 79
     0
146
0.0
  0
ENDTAB
  0
TABLE
  2
APPID
  5
9
330
0
100
AcDbSymbolTable
 70
     3
  0
APPID
  5
56
330
9
100
AcDbSymbolTableRecord
100
AcDbRegAppTableRecord
  2
ACAD
 70
     0
  0
APPID
  5
5E
330
9
100
AcDbSymbolTableRecord
100
AcDbRegAppTableRecord
  2
AcadAnnotative
 70
     0
  0
APPID
  5
78
330
9
100
AcDbSymbolTableRecord
100
AcDbRegAppTableRecord
  2
REVIT
 70
     0
  0
ENDTAB
  0
TABLE
  2
DIMSTYLE
  5
A
330
0
100
AcDbSymbolTable
 70
     2
100
AcDbDimStyleTable
 71
     0
  0
DIMSTYLE
105
58
330
A
100
AcDbSymbolTableRecord
100
AcDbDimStyleTableRecord
  2
Standard
 70
     0
340
55
  0
DIMSTYLE
105
59
330
A
100
AcDbSymbolTableRecord
100
AcDbDimStyleTableRecord
  2
Annotative
 70
     0
340
55
1001
AcadAnnotative
1000
AnnotativeData
1002
{
1070
     1
1070
     1
1002
}
  0
ENDTAB
  0
TABLE
  2
BLOCK_RECORD
  5
1
330
0
100
AcDbSymbolTable
 70
     1
  0
BLOCK_RECORD
  5
70
102
{ACAD_XDICTIONARY
360
16F
102
}
330
1
100
AcDbSymbolTableRecord
100
AcDbBlockTableRecord
  2
*Model_Space
340
73
 70
     0
280
     1
281
     0
  0
BLOCK_RECORD
  5
6C
330
1
100
AcDbSymbolTableRecord
100
AcDbBlockTableRecord
  2
*Paper_Space
340
6F
 70
     0
280
     1
281
     0
  0
BLOCK_RECORD
  5
74
330
1
100
AcDbSymbolTableRecord
100
AcDbBlockTableRecord
  2
*Paper_Space0
340
77
 70
     0
280
     1
281
     0
  0
ENDTAB
  0
ENDSEC
  0
SECTION
  2
BLOCKS
  0
BLOCK
  5
71
330
70
100
AcDbEntity
  8
0
100
AcDbBlockBegin
  2
*Model_Space
 70
     0
 10
0.0
 20
0.0
 30
0.0
  3
*Model_Space
  1

  0
ENDBLK
  5
72
330
70
100
AcDbEntity
  8
0
100
AcDbBlockEnd
  0
BLOCK
  5
6D
330
6C
100
AcDbEntity
 67
     1
  8
0
100
AcDbBlockBegin
  2
*Paper_Space
 70
     0
 10
0.0
 20
0.0
 30
0.0
  3
*Paper_Space
  1

  0
ENDBLK
  5
6E
330
6C
100
AcDbEntity
 67
     1
  8
0
100
AcDbBlockEnd
  0
BLOCK
  5
75
330
74
100
AcDbEntity
 67
     1
  8
0
100
AcDbBlockBegin
  2
*Paper_Space0
 70
     0
 10
0.0
 20
0.0
 30
0.0
  3
*Paper_Space0
  1

  0
ENDBLK
  5
76
330
74
100
AcDbEntity
 67
     1
  8
0
100
AcDbBlockEnd
  0
ENDSEC
  0
SECTION
  2
ENTITIES
  0
LINE
  5
85
330
70
100
AcDbEntity
  8
A-DETL
100
AcDbLine
 10
11548.75995970011
 20
11423.58722649509
 30
0.0
 11
11289.39745970012
 21
11423.58722649509
 31
0.0
1001
REVIT
1002
{
1070
     1
1000
1909928
1002
}
1002
{
1070
     2
1000
-2000051
1002
}
1002
{
1070
     3
1000
133798
1002
}
  0
ARC
  5
86
330
70
100
AcDbEntity
  8
A-DETL
100
AcDbCircle
 10
11289.39745970012
 20
11416.5872264951
 30
0.0
 40
7.000000000001818
100
AcDbArc
 50
90.0
 51
180.0
1001
REVIT
1002
{
1070
     1
1000
1909929
1002
}
1002
{
1070
     2
1000
-2000051
1002
}
1002
{
1070
     3
1000
133798
1002
}
  0
LINE
  5
87
330
70
100
AcDbEntity
  8
A-DETL
100
AcDbLine
 10
11282.39745970011
 20
11416.5872264951
 30
0.0
 11
11282.39745970011
 21
11357.2872264951
 31
0.0
1001
REVIT
1002
{
1070
     1
1000
1909930
1002
}
1002
{
1070
     2
1000
-2000051
1002
}
1002
{
1070
     3
1000
133798
1002
}
  0
ARC
  5
88
330
70
100
AcDbEntity
  8
A-DETL
100
AcDbCircle
 10
11289.39745970012
 20
11357.2872264951
 30
0.0
 40
7.000000000001818
100
AcDbArc
 50
180.0
 51
269.9999999999997
1001
REVIT
1002
{
1070
     1
1000
1909931
1002
}
1002
{
1070
     2
1000
-2000051
1002
}
1002
{
1070
     3
1000
133798
1002
}
  0
LINE
  5
89
330
70
100
AcDbEntity
  8
A-DETL
100
AcDbLine
 10
11289.39745970012
 20
11350.28722649509
 30
0.0
 11
11548.84665270936
 21
11350.28722649509
 31
0.0
1001
REVIT
1002
{
1070
     1
1000
1909932
1002
}
1002
{
1070
     2
1000
-2000051
1002
}
1002
{
1070
     3
1000
133798
1002
}
  0
ARC
  5
8A
330
70
100
AcDbEntity
  8
A-DETL
100
AcDbCircle
 10
11548.84665270936
 20
11357.20053348585
 30
0.0
 40
6.913306990758428
100
AcDbArc
 50
269.9999999999997
 51
0.0
1001
REVIT
1002
{
1070
     1
1000
1909933
1002
}
1002
{
1070
     2
1000
-2000051
1002
}
1002
{
1070
     3
1000
133798
1002
}
  0
LINE
  5
8B
330
70
100
AcDbEntity
  8
A-DETL
100
AcDbLine
 10
11555.75995970012
 20
11357.20053348585
 30
0.0
 11
11555.75995970012
 21
11416.5872264951
 31
0.0
1001
REVIT
1002
{
1070
     1
1000
1909934
1002
}
1002
{
1070
     2
1000
-2000051
1002
}
1002
{
1070
     3
1000
133798
1002
}
  0
ARC
  5
8C
330
70
100
AcDbEntity
  8
A-DETL
100
AcDbCircle
 10
11548.75995970011
 20
11416.5872264951
 30
0.0
 40
7.000000000001818
100
AcDbArc
 50
0.0
 51
90.0
1001
REVIT
1002
{
1070
     1
1000
1909935
1002
}
1002
{
1070
     2
1000
-2000051
1002
}
1002
{
1070
     3
1000
133798
1002
}
  0
ARC
  5
8D
330
70
100
AcDbEntity
  8
A-DETL
100
AcDbCircle
 10
11538.16106785063
 20
11419.08722649502
 30
0.0
 40
1.5
100
AcDbArc
 50
180.0
 51
0.0
1001
REVIT
1002
{
1070
     1
1000
1909936
1002
}
1002
{
1070
     2
1000
-2000051
1002
}
1002
{
1070
     3
1000
133798
1002
}
  0
ARC
  5
8E
330
70
100
AcDbEntity
  8
A-DETL
100
AcDbCircle
 10
11538.16106785063
 20
11419.08722649502
 30
0.0
 40
1.5
100
AcDbArc
 50
0.0
 51
180.0
1001
REVIT
1002
{
1070
     1
1000
1909937
1002
}
1002
{
1070
     2
1000
-2000051
1002
}
1002
{
1070
     3
1000
133798
1002
}
  0
ARC
  5
8F
330
70
100
AcDbEntity
  8
A-DETL
100
AcDbCircle
 10
11481.01045970013
 20
11419.08722649502
 30
0.0
 40
1.499999999998181
100
AcDbArc
 50
180.0
 51
0.0
1001
REVIT
1002
{
1070
     1
1000
1909938
1002
}
1002
{
1070
     2
1000
-2000051
1002
}
1002
{
1070
     3
1000
133798
1002
}
  0
ARC
  5
90
330
70
100
AcDbEntity
  8
A-DETL
100
AcDbCircle
 10
11481.01045970013
 20
11419.08722649502
 30
0.0
 40
1.5
100
AcDbArc
 50
0.0
 51
180.0
1001
REVIT
1002
{
1070
     1
1000
1909939
1002
}
1002
{
1070
     2
1000
-2000051
1002
}
1002
{
1070
     3
1000
133798
1002
}
  0
LINE
  5
91
330
70
100
AcDbEntity
  8
A-DETL
100
AcDbLine
 10
11483.42195970015
 20
11413.06222649466
 30
0.0
 11
11497.57195970011
 21
11413.06222649462
 31
0.0
1001
REVIT
1002
{
1070
     1
1000
1909940
1002
}
1002
{
1070
     2
1000
-2000051
1002
}
1002
{
1070
     3
1000
133798
1002
}
  0
LINE
  5
92
330
70
100
AcDbEntity
  8
A-DETL
100
AcDbLine
 10
11497.57195970011
 20
11413.06222649462
 30
0.0
 11
11497.57195970008
 21
11398.91222649465
 31
0.0
1001
REVIT
1002
{
1070
     1
1000
1909941
1002
}
1002
{
1070
     2
1000
-2000051
1002
}
1002
{
1070
     3
1000
133798
1002
}
  0
LINE
  5
93
330
70
100
AcDbEntity
  8
A-DETL
100
AcDbLine
 10
11497.57195970008
 20
11398.91222649465
 30
0.0
 11
11483.42195970012
 21
11398.91222649469
 31
0.0
1001
REVIT
1002
{
1070
     1
1000
1909942
1002
}
1002
{
1070
     2
1000
-2000051
1002
}
1002
{
1070
     3
1000
133798
1002
}
  0
LINE
  5
94
330
70
100
AcDbEntity
  8
A-DETL
100
AcDbLine
 10
11483.42195970012
 20
11398.91222649469
 30
0.0
 11
11483.42195970015
 21
11413.06222649466
 31
0.0
1001
REVIT
1002
{
1070
     1
1000
1909943
1002
}
1002
{
1070
     2
1000
-2000051
1002
}
1002
{
1070
     3
1000
133798
1002
}
  0
LINE
  5
95
330
70
100
AcDbEntity
  8
A-DETL
100
AcDbLine
 10
11502.47195970015
 20
11413.06222649461
 30
0.0
 11
11516.62195970016
 21
11413.06222649458
 31
0.0
1001
REVIT
1002
{
1070
     1
1000
1909944
1002
}
1002
{
1070
     2
1000
-2000051
1002
}
1002
{
1070
     3
1000
133798
1002
}
  0
LINE
  5
96
330
70
100
AcDbEntity
  8
A-DETL
100
AcDbLine
 10
11516.62195970016
 20
11413.06222649458
 30
0.0
 11
11516.62195970013
 21
11398.91222649461
 31
0.0
1001
REVIT
1002
{
1070
     1
1000
1909945
1002
}
1002
{
1070
     2
1000
-2000051
1002
}
1002
{
1070
     3
1000
133798
1002
}
  0
LINE
  5
97
330
70
100
AcDbEntity
  8
A-DETL
100
AcDbLine
 10
11516.62195970013
 20
11398.91222649461
 30
0.0
 11
11502.47195970012
 21
11398.91222649464
 31
0.0
1001
REVIT
1002
{
1070
     1
1000
1909946
1002
}
1002
{
1070
     2
1000
-2000051
1002
}
1002
{
1070
     3
1000
133798
1002
}
  0
LINE
  5
98
330
70
100
AcDbEntity
  8
A-DETL
100
AcDbLine
 10
11502.47195970012
 20
11398.91222649464
 30
0.0
 11
11502.47195970015
 21
11413.06222649461
 31
0.0
1001
REVIT
1002
{
1070
     1
1000
1909947
1002
}
1002
{
1070
     2
1000
-2000051
1002
}
1002
{
1070
     3
1000
133798
1002
}
  0
LINE
  5
99
330
70
100
AcDbEntity
  8
A-DETL
100
AcDbLine
 10
11526.28495970015
 20
11413.06222649456
 30
0.0
 11
11540.43495970012
 21
11413.06222649453
 31
0.0
1001
REVIT
1002
{
1070
     1
1000
1909948
1002
}
1002
{
1070
     2
1000
-2000051
1002
}
1002
{
1070
     3
1000
133798
1002
}
  0
LINE
  5
9A
330
70
100
AcDbEntity
  8
A-DETL
100
AcDbLine
 10
11540.43495970012
 20
11413.06222649453
 30
0.0
 11
11540.43495970008
 21
11398.91222649456
 31
0.0
1001
REVIT
1002
{
1070
     1
1000
1909949
1002
}
1002
{
1070
     2
1000
-2000051
1002
}
1002
{
1070
     3
1000
133798
1002
}
  0
LINE
  5
9B
330
70
100
AcDbEntity
  8
A-DETL
100
AcDbLine
 10
11540.43495970008
 20
11398.91222649456
 30
0.0
 11
11526.28495970012
 21
11398.91222649459
 31
0.0
1001
REVIT
1002
{
1070
     1
1000
1909950
1002
}
1002
{
1070
     2
1000
-2000051
1002
}
1002
{
1070
     3
1000
133798
1002
}
  0
LINE
  5
9C
330
70
100
AcDbEntity
  8
A-DETL
100
AcDbLine
 10
11526.28495970012
 20
11398.91222649459
 30
0.0
 11
11526.28495970015
 21
11413.06222649456
 31
0.0
1001
REVIT
1002
{
1070
     1
1000
1909951
1002
}
1002
{
1070
     2
1000
-2000051
1002
}
1002
{
1070
     3
1000
133798
1002
}
  0
LINE
  5
9D
330
70
100
AcDbEntity
  8
A-DETL
100
AcDbLine
 10
11502.47195970015
 20
11394.01222649506
 30
0.0
 11
11516.62195970012
 21
11394.01222649502
 31
0.0
1001
REVIT
1002
{
1070
     1
1000
1909952
1002
}
1002
{
1070
     2
1000
-2000051
1002
}
1002
{
1070
     3
1000
133798
1002
}
  0
LINE
  5
9E
330
70
100
AcDbEntity
  8
A-DETL
100
AcDbLine
 10
11516.62195970012
 20
11394.01222649502
 30
0.0
 11
11516.62195970009
 21
11379.86222649487
 31
0.0
1001
REVIT
1002
{
1070
     1
1000
1909953
1002
}
1002
{
1070
     2
1000
-2000051
1002
}
1002
{
1070
     3
1000
133798
1002
}
  0
LINE
  5
9F
330
70
100
AcDbEntity
  8
A-DETL
100
AcDbLine
 10
11516.62195970009
 20
11379.86222649487
 30
0.0
 11
11502.47195970012
 21
11379.86222649491
 31
0.0
1001
REVIT
1002
{
1070
     1
1000
1909954
1002
}
1002
{
1070
     2
1000
-2000051
1002
}
1002
{
1070
     3
1000
133798
1002
}
  0
LINE
  5
A0
330
70
100
AcDbEntity
  8
A-DETL
100
AcDbLine
 10
11502.47195970012
 20
11379.86222649491
 30
0.0
 11
11502.47195970015
 21
11394.01222649506
 31
0.0
1001
REVIT
1002
{
1070
     1
1000
1909955
1002
}
1002
{
1070
     2
1000
-2000051
1002
}
1002
{
1070
     3
1000
133798
1002
}
  0
LINE
  5
A1
330
70
100
AcDbEntity
  8
A-DETL
100
AcDbLine
 10
11528.70995970012
 20
11370.3372264951
 30
0.0
 11
11528.70995970015
 21
11384.4872264951
 31
0.0
1001
REVIT
1002
{
1070
     1
1000
1909956
1002
}
1002
{
1070
     2
1000
-2000051
1002
}
1002
{
1070
     3
1000
133798
1002
}
  0
LINE
  5
A2
330
70
100
AcDbEntity
  8
A-DETL
100
AcDbLine
 10
11528.70995970015
 20
11384.4872264951
 30
0.0
 11
11533.46029833439
 21
11384.48722649509
 31
0.0
1001
REVIT
1002
{
1070
     1
1000
1909957
1002
}
1002
{
1070
     2
1000
-2000051
1002
}
1002
{
1070
     3
1000
133798
1002
}
  0
LINE
  5
A3
330
70
100
AcDbEntity
  8
A-DETL
100
AcDbLine
 10
11533.46029833439
 20
11384.48722649509
 30
0.0
 11
11533.4602983344
 21
11386.02662456276
 31
0.0
1001
REVIT
1002
{
1070
     1
1000
1909958
1002
}
1002
{
1070
     2
1000
-2000051
1002
}
1002
{
1070
     3
1000
133798
1002
}
  0
LINE
  5
A4
330
70
100
AcDbEntity
  8
A-DETL
100
AcDbLine
 10
11533.4602983344
 20
11386.02662456276
 30
0.0
 11
11528.94237363034
 21
11386.02662456277
 31
0.0
1001
REVIT
1002
{
1070
     1
1000
1909959
1002
}
1002
{
1070
     2
1000
-2000051
1002
}
1002
{
1070
     3
1000
133798
1002
}
  0
LINE
  5
A5
330
70
100
AcDbEntity
  8
A-DETL
100
AcDbLine
 10
11528.94237363034
 20
11386.02662456277
 30
0.0
 11
11528.94237363035
 21
11387.76754199729
 31
0.0
1001
REVIT
1002
{
1070
     1
1000
1909960
1002
}
1002
{
1070
     2
1000
-2000051
1002
}
1002
{
1070
     3
1000
133798
1002
}
  0
LINE
  5
A6
330
70
100
AcDbEntity
  8
A-DETL
100
AcDbLine
 10
11528.94237363035
 20
11387.76754199729
 30
0.0
 11
11527.95208818861
 21
11387.76754199729
 31
0.0
1001
REVIT
1002
{
1070
     1
1000
1909961
1002
}
1002
{
1070
     2
1000
-2000051
1002
}
1002
{
1070
     3
1000
133798
1002
}
  0
LINE
  5
A7
330
70
100
AcDbEntity
  8
A-DETL
100
AcDbLine
 10
11527.95208818861
 20
11387.76754199729
 30
0.0
 11
11527.95208818862
 21
11391.09679935872
 31
0.0
1001
REVIT
1002
{
1070
     1
1000
1909962
1002
}
1002
{
1070
     2
1000
-2000051
1002
}
1002
{
1070
     3
1000
133798
1002
}
  0
LINE
  5
A8
330
70
100
AcDbEntity
  8
A-DETL
100
AcDbLine
 10
11527.95208818862
 20
11391.09679935872
 30
0.0
 11
11528.94237363036
 21
11391.09679935872
 31
0.0
1001
REVIT
1002
{
1070
     1
1000
1909963
1002
}
1002
{
1070
     2
1000
-2000051
1002
}
1002
{
1070
     3
1000
133798
1002
}
  0
LINE
  5
A9
330
70
100
AcDbEntity
  8
A-DETL
100
AcDbLine
 10
11528.94237363036
 20
11391.09679935872
 30
0.0
 11
11528.94237363036
 21
11392.83761588218
 31
0.0
1001
REVIT
1002
{
1070
     1
1000
1909964
1002
}
1002
{
1070
     2
1000
-2000051
1002
}
1002
{
1070
     3
1000
133798
1002
}
  0
LINE
  5
AA
330
70
100
AcDbEntity
  8
A-DETL
100
AcDbLine
 10
11528.94237363036
 20
11392.83761588218
 30
0.0
 11
11535.27817946674
 21
11392.83761588217
 31
0.0
1001
REVIT
1002
{
1070
     1
1000
1909965
1002
}
1002
{
1070
     2
1000
-2000051
1002
}
1002
{
1070
     3
1000
133798
1002
}
  0
LINE
  5
AB
330
70
100
AcDbEntity
  8
A-DETL
100
AcDbLine
 10
11535.27817946674
 20
11392.83761588217
 30
0.0
 11
11535.27817946674
 21
11393.67063659987
 31
0.0
1001
REVIT
1002
{
1070
     1
1000
1909966
1002
}
1002
{
1070
     2
1000
-2000051
1002
}
1002
{
1070
     3
1000
133798
1002
}
  0
LINE
  5
AC
330
70
100
AcDbEntity
  8
A-DETL
100
AcDbLine
 10
11535.27817946674
 20
11393.67063659987
 30
0.0
 11
11538.10655594777
 21
11393.67063659987
 31
0.0
1001
REVIT
1002
{
1070
     1
1000
1909967
1002
}
1002
{
1070
     2
1000
-2000051
1002
}
1002
{
1070
     3
1000
133798
1002
}
  0
LINE
  5
AD
330
70
100
AcDbEntity
  8
A-DETL
100
AcDbLine
 10
11538.10655594777
 20
11393.67063659987
 30
0.0
 11
11538.10655594777
 21
11392.83761588216
 31
0.0
1001
REVIT
1002
{
1070
     1
1000
1909968
1002
}
1002
{
1070
     2
1000
-2000051
1002
}
1002
{
1070
     3
1000
133798
1002
}
  0
LINE
  5
AE
330
70
100
AcDbEntity
  8
A-DETL
100
AcDbLine
 10
11538.10655594777
 20
11392.83761588216
 30
0.0
 11
11541.37146641944
 21
11392.83761588215
 31
0.0
1001
REVIT
1002
{
1070
     1
1000
1909969
1002
}
1002
{
1070
     2
1000
-2000051
1002
}
1002
{
1070
     3
1000
133798
1002
}
  0
LINE
  5
AF
330
70
100
AcDbEntity
  8
A-DETL
100
AcDbLine
 10
11541.37146641944
 20
11392.83761588215
 30
0.0
 11
11541.37146641944
 21
11391.09679935869
 31
0.0
1001
REVIT
1002
{
1070
     1
1000
1909970
1002
}
1002
{
1070
     2
1000
-2000051
1002
}
1002
{
1070
     3
1000
133798
1002
}
  0
LINE
  5
B0
330
70
100
AcDbEntity
  8
A-DETL
100
AcDbLine
 10
11541.37146641944
 20
11391.09679935869
 30
0.0
 11
11542.30213263559
 21
11391.09679935869
 31
0.0
1001
REVIT
1002
{
1070
     1
1000
1909971
1002
}
1002
{
1070
     2
1000
-2000051
1002
}
1002
{
1070
     3
1000
133798
1002
}
  0
LINE
  5
B1
330
70
100
AcDbEntity
  8
A-DETL
100
AcDbLine
 10
11542.30213263559
 20
11391.09679935869
 30
0.0
 11
11542.30213263558
 21
11387.76754199726
 31
0.0
1001
REVIT
1002
{
1070
     1
1000
1909972
1002
}
1002
{
1070
     2
1000
-2000051
1002
}
1002
{
1070
     3
1000
133798
1002
}
  0
LINE
  5
B2
330
70
100
AcDbEntity
  8
A-DETL
100
AcDbLine
 10
11542.30213263558
 20
11387.76754199726
 30
0.0
 11
11541.37146641943
 21
11387.76754199726
 31
0.0
1001
REVIT
1002
{
1070
     1
1000
1909973
1002
}
1002
{
1070
     2
1000
-2000051
1002
}
1002
{
1070
     3
1000
133798
1002
}
  0
LINE
  5
B3
330
70
100
AcDbEntity
  8
A-DETL
100
AcDbLine
 10
11541.37146641943
 20
11387.76754199726
 30
0.0
 11
11541.37146641943
 21
11386.02662456274
 31
0.0
1001
REVIT
1002
{
1070
     1
1000
1909974
1002
}
1002
{
1070
     2
1000
-2000051
1002
}
1002
{
1070
     3
1000
133798
1002
}
  0
LINE
  5
B4
330
70
100
AcDbEntity
  8
A-DETL
100
AcDbLine
 10
11541.37146641943
 20
11386.02662456274
 30
0.0
 11
11538.10655594775
 21
11386.02662456275
 31
0.0
1001
REVIT
1002
{
1070
     1
1000
1909975
1002
}
1002
{
1070
     2
1000
-2000051
1002
}
1002
{
1070
     3
1000
133798
1002
}
  0
LINE
  5
B5
330
70
100
AcDbEntity
  8
A-DETL
100
AcDbLine
 10
11538.10655594775
 20
11386.02662456275
 30
0.0
 11
11538.10655594774
 21
11384.48722649508
 31
0.0
1001
REVIT
1002
{
1070
     1
1000
1909976
1002
}
1002
{
1070
     2
1000
-2000051
1002
}
1002
{
1070
     3
1000
133798
1002
}
  0
LINE
  5
B6
330
70
100
AcDbEntity
  8
A-DETL
100
AcDbLine
 10
11538.10655594774
 20
11384.48722649508
 30
0.0
 11
11542.85995970012
 21
11384.48722649507
 31
0.0
1001
REVIT
1002
{
1070
     1
1000
1909977
1002
}
1002
{
1070
     2
1000
-2000051
1002
}
1002
{
1070
     3
1000
133798
1002
}
  0
LINE
  5
B7
330
70
100
AcDbEntity
  8
A-DETL
100
AcDbLine
 10
11542.85995970012
 20
11384.48722649507
 30
0.0
 11
11542.85995970008
 21
11370.33722649506
 31
0.0
1001
REVIT
1002
{
1070
     1
1000
1909978
1002
}
1002
{
1070
     2
1000
-2000051
1002
}
1002
{
1070
     3
1000
133798
1002
}
  0
LINE
  5
B8
330
70
100
AcDbEntity
  8
A-DETL
100
AcDbLine
 10
11542.85995970008
 20
11370.33722649506
 30
0.0
 11
11538.10655594771
 21
11370.33722649507
 31
0.0
1001
REVIT
1002
{
1070
     1
1000
1909979
1002
}
1002
{
1070
     2
1000
-2000051
1002
}
1002
{
1070
     3
1000
133798
1002
}
  0
LINE
  5
B9
330
70
100
AcDbEntity
  8
A-DETL
100
AcDbLine
 10
11538.10655594771
 20
11370.33722649507
 30
0.0
 11
11538.10655594771
 21
11368.7978284274
 31
0.0
1001
REVIT
1002
{
1070
     1
1000
1909980
1002
}
1002
{
1070
     2
1000
-2000051
1002
}
1002
{
1070
     3
1000
133798
1002
}
  0
LINE
  5
BA
330
70
100
AcDbEntity
  8
A-DETL
100
AcDbLine
 10
11538.10655594771
 20
11368.7978284274
 30
0.0
 11
11541.37146641939
 21
11368.79782842739
 31
0.0
1001
REVIT
1002
{
1070
     1
1000
1909981
1002
}
1002
{
1070
     2
1000
-2000051
1002
}
1002
{
1070
     3
1000
133798
1002
}
  0
LINE
  5
BB
330
70
100
AcDbEntity
  8
A-DETL
100
AcDbLine
 10
11541.37146641939
 20
11368.79782842739
 30
0.0
 11
11541.37146641938
 21
11367.05681008183
 31
0.0
1001
REVIT
1002
{
1070
     1
1000
1909982
1002
}
1002
{
1070
     2
1000
-2000051
1002
}
1002
{
1070
     3
1000
133798
1002
}
  0
LINE
  5
BC
330
70
100
AcDbEntity
  8
A-DETL
100
AcDbLine
 10
11541.37146641938
 20
11367.05681008183
 30
0.0
 11
11542.30213263553
 21
11367.05681008183
 31
0.0
1001
REVIT
1002
{
1070
     1
1000
1909983
1002
}
1002
{
1070
     2
1000
-2000051
1002
}
1002
{
1070
     3
1000
133798
1002
}
  0
LINE
  5
BD
330
70
100
AcDbEntity
  8
A-DETL
100
AcDbLine
 10
11542.30213263553
 20
11367.05681008183
 30
0.0
 11
11542.30213263552
 21
11363.72775454249
 31
0.0
1001
REVIT
1002
{
1070
     1
1000
1909984
1002
}
1002
{
1070
     2
1000
-2000051
1002
}
1002
{
1070
     3
1000
133798
1002
}
  0
LINE
  5
BE
330
70
100
AcDbEntity
  8
A-DETL
100
AcDbLine
 10
11542.30213263552
 20
11363.72775454249
 30
0.0
 11
11541.37146641937
 21
11363.72775454249
 31
0.0
1001
REVIT
1002
{
1070
     1
1000
1909985
1002
}
1002
{
1070
     2
1000
-2000051
1002
}
1002
{
1070
     3
1000
133798
1002
}
  0
LINE
  5
BF
330
70
100
AcDbEntity
  8
A-DETL
100
AcDbLine
 10
11541.37146641937
 20
11363.72775454249
 30
0.0
 11
11541.37146641937
 21
11361.98673619693
 31
0.0
1001
REVIT
1002
{
1070
     1
1000
1909986
1002
}
1002
{
1070
     2
1000
-2000051
1002
}
1002
{
1070
     3
1000
133798
1002
}
  0
LINE
  5
C0
330
70
100
AcDbEntity
  8
A-DETL
100
AcDbLine
 10
11541.37146641937
 20
11361.98673619693
 30
0.0
 11
11538.1065559477
 21
11361.98673619694
 31
0.0
1001
REVIT
1002
{
1070
     1
1000
1909987
1002
}
1002
{
1070
     2
1000
-2000051
1002
}
1002
{
1070
     3
1000
133798
1002
}
  0
LINE
  5
C1
330
70
100
AcDbEntity
  8
A-DETL
100
AcDbLine
 10
11538.1065559477
 20
11361.98673619694
 30
0.0
 11
11538.10655594769
 21
11361.15374575255
 31
0.0
1001
REVIT
1002
{
1070
     1
1000
1909988
1002
}
1002
{
1070
     2
1000
-2000051
1002
}
1002
{
1070
     3
1000
133798
1002
}
  0
LINE
  5
C2
330
70
100
AcDbEntity
  8
A-DETL
100
AcDbLine
 10
11538.10655594769
 20
11361.15374575255
 30
0.0
 11
11535.27817946666
 21
11361.15374575255
 31
0.0
1001
REVIT
1002
{
1070
     1
1000
1909989
1002
}
1002
{
1070
     2
1000
-2000051
1002
}
1002
{
1070
     3
1000
133798
1002
}
  0
LINE
  5
C3
330
70
100
AcDbEntity
  8
A-DETL
100
AcDbLine
 10
11535.27817946666
 20
11361.15374575255
 30
0.0
 11
11535.27817946667
 21
11361.98673619695
 31
0.0
1001
REVIT
1002
{
1070
     1
1000
1909990
1002
}
1002
{
1070
     2
1000
-2000051
1002
}
1002
{
1070
     3
1000
133798
1002
}
  0
LINE
  5
C4
330
70
100
AcDbEntity
  8
A-DETL
100
AcDbLine
 10
11535.27817946667
 20
11361.98673619695
 30
0.0
 11
11528.94237363029
 21
11361.98673619696
 31
0.0
1001
REVIT
1002
{
1070
     1
1000
1909991
1002
}
1002
{
1070
     2
1000
-2000051
1002
}
1002
{
1070
     3
1000
133798
1002
}
  0
LINE
  5
C5
330
70
100
AcDbEntity
  8
A-DETL
100
AcDbLine
 10
11528.94237363029
 20
11361.98673619696
 30
0.0
 11
11528.94237363029
 21
11363.72775454252
 31
0.0
1001
REVIT
1002
{
1070
     1
1000
1909992
1002
}
1002
{
1070
     2
1000
-2000051
1002
}
1002
{
1070
     3
1000
133798
1002
}
  0
LINE
  5
C6
330
70
100
AcDbEntity
  8
A-DETL
100
AcDbLine
 10
11528.94237363029
 20
11363.72775454252
 30
0.0
 11
11527.95208818855
 21
11363.72775454252
 31
0.0
1001
REVIT
1002
{
1070
     1
1000
1909993
1002
}
1002
{
1070
     2
1000
-2000051
1002
}
1002
{
1070
     3
1000
133798
1002
}
  0
LINE
  5
C7
330
70
100
AcDbEntity
  8
A-DETL
100
AcDbLine
 10
11527.95208818855
 20
11363.72775454252
 30
0.0
 11
11527.95208818857
 21
11367.05681008186
 31
0.0
1001
REVIT
1002
{
1070
     1
1000
1909994
1002
}
1002
{
1070
     2
1000
-2000051
1002
}
1002
{
1070
     3
1000
133798
1002
}
  0
LINE
  5
C8
330
70
100
AcDbEntity
  8
A-DETL
100
AcDbLine
 10
11527.95208818857
 20
11367.05681008186
 30
0.0
 11
11528.9423736303
 21
11367.05681008186
 31
0.0
1001
REVIT
1002
{
1070
     1
1000
1909995
1002
}
1002
{
1070
     2
1000
-2000051
1002
}
1002
{
1070
     3
1000
133798
1002
}
  0
LINE
  5
C9
330
70
100
AcDbEntity
  8
A-DETL
100
AcDbLine
 10
11528.9423736303
 20
11367.05681008186
 30
0.0
 11
11528.9423736303
 21
11368.79782842742
 31
0.0
1001
REVIT
1002
{
1070
     1
1000
1909996
1002
}
1002
{
1070
     2
1000
-2000051
1002
}
1002
{
1070
     3
1000
133798
1002
}
  0
LINE
  5
CA
330
70
100
AcDbEntity
  8
A-DETL
100
AcDbLine
 10
11528.9423736303
 20
11368.79782842742
 30
0.0
 11
11533.46029833435
 21
11368.79782842741
 31
0.0
1001
REVIT
1002
{
1070
     1
1000
1909997
1002
}
1002
{
1070
     2
1000
-2000051
1002
}
1002
{
1070
     3
1000
133798
1002
}
  0
LINE
  5
CB
330
70
100
AcDbEntity
  8
A-DETL
100
AcDbLine
 10
11533.46029833435
 20
11368.79782842741
 30
0.0
 11
11533.46029833436
 21
11370.33722649509
 31
0.0
1001
REVIT
1002
{
1070
     1
1000
1909998
1002
}
1002
{
1070
     2
1000
-2000051
1002
}
1002
{
1070
     3
1000
133798
1002
}
  0
LINE
  5
CC
330
70
100
AcDbEntity
  8
A-DETL
100
AcDbLine
 10
11533.46029833436
 20
11370.33722649509
 30
0.0
 11
11528.70995970012
 21
11370.3372264951
 31
0.0
1001
REVIT
1002
{
1070
     1
1000
1909999
1002
}
1002
{
1070
     2
1000
-2000051
1002
}
1002
{
1070
     3
1000
133798
1002
}
  0
ARC
  5
CD
330
70
100
AcDbEntity
  8
A-DETL
100
AcDbCircle
 10
11538.16106785063
 20
11354.78722649517
 30
0.0
 40
1.5
100
AcDbArc
 50
180.0
 51
0.0
1001
REVIT
1002
{
1070
     1
1000
1910000
1002
}
1002
{
1070
     2
1000
-2000051
1002
}
1002
{
1070
     3
1000
133798
1002
}
  0
ARC
  5
CE
330
70
100
AcDbEntity
  8
A-DETL
100
AcDbCircle
 10
11538.16106785063
 20
11354.78722649517
 30
0.0
 40
1.5
100
AcDbArc
 50
0.0
 51
180.0
1001
REVIT
1002
{
1070
     1
1000
1910001
1002
}
1002
{
1070
     2
1000
-2000051
1002
}
1002
{
1070
     3
1000
133798
1002
}
  0
ARC
  5
CF
330
70
100
AcDbEntity
  8
A-DETL
100
AcDbCircle
 10
11481.01045970013
 20
11354.78722649517
 30
0.0
 40
1.499999999998181
100
AcDbArc
 50
180.0
 51
0.0
1001
REVIT
1002
{
1070
     1
1000
1910002
1002
}
1002
{
1070
     2
1000
-2000051
1002
}
1002
{
1070
     3
1000
133798
1002
}
  0
ARC
  5
D0
330
70
100
AcDbEntity
  8
A-DETL
100
AcDbCircle
 10
11481.01045970013
 20
11354.78722649517
 30
0.0
 40
1.5
100
AcDbArc
 50
0.0
 51
180.0
1001
REVIT
1002
{
1070
     1
1000
1910003
1002
}
1002
{
1070
     2
1000
-2000051
1002
}
1002
{
1070
     3
1000
133798
1002
}
  0
LINE
  5
D1
330
70
100
AcDbEntity
  8
A-DETL
100
AcDbLine
 10
11497.57195970008
 20
11360.8122264947
 30
0.0
 11
11483.42195970012
 21
11360.81222649473
 31
0.0
1001
REVIT
1002
{
1070
     1
1000
1910004
1002
}
1002
{
1070
     2
1000
-2000051
1002
}
1002
{
1070
     3
1000
133798
1002
}
  0
LINE
  5
D2
330
70
100
AcDbEntity
  8
A-DETL
100
AcDbLine
 10
11483.42195970012
 20
11360.81222649473
 30
0.0
 11
11483.42195970015
 21
11374.9622264947
 31
0.0
1001
REVIT
1002
{
1070
     1
1000
1910005
1002
}
1002
{
1070
     2
1000
-2000051
1002
}
1002
{
1070
     3
1000
133798
1002
}
  0
LINE
  5
D3
330
70
100
AcDbEntity
  8
A-DETL
100
AcDbLine
 10
11483.42195970015
 20
11374.9622264947
 30
0.0
 11
11497.57195970011
 21
11374.96222649467
 31
0.0
1001
REVIT
1002
{
1070
     1
1000
1910006
1002
}
1002
{
1070
     2
1000
-2000051
1002
}
1002
{
1070
     3
1000
133798
1002
}
  0
LINE
  5
D4
330
70
100
AcDbEntity
  8
A-DETL
100
AcDbLine
 10
11497.57195970011
 20
11374.96222649467
 30
0.0
 11
11497.57195970008
 21
11360.8122264947
 31
0.0
1001
REVIT
1002
{
1070
     1
1000
1910007
1002
}
1002
{
1070
     2
1000
-2000051
1002
}
1002
{
1070
     3
1000
133798
1002
}
  0
LINE
  5
D5
330
70
100
AcDbEntity
  8
A-DETL
100
AcDbLine
 10
11504.90995970012
 20
11360.81222649468
 30
0.0
 11
11504.90995970015
 21
11374.96222649465
 31
0.0
1001
REVIT
1002
{
1070
     1
1000
1910008
1002
}
1002
{
1070
     2
1000
-2000051
1002
}
1002
{
1070
     3
1000
133798
1002
}
  0
LINE
  5
D6
330
70
100
AcDbEntity
  8
A-DETL
100
AcDbLine
 10
11504.90995970015
 20
11374.96222649465
 30
0.0
 11
11519.05995970012
 21
11374.96222649462
 31
0.0
1001
REVIT
1002
{
1070
     1
1000
1910009
1002
}
1002
{
1070
     2
1000
-2000051
1002
}
1002
{
1070
     3
1000
133798
1002
}
  0
LINE
  5
D7
330
70
100
AcDbEntity
  8
A-DETL
100
AcDbLine
 10
11519.05995970012
 20
11374.96222649462
 30
0.0
 11
11519.05995970009
 21
11360.81222649465
 31
0.0
1001
REVIT
1002
{
1070
     1
1000
1910010
1002
}
1002
{
1070
     2
1000
-2000051
1002
}
1002
{
1070
     3
1000
133798
1002
}
  0
LINE
  5
D8
330
70
100
AcDbEntity
  8
A-DETL
100
AcDbLine
 10
11519.05995970009
 20
11360.81222649465
 30
0.0
 11
11504.90995970012
 21
11360.81222649468
 31
0.0
1001
REVIT
1002
{
1070
     1
1000
1910011
1002
}
1002
{
1070
     2
1000
-2000051
1002
}
1002
{
1070
     3
1000
133798
1002
}
  0
LINE
  5
D9
330
70
100
AcDbEntity
  8
A-DETL
100
AcDbLine
 10
11497.57195970008
 20
11379.86222649492
 30
0.0
 11
11483.42195970012
 21
11379.86222649495
 31
0.0
1001
REVIT
1002
{
1070
     1
1000
1910012
1002
}
1002
{
1070
     2
1000
-2000051
1002
}
1002
{
1070
     3
1000
133798
1002
}
  0
LINE
  5
DA
330
70
100
AcDbEntity
  8
A-DETL
100
AcDbLine
 10
11483.42195970012
 20
11379.86222649495
 30
0.0
 11
11483.42195970015
 21
11394.0122264951
 31
0.0
1001
REVIT
1002
{
1070
     1
1000
1910013
1002
}
1002
{
1070
     2
1000
-2000051
1002
}
1002
{
1070
     3
1000
133798
1002
}
  0
LINE
  5
DB
330
70
100
AcDbEntity
  8
A-DETL
100
AcDbLine
 10
11483.42195970015
 20
11394.0122264951
 30
0.0
 11
11497.57195970011
 21
11394.01222649507
 31
0.0
1001
REVIT
1002
{
1070
     1
1000
1910014
1002
}
1002
{
1070
     2
1000
-2000051
1002
}
1002
{
1070
     3
1000
133798
1002
}
  0
LINE
  5
DC
330
70
100
AcDbEntity
  8
A-DETL
100
AcDbLine
 10
11497.57195970011
 20
11394.01222649507
 30
0.0
 11
11497.57195970008
 21
11379.86222649492
 31
0.0
1001
REVIT
1002
{
1070
     1
1000
1910015
1002
}
1002
{
1070
     2
1000
-2000051
1002
}
1002
{
1070
     3
1000
133798
1002
}
  0
LINE
  5
DD
330
70
100
AcDbEntity
  8
A-DETL
100
AcDbLine
 10
11478.52195970012
 20
11394.01222649507
 30
0.0
 11
11478.52195970008
 21
11379.86222649496
 31
0.0
1001
REVIT
1002
{
1070
     1
1000
1910016
1002
}
1002
{
1070
     2
1000
-2000051
1002
}
1002
{
1070
     3
1000
133798
1002
}
  0
LINE
  5
DE
330
70
100
AcDbEntity
  8
A-DETL
100
AcDbLine
 10
11478.52195970008
 20
11379.86222649496
 30
0.0
 11
11464.37195970012
 21
11379.86222649499
 31
0.0
1001
REVIT
1002
{
1070
     1
1000
1910017
1002
}
1002
{
1070
     2
1000
-2000051
1002
}
1002
{
1070
     3
1000
133798
1002
}
  0
LINE
  5
DF
330
70
100
AcDbEntity
  8
A-DETL
100
AcDbLine
 10
11464.37195970012
 20
11379.86222649499
 30
0.0
 11
11464.37195970015
 21
11394.0122264951
 31
0.0
1001
REVIT
1002
{
1070
     1
1000
1910018
1002
}
1002
{
1070
     2
1000
-2000051
1002
}
1002
{
1070
     3
1000
133798
1002
}
  0
LINE
  5
E0
330
70
100
AcDbEntity
  8
A-DETL
100
AcDbLine
 10
11464.37195970015
 20
11394.0122264951
 30
0.0
 11
11478.52195970012
 21
11394.01222649507
 31
0.0
1001
REVIT
1002
{
1070
     1
1000
1910019
1002
}
1002
{
1070
     2
1000
-2000051
1002
}
1002
{
1070
     3
1000
133798
1002
}
  0
LINE
  5
E1
330
70
100
AcDbEntity
  8
A-DETL
100
AcDbLine
 10
11478.52195970008
 20
11398.9122264947
 30
0.0
 11
11464.37195970012
 21
11398.91222649473
 31
0.0
1001
REVIT
1002
{
1070
     1
1000
1910020
1002
}
1002
{
1070
     2
1000
-2000051
1002
}
1002
{
1070
     3
1000
133798
1002
}
  0
LINE
  5
E2
330
70
100
AcDbEntity
  8
A-DETL
100
AcDbLine
 10
11464.37195970012
 20
11398.91222649473
 30
0.0
 11
11464.37195970015
 21
11413.0622264947
 31
0.0
1001
REVIT
1002
{
1070
     1
1000
1910021
1002
}
1002
{
1070
     2
1000
-2000051
1002
}
1002
{
1070
     3
1000
133798
1002
}
  0
LINE
  5
E3
330
70
100
AcDbEntity
  8
A-DETL
100
AcDbLine
 10
11464.37195970015
 20
11413.0622264947
 30
0.0
 11
11478.52195970012
 21
11413.06222649467
 31
0.0
1001
REVIT
1002
{
1070
     1
1000
1910022
1002
}
1002
{
1070
     2
1000
-2000051
1002
}
1002
{
1070
     3
1000
133798
1002
}
  0
LINE
  5
E4
330
70
100
AcDbEntity
  8
A-DETL
100
AcDbLine
 10
11478.52195970012
 20
11413.06222649467
 30
0.0
 11
11478.52195970008
 21
11398.9122264947
 31
0.0
1001
REVIT
1002
{
1070
     1
1000
1910023
1002
}
1002
{
1070
     2
1000
-2000051
1002
}
1002
{
1070
     3
1000
133798
1002
}
  0
LINE
  5
E5
330
70
100
AcDbEntity
  8
A-DETL
100
AcDbLine
 10
11459.47195970008
 20
11398.91222649475
 30
0.0
 11
11445.32195970012
 21
11398.91222649478
 31
0.0
1001
REVIT
1002
{
1070
     1
1000
1910024
1002
}
1002
{
1070
     2
1000
-2000051
1002
}
1002
{
1070
     3
1000
133798
1002
}
  0
LINE
  5
E6
330
70
100
AcDbEntity
  8
A-DETL
100
AcDbLine
 10
11445.32195970012
 20
11398.91222649478
 30
0.0
 11
11445.32195970015
 21
11413.06222649475
 31
0.0
1001
REVIT
1002
{
1070
     1
1000
1910025
1002
}
1002
{
1070
     2
1000
-2000051
1002
}
1002
{
1070
     3
1000
133798
1002
}
  0
LINE
  5
E7
330
70
100
AcDbEntity
  8
A-DETL
100
AcDbLine
 10
11445.32195970015
 20
11413.06222649475
 30
0.0
 11
11459.47195970012
 21
11413.06222649471
 31
0.0
1001
REVIT
1002
{
1070
     1
1000
1910026
1002
}
1002
{
1070
     2
1000
-2000051
1002
}
1002
{
1070
     3
1000
133798
1002
}
  0
LINE
  5
E8
330
70
100
AcDbEntity
  8
A-DETL
100
AcDbLine
 10
11459.47195970012
 20
11413.06222649471
 30
0.0
 11
11459.47195970008
 21
11398.91222649475
 31
0.0
1001
REVIT
1002
{
1070
     1
1000
1910027
1002
}
1002
{
1070
     2
1000
-2000051
1002
}
1002
{
1070
     3
1000
133798
1002
}
  0
LINE
  5
E9
330
70
100
AcDbEntity
  8
A-DETL
100
AcDbLine
 10
11445.32195970015
 20
11394.0122264951
 30
0.0
 11
11459.47195970012
 21
11394.01222649507
 31
0.0
1001
REVIT
1002
{
1070
     1
1000
1910028
1002
}
1002
{
1070
     2
1000
-2000051
1002
}
1002
{
1070
     3
1000
133798
1002
}
  0
LINE
  5
EA
330
70
100
AcDbEntity
  8
A-DETL
100
AcDbLine
 10
11459.47195970012
 20
11394.01222649507
 30
0.0
 11
11459.47195970008
 21
11379.86222649501
 31
0.0
1001
REVIT
1002
{
1070
     1
1000
1910029
1002
}
1002
{
1070
     2
1000
-2000051
1002
}
1002
{
1070
     3
1000
133798
1002
}
  0
LINE
  5
EB
330
70
100
AcDbEntity
  8
A-DETL
100
AcDbLine
 10
11459.47195970008
 20
11379.86222649501
 30
0.0
 11
11445.32195970012
 21
11379.86222649504
 31
0.0
1001
REVIT
1002
{
1070
     1
1000
1910030
1002
}
1002
{
1070
     2
1000
-2000051
1002
}
1002
{
1070
     3
1000
133798
1002
}
  0
LINE
  5
EC
330
70
100
AcDbEntity
  8
A-DETL
100
AcDbLine
 10
11445.32195970012
 20
11379.86222649504
 30
0.0
 11
11445.32195970015
 21
11394.0122264951
 31
0.0
1001
REVIT
1002
{
1070
     1
1000
1910031
1002
}
1002
{
1070
     2
1000
-2000051
1002
}
1002
{
1070
     3
1000
133798
1002
}
  0
LINE
  5
ED
330
70
100
AcDbEntity
  8
A-DETL
100
AcDbLine
 10
11445.32195970015
 20
11374.96222649479
 30
0.0
 11
11459.47195970012
 21
11374.96222649476
 31
0.0
1001
REVIT
1002
{
1070
     1
1000
1910032
1002
}
1002
{
1070
     2
1000
-2000051
1002
}
1002
{
1070
     3
1000
133798
1002
}
  0
LINE
  5
EE
330
70
100
AcDbEntity
  8
A-DETL
100
AcDbLine
 10
11459.47195970012
 20
11374.96222649476
 30
0.0
 11
11459.47195970008
 21
11360.81222649479
 31
0.0
1001
REVIT
1002
{
1070
     1
1000
1910033
1002
}
1002
{
1070
     2
1000
-2000051
1002
}
1002
{
1070
     3
1000
133798
1002
}
  0
LINE
  5
EF
330
70
100
AcDbEntity
  8
A-DETL
100
AcDbLine
 10
11459.47195970008
 20
11360.81222649479
 30
0.0
 11
11445.32195970012
 21
11360.81222649482
 31
0.0
1001
REVIT
1002
{
1070
     1
1000
1910034
1002
}
1002
{
1070
     2
1000
-2000051
1002
}
1002
{
1070
     3
1000
133798
1002
}
  0
LINE
  5
F0
330
70
100
AcDbEntity
  8
A-DETL
100
AcDbLine
 10
11445.32195970012
 20
11360.81222649482
 30
0.0
 11
11445.32195970015
 21
11374.96222649479
 31
0.0
1001
REVIT
1002
{
1070
     1
1000
1910035
1002
}
1002
{
1070
     2
1000
-2000051
1002
}
1002
{
1070
     3
1000
133798
1002
}
  0
LINE
  5
F1
330
70
100
AcDbEntity
  8
A-DETL
100
AcDbLine
 10
11464.37195970015
 20
11374.96222649475
 30
0.0
 11
11478.52195970012
 21
11374.96222649472
 31
0.0
1001
REVIT
1002
{
1070
     1
1000
1910036
1002
}
1002
{
1070
     2
1000
-2000051
1002
}
1002
{
1070
     3
1000
133798
1002
}
  0
LINE
  5
F2
330
70
100
AcDbEntity
  8
A-DETL
100
AcDbLine
 10
11478.52195970012
 20
11374.96222649472
 30
0.0
 11
11478.52195970008
 21
11360.81222649474
 31
0.0
1001
REVIT
1002
{
1070
     1
1000
1910037
1002
}
1002
{
1070
     2
1000
-2000051
1002
}
1002
{
1070
     3
1000
133798
1002
}
  0
LINE
  5
F3
330
70
100
AcDbEntity
  8
A-DETL
100
AcDbLine
 10
11478.52195970008
 20
11360.81222649474
 30
0.0
 11
11464.37195970012
 21
11360.81222649477
 31
0.0
1001
REVIT
1002
{
1070
     1
1000
1910038
1002
}
1002
{
1070
     2
1000
-2000051
1002
}
1002
{
1070
     3
1000
133798
1002
}
  0
LINE
  5
F4
330
70
100
AcDbEntity
  8
A-DETL
100
AcDbLine
 10
11464.37195970012
 20
11360.81222649477
 30
0.0
 11
11464.37195970015
 21
11374.96222649475
 31
0.0
1001
REVIT
1002
{
1070
     1
1000
1910039
1002
}
1002
{
1070
     2
1000
-2000051
1002
}
1002
{
1070
     3
1000
133798
1002
}
  0
LINE
  5
F5
330
70
100
AcDbEntity
  8
A-DETL
100
AcDbLine
 10
11426.27195970015
 20
11374.96222649483
 30
0.0
 11
11440.42195970011
 21
11374.9622264948
 31
0.0
1001
REVIT
1002
{
1070
     1
1000
1910040
1002
}
1002
{
1070
     2
1000
-2000051
1002
}
1002
{
1070
     3
1000
133798
1002
}
  0
LINE
  5
F6
330
70
100
AcDbEntity
  8
A-DETL
100
AcDbLine
 10
11440.42195970011
 20
11374.9622264948
 30
0.0
 11
11440.42195970008
 21
11360.81222649483
 31
0.0
1001
REVIT
1002
{
1070
     1
1000
1910041
1002
}
1002
{
1070
     2
1000
-2000051
1002
}
1002
{
1070
     3
1000
133798
1002
}
  0
LINE
  5
F7
330
70
100
AcDbEntity
  8
A-DETL
100
AcDbLine
 10
11440.42195970008
 20
11360.81222649483
 30
0.0
 11
11426.27195970012
 21
11360.81222649486
 31
0.0
1001
REVIT
1002
{
1070
     1
1000
1910042
1002
}
1002
{
1070
     2
1000
-2000051
1002
}
1002
{
1070
     3
1000
133798
1002
}
  0
LINE
  5
F8
330
70
100
AcDbEntity
  8
A-DETL
100
AcDbLine
 10
11426.27195970012
 20
11360.81222649486
 30
0.0
 11
11426.27195970015
 21
11374.96222649483
 31
0.0
1001
REVIT
1002
{
1070
     1
1000
1910043
1002
}
1002
{
1070
     2
1000
-2000051
1002
}
1002
{
1070
     3
1000
133798
1002
}
  0
LINE
  5
F9
330
70
100
AcDbEntity
  8
A-DETL
100
AcDbLine
 10
11440.42195970008
 20
11379.8622264951
 30
0.0
 11
11426.27195970012
 21
11379.86222649513
 31
0.0
1001
REVIT
1002
{
1070
     1
1000
1910044
1002
}
1002
{
1070
     2
1000
-2000051
1002
}
1002
{
1070
     3
1000
133798
1002
}
  0
LINE
  5
FA
330
70
100
AcDbEntity
  8
A-DETL
100
AcDbLine
 10
11426.27195970012
 20
11379.86222649513
 30
0.0
 11
11426.27195970015
 21
11394.01222649523
 31
0.0
1001
REVIT
1002
{
1070
     1
1000
1910045
1002
}
1002
{
1070
     2
1000
-2000051
1002
}
1002
{
1070
     3
1000
133798
1002
}
  0
LINE
  5
FB
330
70
100
AcDbEntity
  8
A-DETL
100
AcDbLine
 10
11426.27195970015
 20
11394.01222649523
 30
0.0
 11
11440.42195970011
 21
11394.0122264952
 31
0.0
1001
REVIT
1002
{
1070
     1
1000
1910046
1002
}
1002
{
1070
     2
1000
-2000051
1002
}
1002
{
1070
     3
1000
133798
1002
}
  0
LINE
  5
FC
330
70
100
AcDbEntity
  8
A-DETL
100
AcDbLine
 10
11440.42195970011
 20
11394.0122264952
 30
0.0
 11
11440.42195970008
 21
11379.8622264951
 31
0.0
1001
REVIT
1002
{
1070
     1
1000
1910047
1002
}
1002
{
1070
     2
1000
-2000051
1002
}
1002
{
1070
     3
1000
133798
1002
}
  0
LINE
  5
FD
330
70
100
AcDbEntity
  8
A-DETL
100
AcDbLine
 10
11440.42195970008
 20
11398.91222649479
 30
0.0
 11
11426.27195970012
 21
11398.91222649482
 31
0.0
1001
REVIT
1002
{
1070
     1
1000
1910048
1002
}
1002
{
1070
     2
1000
-2000051
1002
}
1002
{
1070
     3
1000
133798
1002
}
  0
LINE
  5
FE
330
70
100
AcDbEntity
  8
A-DETL
100
AcDbLine
 10
11426.27195970012
 20
11398.91222649482
 30
0.0
 11
11426.27195970015
 21
11413.06222649479
 31
0.0
1001
REVIT
1002
{
1070
     1
1000
1910049
1002
}
1002
{
1070
     2
1000
-2000051
1002
}
1002
{
1070
     3
1000
133798
1002
}
  0
LINE
  5
FF
330
70
100
AcDbEntity
  8
A-DETL
100
AcDbLine
 10
11426.27195970015
 20
11413.06222649479
 30
0.0
 11
11440.42195970011
 21
11413.06222649476
 31
0.0
1001
REVIT
1002
{
1070
     1
1000
1910050
1002
}
1002
{
1070
     2
1000
-2000051
1002
}
1002
{
1070
     3
1000
133798
1002
}
  0
LINE
  5
100
330
70
100
AcDbEntity
  8
A-DETL
100
AcDbLine
 10
11440.42195970011
 20
11413.06222649476
 30
0.0
 11
11440.42195970008
 21
11398.91222649479
 31
0.0
1001
REVIT
1002
{
1070
     1
1000
1910051
1002
}
1002
{
1070
     2
1000
-2000051
1002
}
1002
{
1070
     3
1000
133798
1002
}
  0
LINE
  5
101
330
70
100
AcDbEntity
  8
A-DETL
100
AcDbLine
 10
11421.37195970008
 20
11398.91222649483
 30
0.0
 11
11407.22195970012
 21
11398.91222649486
 31
0.0
1001
REVIT
1002
{
1070
     1
1000
1910052
1002
}
1002
{
1070
     2
1000
-2000051
1002
}
1002
{
1070
     3
1000
133798
1002
}
  0
LINE
  5
102
330
70
100
AcDbEntity
  8
A-DETL
100
AcDbLine
 10
11407.22195970012
 20
11398.91222649486
 30
0.0
 11
11407.22195970015
 21
11413.06222649483
 31
0.0
1001
REVIT
1002
{
1070
     1
1000
1910053
1002
}
1002
{
1070
     2
1000
-2000051
1002
}
1002
{
1070
     3
1000
133798
1002
}
  0
LINE
  5
103
330
70
100
AcDbEntity
  8
A-DETL
100
AcDbLine
 10
11407.22195970015
 20
11413.06222649483
 30
0.0
 11
11421.37195970012
 21
11413.0622264948
 31
0.0
1001
REVIT
1002
{
1070
     1
1000
1910054
1002
}
1002
{
1070
     2
1000
-2000051
1002
}
1002
{
1070
     3
1000
133798
1002
}
  0
LINE
  5
104
330
70
100
AcDbEntity
  8
A-DETL
100
AcDbLine
 10
11421.37195970012
 20
11413.0622264948
 30
0.0
 11
11421.37195970008
 21
11398.91222649483
 31
0.0
1001
REVIT
1002
{
1070
     1
1000
1910055
1002
}
1002
{
1070
     2
1000
-2000051
1002
}
1002
{
1070
     3
1000
133798
1002
}
  0
LINE
  5
105
330
70
100
AcDbEntity
  8
A-DETL
100
AcDbLine
 10
11402.32195970008
 20
11398.91222649487
 30
0.0
 11
11388.17195970012
 21
11398.91222649491
 31
0.0
1001
REVIT
1002
{
1070
     1
1000
1910056
1002
}
1002
{
1070
     2
1000
-2000051
1002
}
1002
{
1070
     3
1000
133798
1002
}
  0
LINE
  5
106
330
70
100
AcDbEntity
  8
A-DETL
100
AcDbLine
 10
11388.17195970012
 20
11398.91222649491
 30
0.0
 11
11388.17195970015
 21
11413.06222649487
 31
0.0
1001
REVIT
1002
{
1070
     1
1000
1910057
1002
}
1002
{
1070
     2
1000
-2000051
1002
}
1002
{
1070
     3
1000
133798
1002
}
  0
LINE
  5
107
330
70
100
AcDbEntity
  8
A-DETL
100
AcDbLine
 10
11388.17195970015
 20
11413.06222649487
 30
0.0
 11
11402.32195970011
 21
11413.06222649484
 31
0.0
1001
REVIT
1002
{
1070
     1
1000
1910058
1002
}
1002
{
1070
     2
1000
-2000051
1002
}
1002
{
1070
     3
1000
133798
1002
}
  0
LINE
  5
108
330
70
100
AcDbEntity
  8
A-DETL
100
AcDbLine
 10
11402.32195970011
 20
11413.06222649484
 30
0.0
 11
11402.32195970008
 21
11398.91222649487
 31
0.0
1001
REVIT
1002
{
1070
     1
1000
1910059
1002
}
1002
{
1070
     2
1000
-2000051
1002
}
1002
{
1070
     3
1000
133798
1002
}
  0
LINE
  5
109
330
70
100
AcDbEntity
  8
A-DETL
100
AcDbLine
 10
11388.17195970015
 20
11394.01222649532
 30
0.0
 11
11402.32195970011
 21
11394.01222649528
 31
0.0
1001
REVIT
1002
{
1070
     1
1000
1910060
1002
}
1002
{
1070
     2
1000
-2000051
1002
}
1002
{
1070
     3
1000
133798
1002
}
  0
LINE
  5
10A
330
70
100
AcDbEntity
  8
A-DETL
100
AcDbLine
 10
11402.32195970011
 20
11394.01222649528
 30
0.0
 11
11402.32195970008
 21
11379.86222649514
 31
0.0
1001
REVIT
1002
{
1070
     1
1000
1910061
1002
}
1002
{
1070
     2
1000
-2000051
1002
}
1002
{
1070
     3
1000
133798
1002
}
  0
LINE
  5
10B
330
70
100
AcDbEntity
  8
A-DETL
100
AcDbLine
 10
11402.32195970008
 20
11379.86222649514
 30
0.0
 11
11388.17195970012
 21
11379.86222649517
 31
0.0
1001
REVIT
1002
{
1070
     1
1000
1910062
1002
}
1002
{
1070
     2
1000
-2000051
1002
}
1002
{
1070
     3
1000
133798
1002
}
  0
LINE
  5
10C
330
70
100
AcDbEntity
  8
A-DETL
100
AcDbLine
 10
11388.17195970012
 20
11379.86222649517
 30
0.0
 11
11388.17195970015
 21
11394.01222649532
 31
0.0
1001
REVIT
1002
{
1070
     1
1000
1910063
1002
}
1002
{
1070
     2
1000
-2000051
1002
}
1002
{
1070
     3
1000
133798
1002
}
  0
LINE
  5
10D
330
70
100
AcDbEntity
  8
A-DETL
100
AcDbLine
 10
11407.22195970015
 20
11394.01222649527
 30
0.0
 11
11421.37195970012
 21
11394.01222649524
 31
0.0
1001
REVIT
1002
{
1070
     1
1000
1910064
1002
}
1002
{
1070
     2
1000
-2000051
1002
}
1002
{
1070
     3
1000
133798
1002
}
  0
LINE
  5
10E
330
70
100
AcDbEntity
  8
A-DETL
100
AcDbLine
 10
11421.37195970012
 20
11394.01222649524
 30
0.0
 11
11421.37195970008
 21
11379.8622264951
 31
0.0
1001
REVIT
1002
{
1070
     1
1000
1910065
1002
}
1002
{
1070
     2
1000
-2000051
1002
}
1002
{
1070
     3
1000
133798
1002
}
  0
LINE
  5
10F
330
70
100
AcDbEntity
  8
A-DETL
100
AcDbLine
 10
11421.37195970008
 20
11379.8622264951
 30
0.0
 11
11407.22195970012
 21
11379.86222649513
 31
0.0
1001
REVIT
1002
{
1070
     1
1000
1910066
1002
}
1002
{
1070
     2
1000
-2000051
1002
}
1002
{
1070
     3
1000
133798
1002
}
  0
LINE
  5
110
330
70
100
AcDbEntity
  8
A-DETL
100
AcDbLine
 10
11407.22195970012
 20
11379.86222649513
 30
0.0
 11
11407.22195970015
 21
11394.01222649527
 31
0.0
1001
REVIT
1002
{
1070
     1
1000
1910067
1002
}
1002
{
1070
     2
1000
-2000051
1002
}
1002
{
1070
     3
1000
133798
1002
}
  0
LINE
  5
111
330
70
100
AcDbEntity
  8
A-DETL
100
AcDbLine
 10
11394.31408742711
 20
11374.96222649469
 30
0.0
 11
11415.03025257093
 21
11374.96222649464
 31
0.0
1001
REVIT
1002
{
1070
     1
1000
1910068
1002
}
1002
{
1070
     2
1000
-2000051
1002
}
1002
{
1070
     3
1000
133798
1002
}
  0
LINE
  5
112
330
70
100
AcDbEntity
  8
A-DETL
100
AcDbLine
 10
11415.03025257093
 20
11374.96222649464
 30
0.0
 11
11415.03025257094
 21
11375.96085602966
 31
0.0
1001
REVIT
1002
{
1070
     1
1000
1910069
1002
}
1002
{
1070
     2
1000
-2000051
1002
}
1002
{
1070
     3
1000
133798
1002
}
  0
LINE
  5
113
330
70
100
AcDbEntity
  8
A-DETL
100
AcDbLine
 10
11415.03025257094
 20
11375.96085602966
 30
0.0
 11
11418.36387672632
 21
11375.96085602966
 31
0.0
1001
REVIT
1002
{
1070
     1
1000
1910070
1002
}
1002
{
1070
     2
1000
-2000051
1002
}
1002
{
1070
     3
1000
133798
1002
}
  0
LINE
  5
114
330
70
100
AcDbEntity
  8
A-DETL
100
AcDbLine
 10
11418.36387672632
 20
11375.96085602966
 30
0.0
 11
11418.36387672631
 21
11374.9622264949
 31
0.0
1001
REVIT
1002
{
1070
     1
1000
1910071
1002
}
1002
{
1070
     2
1000
-2000051
1002
}
1002
{
1070
     3
1000
133798
1002
}
  0
LINE
  5
115
330
70
100
AcDbEntity
  8
A-DETL
100
AcDbLine
 10
11418.36387672631
 20
11374.9622264949
 30
0.0
 11
11421.37195970012
 21
11374.9622264949
 31
0.0
1001
REVIT
1002
{
1070
     1
1000
1910072
1002
}
1002
{
1070
     2
1000
-2000051
1002
}
1002
{
1070
     3
1000
133798
1002
}
  0
LINE
  5
116
330
70
100
AcDbEntity
  8
A-DETL
100
AcDbLine
 10
11421.37195970012
 20
11374.9622264949
 30
0.0
 11
11421.37195970008
 21
11360.81222649488
 31
0.0
1001
REVIT
1002
{
1070
     1
1000
1910073
1002
}
1002
{
1070
     2
1000
-2000051
1002
}
1002
{
1070
     3
1000
133798
1002
}
  0
LINE
  5
117
330
70
100
AcDbEntity
  8
A-DETL
100
AcDbLine
 10
11421.37195970008
 20
11360.81222649488
 30
0.0
 11
11388.17195970009
 21
11360.81222649495
 31
0.0
1001
REVIT
1002
{
1070
     1
1000
1910074
1002
}
1002
{
1070
     2
1000
-2000051
1002
}
1002
{
1070
     3
1000
133798
1002
}
  0
LINE
  5
118
330
70
100
AcDbEntity
  8
A-DETL
100
AcDbLine
 10
11388.17195970009
 20
11360.81222649495
 30
0.0
 11
11388.17195970012
 21
11374.9622264947
 31
0.0
1001
REVIT
1002
{
1070
     1
1000
1910075
1002
}
1002
{
1070
     2
1000
-2000051
1002
}
1002
{
1070
     3
1000
133798
1002
}
  0
LINE
  5
119
330
70
100
AcDbEntity
  8
A-DETL
100
AcDbLine
 10
11388.17195970012
 20
11374.9622264947
 30
0.0
 11
11390.98046327173
 21
11374.9622264947
 31
0.0
1001
REVIT
1002
{
1070
     1
1000
1910076
1002
}
1002
{
1070
     2
1000
-2000051
1002
}
1002
{
1070
     3
1000
133798
1002
}
  0
LINE
  5
11A
330
70
100
AcDbEntity
  8
A-DETL
100
AcDbLine
 10
11390.98046327173
 20
11374.9622264947
 30
0.0
 11
11390.98046327174
 21
11375.96085602972
 31
0.0
1001
REVIT
1002
{
1070
     1
1000
1910077
1002
}
1002
{
1070
     2
1000
-2000051
1002
}
1002
{
1070
     3
1000
133798
1002
}
  0
LINE
  5
11B
330
70
100
AcDbEntity
  8
A-DETL
100
AcDbLine
 10
11390.98046327174
 20
11375.96085602972
 30
0.0
 11
11394.31408742711
 21
11375.96085602971
 31
0.0
1001
REVIT
1002
{
1070
     1
1000
1910078
1002
}
1002
{
1070
     2
1000
-2000051
1002
}
1002
{
1070
     3
1000
133798
1002
}
  0
LINE
  5
11C
330
70
100
AcDbEntity
  8
A-DETL
100
AcDbLine
 10
11394.31408742711
 20
11375.96085602971
 30
0.0
 11
11394.31408742711
 21
11374.96222649469
 31
0.0
1001
REVIT
1002
{
1070
     1
1000
1910079
1002
}
1002
{
1070
     2
1000
-2000051
1002
}
1002
{
1070
     3
1000
133798
1002
}
  0
LINE
  5
11D
330
70
100
AcDbEntity
  8
A-DETL
100
AcDbLine
 10
11369.12195970012
 20
11374.96222649497
 30
0.0
 11
11383.2697433981
 21
11374.96222649493
 31
0.0
1001
REVIT
1002
{
1070
     1
1000
1910080
1002
}
1002
{
1070
     2
1000
-2000051
1002
}
1002
{
1070
     3
1000
133798
1002
}
  0
LINE
  5
11E
330
70
100
AcDbEntity
  8
A-DETL
100
AcDbLine
 10
11383.2697433981
 20
11374.96222649493
 30
0.0
 11
11383.26974339807
 21
11360.81222649496
 31
0.0
1001
REVIT
1002
{
1070
     1
1000
1910081
1002
}
1002
{
1070
     2
1000
-2000051
1002
}
1002
{
1070
     3
1000
133798
1002
}
  0
LINE
  5
11F
330
70
100
AcDbEntity
  8
A-DETL
100
AcDbLine
 10
11383.26974339807
 20
11360.81222649496
 30
0.0
 11
11369.12195970009
 21
11360.812226495
 31
0.0
1001
REVIT
1002
{
1070
     1
1000
1910082
1002
}
1002
{
1070
     2
1000
-2000051
1002
}
1002
{
1070
     3
1000
133798
1002
}
  0
LINE
  5
120
330
70
100
AcDbEntity
  8
A-DETL
100
AcDbLine
 10
11369.12195970009
 20
11360.812226495
 30
0.0
 11
11369.12195970012
 21
11374.96222649497
 31
0.0
1001
REVIT
1002
{
1070
     1
1000
1910083
1002
}
1002
{
1070
     2
1000
-2000051
1002
}
1002
{
1070
     3
1000
133798
1002
}
  0
LINE
  5
121
330
70
100
AcDbEntity
  8
A-DETL
100
AcDbLine
 10
11383.27195970008
 20
11379.86222649518
 30
0.0
 11
11369.12195970012
 21
11379.86222649521
 31
0.0
1001
REVIT
1002
{
1070
     1
1000
1910084
1002
}
1002
{
1070
     2
1000
-2000051
1002
}
1002
{
1070
     3
1000
133798
1002
}
  0
LINE
  5
122
330
70
100
AcDbEntity
  8
A-DETL
100
AcDbLine
 10
11369.12195970012
 20
11379.86222649521
 30
0.0
 11
11369.12195970015
 21
11394.01222649536
 31
0.0
1001
REVIT
1002
{
1070
     1
1000
1910085
1002
}
1002
{
1070
     2
1000
-2000051
1002
}
1002
{
1070
     3
1000
133798
1002
}
  0
LINE
  5
123
330
70
100
AcDbEntity
  8
A-DETL
100
AcDbLine
 10
11369.12195970015
 20
11394.01222649536
 30
0.0
 11
11383.27195970012
 21
11394.01222649533
 31
0.0
1001
REVIT
1002
{
1070
     1
1000
1910086
1002
}
1002
{
1070
     2
1000
-2000051
1002
}
1002
{
1070
     3
1000
133798
1002
}
  0
LINE
  5
124
330
70
100
AcDbEntity
  8
A-DETL
100
AcDbLine
 10
11383.27195970012
 20
11394.01222649533
 30
0.0
 11
11383.27195970008
 21
11379.86222649518
 31
0.0
1001
REVIT
1002
{
1070
     1
1000
1910087
1002
}
1002
{
1070
     2
1000
-2000051
1002
}
1002
{
1070
     3
1000
133798
1002
}
  0
LINE
  5
125
330
70
100
AcDbEntity
  8
A-DETL
100
AcDbLine
 10
11383.27195970008
 20
11398.91222649492
 30
0.0
 11
11369.12195970012
 21
11398.91222649495
 31
0.0
1001
REVIT
1002
{
1070
     1
1000
1910088
1002
}
1002
{
1070
     2
1000
-2000051
1002
}
1002
{
1070
     3
1000
133798
1002
}
  0
LINE
  5
126
330
70
100
AcDbEntity
  8
A-DETL
100
AcDbLine
 10
11369.12195970012
 20
11398.91222649495
 30
0.0
 11
11369.12195970015
 21
11413.06222649492
 31
0.0
1001
REVIT
1002
{
1070
     1
1000
1910089
1002
}
1002
{
1070
     2
1000
-2000051
1002
}
1002
{
1070
     3
1000
133798
1002
}
  0
LINE
  5
127
330
70
100
AcDbEntity
  8
A-DETL
100
AcDbLine
 10
11369.12195970015
 20
11413.06222649492
 30
0.0
 11
11383.27195970012
 21
11413.06222649488
 31
0.0
1001
REVIT
1002
{
1070
     1
1000
1910090
1002
}
1002
{
1070
     2
1000
-2000051
1002
}
1002
{
1070
     3
1000
133798
1002
}
  0
LINE
  5
128
330
70
100
AcDbEntity
  8
A-DETL
100
AcDbLine
 10
11383.27195970012
 20
11413.06222649488
 30
0.0
 11
11383.27195970008
 21
11398.91222649492
 31
0.0
1001
REVIT
1002
{
1070
     1
1000
1910091
1002
}
1002
{
1070
     2
1000
-2000051
1002
}
1002
{
1070
     3
1000
133798
1002
}
  0
LINE
  5
129
330
70
100
AcDbEntity
  8
A-DETL
100
AcDbLine
 10
11364.22195970008
 20
11398.91222649509
 30
0.0
 11
11350.07195970012
 21
11398.91222649513
 31
0.0
1001
REVIT
1002
{
1070
     1
1000
1910092
1002
}
1002
{
1070
     2
1000
-2000051
1002
}
1002
{
1070
     3
1000
133798
1002
}
  0
LINE
  5
12A
330
70
100
AcDbEntity
  8
A-DETL
100
AcDbLine
 10
11350.07195970012
 20
11398.91222649513
 30
0.0
 11
11350.07195970015
 21
11413.0622264951
 31
0.0
1001
REVIT
1002
{
1070
     1
1000
1910093
1002
}
1002
{
1070
     2
1000
-2000051
1002
}
1002
{
1070
     3
1000
133798
1002
}
  0
LINE
  5
12B
330
70
100
AcDbEntity
  8
A-DETL
100
AcDbLine
 10
11350.07195970015
 20
11413.0622264951
 30
0.0
 11
11364.22195970012
 21
11413.06222649506
 31
0.0
1001
REVIT
1002
{
1070
     1
1000
1910094
1002
}
1002
{
1070
     2
1000
-2000051
1002
}
1002
{
1070
     3
1000
133798
1002
}
  0
LINE
  5
12C
330
70
100
AcDbEntity
  8
A-DETL
100
AcDbLine
 10
11364.22195970012
 20
11413.06222649506
 30
0.0
 11
11364.22195970008
 21
11398.91222649509
 31
0.0
1001
REVIT
1002
{
1070
     1
1000
1910095
1002
}
1002
{
1070
     2
1000
-2000051
1002
}
1002
{
1070
     3
1000
133798
1002
}
  0
LINE
  5
12D
330
70
100
AcDbEntity
  8
A-DETL
100
AcDbLine
 10
11350.07195970015
 20
11394.01222649541
 30
0.0
 11
11364.22195970012
 21
11394.01222649538
 31
0.0
1001
REVIT
1002
{
1070
     1
1000
1910096
1002
}
1002
{
1070
     2
1000
-2000051
1002
}
1002
{
1070
     3
1000
133798
1002
}
  0
LINE
  5
12E
330
70
100
AcDbEntity
  8
A-DETL
100
AcDbLine
 10
11364.22195970012
 20
11394.01222649538
 30
0.0
 11
11364.22195970008
 21
11379.86222649522
 31
0.0
1001
REVIT
1002
{
1070
     1
1000
1910097
1002
}
1002
{
1070
     2
1000
-2000051
1002
}
1002
{
1070
     3
1000
133798
1002
}
  0
LINE
  5
12F
330
70
100
AcDbEntity
  8
A-DETL
100
AcDbLine
 10
11364.22195970008
 20
11379.86222649522
 30
0.0
 11
11350.07195970012
 21
11379.86222649526
 31
0.0
1001
REVIT
1002
{
1070
     1
1000
1910098
1002
}
1002
{
1070
     2
1000
-2000051
1002
}
1002
{
1070
     3
1000
133798
1002
}
  0
LINE
  5
130
330
70
100
AcDbEntity
  8
A-DETL
100
AcDbLine
 10
11350.07195970012
 20
11379.86222649526
 30
0.0
 11
11350.07195970015
 21
11394.01222649541
 31
0.0
1001
REVIT
1002
{
1070
     1
1000
1910099
1002
}
1002
{
1070
     2
1000
-2000051
1002
}
1002
{
1070
     3
1000
133798
1002
}
  0
LINE
  5
131
330
70
100
AcDbEntity
  8
A-DETL
100
AcDbLine
 10
11350.07195970015
 20
11374.96222649501
 30
0.0
 11
11364.22195970012
 21
11374.96222649498
 31
0.0
1001
REVIT
1002
{
1070
     1
1000
1910100
1002
}
1002
{
1070
     2
1000
-2000051
1002
}
1002
{
1070
     3
1000
133798
1002
}
  0
LINE
  5
132
330
70
100
AcDbEntity
  8
A-DETL
100
AcDbLine
 10
11364.22195970012
 20
11374.96222649498
 30
0.0
 11
11364.22195970008
 21
11360.81222649501
 31
0.0
1001
REVIT
1002
{
1070
     1
1000
1910101
1002
}
1002
{
1070
     2
1000
-2000051
1002
}
1002
{
1070
     3
1000
133798
1002
}
  0
LINE
  5
133
330
70
100
AcDbEntity
  8
A-DETL
100
AcDbLine
 10
11364.22195970008
 20
11360.81222649501
 30
0.0
 11
11350.07195970012
 21
11360.81222649504
 31
0.0
1001
REVIT
1002
{
1070
     1
1000
1910102
1002
}
1002
{
1070
     2
1000
-2000051
1002
}
1002
{
1070
     3
1000
133798
1002
}
  0
LINE
  5
134
330
70
100
AcDbEntity
  8
A-DETL
100
AcDbLine
 10
11350.07195970012
 20
11360.81222649504
 30
0.0
 11
11350.07195970015
 21
11374.96222649501
 31
0.0
1001
REVIT
1002
{
1070
     1
1000
1910103
1002
}
1002
{
1070
     2
1000
-2000051
1002
}
1002
{
1070
     3
1000
133798
1002
}
  0
ARC
  5
135
330
70
100
AcDbEntity
  8
A-DETL
100
AcDbCircle
 10
11357.1469597001
 20
11354.78722649517
 30
0.0
 40
1.5
100
AcDbArc
 50
180.0
 51
0.0
1001
REVIT
1002
{
1070
     1
1000
1910104
1002
}
1002
{
1070
     2
1000
-2000051
1002
}
1002
{
1070
     3
1000
133798
1002
}
  0
ARC
  5
136
330
70
100
AcDbEntity
  8
A-DETL
100
AcDbCircle
 10
11357.1469597001
 20
11354.78722649517
 30
0.0
 40
1.499999999998181
100
AcDbArc
 50
0.0
 51
180.0
1001
REVIT
1002
{
1070
     1
1000
1910105
1002
}
1002
{
1070
     2
1000
-2000051
1002
}
1002
{
1070
     3
1000
133798
1002
}
  0
ARC
  5
137
330
70
100
AcDbEntity
  8
A-DETL
100
AcDbCircle
 10
11357.1469597001
 20
11419.08722649502
 30
0.0
 40
1.499999999998181
100
AcDbArc
 50
0.0
 51
180.0
1001
REVIT
1002
{
1070
     1
1000
1910106
1002
}
1002
{
1070
     2
1000
-2000051
1002
}
1002
{
1070
     3
1000
133798
1002
}
  0
ARC
  5
138
330
70
100
AcDbEntity
  8
A-DETL
100
AcDbCircle
 10
11357.1469597001
 20
11419.08722649502
 30
0.0
 40
1.5
100
AcDbArc
 50
180.0
 51
0.0
1001
REVIT
1002
{
1070
     1
1000
1910107
1002
}
1002
{
1070
     2
1000
-2000051
1002
}
1002
{
1070
     3
1000
133798
1002
}
  0
ARC
  5
139
330
70
100
AcDbEntity
  8
A-DETL
100
AcDbCircle
 10
11299.9963515496
 20
11419.08722649502
 30
0.0
 40
1.5
100
AcDbArc
 50
180.0
 51
0.0
1001
REVIT
1002
{
1070
     1
1000
1910108
1002
}
1002
{
1070
     2
1000
-2000051
1002
}
1002
{
1070
     3
1000
133798
1002
}
  0
ARC
  5
13A
330
70
100
AcDbEntity
  8
A-DETL
100
AcDbCircle
 10
11299.9963515496
 20
11419.08722649502
 30
0.0
 40
1.5
100
AcDbArc
 50
0.0
 51
180.0
1001
REVIT
1002
{
1070
     1
1000
1910109
1002
}
1002
{
1070
     2
1000
-2000051
1002
}
1002
{
1070
     3
1000
133798
1002
}
  0
LINE
  5
13B
330
70
100
AcDbEntity
  8
A-DETL
100
AcDbLine
 10
11296.25453098092
 20
11414.74427892723
 30
0.0
 11
11303.72733534782
 21
11414.74427892723
 31
0.0
1001
REVIT
1002
{
1070
     1
1000
1910110
1002
}
1002
{
1070
     2
1000
-2000051
1002
}
1002
{
1070
     3
1000
133798
1002
}
  0
LINE
  5
13C
330
70
100
AcDbEntity
  8
A-DETL
100
AcDbLine
 10
11303.72733534782
 20
11414.74427892723
 30
0.0
 11
11303.72733534782
 21
11413.06222649507
 31
0.0
1001
REVIT
1002
{
1070
     1
1000
1910111
1002
}
1002
{
1070
     2
1000
-2000051
1002
}
1002
{
1070
     3
1000
133798
1002
}
  0
LINE
  5
13D
330
70
100
AcDbEntity
  8
A-DETL
100
AcDbLine
 10
11303.72733534782
 20
11413.06222649507
 30
0.0
 11
11307.07024339867
 21
11413.06222649506
 31
0.0
1001
REVIT
1002
{
1070
     1
1000
1910112
1002
}
1002
{
1070
     2
1000
-2000051
1002
}
1002
{
1070
     3
1000
133798
1002
}
  0
LINE
  5
13E
330
70
100
AcDbEntity
  8
A-DETL
100
AcDbLine
 10
11307.07024339867
 20
11413.06222649506
 30
0.0
 11
11307.07024339864
 21
11398.91222649509
 31
0.0
1001
REVIT
1002
{
1070
     1
1000
1910113
1002
}
1002
{
1070
     2
1000
-2000051
1002
}
1002
{
1070
     3
1000
133798
1002
}
  0
LINE
  5
13F
330
70
100
AcDbEntity
  8
A-DETL
100
AcDbLine
 10
11307.07024339864
 20
11398.91222649509
 30
0.0
 11
11303.72733534782
 21
11398.9122264951
 31
0.0
1001
REVIT
1002
{
1070
     1
1000
1910114
1002
}
1002
{
1070
     2
1000
-2000051
1002
}
1002
{
1070
     3
1000
133798
1002
}
  0
LINE
  5
140
330
70
100
AcDbEntity
  8
A-DETL
100
AcDbLine
 10
11303.72733534782
 20
11398.9122264951
 30
0.0
 11
11303.72733534782
 21
11397.23017406298
 31
0.0
1001
REVIT
1002
{
1070
     1
1000
1910115
1002
}
1002
{
1070
     2
1000
-2000051
1002
}
1002
{
1070
     3
1000
133798
1002
}
  0
LINE
  5
141
330
70
100
AcDbEntity
  8
A-DETL
100
AcDbLine
 10
11303.72733534782
 20
11397.23017406298
 30
0.0
 11
11296.25453098092
 21
11397.23017406298
 31
0.0
1001
REVIT
1002
{
1070
     1
1000
1910116
1002
}
1002
{
1070
     2
1000
-2000051
1002
}
1002
{
1070
     3
1000
133798
1002
}
  0
LINE
  5
142
330
70
100
AcDbEntity
  8
A-DETL
100
AcDbLine
 10
11296.25453098092
 20
11397.23017406298
 30
0.0
 11
11296.25453098092
 21
11398.91222649512
 31
0.0
1001
REVIT
1002
{
1070
     1
1000
1910117
1002
}
1002
{
1070
     2
1000
-2000051
1002
}
1002
{
1070
     3
1000
133798
1002
}
  0
LINE
  5
143
330
70
100
AcDbEntity
  8
A-DETL
100
AcDbLine
 10
11296.25453098092
 20
11398.91222649512
 30
0.0
 11
11292.92245970066
 21
11398.91222649513
 31
0.0
1001
REVIT
1002
{
1070
     1
1000
1910118
1002
}
1002
{
1070
     2
1000
-2000051
1002
}
1002
{
1070
     3
1000
133798
1002
}
  0
LINE
  5
144
330
70
100
AcDbEntity
  8
A-DETL
100
AcDbLine
 10
11292.92245970066
 20
11398.91222649513
 30
0.0
 11
11292.92245970069
 21
11413.06222649509
 31
0.0
1001
REVIT
1002
{
1070
     1
1000
1910119
1002
}
1002
{
1070
     2
1000
-2000051
1002
}
1002
{
1070
     3
1000
133798
1002
}
  0
LINE
  5
145
330
70
100
AcDbEntity
  8
A-DETL
100
AcDbLine
 10
11292.92245970069
 20
11413.06222649509
 30
0.0
 11
11296.25453098092
 21
11413.06222649508
 31
0.0
1001
REVIT
1002
{
1070
     1
1000
1910120
1002
}
1002
{
1070
     2
1000
-2000051
1002
}
1002
{
1070
     3
1000
133798
1002
}
  0
LINE
  5
146
330
70
100
AcDbEntity
  8
A-DETL
100
AcDbLine
 10
11296.25453098092
 20
11413.06222649508
 30
0.0
 11
11296.25453098092
 21
11414.74427892723
 31
0.0
1001
REVIT
1002
{
1070
     1
1000
1910121
1002
}
1002
{
1070
     2
1000
-2000051
1002
}
1002
{
1070
     3
1000
133798
1002
}
  0
LINE
  5
147
330
70
100
AcDbEntity
  8
A-DETL
100
AcDbLine
 10
11311.97245970015
 20
11413.06222649509
 30
0.0
 11
11326.12245970012
 21
11413.06222649506
 31
0.0
1001
REVIT
1002
{
1070
     1
1000
1910122
1002
}
1002
{
1070
     2
1000
-2000051
1002
}
1002
{
1070
     3
1000
133798
1002
}
  0
LINE
  5
148
330
70
100
AcDbEntity
  8
A-DETL
100
AcDbLine
 10
11326.12245970012
 20
11413.06222649506
 30
0.0
 11
11326.12245970008
 21
11398.91222649509
 31
0.0
1001
REVIT
1002
{
1070
     1
1000
1910123
1002
}
1002
{
1070
     2
1000
-2000051
1002
}
1002
{
1070
     3
1000
133798
1002
}
  0
LINE
  5
149
330
70
100
AcDbEntity
  8
A-DETL
100
AcDbLine
 10
11326.12245970008
 20
11398.91222649509
 30
0.0
 11
11311.97245970012
 21
11398.91222649513
 31
0.0
1001
REVIT
1002
{
1070
     1
1000
1910124
1002
}
1002
{
1070
     2
1000
-2000051
1002
}
1002
{
1070
     3
1000
133798
1002
}
  0
LINE
  5
14A
330
70
100
AcDbEntity
  8
A-DETL
100
AcDbLine
 10
11311.97245970012
 20
11398.91222649513
 30
0.0
 11
11311.97245970015
 21
11413.06222649509
 31
0.0
1001
REVIT
1002
{
1070
     1
1000
1910125
1002
}
1002
{
1070
     2
1000
-2000051
1002
}
1002
{
1070
     3
1000
133798
1002
}
  0
LINE
  5
14B
330
70
100
AcDbEntity
  8
A-DETL
100
AcDbLine
 10
11331.02195970015
 20
11413.06222649509
 30
0.0
 11
11345.17195970011
 21
11413.06222649506
 31
0.0
1001
REVIT
1002
{
1070
     1
1000
1910126
1002
}
1002
{
1070
     2
1000
-2000051
1002
}
1002
{
1070
     3
1000
133798
1002
}
  0
LINE
  5
14C
330
70
100
AcDbEntity
  8
A-DETL
100
AcDbLine
 10
11345.17195970011
 20
11413.06222649506
 30
0.0
 11
11345.17195970008
 21
11398.91222649509
 31
0.0
1001
REVIT
1002
{
1070
     1
1000
1910127
1002
}
1002
{
1070
     2
1000
-2000051
1002
}
1002
{
1070
     3
1000
133798
1002
}
  0
LINE
  5
14D
330
70
100
AcDbEntity
  8
A-DETL
100
AcDbLine
 10
11345.17195970008
 20
11398.91222649509
 30
0.0
 11
11331.02195970012
 21
11398.91222649513
 31
0.0
1001
REVIT
1002
{
1070
     1
1000
1910128
1002
}
1002
{
1070
     2
1000
-2000051
1002
}
1002
{
1070
     3
1000
133798
1002
}
  0
LINE
  5
14E
330
70
100
AcDbEntity
  8
A-DETL
100
AcDbLine
 10
11331.02195970012
 20
11398.91222649513
 30
0.0
 11
11331.02195970015
 21
11413.06222649509
 31
0.0
1001
REVIT
1002
{
1070
     1
1000
1910129
1002
}
1002
{
1070
     2
1000
-2000051
1002
}
1002
{
1070
     3
1000
133798
1002
}
  0
LINE
  5
14F
330
70
100
AcDbEntity
  8
A-DETL
100
AcDbLine
 10
11331.02195970015
 20
11394.01222649545
 30
0.0
 11
11345.17195970011
 21
11394.01222649542
 31
0.0
1001
REVIT
1002
{
1070
     1
1000
1910130
1002
}
1002
{
1070
     2
1000
-2000051
1002
}
1002
{
1070
     3
1000
133798
1002
}
  0
LINE
  5
150
330
70
100
AcDbEntity
  8
A-DETL
100
AcDbLine
 10
11345.17195970011
 20
11394.01222649542
 30
0.0
 11
11345.17195970008
 21
11379.86222649527
 31
0.0
1001
REVIT
1002
{
1070
     1
1000
1910131
1002
}
1002
{
1070
     2
1000
-2000051
1002
}
1002
{
1070
     3
1000
133798
1002
}
  0
LINE
  5
151
330
70
100
AcDbEntity
  8
A-DETL
100
AcDbLine
 10
11345.17195970008
 20
11379.86222649527
 30
0.0
 11
11331.02195970012
 21
11379.8622264953
 31
0.0
1001
REVIT
1002
{
1070
     1
1000
1910132
1002
}
1002
{
1070
     2
1000
-2000051
1002
}
1002
{
1070
     3
1000
133798
1002
}
  0
LINE
  5
152
330
70
100
AcDbEntity
  8
A-DETL
100
AcDbLine
 10
11331.02195970012
 20
11379.8622264953
 30
0.0
 11
11331.02195970015
 21
11394.01222649545
 31
0.0
1001
REVIT
1002
{
1070
     1
1000
1910133
1002
}
1002
{
1070
     2
1000
-2000051
1002
}
1002
{
1070
     3
1000
133798
1002
}
  0
LINE
  5
153
330
70
100
AcDbEntity
  8
A-DETL
100
AcDbLine
 10
11311.97245970015
 20
11394.01222649549
 30
0.0
 11
11326.12245970012
 21
11394.01222649546
 31
0.0
1001
REVIT
1002
{
1070
     1
1000
1910134
1002
}
1002
{
1070
     2
1000
-2000051
1002
}
1002
{
1070
     3
1000
133798
1002
}
  0
LINE
  5
154
330
70
100
AcDbEntity
  8
A-DETL
100
AcDbLine
 10
11326.12245970012
 20
11394.01222649546
 30
0.0
 11
11326.12245970008
 21
11379.86222649531
 31
0.0
1001
REVIT
1002
{
1070
     1
1000
1910135
1002
}
1002
{
1070
     2
1000
-2000051
1002
}
1002
{
1070
     3
1000
133798
1002
}
  0
LINE
  5
155
330
70
100
AcDbEntity
  8
A-DETL
100
AcDbLine
 10
11326.12245970008
 20
11379.86222649531
 30
0.0
 11
11311.97245970012
 21
11379.86222649535
 31
0.0
1001
REVIT
1002
{
1070
     1
1000
1910136
1002
}
1002
{
1070
     2
1000
-2000051
1002
}
1002
{
1070
     3
1000
133798
1002
}
  0
LINE
  5
156
330
70
100
AcDbEntity
  8
A-DETL
100
AcDbLine
 10
11311.97245970012
 20
11379.86222649535
 30
0.0
 11
11311.97245970015
 21
11394.01222649549
 31
0.0
1001
REVIT
1002
{
1070
     1
1000
1910137
1002
}
1002
{
1070
     2
1000
-2000051
1002
}
1002
{
1070
     3
1000
133798
1002
}
  0
LINE
  5
157
330
70
100
AcDbEntity
  8
A-DETL
100
AcDbLine
 10
11292.92245970069
 20
11394.01222649509
 30
0.0
 11
11307.07024339867
 21
11394.01222649506
 31
0.0
1001
REVIT
1002
{
1070
     1
1000
1910138
1002
}
1002
{
1070
     2
1000
-2000051
1002
}
1002
{
1070
     3
1000
133798
1002
}
  0
LINE
  5
158
330
70
100
AcDbEntity
  8
A-DETL
100
AcDbLine
 10
11307.07024339867
 20
11394.01222649506
 30
0.0
 11
11307.07024339864
 21
11379.86222649536
 31
0.0
1001
REVIT
1002
{
1070
     1
1000
1910139
1002
}
1002
{
1070
     2
1000
-2000051
1002
}
1002
{
1070
     3
1000
133798
1002
}
  0
LINE
  5
159
330
70
100
AcDbEntity
  8
A-DETL
100
AcDbLine
 10
11307.07024339864
 20
11379.86222649536
 30
0.0
 11
11292.92245970066
 21
11379.86222649539
 31
0.0
1001
REVIT
1002
{
1070
     1
1000
1910140
1002
}
1002
{
1070
     2
1000
-2000051
1002
}
1002
{
1070
     3
1000
133798
1002
}
  0
LINE
  5
15A
330
70
100
AcDbEntity
  8
A-DETL
100
AcDbLine
 10
11292.92245970066
 20
11379.86222649539
 30
0.0
 11
11292.92245970069
 21
11394.01222649509
 31
0.0
1001
REVIT
1002
{
1070
     1
1000
1910141
1002
}
1002
{
1070
     2
1000
-2000051
1002
}
1002
{
1070
     3
1000
133798
1002
}
  0
LINE
  5
15B
330
70
100
AcDbEntity
  8
A-DETL
100
AcDbLine
 10
11292.92245970064
 20
11374.96222649509
 30
0.0
 11
11307.07024339863
 21
11374.96222649506
 31
0.0
1001
REVIT
1002
{
1070
     1
1000
1910142
1002
}
1002
{
1070
     2
1000
-2000051
1002
}
1002
{
1070
     3
1000
133798
1002
}
  0
LINE
  5
15C
330
70
100
AcDbEntity
  8
A-DETL
100
AcDbLine
 10
11307.07024339863
 20
11374.96222649506
 30
0.0
 11
11307.07024339859
 21
11360.81222649509
 31
0.0
1001
REVIT
1002
{
1070
     1
1000
1910143
1002
}
1002
{
1070
     2
1000
-2000051
1002
}
1002
{
1070
     3
1000
133798
1002
}
  0
LINE
  5
15D
330
70
100
AcDbEntity
  8
A-DETL
100
AcDbLine
 10
11307.07024339859
 20
11360.81222649509
 30
0.0
 11
11292.92245970061
 21
11360.81222649512
 31
0.0
1001
REVIT
1002
{
1070
     1
1000
1910144
1002
}
1002
{
1070
     2
1000
-2000051
1002
}
1002
{
1070
     3
1000
133798
1002
}
  0
LINE
  5
15E
330
70
100
AcDbEntity
  8
A-DETL
100
AcDbLine
 10
11292.92245970061
 20
11360.81222649512
 30
0.0
 11
11292.92245970064
 21
11374.96222649509
 31
0.0
1001
REVIT
1002
{
1070
     1
1000
1910145
1002
}
1002
{
1070
     2
1000
-2000051
1002
}
1002
{
1070
     3
1000
133798
1002
}
  0
ARC
  5
15F
330
70
100
AcDbEntity
  8
A-DETL
100
AcDbCircle
 10
11299.9963515496
 20
11354.78722649517
 30
0.0
 40
1.5
100
AcDbArc
 50
180.0
 51
0.0
1001
REVIT
1002
{
1070
     1
1000
1910146
1002
}
1002
{
1070
     2
1000
-2000051
1002
}
1002
{
1070
     3
1000
133798
1002
}
  0
ARC
  5
160
330
70
100
AcDbEntity
  8
A-DETL
100
AcDbCircle
 10
11299.9963515496
 20
11354.78722649517
 30
0.0
 40
1.5
100
AcDbArc
 50
0.0
 51
180.0
1001
REVIT
1002
{
1070
     1
1000
1910147
1002
}
1002
{
1070
     2
1000
-2000051
1002
}
1002
{
1070
     3
1000
133798
1002
}
  0
LINE
  5
161
330
70
100
AcDbEntity
  8
A-DETL
100
AcDbLine
 10
11326.12245970008
 20
11360.81222649509
 30
0.0
 11
11311.97245970012
 21
11360.81222649512
 31
0.0
1001
REVIT
1002
{
1070
     1
1000
1910148
1002
}
1002
{
1070
     2
1000
-2000051
1002
}
1002
{
1070
     3
1000
133798
1002
}
  0
LINE
  5
162
330
70
100
AcDbEntity
  8
A-DETL
100
AcDbLine
 10
11311.97245970012
 20
11360.81222649512
 30
0.0
 11
11311.97245970015
 21
11374.96222649509
 31
0.0
1001
REVIT
1002
{
1070
     1
1000
1910149
1002
}
1002
{
1070
     2
1000
-2000051
1002
}
1002
{
1070
     3
1000
133798
1002
}
  0
LINE
  5
163
330
70
100
AcDbEntity
  8
A-DETL
100
AcDbLine
 10
11311.97245970015
 20
11374.96222649509
 30
0.0
 11
11326.12245970012
 21
11374.96222649506
 31
0.0
1001
REVIT
1002
{
1070
     1
1000
1910150
1002
}
1002
{
1070
     2
1000
-2000051
1002
}
1002
{
1070
     3
1000
133798
1002
}
  0
LINE
  5
164
330
70
100
AcDbEntity
  8
A-DETL
100
AcDbLine
 10
11326.12245970012
 20
11374.96222649506
 30
0.0
 11
11326.12245970008
 21
11360.81222649509
 31
0.0
1001
REVIT
1002
{
1070
     1
1000
1910151
1002
}
1002
{
1070
     2
1000
-2000051
1002
}
1002
{
1070
     3
1000
133798
1002
}
  0
LINE
  5
165
330
70
100
AcDbEntity
  8
A-DETL
100
AcDbLine
 10
11331.02195970015
 20
11374.96222649509
 30
0.0
 11
11345.17195970011
 21
11374.96222649506
 31
0.0
1001
REVIT
1002
{
1070
     1
1000
1910152
1002
}
1002
{
1070
     2
1000
-2000051
1002
}
1002
{
1070
     3
1000
133798
1002
}
  0
LINE
  5
166
330
70
100
AcDbEntity
  8
A-DETL
100
AcDbLine
 10
11345.17195970011
 20
11374.96222649506
 30
0.0
 11
11345.17195970008
 21
11360.81222649505
 31
0.0
1001
REVIT
1002
{
1070
     1
1000
1910153
1002
}
1002
{
1070
     2
1000
-2000051
1002
}
1002
{
1070
     3
1000
133798
1002
}
  0
LINE
  5
167
330
70
100
AcDbEntity
  8
A-DETL
100
AcDbLine
 10
11345.17195970008
 20
11360.81222649505
 30
0.0
 11
11331.02195970012
 21
11360.81222649508
 31
0.0
1001
REVIT
1002
{
1070
     1
1000
1910154
1002
}
1002
{
1070
     2
1000
-2000051
1002
}
1002
{
1070
     3
1000
133798
1002
}
  0
LINE
  5
168
330
70
100
AcDbEntity
  8
A-DETL
100
AcDbLine
 10
11331.02195970012
 20
11360.81222649508
 30
0.0
 11
11331.02195970015
 21
11374.96222649509
 31
0.0
1001
REVIT
1002
{
1070
     1
1000
1910155
1002
}
1002
{
1070
     2
1000
-2000051
1002
}
1002
{
1070
     3
1000
133798
1002
}
  0
ENDSEC
  0
SECTION
  2
OBJECTS
  0
DICTIONARY
  5
C
330
0
100
AcDbDictionary
281
     1
  3
ACAD_CIP_PREVIOUS_PRODUCT_INFO
350
79
  3
ACAD_COLOR
350
63
  3
ACAD_DETAILVIEWSTYLE
350
6A
  3
ACAD_GROUP
350
D
  3
ACAD_IMAGE_VARS
350
7A
  3
ACAD_LAYOUT
350
62
  3
ACAD_MATERIAL
350
10
  3
ACAD_MLEADERSTYLE
350
66
  3
ACAD_MLINESTYLE
350
5F
  3
ACAD_PLOTSETTINGS
350
61
  3
ACAD_PLOTSTYLENAME
350
E
  3
ACAD_SCALELIST
350
42
  3
ACAD_SECTIONVIEWSTYLE
350
68
  3
ACAD_TABLESTYLE
350
64
  3
ACAD_VISUALSTYLE
350
29
  3
ACDB_RECOMPOSE_DATA
350
173
  3
AcDbVariableDictionary
350
7B
  3
REVIT_DICTIONARY
350
169
  0
DICTIONARY
  5
16F
330
70
100
AcDbDictionary
280
     1
281
     1
  3
ACAD_SORTENTS
360
170
  0
XRECORD
  5
79
102
{ACAD_REACTORS
330
C
102
}
330
C
100
AcDbXrecord
280
     1
300
RVT
300
2019
300
RVT2019
  0
DICTIONARY
  5
63
102
{ACAD_REACTORS
330
C
102
}
330
C
100
AcDbDictionary
281
     1
  0
DICTIONARY
  5
6A
102
{ACAD_REACTORS
330
C
102
}
330
C
100
AcDbDictionary
281
     1
  3
Imperial24
350
6B
  0
DICTIONARY
  5
D
102
{ACAD_REACTORS
330
C
102
}
330
C
100
AcDbDictionary
281
     1
  0
RASTERVARIABLES
  5
7A
102
{ACAD_REACTORS
330
C
102
}
330
C
100
AcDbRasterVariables
 90
        0
 70
     0
 71
     1
 72
     1
  0
DICTIONARY
  5
62
102
{ACAD_REACTORS
330
C
102
}
330
C
100
AcDbDictionary
281
     1
  3
Layout1
350
6F
  3
Layout2
350
77
  3
Model
350
73
  0
DICTIONARY
  5
10
102
{ACAD_REACTORS
330
C
102
}
330
C
100
AcDbDictionary
281
     1
  3
ByBlock
350
19
  3
ByLayer
350
11
  3
Global
350
21
  0
DICTIONARY
  5
66
102
{ACAD_REACTORS
330
C
102
}
330
C
100
AcDbDictionary
281
     1
  3
Standard
350
67
  0
DICTIONARY
  5
5F
102
{ACAD_REACTORS
330
C
102
}
330
C
100
AcDbDictionary
281
     1
  3
Standard
350
60
  0
DICTIONARY
  5
61
102
{ACAD_REACTORS
330
C
102
}
330
C
100
AcDbDictionary
281
     1
  0
ACDBDICTIONARYWDFLT
  5
E
102
{ACAD_REACTORS
330
C
102
}
330
C
100
AcDbDictionary
281
     1
  3
Normal
350
F
100
AcDbDictionaryWithDefault
340
F
  0
DICTIONARY
  5
42
102
{ACAD_REACTORS
330
C
102
}
330
C
100
AcDbDictionary
281
     1
  3
A0
350
43
  3
A1
350
44
  3
A2
350
45
  3
A3
350
46
  3
A4
350
47
  3
A5
350
48
  3
A6
350
49
  3
A7
350
4A
  3
A8
350
4B
  3
A9
350
4C
  3
B0
350
4D
  3
B1
350
4E
  3
B2
350
4F
  3
B3
350
50
  3
B4
350
51
  3
B5
350
52
  3
B6
350
53
  0
DICTIONARY
  5
68
102
{ACAD_REACTORS
330
C
102
}
330
C
100
AcDbDictionary
281
     1
  3
Imperial24
350
69
  0
DICTIONARY
  5
64
102
{ACAD_REACTORS
330
C
102
}
330
C
100
AcDbDictionary
281
     1
  3
Standard
350
65
  0
DICTIONARY
  5
29
102
{ACAD_REACTORS
330
C
102
}
330
C
100
AcDbDictionary
281
     1
  3
2dWireframe
350
2F
  3
Basic
350
2E
  3
Brighten
350
35
  3
ColorChange
350
39
  3
Conceptual
350
32
  3
Dim
350
34
  3
EdgeColorOff
350
41
  3
Facepattern
350
38
  3
Flat
350
2A
  3
FlatWithEdges
350
2B
  3
Gouraud
350
2C
  3
GouraudWithEdges
350
2D
  3
Hidden
350
31
  3
JitterOff
350
3F
  3
Linepattern
350
37
  3
OverhangOff
350
40
  3
Realistic
350
33
  3
Shaded
350
3E
  3
Shaded with edges
350
3D
  3
Shades of Gray
350
3A
  3
Sketchy
350
3B
  3
Thicken
350
36
  3
Wireframe
350
30
  3
X-Ray
350
3C
  0
XRECORD
  5
173
102
{ACAD_REACTORS
330
C
102
}
330
C
100
AcDbXrecord
280
     1
 90
        1
330
65
  0
DICTIONARY
  5
7B
102
{ACAD_REACTORS
330
C
102
}
330
C
100
AcDbDictionary
281
     1
  3
CANNOSCALE
350
80
  3
CMLEADERSTYLE
350
7D
  3
CTABLESTYLE
350
7C
  3
CVIEWDETAILSTYLE
350
7E
  3
CVIEWSECTIONSTYLE
350
7F
  0
DICTIONARY
  5
169
102
{ACAD_REACTORS
330
C
102
}
330
C
100
AcDbDictionary
281
     1
  3
DRAWING_TOOL
350
16E
  3
REVIT_CATEGORY_MAPPING
350
16C
  3
REVIT_GET_SITE
350
16A
  3
REVIT_SUB_CATEGORY_MAPPING
350
16D
  0
SORTENTSTABLE
  5
170
102
{ACAD_REACTORS
330
16F
102
}
330
16F
100
AcDbSortentsTable
330
70
  0
ACDBDETAILVIEWSTYLE
  5
6B
102
{ACAD_REACTORS
330
6A
102
}
330
6A
100
AcDbModelDocViewStyle
 70
     0
  3
Imperial24
290
     1
300
Imperial24
 90
        0
100
AcDbDetailViewStyle
 70
     0
 71
     0
 90
        3
 71
     1
340
55
 62
   256
 40
0.24
340
0
 62
   256
 40
0.24
300

 40
0.36
280
     3
 71
     2
340
5D
 90
       25
 62
   256
 71
     3
340
55
 62
   256
 40
0.24
 90
        1
 40
0.75
 90
        1
300
%<\AcVar ViewType \f "%tc1">% %<\AcVar ViewDetailId>%\PSCALE %<\AcVar ViewScale \f "%sn">%
 71
     4
340
5D
 90
       25
 62
   256
340
5D
 90
       25
 62
   256
280
     0
  0
LAYOUT
  5
6F
102
{ACAD_REACTORS
330
62
102
}
330
62
100
AcDbPlotSettings
  1

  2

  4

  6

 40
0.0
 41
0.0
 42
0.0
 43
0.0
 44
0.0
 45
0.0
 46
0.0
 47
0.0
 48
0.0
 49
0.0
140
0.0
141
0.0
142
1.0
143
1.0
 70
   688
 72
     0
 73
     0
 74
     5
  7

 75
    16
147
1.0
 76
     0
 77
     2
 78
   300
148
0.0
149
0.0
100
AcDbLayout
  1
Layout1
 70
     1
 71
     1
 10
0.0
 20
0.0
 11
12.0
 21
9.0
 12
0.0
 22
0.0
 32
0.0
 14
0.0
 24
0.0
 34
0.0
 15
0.0
 25
0.0
 35
0.0
146
0.0
 13
0.0
 23
0.0
 33
0.0
 16
1.0
 26
0.0
 36
0.0
 17
0.0
 27
1.0
 37
0.0
 76
     0
330
6C
  0
LAYOUT
  5
77
102
{ACAD_REACTORS
330
62
102
}
330
62
100
AcDbPlotSettings
  1

  2

  4

  6

 40
0.0
 41
0.0
 42
0.0
 43
0.0
 44
0.0
 45
0.0
 46
0.0
 47
0.0
 48
0.0
 49
0.0
140
0.0
141
0.0
142
1.0
143
1.0
 70
   688
 72
     0
 73
     0
 74
     5
  7

 75
    16
147
1.0
 76
     0
 77
     2
 78
   300
148
0.0
149
0.0
100
AcDbLayout
  1
Layout2
 70
     1
 71
     2
 10
0.0
 20
0.0
 11
12.0
 21
9.0
 12
0.0
 22
0.0
 32
0.0
 14
0.0
 24
0.0
 34
0.0
 15
0.0
 25
0.0
 35
0.0
146
0.0
 13
0.0
 23
0.0
 33
0.0
 16
1.0
 26
0.0
 36
0.0
 17
0.0
 27
1.0
 37
0.0
 76
     0
330
74
  0
LAYOUT
  5
73
102
{ACAD_REACTORS
330
62
102
}
330
62
100
AcDbPlotSettings
  1

  2

  4

  6

 40
0.0
 41
0.0
 42
0.0
 43
0.0
 44
0.0
 45
0.0
 46
0.0
 47
0.0
 48
0.0
 49
0.0
140
0.0
141
0.0
142
1.0
143
1.0
 70
  1712
 72
     0
 73
     0
 74
     0
  7

 75
     0
147
1.0
 76
     0
 77
     2
 78
   300
148
0.0
149
0.0
100
AcDbLayout
  1
Model
 70
     1
 71
     0
 10
0.0
 20
0.0
 11
12.0
 21
9.0
 12
0.0
 22
0.0
 32
0.0
 14
0.0
 24
0.0
 34
0.0
 15
0.0
 25
0.0
 35
0.0
146
0.0
 13
0.0
 23
0.0
 33
0.0
 16
1.0
 26
0.0
 36
0.0
 17
0.0
 27
1.0
 37
0.0
 76
     0
330
70
  0
MATERIAL
  5
19
102
{ACAD_XDICTIONARY
360
1A
102
}
102
{ACAD_REACTORS
330
10
102
}
330
10
100
AcDbMaterial
  1
ByBlock
 72
     0
 43
0.0208333333333333
 43
0.0
 43
0.0
 43
0.0
 43
0.0
 43
0.0208333333333333
 43
0.0
 43
0.0
 43
0.0
 43
0.0
 43
1.0
 43
0.0
 43
0.0
 43
0.0
 43
0.0
 43
1.0
 77
     0
 47
0.0208333333333333
 47
0.0
 47
0.0
 47
0.0
 47
0.0
 47
0.0208333333333333
 47
0.0
 47
0.0
 47
0.0
 47
0.0
 47
1.0
 47
0.0
 47
0.0
 47
0.0
 47
0.0
 47
1.0
171
     0
 49
0.0208333333333333
 49
0.0
 49
0.0
 49
0.0
 49
0.0
 49
0.0208333333333333
 49
0.0
 49
0.0
 49
0.0
 49
0.0
 49
1.0
 49
0.0
 49
0.0
 49
0.0
 49
0.0
 49
1.0
175
     0
142
0.0208333333333333
142
0.0
142
0.0
142
0.0
142
0.0
142
0.0208333333333333
142
0.0
142
0.0
142
0.0
142
0.0
142
1.0
142
0.0
142
0.0
142
0.0
142
0.0
142
1.0
179
     0
144
0.0208333333333333
144
0.0
144
0.0
144
0.0
144
0.0
144
0.0208333333333333
144
0.0
144
0.0
144
0.0
144
0.0
144
1.0
144
0.0
144
0.0
144
0.0
144
0.0
144
1.0
147
0.0208333333333333
147
0.0
147
0.0
147
0.0
147
0.0
147
0.0208333333333333
147
0.0
147
0.0
147
0.0
147
0.0
147
1.0
147
0.0
147
0.0
147
0.0
147
0.0
147
1.0
  0
MATERIAL
  5
11
102
{ACAD_XDICTIONARY
360
12
102
}
102
{ACAD_REACTORS
330
10
102
}
330
10
100
AcDbMaterial
  1
ByLayer
 72
     0
 43
0.0208333333333333
 43
0.0
 43
0.0
 43
0.0
 43
0.0
 43
0.0208333333333333
 43
0.0
 43
0.0
 43
0.0
 43
0.0
 43
1.0
 43
0.0
 43
0.0
 43
0.0
 43
0.0
 43
1.0
 77
     0
 47
0.0208333333333333
 47
0.0
 47
0.0
 47
0.0
 47
0.0
 47
0.0208333333333333
 47
0.0
 47
0.0
 47
0.0
 47
0.0
 47
1.0
 47
0.0
 47
0.0
 47
0.0
 47
0.0
 47
1.0
171
     0
 49
0.0208333333333333
 49
0.0
 49
0.0
 49
0.0
 49
0.0
 49
0.0208333333333333
 49
0.0
 49
0.0
 49
0.0
 49
0.0
 49
1.0
 49
0.0
 49
0.0
 49
0.0
 49
0.0
 49
1.0
175
     0
142
0.0208333333333333
142
0.0
142
0.0
142
0.0
142
0.0
142
0.0208333333333333
142
0.0
142
0.0
142
0.0
142
0.0
142
1.0
142
0.0
142
0.0
142
0.0
142
0.0
142
1.0
179
     0
144
0.0208333333333333
144
0.0
144
0.0
144
0.0
144
0.0
144
0.0208333333333333
144
0.0
144
0.0
144
0.0
144
0.0
144
1.0
144
0.0
144
0.0
144
0.0
144
0.0
144
1.0
147
0.0208333333333333
147
0.0
147
0.0
147
0.0
147
0.0
147
0.0208333333333333
147
0.0
147
0.0
147
0.0
147
0.0
147
1.0
147
0.0
147
0.0
147
0.0
147
0.0
147
1.0
  0
MATERIAL
  5
21
102
{ACAD_XDICTIONARY
360
22
102
}
102
{ACAD_REACTORS
330
10
102
}
330
10
100
AcDbMaterial
  1
Global
 72
     0
 43
0.0208333333333333
 43
0.0
 43
0.0
 43
0.0
 43
0.0
 43
0.0208333333333333
 43
0.0
 43
0.0
 43
0.0
 43
0.0
 43
1.0
 43
0.0
 43
0.0
 43
0.0
 43
0.0
 43
1.0
 77
     0
 47
0.0208333333333333
 47
0.0
 47
0.0
 47
0.0
 47
0.0
 47
0.0208333333333333
 47
0.0
 47
0.0
 47
0.0
 47
0.0
 47
1.0
 47
0.0
 47
0.0
 47
0.0
 47
0.0
 47
1.0
171
     0
 49
0.0208333333333333
 49
0.0
 49
0.0
 49
0.0
 49
0.0
 49
0.0208333333333333
 49
0.0
 49
0.0
 49
0.0
 49
0.0
 49
1.0
 49
0.0
 49
0.0
 49
0.0
 49
0.0
 49
1.0
175
     0
142
0.0208333333333333
142
0.0
142
0.0
142
0.0
142
0.0
142
0.0208333333333333
142
0.0
142
0.0
142
0.0
142
0.0
142
1.0
142
0.0
142
0.0
142
0.0
142
0.0
142
1.0
179
     0
144
0.0208333333333333
144
0.0
144
0.0
144
0.0
144
0.0
144
0.0208333333333333
144
0.0
144
0.0
144
0.0
144
0.0
144
1.0
144
0.0
144
0.0
144
0.0
144
0.0
144
1.0
147
0.0208333333333333
147
0.0
147
0.0
147
0.0
147
0.0
147
0.0208333333333333
147
0.0
147
0.0
147
0.0
147
0.0
147
1.0
147
0.0
147
0.0
147
0.0
147
0.0
147
1.0
  0
MLEADERSTYLE
  5
67
102
{ACAD_REACTORS
330
66
102
}
330
66
100
AcDbMLeaderStyle
179
     2
170
     2
171
     1
172
     0
 90
        2
 40
0.0
 41
0.0
173
     1
 91
-1056964608
340
5B
 92
       -2
290
     1
 42
0.09
291
     1
 43
0.36
  3
Standard
 44
0.18
300

342
55
174
     1
178
     6
175
     1
176
     0
 93
-1056964608
 45
0.18
292
     0
297
     0
 46
0.18
 94
-1056964608
 47
1.0
 49
1.0
140
1.0
293
     1
141
0.0
294
     1
177
     0
142
1.0
295
     1
296
     0
143
0.125
271
     0
272
     9
273
     9
298
     1
  0
MLINESTYLE
  5
60
102
{ACAD_REACTORS
330
5F
102
}
330
5F
100
AcDbMlineStyle
  2
STANDARD
 70
     0
  3

 62
   256
 51
90.0
 52
90.0
 71
     2
 49
0.5
 62
   256
  6
BYLAYER
 49
-0.5
 62
   256
  6
BYLAYER
  0
ACDBPLACEHOLDER
  5
F
102
{ACAD_REACTORS
330
E
102
}
330
E
  0
SCALE
  5
43
102
{ACAD_REACTORS
330
42
102
}
330
42
100
AcDbScale
 70
     0
300
1:1
140
1.0
141
1.0
290
     1
  0
SCALE
  5
44
102
{ACAD_REACTORS
330
42
102
}
330
42
100
AcDbScale
 70
     0
300
1/128" = 1'-0"
140
0.0078125
141
12.0
290
     0
  0
SCALE
  5
45
102
{ACAD_REACTORS
330
42
102
}
330
42
100
AcDbScale
 70
     0
300
1/64" = 1'-0"
140
0.015625
141
12.0
290
     0
  0
SCALE
  5
46
102
{ACAD_REACTORS
330
42
102
}
330
42
100
AcDbScale
 70
     0
300
1/32" = 1'-0"
140
0.03125
141
12.0
290
     0
  0
SCALE
  5
47
102
{ACAD_REACTORS
330
42
102
}
330
42
100
AcDbScale
 70
     0
300
1/16" = 1'-0"
140
0.0625
141
12.0
290
     0
  0
SCALE
  5
48
102
{ACAD_REACTORS
330
42
102
}
330
42
100
AcDbScale
 70
     0
300
3/32" = 1'-0"
140
0.09375
141
12.0
290
     0
  0
SCALE
  5
49
102
{ACAD_REACTORS
330
42
102
}
330
42
100
AcDbScale
 70
     0
300
1/8" = 1'-0"
140
0.125
141
12.0
290
     0
  0
SCALE
  5
4A
102
{ACAD_REACTORS
330
42
102
}
330
42
100
AcDbScale
 70
     0
300
3/16" = 1'-0"
140
0.1875
141
12.0
290
     0
  0
SCALE
  5
4B
102
{ACAD_REACTORS
330
42
102
}
330
42
100
AcDbScale
 70
     0
300
1/4" = 1'-0"
140
0.25
141
12.0
290
     0
  0
SCALE
  5
4C
102
{ACAD_REACTORS
330
42
102
}
330
42
100
AcDbScale
 70
     0
300
3/8" = 1'-0"
140
0.375
141
12.0
290
     0
  0
SCALE
  5
4D
102
{ACAD_REACTORS
330
42
102
}
330
42
100
AcDbScale
 70
     0
300
1/2" = 1'-0"
140
0.5
141
12.0
290
     0
  0
SCALE
  5
4E
102
{ACAD_REACTORS
330
42
102
}
330
42
100
AcDbScale
 70
     0
300
3/4" = 1'-0"
140
0.75
141
12.0
290
     0
  0
SCALE
  5
4F
102
{ACAD_REACTORS
330
42
102
}
330
42
100
AcDbScale
 70
     0
300
1" = 1'-0"
140
1.0
141
12.0
290
     0
  0
SCALE
  5
50
102
{ACAD_REACTORS
330
42
102
}
330
42
100
AcDbScale
 70
     0
300
1-1/2" = 1'-0"
140
1.5
141
12.0
290
     0
  0
SCALE
  5
51
102
{ACAD_REACTORS
330
42
102
}
330
42
100
AcDbScale
 70
     0
300
3" = 1'-0"
140
3.0
141
12.0
290
     0
  0
SCALE
  5
52
102
{ACAD_REACTORS
330
42
102
}
330
42
100
AcDbScale
 70
     0
300
6" = 1'-0"
140
6.0
141
12.0
290
     0
  0
SCALE
  5
53
102
{ACAD_REACTORS
330
42
102
}
330
42
100
AcDbScale
 70
     0
300
1'-0" = 1'-0"
140
12.0
141
12.0
290
     0
  0
ACDBSECTIONVIEWSTYLE
  5
69
102
{ACAD_REACTORS
330
68
102
}
330
68
100
AcDbModelDocViewStyle
 70
     0
  3
Imperial24
290
     1
300
Imperial24
 90
        0
100
AcDbSectionViewStyle
 70
     0
 71
     0
 90
       78
 71
     1
340
55
 62
   256
 40
0.24
340
0
340
0
 62
   256
 40
0.24
300
I, O, Q, S, X, Z
 40
0.48
 90
        3
 40
0.18
 90
        1
 71
     2
340
5D
 90
       25
 62
   256
340
5D
 90
       50
 62
   256
 40
0.24
 40
0.0
 40
0.24
 71
     3
340
55
 62
   256
 40
0.24
 90
        1
 40
0.75
 90
        1
300
%<\AcVar ViewType \f "%tc1">% %<\AcVar ViewSectionStartId>%-%<\AcVar ViewSectionEndId>%\PSCALE %<\AcVar ViewScale \f "%sn">%
 71
     4
 62
   256
 62
   257
300
ANSI31
 40
1.0
 90
        0
290
     0
290
     0
 90
        6
 40
0.0
 40
1.570796326794896
 40
0.2617993877991494
 40
1.308996938995747
 40
-0.2617993877991494
 40
1.832595714594046
  0
TABLESTYLE
  5
65
102
{ACAD_XDICTIONARY
360
171
102
}
102
{ACAD_REACTORS
330
64
102
}
330
64
100
AcDbTableStyle
280
     0
  3
Standard
 70
     0
 71
     0
 40
0.06
 41
0.06
280
     0
281
     0
  7
Standard
140
0.18
170
     2
 62
     0
 63
     7
283
     0
 90
      512
 91
        0
  1

274
    -2
284
     1
 64
     0
275
    -2
285
     1
 65
     0
276
    -2
286
     1
 66
     0
277
    -2
287
     1
 67
     0
278
    -2
288
     1
 68
     0
279
    -2
289
     1
 69
     0
  7
Standard
140
0.25
170
     5
 62
     0
 63
     7
283
     0
 90
      512
 91
        0
  1

274
    -2
284
     1
 64
     0
275
    -2
285
     1
 65
     0
276
    -2
286
     1
 66
     0
277
    -2
287
     1
 67
     0
278
    -2
288
     1
 68
     0
279
    -2
289
     1
 69
     0
  7
Standard
140
0.18
170
     5
 62
     0
 63
     7
283
     0
 90
      512
 91
        0
  1

274
    -2
284
     1
 64
     0
275
    -2
285
     1
 65
     0
276
    -2
286
     1
 66
     0
277
    -2
287
     1
 67
     0
278
    -2
288
     1
 68
     0
279
    -2
289
     1
 69
     0
  0
VISUALSTYLE
  5
2F
102
{ACAD_REACTORS
330
29
102
}
330
29
100
AcDbVisualStyle
  2
2dWireframe
 70
     4
177
     3
291
     0
 70
    58
 90
        0
176
     1
 90
        2
176
     1
 90
        0
176
     1
 90
        0
176
     1
 40
0.6
176
     1
 40
30.0
176
     1
 62
     7
420
 16777215
176
     1
 90
        1
176
     1
 90
        4
176
     1
 62
     7
176
     1
 62
   257
176
     1
 90
        1
176
     1
 90
        1
176
     1
 40
1.0
176
     1
 90
        0
176
     1
 62
   257
176
     1
 40
1.0
176
     1
 90
        1
176
     1
 90
        6
176
     1
 90
        2
176
     1
 62
     7
176
     1
 90
        5
176
     1
 90
        0
176
     1
 90
        0
176
     1
290
     0
176
     1
 90
        1
176
     1
 40
0.0
176
     1
 90
        0
176
     1
290
     1
176
     1
290
     1
176
     1
290
     0
176
     1
290
     0
176
     1
290
     0
176
     1
290
     0
176
     1
290
     0
176
     1
290
     0
176
     1
290
     0
176
     1
 90
       50
176
     1
 40
0.0
176
     1
 40
1.0
176
     1
 90
        0
176
     1
 62
    18
420
        0
176
     1
 90
       50
176
     1
 90
        3
176
     1
 62
     5
420
      255
176
     1
290
     0
176
     1
 90
       50
176
     1
 90
       50
176
     1
 90
       50
176
     1
290
     0
176
     1
 90
       50
176
     1
 62
   256
176
     0
 40
1.0
176
     0
 90
        2
176
     1
  1
strokes_ogs.tif
176
     1
290
     0
176
     1
 40
1.0
176
     1
 40
1.0
176
     1
  0
VISUALSTYLE
  5
2E
102
{ACAD_REACTORS
330
29
102
}
330
29
100
AcDbVisualStyle
  2
Basic
 70
     7
177
     3
291
     1
 70
    58
 90
        1
176
     1
 90
        0
176
     1
 90
        1
176
     1
 90
        0
176
     1
 40
0.6
176
     1
 40
30.0
176
     1
 62
     7
420
 16777215
176
     1
 90
        0
176
     1
 90
        4
176
     1
 62
     7
176
     1
 62
   257
176
     1
 90
        1
176
     1
 90
        1
176
     1
 40
1.0
176
     1
 90
        8
176
     1
 62
     7
176
     1
 40
1.0
176
     1
 90
        1
176
     1
 90
        6
176
     1
 90
        2
176
     1
 62
     7
176
     1
 90
        5
176
     1
 90
        0
176
     1
 90
        0
176
     1
290
     0
176
     1
 90
        1
176
     1
 40
0.0
176
     1
 90
        0
176
     1
290
     0
176
     1
290
     1
176
     1
290
     1
176
     1
290
     0
176
     1
290
     0
176
     1
290
     0
176
     1
290
     0
176
     1
290
     0
176
     1
290
     0
176
     1
 90
       50
176
     1
 40
0.0
176
     1
 40
1.0
176
     1
 90
        0
176
     1
 62
    18
420
        0
176
     1
 90
       50
176
     1
 90
        3
176
     1
 62
     5
420
      255
176
     1
290
     0
176
     1
 90
       50
176
     1
 90
       50
176
     1
 90
       50
176
     1
290
     0
176
     1
 90
       50
176
     1
 62
   256
176
     0
 40
1.0
176
     0
 90
        2
176
     1
  1
strokes_ogs.tif
176
     1
290
     0
176
     1
 40
1.0
176
     1
 40
1.0
176
     1
  0
VISUALSTYLE
  5
35
102
{ACAD_REACTORS
330
29
102
}
330
29
100
AcDbVisualStyle
  2
Brighten
 70
    12
177
     3
291
     1
 70
    58
 90
        2
176
     1
 90
        2
176
     1
 90
        0
176
     1
 90
        0
176
     1
 40
0.6
176
     1
 40
30.0
176
     1
 62
     7
420
 16777215
176
     1
 90
        1
176
     1
 90
        4
176
     1
 62
     7
176
     1
 62
   257
176
     1
 90
        1
176
     1
 90
        1
176
     1
 40
1.0
176
     1
 90
        8
176
     1
 62
     7
176
     1
 40
1.0
176
     1
 90
        1
176
     1
 90
        6
176
     1
 90
        2
176
     1
 62
     7
176
     1
 90
        5
176
     1
 90
        0
176
     1
 90
        0
176
     1
290
     0
176
     1
 90
        1
176
     1
 40
50.0
176
     1
 90
        0
176
     1
290
     0
176
     1
290
     1
176
     1
290
     1
176
     1
290
     0
176
     1
290
     0
176
     1
290
     0
176
     1
290
     0
176
     1
290
     0
176
     1
290
     0
176
     1
 90
       50
176
     1
 40
0.0
176
     1
 40
1.0
176
     1
 90
        0
176
     1
 62
    18
420
        0
176
     1
 90
       50
176
     1
 90
        3
176
     1
 62
     5
420
      255
176
     1
290
     0
176
     1
 90
       50
176
     1
 90
       50
176
     1
 90
       50
176
     1
290
     0
176
     1
 90
       50
176
     1
 62
   256
176
     0
 40
1.0
176
     0
 90
        2
176
     1
  1
strokes_ogs.tif
176
     1
290
     0
176
     1
 40
1.0
176
     1
 40
1.0
176
     1
  0
VISUALSTYLE
  5
39
102
{ACAD_REACTORS
330
29
102
}
330
29
100
AcDbVisualStyle
  2
ColorChange
 70
    16
177
     3
291
     1
 70
    58
 90
        2
176
     1
 90
        2
176
     1
 90
        3
176
     1
 90
        0
176
     1
 40
0.6
176
     1
 40
30.0
176
     1
 62
     8
420
  8421504
176
     1
 90
        1
176
     1
 90
        4
176
     1
 62
     7
176
     1
 62
   257
176
     1
 90
        1
176
     1
 90
        1
176
     1
 40
1.0
176
     1
 90
        8
176
     1
 62
     8
420
  8421504
176
     1
 40
1.0
176
     1
 90
        1
176
     1
 90
        6
176
     1
 90
        2
176
     1
 62
     7
176
     1
 90
        5
176
     1
 90
        0
176
     1
 90
        0
176
     1
290
     0
176
     1
 90
        1
176
     1
 40
0.0
176
     1
 90
        0
176
     1
290
     0
176
     1
290
     1
176
     1
290
     1
176
     1
290
     0
176
     1
290
     0
176
     1
290
     0
176
     1
290
     0
176
     1
290
     0
176
     1
290
     0
176
     1
 90
       50
176
     1
 40
0.0
176
     1
 40
1.0
176
     1
 90
        0
176
     1
 62
    18
420
        0
176
     1
 90
       50
176
     1
 90
        3
176
     1
 62
     5
420
      255
176
     1
290
     0
176
     1
 90
       50
176
     1
 90
       50
176
     1
 90
       50
176
     1
290
     0
176
     1
 90
       50
176
     1
 62
   256
176
     0
 40
1.0
176
     0
 90
        2
176
     1
  1
strokes_ogs.tif
176
     1
290
     0
176
     1
 40
1.0
176
     1
 40
1.0
176
     1
  0
VISUALSTYLE
  5
32
102
{ACAD_REACTORS
330
29
102
}
330
29
100
AcDbVisualStyle
  2
Conceptual
 70
     9
177
     3
291
     0
 70
    58
 90
        3
176
     1
 90
        2
176
     1
 90
        0
176
     1
 90
        0
176
     1
 40
0.6
176
     1
 40
30.0
176
     1
 62
     7
420
 16777215
176
     1
 90
        2
176
     1
 90
        2
176
     1
 62
     7
176
     1
 62
   257
176
     1
 90
        1
176
     1
 90
        1
176
     1
 40
179.0
176
     1
 90
        8
176
     1
 62
     7
176
     1
 40
1.0
176
     1
 90
        1
176
     1
 90
        6
176
     1
 90
        2
176
     1
 62
     7
176
     1
 90
        3
176
     1
 90
        0
176
     1
 90
        0
176
     1
290
     0
176
     1
 90
        1
176
     1
 40
0.0
176
     1
 90
        0
176
     1
290
     0
176
     1
290
     1
176
     1
290
     1
176
     1
290
     0
176
     1
290
     0
176
     1
290
     0
176
     1
290
     0
176
     1
290
     0
176
     1
290
     0
176
     1
 90
       50
176
     1
 40
0.0
176
     1
 40
1.0
176
     1
 90
        0
176
     1
 62
    18
420
        0
176
     1
 90
       50
176
     1
 90
        3
176
     1
 62
     5
420
      255
176
     1
290
     0
176
     1
 90
       50
176
     1
 90
       50
176
     1
 90
       50
176
     1
290
     0
176
     1
 90
       50
176
     1
 62
   256
176
     0
 40
1.0
176
     0
 90
        2
176
     1
  1
strokes_ogs.tif
176
     1
290
     0
176
     1
 40
1.0
176
     1
 40
1.0
176
     1
  0
VISUALSTYLE
  5
34
102
{ACAD_REACTORS
330
29
102
}
330
29
100
AcDbVisualStyle
  2
Dim
 70
    11
177
     3
291
     1
 70
    58
 90
        2
176
     1
 90
        2
176
     1
 90
        0
176
     1
 90
        0
176
     1
 40
0.6
176
     1
 40
30.0
176
     1
 62
     7
420
 16777215
176
     1
 90
        1
176
     1
 90
        4
176
     1
 62
     7
176
     1
 62
   257
176
     1
 90
        1
176
     1
 90
        1
176
     1
 40
1.0
176
     1
 90
        8
176
     1
 62
     7
176
     1
 40
1.0
176
     1
 90
        1
176
     1
 90
        6
176
     1
 90
        2
176
     1
 62
     7
176
     1
 90
        5
176
     1
 90
        0
176
     1
 90
        0
176
     1
290
     0
176
     1
 90
        1
176
     1
 40
-50.0
176
     1
 90
        0
176
     1
290
     0
176
     1
290
     1
176
     1
290
     1
176
     1
290
     0
176
     1
290
     0
176
     1
290
     0
176
     1
290
     0
176
     1
290
     0
176
     1
290
     0
176
     1
 90
       50
176
     1
 40
0.0
176
     1
 40
1.0
176
     1
 90
        0
176
     1
 62
    18
420
        0
176
     1
 90
       50
176
     1
 90
        3
176
     1
 62
     5
420
      255
176
     1
290
     0
176
     1
 90
       50
176
     1
 90
       50
176
     1
 90
       50
176
     1
290
     0
176
     1
 90
       50
176
     1
 62
   256
176
     0
 40
1.0
176
     0
 90
        2
176
     1
  1
strokes_ogs.tif
176
     1
290
     0
176
     1
 40
1.0
176
     1
 40
1.0
176
     1
  0
VISUALSTYLE
  5
41
102
{ACAD_REACTORS
330
29
102
}
330
29
100
AcDbVisualStyle
  2
EdgeColorOff
 70
    22
177
     3
291
     1
 70
    58
 90
        2
176
     0
 90
        2
176
     0
 90
        0
176
     0
 90
        0
176
     0
 40
0.6
176
     0
 40
30.0
176
     0
 62
     7
420
 16777215
176
     0
 90
        1
176
     0
 90
        4
176
     0
 62
     7
176
     0
 62
   257
176
     0
 90
        1
176
     0
 90
        1
176
     0
 40
1.0
176
     0
 90
        8
176
     2
 62
     7
176
     0
 40
1.0
176
     0
 90
        1
176
     0
 90
        6
176
     0
 90
        2
176
     0
 62
     7
176
     0
 90
        5
176
     0
 90
        0
176
     0
 90
        0
176
     0
290
     0
176
     0
 90
        1
176
     0
 40
0.0
176
     0
 90
        0
176
     0
290
     0
176
     0
290
     1
176
     0
290
     1
176
     0
290
     0
176
     0
290
     0
176
     0
290
     0
176
     0
290
     0
176
     0
290
     0
176
     0
290
     0
176
     0
 90
       50
176
     0
 40
0.0
176
     0
 40
1.0
176
     0
 90
        0
176
     0
 62
    18
420
        0
176
     0
 90
       50
176
     0
 90
        3
176
     0
 62
     5
420
      255
176
     0
290
     0
176
     0
 90
       50
176
     0
 90
       50
176
     0
 90
       50
176
     0
290
     0
176
     0
 90
       50
176
     0
 62
   256
176
     0
 40
1.0
176
     0
 90
        2
176
     0
  1
strokes_ogs.tif
176
     0
290
     0
176
     0
 40
1.0
176
     0
 40
1.0
176
     0
  0
VISUALSTYLE
  5
38
102
{ACAD_REACTORS
330
29
102
}
330
29
100
AcDbVisualStyle
  2
Facepattern
 70
    15
177
     3
291
     1
 70
    58
 90
        2
176
     1
 90
        2
176
     1
 90
        0
176
     1
 90
        0
176
     1
 40
0.6
176
     1
 40
30.0
176
     1
 62
     7
420
 16777215
176
     1
 90
        1
176
     1
 90
        4
176
     1
 62
     7
176
     1
 62
   257
176
     1
 90
        1
176
     1
 90
        1
176
     1
 40
1.0
176
     1
 90
        8
176
     1
 62
     7
176
     1
 40
1.0
176
     1
 90
        1
176
     1
 90
        6
176
     1
 90
        2
176
     1
 62
     7
176
     1
 90
        5
176
     1
 90
        0
176
     1
 90
        0
176
     1
290
     0
176
     1
 90
        1
176
     1
 40
0.0
176
     1
 90
        0
176
     1
290
     0
176
     1
290
     1
176
     1
290
     1
176
     1
290
     0
176
     1
290
     0
176
     1
290
     0
176
     1
290
     0
176
     1
290
     0
176
     1
290
     0
176
     1
 90
       50
176
     1
 40
0.0
176
     1
 40
1.0
176
     1
 90
        0
176
     1
 62
    18
420
        0
176
     1
 90
       50
176
     1
 90
        3
176
     1
 62
     5
420
      255
176
     1
290
     0
176
     1
 90
       50
176
     1
 90
       50
176
     1
 90
       50
176
     1
290
     0
176
     1
 90
       50
176
     1
 62
   256
176
     0
 40
1.0
176
     0
 90
        2
176
     1
  1
strokes_ogs.tif
176
     1
290
     0
176
     1
 40
1.0
176
     1
 40
1.0
176
     1
  0
VISUALSTYLE
  5
2A
102
{ACAD_REACTORS
330
29
102
}
330
29
100
AcDbVisualStyle
  2
Flat
 70
     0
177
     3
291
     1
 70
    58
 90
        2
176
     1
 90
        1
176
     1
 90
        1
176
     1
 90
        2
176
     1
 40
0.6
176
     1
 40
30.0
176
     1
 62
     7
420
 16777215
176
     1
 90
        0
176
     1
 90
        0
176
     1
 62
     7
176
     1
 62
   257
176
     1
 90
        1
176
     1
 90
        1
176
     1
 40
1.0
176
     1
 90
        8
176
     1
 62
     7
176
     1
 40
1.0
176
     1
 90
        1
176
     1
 90
        6
176
     1
 90
        2
176
     1
 62
     7
176
     1
 90
        5
176
     1
 90
        0
176
     1
 90
        0
176
     1
290
     0
176
     1
 90
       13
176
     1
 40
0.0
176
     1
 90
        0
176
     1
290
     0
176
     1
290
     1
176
     1
290
     1
176
     1
290
     0
176
     1
290
     0
176
     1
290
     0
176
     1
290
     0
176
     1
290
     0
176
     1
290
     0
176
     1
 90
       50
176
     1
 40
0.0
176
     1
 40
1.0
176
     1
 90
        0
176
     1
 62
    18
420
        0
176
     1
 90
       50
176
     1
 90
        3
176
     1
 62
     5
420
      255
176
     1
290
     0
176
     1
 90
       50
176
     1
 90
       50
176
     1
 90
       50
176
     1
290
     0
176
     1
 90
       50
176
     1
 62
   256
176
     0
 40
1.0
176
     0
 90
        2
176
     1
  1
strokes_ogs.tif
176
     1
290
     0
176
     1
 40
1.0
176
     1
 40
1.0
176
     1
  0
VISUALSTYLE
  5
2B
102
{ACAD_REACTORS
330
29
102
}
330
29
100
AcDbVisualStyle
  2
FlatWithEdges
 70
     1
177
     3
291
     1
 70
    58
 90
        2
176
     1
 90
        1
176
     1
 90
        1
176
     1
 90
        2
176
     1
 40
0.6
176
     1
 40
30.0
176
     1
 62
     7
420
 16777215
176
     1
 90
        1
176
     1
 90
        0
176
     1
 62
     7
176
     1
 62
   257
176
     1
 90
        1
176
     1
 90
        1
176
     1
 40
1.0
176
     1
 90
        0
176
     1
 62
   257
176
     1
 40
1.0
176
     1
 90
        1
176
     1
 90
        6
176
     1
 90
        2
176
     1
 62
     7
176
     1
 90
        5
176
     1
 90
        0
176
     1
 90
        0
176
     1
290
     0
176
     1
 90
       13
176
     1
 40
0.0
176
     1
 90
        0
176
     1
290
     0
176
     1
290
     1
176
     1
290
     1
176
     1
290
     0
176
     1
290
     0
176
     1
290
     0
176
     1
290
     0
176
     1
290
     0
176
     1
290
     0
176
     1
 90
       50
176
     1
 40
0.0
176
     1
 40
1.0
176
     1
 90
        0
176
     1
 62
    18
420
        0
176
     1
 90
       50
176
     1
 90
        3
176
     1
 62
     5
420
      255
176
     1
290
     0
176
     1
 90
       50
176
     1
 90
       50
176
     1
 90
       50
176
     1
290
     0
176
     1
 90
       50
176
     1
 62
   256
176
     0
 40
1.0
176
     0
 90
        2
176
     1
  1
strokes_ogs.tif
176
     1
290
     0
176
     1
 40
1.0
176
     1
 40
1.0
176
     1
  0
VISUALSTYLE
  5
2C
102
{ACAD_REACTORS
330
29
102
}
330
29
100
AcDbVisualStyle
  2
Gouraud
 70
     2
177
     3
291
     1
 70
    58
 90
        2
176
     1
 90
        2
176
     1
 90
        1
176
     1
 90
        2
176
     1
 40
0.6
176
     1
 40
30.0
176
     1
 62
     7
420
 16777215
176
     1
 90
        0
176
     1
 90
        0
176
     1
 62
     7
176
     1
 62
   257
176
     1
 90
        1
176
     1
 90
        1
176
     1
 40
1.0
176
     1
 90
        0
176
     1
 62
     7
176
     1
 40
1.0
176
     1
 90
        1
176
     1
 90
        6
176
     1
 90
        2
176
     1
 62
     7
176
     1
 90
        5
176
     1
 90
        0
176
     1
 90
        0
176
     1
290
     0
176
     1
 90
       13
176
     1
 40
0.0
176
     1
 90
        0
176
     1
290
     0
176
     1
290
     1
176
     1
290
     1
176
     1
290
     0
176
     1
290
     0
176
     1
290
     0
176
     1
290
     0
176
     1
290
     0
176
     1
290
     0
176
     1
 90
       50
176
     1
 40
0.0
176
     1
 40
1.0
176
     1
 90
        0
176
     1
 62
    18
420
        0
176
     1
 90
       50
176
     1
 90
        3
176
     1
 62
     5
420
      255
176
     1
290
     0
176
     1
 90
       50
176
     1
 90
       50
176
     1
 90
       50
176
     1
290
     0
176
     1
 90
       50
176
     1
 62
   256
176
     0
 40
1.0
176
     0
 90
        2
176
     1
  1
strokes_ogs.tif
176
     1
290
     0
176
     1
 40
1.0
176
     1
 40
1.0
176
     1
  0
VISUALSTYLE
  5
2D
102
{ACAD_REACTORS
330
29
102
}
330
29
100
AcDbVisualStyle
  2
GouraudWithEdges
 70
     3
177
     3
291
     1
 70
    58
 90
        2
176
     1
 90
        2
176
     1
 90
        1
176
     1
 90
        2
176
     1
 40
0.6
176
     1
 40
30.0
176
     1
 62
     7
420
 16777215
176
     1
 90
        1
176
     1
 90
        0
176
     1
 62
     7
176
     1
 62
   257
176
     1
 90
        1
176
     1
 90
        1
176
     1
 40
1.0
176
     1
 90
        0
176
     1
 62
   257
176
     1
 40
1.0
176
     1
 90
        1
176
     1
 90
        6
176
     1
 90
        2
176
     1
 62
     7
176
     1
 90
        5
176
     1
 90
        0
176
     1
 90
        0
176
     1
290
     0
176
     1
 90
       13
176
     1
 40
0.0
176
     1
 90
        0
176
     1
290
     0
176
     1
290
     1
176
     1
290
     1
176
     1
290
     0
176
     1
290
     0
176
     1
290
     0
176
     1
290
     0
176
     1
290
     0
176
     1
290
     0
176
     1
 90
       50
176
     1
 40
0.0
176
     1
 40
1.0
176
     1
 90
        0
176
     1
 62
    18
420
        0
176
     1
 90
       50
176
     1
 90
        3
176
     1
 62
     5
420
      255
176
     1
290
     0
176
     1
 90
       50
176
     1
 90
       50
176
     1
 90
       50
176
     1
290
     0
176
     1
 90
       50
176
     1
 62
   256
176
     0
 40
1.0
176
     0
 90
        2
176
     1
  1
strokes_ogs.tif
176
     1
290
     0
176
     1
 40
1.0
176
     1
 40
1.0
176
     1
  0
VISUALSTYLE
  5
31
102
{ACAD_REACTORS
330
29
102
}
330
29
100
AcDbVisualStyle
  2
Hidden
 70
     6
177
     3
291
     0
 70
    58
 90
        1
176
     1
 90
        2
176
     1
 90
        2
176
     1
 90
        0
176
     1
 40
0.6
176
     1
 40
30.0
176
     1
 62
     7
420
 16777215
176
     1
 90
        2
176
     1
 90
        2
176
     1
 62
     7
176
     1
 62
   257
176
     1
 90
        2
176
     1
 90
        1
176
     1
 40
40.0
176
     1
 90
        0
176
     1
 62
   257
176
     1
 40
1.0
176
     1
 90
        1
176
     1
 90
        6
176
     1
 90
        2
176
     1
 62
     7
176
     1
 90
        3
176
     1
 90
        0
176
     1
 90
        0
176
     1
290
     0
176
     1
 90
        1
176
     1
 40
0.0
176
     1
 90
        0
176
     1
290
     0
176
     1
290
     1
176
     1
290
     1
176
     1
290
     0
176
     1
290
     0
176
     1
290
     0
176
     1
290
     0
176
     1
290
     0
176
     1
290
     0
176
     1
 90
       50
176
     1
 40
0.0
176
     1
 40
1.0
176
     1
 90
        0
176
     1
 62
    18
420
        0
176
     1
 90
       50
176
     1
 90
        3
176
     1
 62
     5
420
      255
176
     1
290
     0
176
     1
 90
       50
176
     1
 90
       50
176
     1
 90
       50
176
     1
290
     0
176
     1
 90
       50
176
     1
 62
   256
176
     0
 40
1.0
176
     0
 90
        2
176
     1
  1
strokes_ogs.tif
176
     1
290
     0
176
     1
 40
1.0
176
     1
 40
1.0
176
     1
  0
VISUALSTYLE
  5
3F
102
{ACAD_REACTORS
330
29
102
}
330
29
100
AcDbVisualStyle
  2
JitterOff
 70
    20
177
     3
291
     1
 70
    58
 90
        2
176
     0
 90
        2
176
     0
 90
        0
176
     0
 90
        0
176
     0
 40
0.6
176
     0
 40
30.0
176
     0
 62
     7
420
 16777215
176
     0
 90
        1
176
     0
 90
        4
176
     0
 62
     7
176
     0
 62
   257
176
     0
 90
        1
176
     0
 90
        1
176
     0
 40
1.0
176
     0
 90
       10
176
     2
 62
     7
176
     0
 40
1.0
176
     0
 90
        1
176
     0
 90
        6
176
     0
 90
        2
176
     0
 62
     7
176
     0
 90
        5
176
     0
 90
        0
176
     0
 90
        0
176
     0
290
     0
176
     0
 90
        1
176
     0
 40
0.0
176
     0
 90
        0
176
     0
290
     0
176
     0
290
     1
176
     0
290
     1
176
     0
290
     0
176
     0
290
     0
176
     0
290
     0
176
     0
290
     0
176
     0
290
     0
176
     0
290
     0
176
     0
 90
       50
176
     0
 40
0.0
176
     0
 40
1.0
176
     0
 90
        0
176
     0
 62
    18
420
        0
176
     0
 90
       50
176
     0
 90
        3
176
     0
 62
     5
420
      255
176
     0
290
     0
176
     0
 90
       50
176
     0
 90
       50
176
     0
 90
       50
176
     0
290
     0
176
     0
 90
       50
176
     0
 62
   256
176
     0
 40
1.0
176
     0
 90
        2
176
     0
  1
strokes_ogs.tif
176
     0
290
     0
176
     0
 40
1.0
176
     0
 40
1.0
176
     0
  0
VISUALSTYLE
  5
37
102
{ACAD_REACTORS
330
29
102
}
330
29
100
AcDbVisualStyle
  2
Linepattern
 70
    14
177
     3
291
     1
 70
    58
 90
        2
176
     1
 90
        2
176
     1
 90
        0
176
     1
 90
        0
176
     1
 40
0.6
176
     1
 40
30.0
176
     1
 62
     7
420
 16777215
176
     1
 90
        1
176
     1
 90
        4
176
     1
 62
     7
176
     1
 62
   257
176
     1
 90
        7
176
     1
 90
        7
176
     1
 40
1.0
176
     1
 90
        8
176
     1
 62
     7
176
     1
 40
1.0
176
     1
 90
        1
176
     1
 90
        6
176
     1
 90
        2
176
     1
 62
     7
176
     1
 90
        5
176
     1
 90
        0
176
     1
 90
        0
176
     1
290
     0
176
     1
 90
        1
176
     1
 40
0.0
176
     1
 90
        0
176
     1
290
     0
176
     1
290
     1
176
     1
290
     1
176
     1
290
     0
176
     1
290
     0
176
     1
290
     0
176
     1
290
     0
176
     1
290
     0
176
     1
290
     0
176
     1
 90
       50
176
     1
 40
0.0
176
     1
 40
1.0
176
     1
 90
        0
176
     1
 62
    18
420
        0
176
     1
 90
       50
176
     1
 90
        3
176
     1
 62
     5
420
      255
176
     1
290
     0
176
     1
 90
       50
176
     1
 90
       50
176
     1
 90
       50
176
     1
290
     0
176
     1
 90
       50
176
     1
 62
   256
176
     0
 40
1.0
176
     0
 90
        2
176
     1
  1
strokes_ogs.tif
176
     1
290
     0
176
     1
 40
1.0
176
     1
 40
1.0
176
     1
  0
VISUALSTYLE
  5
40
102
{ACAD_REACTORS
330
29
102
}
330
29
100
AcDbVisualStyle
  2
OverhangOff
 70
    21
177
     3
291
     1
 70
    58
 90
        2
176
     0
 90
        2
176
     0
 90
        0
176
     0
 90
        0
176
     0
 40
0.6
176
     0
 40
30.0
176
     0
 62
     7
420
 16777215
176
     0
 90
        1
176
     0
 90
        4
176
     0
 62
     7
176
     0
 62
   257
176
     0
 90
        1
176
     0
 90
        1
176
     0
 40
1.0
176
     0
 90
        9
176
     2
 62
     7
176
     0
 40
1.0
176
     0
 90
        1
176
     0
 90
        6
176
     0
 90
        2
176
     0
 62
     7
176
     0
 90
        5
176
     0
 90
        0
176
     0
 90
        0
176
     0
290
     0
176
     0
 90
        1
176
     0
 40
0.0
176
     0
 90
        0
176
     0
290
     0
176
     0
290
     1
176
     0
290
     1
176
     0
290
     0
176
     0
290
     0
176
     0
290
     0
176
     0
290
     0
176
     0
290
     0
176
     0
290
     0
176
     0
 90
       50
176
     0
 40
0.0
176
     0
 40
1.0
176
     0
 90
        0
176
     0
 62
    18
420
        0
176
     0
 90
       50
176
     0
 90
        3
176
     0
 62
     5
420
      255
176
     0
290
     0
176
     0
 90
       50
176
     0
 90
       50
176
     0
 90
       50
176
     0
290
     0
176
     0
 90
       50
176
     0
 62
   256
176
     0
 40
1.0
176
     0
 90
        2
176
     0
  1
strokes_ogs.tif
176
     0
290
     0
176
     0
 40
1.0
176
     0
 40
1.0
176
     0
  0
VISUALSTYLE
  5
33
102
{ACAD_REACTORS
330
29
102
}
330
29
100
AcDbVisualStyle
  2
Realistic
 70
     8
177
     3
291
     0
 70
    58
 90
        2
176
     1
 90
        3
176
     1
 90
        0
176
     1
 90
        2
176
     1
 40
0.6
176
     1
 40
30.0
176
     1
 62
     7
420
 16777215
176
     1
 90
        0
176
     1
 90
        0
176
     1
 62
     7
176
     1
 62
   257
176
     1
 90
        1
176
     1
 90
        1
176
     1
 40
1.0
176
     1
 90
        8
176
     1
 62
   257
176
     1
 40
1.0
176
     1
 90
        1
176
     1
 90
        6
176
     1
 90
        2
176
     1
 62
     7
176
     1
 90
        3
176
     1
 90
        0
176
     1
 90
        0
176
     1
290
     0
176
     1
 90
       13
176
     1
 40
0.0
176
     1
 90
        0
176
     1
290
     0
176
     1
290
     1
176
     1
290
     1
176
     1
290
     0
176
     1
290
     0
176
     1
290
     0
176
     1
290
     0
176
     1
290
     0
176
     1
290
     0
176
     1
 90
       50
176
     1
 40
0.0
176
     1
 40
1.0
176
     1
 90
        0
176
     1
 62
    18
420
        0
176
     1
 90
       50
176
     1
 90
        3
176
     1
 62
     5
420
      255
176
     1
290
     0
176
     1
 90
       50
176
     1
 90
       50
176
     1
 90
       50
176
     1
290
     0
176
     1
 90
       50
176
     1
 62
   256
176
     0
 40
1.0
176
     0
 90
        2
176
     1
  1
strokes_ogs.tif
176
     1
290
     0
176
     1
 40
1.0
176
     1
 40
1.0
176
     1
  0
VISUALSTYLE
  5
3E
102
{ACAD_REACTORS
330
29
102
}
330
29
100
AcDbVisualStyle
  2
Shaded
 70
    27
177
     3
291
     0
 70
    58
 90
        2
176
     1
 90
        2
176
     1
 90
        1
176
     1
 90
        2
176
     1
 40
0.6
176
     1
 40
30.0
176
     1
 62
     7
420
 16777215
176
     1
 90
        0
176
     1
 90
        4
176
     1
 62
     7
176
     1
 62
   257
176
     1
 90
        1
176
     1
 90
        1
176
     1
 40
1.0
176
     1
 90
        8
176
     1
 62
   257
176
     1
 40
1.0
176
     1
 90
        1
176
     1
 90
        6
176
     1
 90
        2
176
     1
 62
     8
420
  7895160
176
     1
 90
        3
176
     1
 90
        0
176
     1
 90
        0
176
     1
290
     0
176
     1
 90
        5
176
     1
 40
0.0
176
     1
 90
        0
176
     1
290
     0
176
     1
290
     1
176
     1
290
     1
176
     1
290
     0
176
     1
290
     0
176
     1
290
     0
176
     1
290
     0
176
     1
290
     0
176
     1
290
     0
176
     1
 90
       50
176
     1
 40
0.0
176
     1
 40
1.0
176
     1
 90
        0
176
     1
 62
    18
420
        0
176
     1
 90
       50
176
     1
 90
        3
176
     1
 62
     5
420
      255
176
     1
290
     0
176
     1
 90
       50
176
     1
 90
       50
176
     1
 90
       50
176
     1
290
     0
176
     1
 90
       50
176
     1
 62
   256
176
     0
 40
1.0
176
     0
 90
        2
176
     1
  1
strokes_ogs.tif
176
     1
290
     0
176
     1
 40
1.0
176
     1
 40
1.0
176
     1
  0
VISUALSTYLE
  5
3D
102
{ACAD_REACTORS
330
29
102
}
330
29
100
AcDbVisualStyle
  2
Shaded with edges
 70
    26
177
     3
291
     0
 70
    58
 90
        2
176
     1
 90
        2
176
     1
 90
        1
176
     1
 90
        2
176
     1
 40
0.6
176
     1
 40
30.0
176
     1
 62
     7
420
 16777215
176
     1
 90
        1
176
     1
 90
        2
176
     1
 62
     7
176
     1
 62
   257
176
     1
 90
        2
176
     1
 90
        1
176
     1
 40
1.0
176
     1
 90
        8
176
     1
 62
   257
176
     1
 40
1.0
176
     1
 90
        1
176
     1
 90
        6
176
     1
 90
        2
176
     1
 62
     7
176
     1
 90
        3
176
     1
 90
        0
176
     1
 90
        0
176
     1
290
     0
176
     1
 90
        5
176
     1
 40
0.0
176
     1
 90
        0
176
     1
290
     0
176
     1
290
     1
176
     1
290
     1
176
     1
290
     0
176
     1
290
     0
176
     1
290
     0
176
     1
290
     0
176
     1
290
     0
176
     1
290
     0
176
     1
 90
       50
176
     1
 40
0.0
176
     1
 40
1.0
176
     1
 90
        0
176
     1
 62
    18
420
        0
176
     1
 90
       50
176
     1
 90
        3
176
     1
 62
     5
420
      255
176
     1
290
     0
176
     1
 90
       50
176
     1
 90
       50
176
     1
 90
       50
176
     1
290
     0
176
     1
 90
       50
176
     1
 62
   256
176
     0
 40
1.0
176
     0
 90
        2
176
     1
  1
strokes_ogs.tif
176
     1
290
     0
176
     1
 40
1.0
176
     1
 40
1.0
176
     1
  0
VISUALSTYLE
  5
3A
102
{ACAD_REACTORS
330
29
102
}
330
29
100
AcDbVisualStyle
  2
Shades of Gray
 70
    23
177
     3
291
     0
 70
    58
 90
        2
176
     1
 90
        2
176
     1
 90
        3
176
     1
 90
        0
176
     1
 40
0.6
176
     1
 40
30.0
176
     1
 62
     7
420
 16777215
176
     1
 90
        2
176
     1
 90
        2
176
     1
 62
     7
176
     1
 62
     7
176
     1
 90
        1
176
     1
 90
        1
176
     1
 40
40.0
176
     1
 90
        8
176
     1
 62
     7
176
     1
 40
1.0
176
     1
 90
        1
176
     1
 90
        6
176
     1
 90
        2
176
     1
 62
     7
176
     1
 90
        3
176
     1
 90
        0
176
     1
 90
        0
176
     1
290
     0
176
     1
 90
        1
176
     1
 40
0.0
176
     1
 90
        0
176
     1
290
     0
176
     1
290
     1
176
     1
290
     1
176
     1
290
     0
176
     1
290
     0
176
     1
290
     0
176
     1
290
     0
176
     1
290
     0
176
     1
290
     0
176
     1
 90
       50
176
     1
 40
0.0
176
     1
 40
1.0
176
     1
 90
        0
176
     1
 62
    18
420
        0
176
     1
 90
       50
176
     1
 90
        3
176
     1
 62
     5
420
      255
176
     1
290
     0
176
     1
 90
       50
176
     1
 90
       50
176
     1
 90
       50
176
     1
290
     0
176
     1
 90
       50
176
     1
 62
   256
176
     0
 40
1.0
176
     0
 90
        2
176
     1
  1
strokes_ogs.tif
176
     1
290
     0
176
     1
 40
1.0
176
     1
 40
1.0
176
     1
  0
VISUALSTYLE
  5
3B
102
{ACAD_REACTORS
330
29
102
}
330
29
100
AcDbVisualStyle
  2
Sketchy
 70
    24
177
     3
291
     0
 70
    58
 90
        1
176
     1
 90
        2
176
     1
 90
        2
176
     1
 90
        0
176
     1
 40
0.6
176
     1
 40
30.0
176
     1
 62
     7
420
 16777215
176
     1
 90
        2
176
     1
 90
        2
176
     1
 62
     7
176
     1
 62
     7
176
     1
 90
        1
176
     1
 90
        1
176
     1
 40
40.0
176
     1
 90
       11
176
     1
 62
     7
176
     1
 40
1.0
176
     1
 90
        1
176
     1
 90
        6
176
     1
 90
        2
176
     1
 62
     7
176
     1
 90
        6
176
     1
 90
        0
176
     1
 90
        0
176
     1
290
     0
176
     1
 90
        1
176
     1
 40
0.0
176
     1
 90
        0
176
     1
290
     0
176
     1
290
     1
176
     1
290
     1
176
     1
290
     0
176
     1
290
     0
176
     1
290
     0
176
     1
290
     0
176
     1
290
     0
176
     1
290
     0
176
     1
 90
       50
176
     1
 40
0.0
176
     1
 40
1.0
176
     1
 90
        0
176
     1
 62
    18
420
        0
176
     1
 90
       50
176
     1
 90
        3
176
     1
 62
     5
420
      255
176
     1
290
     0
176
     1
 90
       50
176
     1
 90
       50
176
     1
 90
       50
176
     1
290
     0
176
     1
 90
       50
176
     1
 62
   256
176
     0
 40
1.0
176
     0
 90
        2
176
     1
  1
strokes_ogs.tif
176
     1
290
     0
176
     1
 40
1.0
176
     1
 40
1.0
176
     1
  0
VISUALSTYLE
  5
36
102
{ACAD_REACTORS
330
29
102
}
330
29
100
AcDbVisualStyle
  2
Thicken
 70
    13
177
     3
291
     1
 70
    58
 90
        2
176
     1
 90
        2
176
     1
 90
        0
176
     1
 90
        0
176
     1
 40
0.6
176
     1
 40
30.0
176
     1
 62
     7
420
 16777215
176
     1
 90
        1
176
     1
 90
        4
176
     1
 62
     7
176
     1
 62
   257
176
     1
 90
        1
176
     1
 90
        1
176
     1
 40
1.0
176
     1
 90
       12
176
     1
 62
     7
176
     1
 40
1.0
176
     1
 90
        1
176
     1
 90
        6
176
     1
 90
        2
176
     1
 62
     7
176
     1
 90
        5
176
     1
 90
        0
176
     1
 90
        0
176
     1
290
     0
176
     1
 90
        1
176
     1
 40
0.0
176
     1
 90
        0
176
     1
290
     0
176
     1
290
     1
176
     1
290
     1
176
     1
290
     0
176
     1
290
     0
176
     1
290
     0
176
     1
290
     0
176
     1
290
     0
176
     1
290
     0
176
     1
 90
       50
176
     1
 40
0.0
176
     1
 40
1.0
176
     1
 90
        0
176
     1
 62
    18
420
        0
176
     1
 90
       50
176
     1
 90
        3
176
     1
 62
     5
420
      255
176
     1
290
     0
176
     1
 90
       50
176
     1
 90
       50
176
     1
 90
       50
176
     1
290
     0
176
     1
 90
       50
176
     1
 62
   256
176
     0
 40
1.0
176
     0
 90
        2
176
     1
  1
strokes_ogs.tif
176
     1
290
     0
176
     1
 40
1.0
176
     1
 40
1.0
176
     1
  0
VISUALSTYLE
  5
30
102
{ACAD_REACTORS
330
29
102
}
330
29
100
AcDbVisualStyle
  2
Wireframe
 70
     5
177
     3
291
     0
 70
    58
 90
        0
176
     1
 90
        2
176
     1
 90
        0
176
     1
 90
        0
176
     1
 40
0.6
176
     1
 40
30.0
176
     1
 62
     7
420
 16777215
176
     1
 90
        1
176
     1
 90
        4
176
     1
 62
     7
176
     1
 62
   257
176
     1
 90
        1
176
     1
 90
        1
176
     1
 40
1.0
176
     1
 90
        0
176
     1
 62
   257
176
     1
 40
1.0
176
     1
 90
        1
176
     1
 90
        6
176
     1
 90
        2
176
     1
 62
     7
176
     1
 90
        3
176
     1
 90
        0
176
     1
 90
        0
176
     1
290
     0
176
     1
 90
        1
176
     1
 40
0.0
176
     1
 90
        0
176
     1
290
     0
176
     1
290
     1
176
     1
290
     1
176
     1
290
     0
176
     1
290
     0
176
     1
290
     0
176
     1
290
     0
176
     1
290
     0
176
     1
290
     0
176
     1
 90
       50
176
     1
 40
0.0
176
     1
 40
1.0
176
     1
 90
        0
176
     1
 62
    18
420
        0
176
     1
 90
       50
176
     1
 90
        3
176
     1
 62
     5
420
      255
176
     1
290
     0
176
     1
 90
       50
176
     1
 90
       50
176
     1
 90
       50
176
     1
290
     0
176
     1
 90
       50
176
     1
 62
   256
176
     0
 40
1.0
176
     0
 90
        2
176
     1
  1
strokes_ogs.tif
176
     1
290
     0
176
     1
 40
1.0
176
     1
 40
1.0
176
     1
  0
VISUALSTYLE
  5
3C
102
{ACAD_REACTORS
330
29
102
}
330
29
100
AcDbVisualStyle
  2
X-Ray
 70
    25
177
     3
291
     0
 70
    58
 90
        2
176
     1
 90
        2
176
     1
 90
        1
176
     1
 90
        1
176
     1
 40
0.5
176
     1
 40
30.0
176
     1
 62
     7
420
 16777215
176
     1
 90
        1
176
     1
 90
        0
176
     1
 62
     7
176
     1
 62
   257
176
     1
 90
        1
176
     1
 90
        1
176
     1
 40
1.0
176
     1
 90
        8
176
     1
 62
     7
176
     1
 40
1.0
176
     1
 90
        1
176
     1
 90
        6
176
     1
 90
        2
176
     1
 62
     7
176
     1
 90
        3
176
     1
 90
        0
176
     1
 90
        0
176
     1
290
     0
176
     1
 90
       13
176
     1
 40
0.0
176
     1
 90
        0
176
     1
290
     0
176
     1
290
     1
176
     1
290
     1
176
     1
290
     0
176
     1
290
     0
176
     1
290
     0
176
     1
290
     0
176
     1
290
     0
176
     1
290
     0
176
     1
 90
       50
176
     1
 40
0.0
176
     1
 40
1.0
176
     1
 90
        0
176
     1
 62
    18
420
        0
176
     1
 90
       50
176
     1
 90
        3
176
     1
 62
     5
420
      255
176
     1
290
     0
176
     1
 90
       50
176
     1
 90
       50
176
     1
 90
       50
176
     1
290
     0
176
     1
 90
       50
176
     1
 62
   256
176
     0
 40
1.0
176
     0
 90
        2
176
     1
  1
strokes_ogs.tif
176
     1
290
     0
176
     1
 40
1.0
176
     1
 40
1.0
176
     1
  0
DICTIONARYVAR
  5
80
102
{ACAD_REACTORS
330
7B
102
}
330
7B
100
DictionaryVariables
280
     0
  1
1:1
  0
DICTIONARYVAR
  5
7D
102
{ACAD_REACTORS
330
7B
102
}
330
7B
100
DictionaryVariables
280
     0
  1
STANDARD
  0
DICTIONARYVAR
  5
7C
102
{ACAD_REACTORS
330
7B
102
}
330
7B
100
DictionaryVariables
280
     0
  1
STANDARD
  0
DICTIONARYVAR
  5
7E
102
{ACAD_REACTORS
330
7B
102
}
330
7B
100
DictionaryVariables
280
     0
  1
Imperial24
  0
DICTIONARYVAR
  5
7F
102
{ACAD_REACTORS
330
7B
102
}
330
7B
100
DictionaryVariables
280
     0
  1
Imperial24
  0
XRECORD
  5
16E
102
{ACAD_REACTORS
330
169
102
}
330
169
100
AcDbXrecord
280
     1
  1
BUILDING_ID
  1
prkl30 case
  1
FLOOR_ID
  1
1904824
  0
XRECORD
  5
16C
102
{ACAD_REACTORS
330
169
102
}
330
169
100
AcDbXrecord
280
     1
  1
-2000051
  1
Lines
  0
XRECORD
  5
16A
102
{ACAD_REACTORS
330
169
102
}
330
169
100
AcDbXrecord
280
     1
  1
088f6ea7-c8ac-4094-858e-b525683119e4
  0
XRECORD
  5
16D
102
{ACAD_REACTORS
330
169
102
}
330
169
100
AcDbXrecord
280
     1
  1
133798
  1
Muutosalue
  0
DICTIONARY
  5
1A
330
19
100
AcDbDictionary
280
     1
281
     1
  3
BUMPTILE
360
1C
  3
DIFFUSETILE
360
1B
  3
OPACITYTILE
360
1F
  3
REFLECTIONTILE
360
1E
  3
REFRACTIONTILE
360
20
  3
SPECULARTILE
360
1D
  0
DICTIONARY
  5
12
330
11
100
AcDbDictionary
280
     1
281
     1
  3
BUMPTILE
360
14
  3
DIFFUSETILE
360
13
  3
OPACITYTILE
360
17
  3
REFLECTIONTILE
360
16
  3
REFRACTIONTILE
360
18
  3
SPECULARTILE
360
15
  0
DICTIONARY
  5
22
330
21
100
AcDbDictionary
280
     1
281
     1
  3
BUMPTILE
360
24
  3
DIFFUSETILE
360
23
  3
OPACITYTILE
360
27
  3
REFLECTIONTILE
360
26
  3
REFRACTIONTILE
360
28
  3
SPECULARTILE
360
25
  0
DICTIONARY
  5
171
330
65
100
AcDbDictionary
280
     1
281
     1
  3
ACAD_ROUNDTRIP_2008_TABLESTYLE_CELLSTYLEMAP
360
172
  0
XRECORD
  5
1C
102
{ACAD_REACTORS
330
1A
102
}
330
1A
100
AcDbXrecord
280
     1
270
     1
271
     1
  0
XRECORD
  5
1B
102
{ACAD_REACTORS
330
1A
102
}
330
1A
100
AcDbXrecord
280
     1
270
     1
271
     1
  0
XRECORD
  5
1F
102
{ACAD_REACTORS
330
1A
102
}
330
1A
100
AcDbXrecord
280
     1
270
     1
271
     1
  0
XRECORD
  5
1E
102
{ACAD_REACTORS
330
1A
102
}
330
1A
100
AcDbXrecord
280
     1
270
     1
271
     1
  0
XRECORD
  5
20
102
{ACAD_REACTORS
330
1A
102
}
330
1A
100
AcDbXrecord
280
     1
270
     1
271
     1
  0
XRECORD
  5
1D
102
{ACAD_REACTORS
330
1A
102
}
330
1A
100
AcDbXrecord
280
     1
270
     1
271
     1
  0
XRECORD
  5
14
102
{ACAD_REACTORS
330
12
102
}
330
12
100
AcDbXrecord
280
     1
270
     1
271
     1
  0
XRECORD
  5
13
102
{ACAD_REACTORS
330
12
102
}
330
12
100
AcDbXrecord
280
     1
270
     1
271
     1
  0
XRECORD
  5
17
102
{ACAD_REACTORS
330
12
102
}
330
12
100
AcDbXrecord
280
     1
270
     1
271
     1
  0
XRECORD
  5
16
102
{ACAD_REACTORS
330
12
102
}
330
12
100
AcDbXrecord
280
     1
270
     1
271
     1
  0
XRECORD
  5
18
102
{ACAD_REACTORS
330
12
102
}
330
12
100
AcDbXrecord
280
     1
270
     1
271
     1
  0
XRECORD
  5
15
102
{ACAD_REACTORS
330
12
102
}
330
12
100
AcDbXrecord
280
     1
270
     1
271
     1
  0
XRECORD
  5
24
102
{ACAD_REACTORS
330
22
102
}
330
22
100
AcDbXrecord
280
     1
270
     1
271
     1
  0
XRECORD
  5
23
102
{ACAD_REACTORS
330
22
102
}
330
22
100
AcDbXrecord
280
     1
270
     1
271
     1
  0
XRECORD
  5
27
102
{ACAD_REACTORS
330
22
102
}
330
22
100
AcDbXrecord
280
     1
270
     1
271
     1
  0
XRECORD
  5
26
102
{ACAD_REACTORS
330
22
102
}
330
22
100
AcDbXrecord
280
     1
270
     1
271
     1
  0
XRECORD
  5
28
102
{ACAD_REACTORS
330
22
102
}
330
22
100
AcDbXrecord
280
     1
270
     1
271
     1
  0
XRECORD
  5
25
102
{ACAD_REACTORS
330
22
102
}
330
22
100
AcDbXrecord
280
     1
270
     1
271
     1
  0
CELLSTYLEMAP
  5
172
102
{ACAD_REACTORS
330
171
102
}
330
171
100
AcDbCellStyleMap
 90
        3
300
CELLSTYLE
  1
TABLEFORMAT_BEGIN
 90
        5
170
     1
 91
        0
 92
    32768
 62
   257
 93
        1
300
CONTENTFORMAT
  1
CONTENTFORMAT_BEGIN
 90
        0
 91
        0
 92
      512
 93
        0
300

 40
0.0
140
1.0
 94
        5
 62
     0
340
55
144
0.25
309
CONTENTFORMAT_END
171
     0
 94
        0
309
TABLEFORMAT_END
  1
CELLSTYLE_BEGIN
 90
        1
 91
        1
300
_TITLE
309
CELLSTYLE_END
300
CELLSTYLE
  1
TABLEFORMAT_BEGIN
 90
        5
170
     1
 91
        0
 92
        0
 62
   257
 93
        1
300
CONTENTFORMAT
  1
CONTENTFORMAT_BEGIN
 90
        0
 91
        0
 92
      512
 93
        0
300

 40
0.0
140
1.0
 94
        5
 62
     0
340
55
144
0.18
309
CONTENTFORMAT_END
171
     0
 94
        0
309
TABLEFORMAT_END
  1
CELLSTYLE_BEGIN
 90
        2
 91
        1
300
_HEADER
309
CELLSTYLE_END
300
CELLSTYLE
  1
TABLEFORMAT_BEGIN
 90
        5
170
     1
 91
        0
 92
        0
 62
   257
 93
        1
300
CONTENTFORMAT
  1
CONTENTFORMAT_BEGIN
 90
        0
 91
        0
 92
      512
 93
        0
300

 40
0.0
140
1.0
 94
        2
 62
     0
340
55
144
0.18
309
CONTENTFORMAT_END
171
     0
 94
        0
309
TABLEFORMAT_END
  1
CELLSTYLE_BEGIN
 90
        3
 91
        2
300
_DATA
309
CELLSTYLE_END
  0
ENDSEC
  0
EOF
